G75*
G70*
%OFA0B0*%
%FSLAX24Y24*%
%IPPOS*%
%LPD*%
%AMOC8*
5,1,8,0,0,1.08239X$1,22.5*
%
%ADD10C,0.0000*%
D10*
X026507Y002683D02*
X026507Y016069D01*
X026861Y015675D02*
X026863Y015716D01*
X026869Y015757D01*
X026879Y015797D01*
X026892Y015836D01*
X026909Y015873D01*
X026930Y015909D01*
X026954Y015943D01*
X026981Y015974D01*
X027010Y016002D01*
X027043Y016028D01*
X027077Y016050D01*
X027114Y016069D01*
X027152Y016084D01*
X027192Y016096D01*
X027232Y016104D01*
X027273Y016108D01*
X027315Y016108D01*
X027356Y016104D01*
X027396Y016096D01*
X027436Y016084D01*
X027474Y016069D01*
X027510Y016050D01*
X027545Y016028D01*
X027578Y016002D01*
X027607Y015974D01*
X027634Y015943D01*
X027658Y015909D01*
X027679Y015873D01*
X027696Y015836D01*
X027709Y015797D01*
X027719Y015757D01*
X027725Y015716D01*
X027727Y015675D01*
X027725Y015634D01*
X027719Y015593D01*
X027709Y015553D01*
X027696Y015514D01*
X027679Y015477D01*
X027658Y015441D01*
X027634Y015407D01*
X027607Y015376D01*
X027578Y015348D01*
X027545Y015322D01*
X027511Y015300D01*
X027474Y015281D01*
X027436Y015266D01*
X027396Y015254D01*
X027356Y015246D01*
X027315Y015242D01*
X027273Y015242D01*
X027232Y015246D01*
X027192Y015254D01*
X027152Y015266D01*
X027114Y015281D01*
X027078Y015300D01*
X027043Y015322D01*
X027010Y015348D01*
X026981Y015376D01*
X026954Y015407D01*
X026930Y015441D01*
X026909Y015477D01*
X026892Y015514D01*
X026879Y015553D01*
X026869Y015593D01*
X026863Y015634D01*
X026861Y015675D01*
X026507Y016069D02*
X026509Y016135D01*
X026514Y016201D01*
X026524Y016267D01*
X026537Y016332D01*
X026553Y016396D01*
X026573Y016459D01*
X026597Y016521D01*
X026624Y016581D01*
X026654Y016640D01*
X026688Y016697D01*
X026725Y016752D01*
X026765Y016805D01*
X026807Y016856D01*
X026853Y016904D01*
X026901Y016950D01*
X026952Y016992D01*
X027005Y017032D01*
X027060Y017069D01*
X027117Y017103D01*
X027176Y017133D01*
X027236Y017160D01*
X027298Y017184D01*
X027361Y017204D01*
X027425Y017220D01*
X027490Y017233D01*
X027556Y017243D01*
X027622Y017248D01*
X027688Y017250D01*
X059578Y017250D01*
X059644Y017248D01*
X059710Y017243D01*
X059776Y017233D01*
X059841Y017220D01*
X059905Y017204D01*
X059968Y017184D01*
X060030Y017160D01*
X060090Y017133D01*
X060149Y017103D01*
X060206Y017069D01*
X060261Y017032D01*
X060314Y016992D01*
X060365Y016950D01*
X060413Y016904D01*
X060459Y016856D01*
X060501Y016805D01*
X060541Y016752D01*
X060578Y016697D01*
X060612Y016640D01*
X060642Y016581D01*
X060669Y016521D01*
X060693Y016459D01*
X060713Y016396D01*
X060729Y016332D01*
X060742Y016267D01*
X060752Y016201D01*
X060757Y016135D01*
X060759Y016069D01*
X060759Y002683D01*
X060757Y002617D01*
X060752Y002551D01*
X060742Y002485D01*
X060729Y002420D01*
X060713Y002356D01*
X060693Y002293D01*
X060669Y002231D01*
X060642Y002171D01*
X060612Y002112D01*
X060578Y002055D01*
X060541Y002000D01*
X060501Y001947D01*
X060459Y001896D01*
X060413Y001848D01*
X060365Y001802D01*
X060314Y001760D01*
X060261Y001720D01*
X060206Y001683D01*
X060149Y001649D01*
X060090Y001619D01*
X060030Y001592D01*
X059968Y001568D01*
X059905Y001548D01*
X059841Y001532D01*
X059776Y001519D01*
X059710Y001509D01*
X059644Y001504D01*
X059578Y001502D01*
X027688Y001502D01*
X027622Y001504D01*
X027556Y001509D01*
X027490Y001519D01*
X027425Y001532D01*
X027361Y001548D01*
X027298Y001568D01*
X027236Y001592D01*
X027176Y001619D01*
X027117Y001649D01*
X027060Y001683D01*
X027005Y001720D01*
X026952Y001760D01*
X026901Y001802D01*
X026853Y001848D01*
X026807Y001896D01*
X026765Y001947D01*
X026725Y002000D01*
X026688Y002055D01*
X026654Y002112D01*
X026624Y002171D01*
X026597Y002231D01*
X026573Y002293D01*
X026553Y002356D01*
X026537Y002420D01*
X026524Y002485D01*
X026514Y002551D01*
X026509Y002617D01*
X026507Y002683D01*
X026861Y005832D02*
X026863Y005873D01*
X026869Y005914D01*
X026879Y005954D01*
X026892Y005993D01*
X026909Y006030D01*
X026930Y006066D01*
X026954Y006100D01*
X026981Y006131D01*
X027010Y006159D01*
X027043Y006185D01*
X027077Y006207D01*
X027114Y006226D01*
X027152Y006241D01*
X027192Y006253D01*
X027232Y006261D01*
X027273Y006265D01*
X027315Y006265D01*
X027356Y006261D01*
X027396Y006253D01*
X027436Y006241D01*
X027474Y006226D01*
X027510Y006207D01*
X027545Y006185D01*
X027578Y006159D01*
X027607Y006131D01*
X027634Y006100D01*
X027658Y006066D01*
X027679Y006030D01*
X027696Y005993D01*
X027709Y005954D01*
X027719Y005914D01*
X027725Y005873D01*
X027727Y005832D01*
X027725Y005791D01*
X027719Y005750D01*
X027709Y005710D01*
X027696Y005671D01*
X027679Y005634D01*
X027658Y005598D01*
X027634Y005564D01*
X027607Y005533D01*
X027578Y005505D01*
X027545Y005479D01*
X027511Y005457D01*
X027474Y005438D01*
X027436Y005423D01*
X027396Y005411D01*
X027356Y005403D01*
X027315Y005399D01*
X027273Y005399D01*
X027232Y005403D01*
X027192Y005411D01*
X027152Y005423D01*
X027114Y005438D01*
X027078Y005457D01*
X027043Y005479D01*
X027010Y005505D01*
X026981Y005533D01*
X026954Y005564D01*
X026930Y005598D01*
X026909Y005634D01*
X026892Y005671D01*
X026879Y005710D01*
X026869Y005750D01*
X026863Y005791D01*
X026861Y005832D01*
X059539Y005832D02*
X059541Y005873D01*
X059547Y005914D01*
X059557Y005954D01*
X059570Y005993D01*
X059587Y006030D01*
X059608Y006066D01*
X059632Y006100D01*
X059659Y006131D01*
X059688Y006159D01*
X059721Y006185D01*
X059755Y006207D01*
X059792Y006226D01*
X059830Y006241D01*
X059870Y006253D01*
X059910Y006261D01*
X059951Y006265D01*
X059993Y006265D01*
X060034Y006261D01*
X060074Y006253D01*
X060114Y006241D01*
X060152Y006226D01*
X060188Y006207D01*
X060223Y006185D01*
X060256Y006159D01*
X060285Y006131D01*
X060312Y006100D01*
X060336Y006066D01*
X060357Y006030D01*
X060374Y005993D01*
X060387Y005954D01*
X060397Y005914D01*
X060403Y005873D01*
X060405Y005832D01*
X060403Y005791D01*
X060397Y005750D01*
X060387Y005710D01*
X060374Y005671D01*
X060357Y005634D01*
X060336Y005598D01*
X060312Y005564D01*
X060285Y005533D01*
X060256Y005505D01*
X060223Y005479D01*
X060189Y005457D01*
X060152Y005438D01*
X060114Y005423D01*
X060074Y005411D01*
X060034Y005403D01*
X059993Y005399D01*
X059951Y005399D01*
X059910Y005403D01*
X059870Y005411D01*
X059830Y005423D01*
X059792Y005438D01*
X059756Y005457D01*
X059721Y005479D01*
X059688Y005505D01*
X059659Y005533D01*
X059632Y005564D01*
X059608Y005598D01*
X059587Y005634D01*
X059570Y005671D01*
X059557Y005710D01*
X059547Y005750D01*
X059541Y005791D01*
X059539Y005832D01*
X059539Y015675D02*
X059541Y015716D01*
X059547Y015757D01*
X059557Y015797D01*
X059570Y015836D01*
X059587Y015873D01*
X059608Y015909D01*
X059632Y015943D01*
X059659Y015974D01*
X059688Y016002D01*
X059721Y016028D01*
X059755Y016050D01*
X059792Y016069D01*
X059830Y016084D01*
X059870Y016096D01*
X059910Y016104D01*
X059951Y016108D01*
X059993Y016108D01*
X060034Y016104D01*
X060074Y016096D01*
X060114Y016084D01*
X060152Y016069D01*
X060188Y016050D01*
X060223Y016028D01*
X060256Y016002D01*
X060285Y015974D01*
X060312Y015943D01*
X060336Y015909D01*
X060357Y015873D01*
X060374Y015836D01*
X060387Y015797D01*
X060397Y015757D01*
X060403Y015716D01*
X060405Y015675D01*
X060403Y015634D01*
X060397Y015593D01*
X060387Y015553D01*
X060374Y015514D01*
X060357Y015477D01*
X060336Y015441D01*
X060312Y015407D01*
X060285Y015376D01*
X060256Y015348D01*
X060223Y015322D01*
X060189Y015300D01*
X060152Y015281D01*
X060114Y015266D01*
X060074Y015254D01*
X060034Y015246D01*
X059993Y015242D01*
X059951Y015242D01*
X059910Y015246D01*
X059870Y015254D01*
X059830Y015266D01*
X059792Y015281D01*
X059756Y015300D01*
X059721Y015322D01*
X059688Y015348D01*
X059659Y015376D01*
X059632Y015407D01*
X059608Y015441D01*
X059587Y015477D01*
X059570Y015514D01*
X059557Y015553D01*
X059547Y015593D01*
X059541Y015634D01*
X059539Y015675D01*
M02*
