G75*
G70*
%OFA0B0*%
%FSLAX24Y24*%
%IPPOS*%
%LPD*%
%AMOC8*
5,1,8,0,0,1.08239X$1,22.5*
%
%ADD10C,0.0540*%
%ADD11R,0.0551X0.0591*%
%ADD12R,0.1181X0.0315*%
%ADD13R,0.0394X0.0433*%
%ADD14R,0.0433X0.0394*%
%ADD15C,0.0540*%
%ADD16R,0.0850X0.0890*%
%ADD17R,0.0472X0.0472*%
%ADD18C,0.0240*%
%ADD19C,0.0160*%
%ADD20R,0.0416X0.0416*%
%ADD21C,0.0120*%
%ADD22C,0.0297*%
%ADD23C,0.0098*%
%ADD24C,0.0416*%
%ADD25C,0.0100*%
%ADD26C,0.0197*%
D10*
X041584Y015807D03*
X042584Y015807D03*
X043584Y015807D03*
X044584Y015807D03*
X045584Y015807D03*
X046584Y015807D03*
X047584Y015807D03*
X047584Y016807D03*
X046584Y016807D03*
X045584Y016807D03*
X044584Y016807D03*
X042584Y016807D03*
X041584Y016807D03*
D11*
X042485Y009791D03*
X043292Y009791D03*
X044099Y009791D03*
X045399Y009437D03*
X046206Y009437D03*
X044099Y008891D03*
X043292Y008891D03*
X042485Y008891D03*
D12*
X039197Y011802D03*
X039197Y012802D03*
X039197Y013802D03*
X039197Y014802D03*
X035417Y014802D03*
X035417Y013802D03*
X035417Y012802D03*
X035417Y011802D03*
X048917Y011702D03*
X048917Y012702D03*
X048917Y013702D03*
X048917Y014702D03*
X052697Y014702D03*
X052697Y013702D03*
X052697Y012702D03*
X052697Y011702D03*
D13*
X034907Y015567D03*
X034907Y016236D03*
D14*
X052372Y010702D03*
X053042Y010702D03*
D15*
X054507Y008472D02*
X054507Y007932D01*
X055507Y007932D02*
X055507Y008472D01*
X058007Y008472D02*
X058007Y007932D01*
X059007Y007932D02*
X059007Y008472D01*
X037507Y015932D02*
X037507Y016472D01*
X036507Y016472D02*
X036507Y015932D01*
X032707Y008972D02*
X032707Y008432D01*
X031707Y008432D02*
X031707Y008972D01*
X029707Y008972D02*
X029707Y008432D01*
X028707Y008432D02*
X028707Y008972D01*
D16*
X033307Y012442D03*
X033307Y014362D03*
X028507Y014762D03*
X028507Y012842D03*
X054707Y012342D03*
X054707Y014262D03*
X059207Y014262D03*
X059207Y012342D03*
D17*
X059907Y011102D03*
X054007Y011002D03*
X053807Y015702D03*
X040307Y016102D03*
X033907Y011102D03*
X028407Y011702D03*
D18*
X028407Y012742D01*
X033307Y012442D02*
X033907Y011102D01*
X034507Y011802D02*
X035417Y011802D01*
X039197Y011802D01*
X034507Y011802D02*
X033867Y012442D01*
X033307Y012442D01*
X048917Y014702D02*
X052697Y014702D01*
X053697Y015702D01*
X053807Y015702D01*
X054707Y015002D02*
X055007Y015302D01*
X055907Y015302D01*
X054707Y015002D02*
X054707Y014262D01*
X054067Y014262D01*
X053307Y013702D01*
X052697Y013702D01*
X053207Y012702D02*
X054007Y013302D01*
X058347Y013302D01*
X059207Y014262D01*
X059207Y015002D01*
X058907Y015302D01*
X057607Y015302D01*
X053207Y012702D02*
X052697Y012702D01*
X054707Y012342D02*
X054707Y011702D01*
X054007Y011002D01*
X059207Y011802D02*
X059907Y011102D01*
X059207Y011802D02*
X059207Y012342D01*
D19*
X026737Y002683D02*
X026749Y002534D01*
X026841Y002251D01*
X027016Y002010D01*
X027256Y001835D01*
X027539Y001743D01*
X027688Y001732D01*
X031499Y001732D01*
X031051Y002329D01*
X030993Y002387D01*
X030993Y002406D01*
X030981Y002422D01*
X030993Y002503D01*
X030993Y005537D01*
X031133Y005677D01*
X031330Y005677D01*
X032314Y005677D01*
X032454Y005537D01*
X032454Y005340D01*
X032454Y003766D01*
X032708Y003512D01*
X056526Y003512D01*
X056977Y003963D01*
X056977Y005341D01*
X057117Y005480D01*
X057314Y005677D01*
X057511Y005677D01*
X058692Y005677D01*
X058832Y005537D01*
X058832Y005537D01*
X059086Y005283D01*
X059086Y005283D01*
X059226Y005144D01*
X059226Y001994D01*
X059086Y001854D01*
X058964Y001732D01*
X059578Y001732D01*
X059727Y001743D01*
X060010Y001835D01*
X060250Y002010D01*
X060425Y002251D01*
X060517Y002534D01*
X060529Y002683D01*
X060529Y005452D01*
X060347Y005270D01*
X060104Y005169D01*
X059840Y005169D01*
X059596Y005270D01*
X059410Y005457D01*
X059309Y005701D01*
X059309Y005964D01*
X059410Y006208D01*
X059596Y006395D01*
X059840Y006495D01*
X060104Y006495D01*
X060347Y006395D01*
X060529Y006213D01*
X060529Y015295D01*
X060347Y015113D01*
X060104Y015012D01*
X059840Y015012D01*
X059596Y015113D01*
X059410Y015299D01*
X059309Y015543D01*
X059309Y015807D01*
X059410Y016051D01*
X059596Y016237D01*
X059840Y016338D01*
X060104Y016338D01*
X060347Y016237D01*
X060529Y016055D01*
X060529Y016069D01*
X060517Y016217D01*
X060425Y016500D01*
X060250Y016741D01*
X060010Y016916D01*
X059727Y017008D01*
X059578Y017020D01*
X047940Y017020D01*
X047994Y016889D01*
X047994Y016726D01*
X047932Y016575D01*
X047816Y016460D01*
X047666Y016397D01*
X047503Y016397D01*
X047352Y016460D01*
X047237Y016575D01*
X047174Y016726D01*
X047174Y016889D01*
X047229Y017020D01*
X046940Y017020D01*
X046994Y016889D01*
X046994Y016726D01*
X046932Y016575D01*
X046816Y016460D01*
X046666Y016397D01*
X046503Y016397D01*
X046352Y016460D01*
X046237Y016575D01*
X046174Y016726D01*
X046174Y016889D01*
X046229Y017020D01*
X045940Y017020D01*
X045994Y016889D01*
X045994Y016726D01*
X045932Y016575D01*
X045816Y016460D01*
X045666Y016397D01*
X045503Y016397D01*
X045352Y016460D01*
X045237Y016575D01*
X045174Y016726D01*
X045174Y016889D01*
X045229Y017020D01*
X044940Y017020D01*
X044994Y016889D01*
X044994Y016726D01*
X044932Y016575D01*
X044816Y016460D01*
X044666Y016397D01*
X044503Y016397D01*
X044352Y016460D01*
X044237Y016575D01*
X044174Y016726D01*
X044174Y016889D01*
X044229Y017020D01*
X042940Y017020D01*
X042994Y016889D01*
X042994Y016726D01*
X042932Y016575D01*
X042910Y016553D01*
X044007Y016553D01*
X044118Y016442D01*
X044314Y016245D01*
X044314Y016117D01*
X044352Y016155D01*
X044503Y016217D01*
X044666Y016217D01*
X044816Y016155D01*
X044932Y016039D01*
X044994Y015889D01*
X044994Y015726D01*
X044932Y015575D01*
X044816Y015460D01*
X044666Y015397D01*
X044503Y015397D01*
X044352Y015460D01*
X044314Y015497D01*
X044314Y015261D01*
X045877Y013699D01*
X047550Y013699D01*
X047661Y013588D01*
X047943Y013306D01*
X048021Y013306D01*
X048127Y013262D01*
X048209Y013181D01*
X048252Y013075D01*
X053272Y013075D01*
X053170Y012999D02*
X052048Y012999D01*
X051966Y012917D01*
X050384Y012917D01*
X050402Y012899D02*
X050304Y012997D01*
X050176Y013049D01*
X050038Y013049D01*
X049910Y012997D01*
X049812Y012899D01*
X049809Y012892D01*
X049648Y012892D01*
X049648Y012917D01*
X049830Y012917D01*
X049648Y012917D02*
X049566Y012999D01*
X048269Y012999D01*
X048252Y012983D01*
X048252Y013075D01*
X048156Y013234D02*
X053483Y013234D01*
X053345Y013404D02*
X053397Y013456D01*
X053420Y013462D01*
X053436Y013474D01*
X053454Y013481D01*
X053477Y013504D01*
X054142Y013994D01*
X054142Y013759D01*
X054224Y013677D01*
X055190Y013677D01*
X055272Y013759D01*
X055272Y014765D01*
X055190Y014847D01*
X054967Y014847D01*
X054967Y014894D01*
X055115Y015042D01*
X055559Y015042D01*
X055559Y015036D01*
X055641Y014954D01*
X056173Y014954D01*
X056255Y015036D01*
X056255Y015568D01*
X056173Y015649D01*
X055641Y015649D01*
X055559Y015568D01*
X055559Y015562D01*
X054955Y015562D01*
X054860Y015522D01*
X054787Y015449D01*
X054560Y015222D01*
X054487Y015149D01*
X054447Y015053D01*
X054447Y014847D01*
X054224Y014847D01*
X054142Y014765D01*
X054142Y014522D01*
X054087Y014522D01*
X054055Y014526D01*
X054035Y014522D01*
X054015Y014522D01*
X053986Y014509D01*
X053954Y014502D01*
X053938Y014490D01*
X053920Y014482D01*
X053897Y014459D01*
X053272Y013999D01*
X052048Y013999D01*
X051966Y013917D01*
X051966Y013486D01*
X052048Y013404D01*
X053345Y013404D01*
X053541Y013551D02*
X053930Y013551D01*
X053925Y013549D02*
X053892Y013541D01*
X053877Y013529D01*
X053860Y013522D01*
X053836Y013499D01*
X053170Y012999D01*
X053504Y012600D02*
X054142Y012600D01*
X054142Y012758D02*
X053716Y012758D01*
X053927Y012917D02*
X054214Y012917D01*
X054224Y012927D02*
X054142Y012845D01*
X054142Y011839D01*
X054224Y011757D01*
X054394Y011757D01*
X054016Y011378D01*
X053713Y011378D01*
X053631Y011296D01*
X053631Y010937D01*
X053616Y010922D01*
X053398Y010922D01*
X053398Y010957D01*
X053316Y011039D01*
X052767Y011039D01*
X052707Y010978D01*
X052647Y011039D01*
X052592Y011039D01*
X052592Y011286D01*
X052710Y011404D01*
X053345Y011404D01*
X053427Y011486D01*
X053427Y011917D01*
X053345Y011999D01*
X052048Y011999D01*
X051966Y011917D01*
X051966Y011486D01*
X052048Y011404D01*
X052152Y011404D01*
X052152Y011039D01*
X052098Y011039D01*
X052016Y010957D01*
X052016Y010579D01*
X050328Y008892D01*
X050217Y008780D01*
X050217Y007391D01*
X048744Y006178D01*
X048673Y006249D01*
X048141Y006249D01*
X048059Y006168D01*
X048059Y005636D01*
X048141Y005554D01*
X048673Y005554D01*
X048755Y005636D01*
X048755Y005706D01*
X048767Y005705D01*
X048775Y005712D01*
X048786Y005712D01*
X048835Y005761D01*
X050475Y007112D01*
X050486Y007112D01*
X050535Y007161D01*
X050589Y007205D01*
X050590Y007216D01*
X050597Y007223D01*
X050597Y007293D01*
X050604Y007362D01*
X050597Y007370D01*
X050597Y008623D01*
X052339Y010365D01*
X052647Y010365D01*
X052707Y010425D01*
X052767Y010365D01*
X053316Y010365D01*
X053398Y010447D01*
X053398Y010482D01*
X053616Y010482D01*
X053798Y010482D01*
X053942Y010626D01*
X054301Y010626D01*
X054383Y010707D01*
X054383Y011010D01*
X054927Y011554D01*
X054967Y011650D01*
X054967Y011753D01*
X054967Y011757D01*
X055190Y011757D01*
X055272Y011839D01*
X055272Y012845D01*
X055190Y012927D01*
X054224Y012927D01*
X054094Y013042D02*
X058303Y013042D01*
X058310Y013039D01*
X058354Y013042D01*
X058399Y013042D01*
X058406Y013045D01*
X058413Y013045D01*
X058453Y013064D01*
X058494Y013081D01*
X058500Y013087D01*
X058506Y013090D01*
X058536Y013123D01*
X058567Y013154D01*
X058570Y013161D01*
X059032Y013677D01*
X059690Y013677D01*
X059772Y013759D01*
X059772Y014765D01*
X059690Y014847D01*
X059467Y014847D01*
X059467Y015053D01*
X059427Y015149D01*
X059354Y015222D01*
X059054Y015522D01*
X058959Y015562D01*
X058855Y015562D01*
X057955Y015562D01*
X057955Y015568D01*
X057873Y015649D01*
X057341Y015649D01*
X057259Y015568D01*
X057259Y015036D01*
X057341Y014954D01*
X057873Y014954D01*
X057955Y015036D01*
X057955Y015042D01*
X058799Y015042D01*
X058947Y014894D01*
X058947Y014847D01*
X058724Y014847D01*
X058642Y014765D01*
X058642Y014021D01*
X058231Y013562D01*
X054025Y013562D01*
X053993Y013566D01*
X053974Y013562D01*
X053955Y013562D01*
X053925Y013549D01*
X053756Y013710D02*
X054191Y013710D01*
X054142Y013868D02*
X053971Y013868D01*
X053525Y014185D02*
X051849Y014185D01*
X051855Y014171D02*
X051802Y014299D01*
X051704Y014397D01*
X051595Y014442D01*
X052011Y014442D01*
X052048Y014404D01*
X053345Y014404D01*
X053427Y014486D01*
X053427Y014917D01*
X053354Y014991D01*
X053688Y015326D01*
X054101Y015326D01*
X054183Y015407D01*
X054183Y015996D01*
X054101Y016078D01*
X053513Y016078D01*
X053431Y015996D01*
X053431Y015803D01*
X052627Y014999D01*
X052048Y014999D01*
X052011Y014962D01*
X049603Y014962D01*
X049566Y014999D01*
X049532Y014999D01*
X049532Y015043D01*
X049488Y015150D01*
X049407Y015231D01*
X049301Y015275D01*
X049186Y015275D01*
X049096Y015237D01*
X049005Y015275D01*
X048891Y015275D01*
X048784Y015231D01*
X048703Y015150D01*
X048659Y015043D01*
X048659Y014999D01*
X048269Y014999D01*
X048187Y014917D01*
X048187Y014486D01*
X048269Y014404D01*
X049566Y014404D01*
X049603Y014442D01*
X051419Y014442D01*
X051310Y014397D01*
X051212Y014299D01*
X051209Y014292D01*
X050086Y014292D01*
X049928Y014292D01*
X049601Y013964D01*
X049566Y013999D01*
X048269Y013999D01*
X048187Y013917D01*
X048187Y013486D01*
X048269Y013404D01*
X049566Y013404D01*
X049648Y013486D01*
X049648Y013512D01*
X049686Y013512D01*
X049797Y013623D01*
X050086Y013912D01*
X051209Y013912D01*
X051212Y013905D01*
X051310Y013807D01*
X051438Y013754D01*
X051576Y013754D01*
X051704Y013807D01*
X051802Y013905D01*
X051855Y014033D01*
X051855Y014171D01*
X051852Y014027D02*
X053310Y014027D01*
X053427Y014502D02*
X053957Y014502D01*
X054142Y014661D02*
X053427Y014661D01*
X053427Y014819D02*
X054197Y014819D01*
X054447Y014978D02*
X053367Y014978D01*
X053499Y015136D02*
X054481Y015136D01*
X054560Y015222D02*
X054560Y015222D01*
X054633Y015295D02*
X053658Y015295D01*
X053240Y015612D02*
X047947Y015612D01*
X047932Y015575D02*
X047994Y015726D01*
X047994Y015889D01*
X047932Y016039D01*
X047816Y016155D01*
X047666Y016217D01*
X047503Y016217D01*
X047352Y016155D01*
X047237Y016039D01*
X047174Y015889D01*
X047174Y015726D01*
X047237Y015575D01*
X047352Y015460D01*
X047503Y015397D01*
X047666Y015397D01*
X047816Y015460D01*
X047932Y015575D01*
X047802Y015454D02*
X053081Y015454D01*
X052922Y015295D02*
X044314Y015295D01*
X044314Y015454D02*
X044367Y015454D01*
X044439Y015136D02*
X048698Y015136D01*
X048247Y014978D02*
X044598Y014978D01*
X044756Y014819D02*
X048187Y014819D01*
X048187Y014661D02*
X044915Y014661D01*
X045073Y014502D02*
X048187Y014502D01*
X048187Y013868D02*
X047138Y013868D01*
X047126Y013838D02*
X047170Y013944D01*
X047170Y014059D01*
X047126Y014165D01*
X047045Y014246D01*
X046939Y014290D01*
X046824Y014290D01*
X046718Y014246D01*
X046636Y014165D01*
X046592Y014059D01*
X046592Y013944D01*
X046636Y013838D01*
X046718Y013757D01*
X046824Y013713D01*
X046939Y013713D01*
X047045Y013757D01*
X047126Y013838D01*
X047170Y014027D02*
X049663Y014027D01*
X049822Y014185D02*
X047106Y014185D01*
X046656Y014185D02*
X045390Y014185D01*
X045232Y014344D02*
X051257Y014344D01*
X051757Y014344D02*
X053740Y014344D01*
X055051Y014978D02*
X055617Y014978D01*
X055217Y014819D02*
X058697Y014819D01*
X058642Y014661D02*
X055272Y014661D01*
X055272Y014502D02*
X058642Y014502D01*
X058642Y014344D02*
X055272Y014344D01*
X055272Y014185D02*
X058642Y014185D01*
X058642Y014027D02*
X055272Y014027D01*
X055272Y013868D02*
X058505Y013868D01*
X058363Y013710D02*
X055223Y013710D01*
X053695Y013392D02*
X047856Y013392D01*
X047698Y013551D02*
X048187Y013551D01*
X048187Y013710D02*
X045866Y013710D01*
X045707Y013868D02*
X046624Y013868D01*
X046592Y014027D02*
X045549Y014027D01*
X045331Y013710D02*
X039927Y013710D01*
X039927Y013586D02*
X039927Y014017D01*
X039845Y014099D01*
X038548Y014099D01*
X038466Y014017D01*
X038466Y013992D01*
X038405Y013992D01*
X038402Y013999D01*
X038304Y014097D01*
X038176Y014149D01*
X038038Y014149D01*
X037910Y014097D01*
X037812Y013999D01*
X037797Y013962D01*
X037797Y015238D01*
X037806Y015251D01*
X037797Y015315D01*
X037797Y015380D01*
X037786Y015391D01*
X037756Y015601D01*
X037855Y015699D01*
X037917Y015850D01*
X037917Y016553D01*
X037855Y016704D01*
X037739Y016819D01*
X037589Y016882D01*
X037426Y016882D01*
X037275Y016819D01*
X037159Y016704D01*
X037097Y016553D01*
X037097Y015850D01*
X037159Y015699D01*
X037275Y015584D01*
X037381Y015540D01*
X037417Y015288D01*
X037417Y012895D01*
X037407Y012885D01*
X037407Y012719D01*
X037524Y012602D01*
X038466Y012602D01*
X038466Y012586D01*
X038548Y012504D01*
X039845Y012504D01*
X039927Y012586D01*
X039927Y013017D01*
X039845Y013099D01*
X038548Y013099D01*
X038466Y013017D01*
X038466Y013002D01*
X037797Y013002D01*
X037797Y013641D01*
X037812Y013605D01*
X037910Y013507D01*
X038038Y013454D01*
X038176Y013454D01*
X038304Y013507D01*
X038402Y013605D01*
X038405Y013612D01*
X038466Y013612D01*
X038466Y013586D01*
X038548Y013504D01*
X039845Y013504D01*
X039927Y013586D01*
X039892Y013551D02*
X040806Y013551D01*
X040812Y013558D02*
X040731Y013476D01*
X040687Y013370D01*
X040687Y013255D01*
X040731Y013149D01*
X040812Y013068D01*
X040815Y013067D01*
X040812Y013065D01*
X040731Y012984D01*
X040687Y012878D01*
X040687Y012763D01*
X040731Y012657D01*
X040812Y012576D01*
X040815Y012575D01*
X040812Y012573D01*
X040731Y012492D01*
X040687Y012386D01*
X040687Y012271D01*
X040731Y012165D01*
X040812Y012084D01*
X040815Y012082D01*
X040812Y012081D01*
X040731Y012000D01*
X040687Y011894D01*
X040687Y011779D01*
X040731Y011673D01*
X040812Y011592D01*
X040815Y011590D01*
X040812Y011589D01*
X040731Y011508D01*
X040687Y011402D01*
X040687Y011287D01*
X040731Y011181D01*
X040812Y011099D01*
X040918Y011056D01*
X041033Y011056D01*
X041139Y011099D01*
X041195Y011155D01*
X042078Y011155D01*
X042263Y010971D01*
X042291Y010943D01*
X042179Y010943D01*
X042123Y010998D01*
X042017Y011042D01*
X041902Y011042D01*
X041796Y010998D01*
X041715Y010917D01*
X041671Y010811D01*
X041671Y010696D01*
X041715Y010590D01*
X041796Y010509D01*
X041902Y010465D01*
X042017Y010465D01*
X042123Y010509D01*
X042179Y010564D01*
X046704Y010564D01*
X048956Y008313D01*
X049066Y008202D01*
X049123Y008202D01*
X049178Y008147D01*
X049284Y008103D01*
X049399Y008103D01*
X049505Y008147D01*
X049586Y008228D01*
X049630Y008334D01*
X049630Y008449D01*
X049586Y008555D01*
X049505Y008636D01*
X049399Y008680D01*
X049284Y008680D01*
X049178Y008636D01*
X049168Y008636D01*
X049173Y008631D02*
X048914Y008890D01*
X049005Y008890D01*
X049112Y008934D01*
X049193Y009015D01*
X049237Y009121D01*
X049237Y009236D01*
X049193Y009342D01*
X049130Y009406D01*
X049186Y009382D01*
X049301Y009382D01*
X049407Y009426D01*
X049488Y009507D01*
X049532Y009614D01*
X049532Y009728D01*
X049488Y009835D01*
X049407Y009916D01*
X049301Y009960D01*
X049222Y009960D01*
X048616Y010565D01*
X048718Y010607D01*
X048799Y010689D01*
X048843Y010795D01*
X048843Y010910D01*
X048799Y011016D01*
X048718Y011097D01*
X048612Y011141D01*
X048533Y011141D01*
X048310Y011364D01*
X048917Y011364D01*
X048917Y011701D01*
X048917Y011701D01*
X048147Y011701D01*
X048147Y011527D01*
X048027Y011647D01*
X048042Y011647D01*
X048139Y011744D01*
X048147Y011744D01*
X048147Y011702D01*
X048917Y011702D01*
X048917Y012039D01*
X048449Y012039D01*
X048449Y012091D01*
X048405Y012197D01*
X048324Y012278D01*
X048218Y012322D01*
X048103Y012322D01*
X047997Y012278D01*
X047916Y012197D01*
X047872Y012091D01*
X047872Y012026D01*
X047183Y012026D01*
X047224Y012066D01*
X047268Y012173D01*
X047268Y012288D01*
X047224Y012394D01*
X047143Y012475D01*
X047037Y012519D01*
X046922Y012519D01*
X046816Y012475D01*
X046735Y012394D01*
X046691Y012288D01*
X046691Y012222D01*
X044400Y012222D01*
X044315Y012307D01*
X044315Y012386D01*
X044272Y012492D01*
X044190Y012573D01*
X044084Y012617D01*
X043969Y012617D01*
X043863Y012573D01*
X043782Y012492D01*
X043738Y012386D01*
X043738Y012271D01*
X043782Y012165D01*
X043863Y012084D01*
X043969Y012040D01*
X044048Y012040D01*
X044062Y012026D01*
X042924Y012026D01*
X041448Y013502D01*
X041291Y013502D01*
X041195Y013502D01*
X041139Y013558D01*
X041033Y013601D01*
X040918Y013601D01*
X040812Y013558D01*
X040696Y013392D02*
X037797Y013392D01*
X037797Y013234D02*
X040696Y013234D01*
X040805Y013075D02*
X039869Y013075D01*
X039927Y012917D02*
X040703Y012917D01*
X040689Y012758D02*
X039927Y012758D01*
X039927Y012600D02*
X040788Y012600D01*
X040710Y012441D02*
X040136Y012441D01*
X040086Y012492D02*
X039928Y012492D01*
X037670Y012492D01*
X037397Y012697D01*
X037397Y014480D01*
X037286Y014592D01*
X036886Y014992D01*
X036728Y014992D01*
X036148Y014992D01*
X036148Y015017D01*
X036066Y015099D01*
X035127Y015099D01*
X035127Y015211D01*
X035162Y015211D01*
X035244Y015293D01*
X035244Y015842D01*
X035184Y015902D01*
X035244Y015962D01*
X035244Y016511D01*
X035162Y016593D01*
X034652Y016593D01*
X034570Y016511D01*
X034570Y016402D01*
X034355Y016402D01*
X034355Y016468D01*
X034273Y016549D01*
X033741Y016549D01*
X033659Y016468D01*
X033659Y015936D01*
X033741Y015854D01*
X034273Y015854D01*
X034355Y015936D01*
X034355Y016002D01*
X034570Y016002D01*
X034570Y015962D01*
X034630Y015902D01*
X034570Y015842D01*
X034570Y015293D01*
X034652Y015211D01*
X034687Y015211D01*
X034687Y015093D01*
X034687Y015018D01*
X034687Y015017D01*
X034687Y014586D01*
X034769Y014504D01*
X036066Y014504D01*
X036148Y014586D01*
X036148Y014612D01*
X036728Y014612D01*
X037017Y014323D01*
X037017Y012665D01*
X037008Y012653D01*
X037017Y012588D01*
X037017Y012523D01*
X037028Y012512D01*
X037030Y012497D01*
X037082Y012458D01*
X037128Y012412D01*
X037144Y012412D01*
X037482Y012158D01*
X037528Y012112D01*
X037544Y012112D01*
X037556Y012103D01*
X037621Y012112D01*
X039928Y012112D01*
X040117Y011923D01*
X040117Y011280D01*
X039928Y011092D01*
X039586Y011092D01*
X039428Y011092D01*
X039228Y010892D01*
X039117Y010780D01*
X039117Y008449D01*
X039041Y008449D01*
X038959Y008368D01*
X038959Y007836D01*
X039041Y007754D01*
X039573Y007754D01*
X039655Y007836D01*
X039655Y008368D01*
X039573Y008449D01*
X039497Y008449D01*
X039497Y010623D01*
X039586Y010712D01*
X040086Y010712D01*
X040197Y010823D01*
X040497Y011123D01*
X040497Y011280D01*
X040497Y012080D01*
X040386Y012192D01*
X040086Y012492D01*
X040295Y012283D02*
X040687Y012283D01*
X040772Y012124D02*
X040453Y012124D01*
X040497Y011966D02*
X040717Y011966D01*
X040687Y011807D02*
X040497Y011807D01*
X040497Y011649D02*
X040755Y011649D01*
X040723Y011490D02*
X040497Y011490D01*
X040497Y011331D02*
X040687Y011331D01*
X040739Y011173D02*
X040497Y011173D01*
X040388Y011014D02*
X041835Y011014D01*
X041690Y010856D02*
X040230Y010856D01*
X040010Y011173D02*
X034283Y011173D01*
X034283Y011331D02*
X040117Y011331D01*
X040117Y011490D02*
X034018Y011490D01*
X034023Y011478D02*
X033834Y011901D01*
X033872Y011939D01*
X033872Y012069D01*
X034287Y011654D01*
X034360Y011581D01*
X034455Y011542D01*
X034731Y011542D01*
X034769Y011504D01*
X036066Y011504D01*
X036103Y011542D01*
X038511Y011542D01*
X038548Y011504D01*
X039845Y011504D01*
X039927Y011586D01*
X039927Y012017D01*
X039845Y012099D01*
X038548Y012099D01*
X038511Y012062D01*
X036103Y012062D01*
X036066Y012099D01*
X034769Y012099D01*
X034731Y012062D01*
X034615Y012062D01*
X034014Y012662D01*
X033919Y012702D01*
X033872Y012702D01*
X033872Y012945D01*
X033790Y013027D01*
X032824Y013027D01*
X032742Y012945D01*
X032742Y011939D01*
X032824Y011857D01*
X033284Y011857D01*
X033531Y011306D01*
X033531Y010807D01*
X033613Y010726D01*
X034201Y010726D01*
X034283Y010807D01*
X034283Y011396D01*
X034201Y011478D01*
X034023Y011478D01*
X033947Y011649D02*
X034293Y011649D01*
X034134Y011807D02*
X033876Y011807D01*
X033872Y011966D02*
X033976Y011966D01*
X034552Y012124D02*
X037516Y012124D01*
X037316Y012283D02*
X034394Y012283D01*
X034235Y012441D02*
X037099Y012441D01*
X037015Y012600D02*
X036148Y012600D01*
X036148Y012586D02*
X036148Y013017D01*
X036066Y013099D01*
X034898Y013099D01*
X034357Y013563D01*
X034298Y013622D01*
X034288Y013622D01*
X034281Y013628D01*
X034199Y013622D01*
X030398Y013622D01*
X029072Y014948D01*
X029072Y015265D01*
X028990Y015347D01*
X028827Y015347D01*
X028827Y015511D01*
X028998Y015682D01*
X029259Y015682D01*
X029259Y015636D01*
X029341Y015554D01*
X029873Y015554D01*
X029955Y015636D01*
X029955Y016168D01*
X029873Y016249D01*
X029341Y016249D01*
X029259Y016168D01*
X029259Y016122D01*
X028998Y016122D01*
X028816Y016122D01*
X028516Y015822D01*
X028387Y015693D01*
X028387Y015347D01*
X028024Y015347D01*
X027942Y015265D01*
X027942Y014259D01*
X028024Y014177D01*
X028990Y014177D01*
X029072Y014259D01*
X029072Y014326D01*
X030087Y013311D01*
X030216Y013182D01*
X034126Y013182D01*
X034687Y012701D01*
X034687Y012586D01*
X034769Y012504D01*
X036066Y012504D01*
X036148Y012586D01*
X036148Y012758D02*
X037017Y012758D01*
X037017Y012917D02*
X036148Y012917D01*
X036090Y013075D02*
X037017Y013075D01*
X037017Y013234D02*
X034741Y013234D01*
X034556Y013392D02*
X037017Y013392D01*
X037017Y013551D02*
X036113Y013551D01*
X036148Y013586D02*
X036148Y014017D01*
X036066Y014099D01*
X034769Y014099D01*
X034745Y014075D01*
X034527Y014293D01*
X034398Y014422D01*
X033872Y014422D01*
X033872Y014865D01*
X033790Y014947D01*
X033527Y014947D01*
X033527Y015393D01*
X033398Y015522D01*
X032798Y016122D01*
X032616Y016122D01*
X032255Y016122D01*
X032255Y016168D01*
X032173Y016249D01*
X031641Y016249D01*
X031559Y016168D01*
X031559Y015636D01*
X031641Y015554D01*
X032173Y015554D01*
X032255Y015636D01*
X032255Y015682D01*
X032616Y015682D01*
X033087Y015211D01*
X033087Y014947D01*
X032824Y014947D01*
X032742Y014865D01*
X032742Y013859D01*
X032824Y013777D01*
X033790Y013777D01*
X033872Y013859D01*
X033872Y013982D01*
X034216Y013982D01*
X034616Y013582D01*
X034691Y013582D01*
X034769Y013504D01*
X036066Y013504D01*
X036148Y013586D01*
X036148Y013710D02*
X037017Y013710D01*
X037017Y013868D02*
X036148Y013868D01*
X036138Y014027D02*
X037017Y014027D01*
X037017Y014185D02*
X034635Y014185D01*
X034476Y014344D02*
X036996Y014344D01*
X036838Y014502D02*
X033872Y014502D01*
X033872Y014661D02*
X034687Y014661D01*
X034687Y014819D02*
X033872Y014819D01*
X033527Y014978D02*
X034687Y014978D01*
X034687Y015136D02*
X033527Y015136D01*
X033527Y015295D02*
X034570Y015295D01*
X034570Y015454D02*
X033466Y015454D01*
X033307Y015302D02*
X032707Y015902D01*
X031907Y015902D01*
X031559Y015929D02*
X029955Y015929D01*
X029955Y015771D02*
X031559Y015771D01*
X031583Y015612D02*
X029931Y015612D01*
X029607Y015902D02*
X028907Y015902D01*
X028607Y015602D01*
X028607Y014862D01*
X028507Y014762D01*
X028947Y014762D01*
X030307Y013402D01*
X034207Y013402D01*
X034907Y012802D01*
X035417Y012802D01*
X034687Y012600D02*
X034077Y012600D01*
X033872Y012758D02*
X034620Y012758D01*
X034435Y012917D02*
X033872Y012917D01*
X034250Y013075D02*
X029072Y013075D01*
X029072Y012917D02*
X032742Y012917D01*
X032742Y012758D02*
X029072Y012758D01*
X029072Y012600D02*
X032742Y012600D01*
X032742Y012441D02*
X029072Y012441D01*
X029072Y012339D02*
X029072Y013345D01*
X028990Y013427D01*
X028024Y013427D01*
X027942Y013345D01*
X027942Y012339D01*
X028024Y012257D01*
X028147Y012257D01*
X028147Y012078D01*
X028113Y012078D01*
X028031Y011996D01*
X028031Y011407D01*
X028113Y011326D01*
X028701Y011326D01*
X028783Y011407D01*
X028783Y011996D01*
X028701Y012078D01*
X028667Y012078D01*
X028667Y012257D01*
X028990Y012257D01*
X029072Y012339D01*
X029016Y012283D02*
X032742Y012283D01*
X032742Y012124D02*
X028667Y012124D01*
X028783Y011966D02*
X032742Y011966D01*
X033306Y011807D02*
X028783Y011807D01*
X028783Y011649D02*
X033377Y011649D01*
X033448Y011490D02*
X031484Y011490D01*
X031476Y011508D02*
X031395Y011589D01*
X031289Y011633D01*
X031174Y011633D01*
X031068Y011589D01*
X030987Y011508D01*
X030943Y011402D01*
X030943Y011393D01*
X030838Y011288D01*
X030733Y011393D01*
X030733Y011402D01*
X030689Y011508D01*
X030608Y011589D01*
X030502Y011633D01*
X030387Y011633D01*
X030281Y011589D01*
X030199Y011508D01*
X030155Y011402D01*
X030155Y011287D01*
X030199Y011181D01*
X030281Y011099D01*
X030387Y011056D01*
X030396Y011056D01*
X030403Y011049D01*
X030403Y007577D01*
X030396Y007571D01*
X030352Y007465D01*
X030352Y007350D01*
X030396Y007244D01*
X030477Y007162D01*
X030583Y007119D01*
X030698Y007119D01*
X030804Y007162D01*
X030886Y007244D01*
X030930Y007350D01*
X030930Y007465D01*
X030886Y007571D01*
X030879Y007577D01*
X030879Y007619D01*
X030936Y007563D01*
X031330Y007169D01*
X031455Y007169D01*
X031462Y007162D01*
X031568Y007119D01*
X031683Y007119D01*
X031789Y007162D01*
X031870Y007244D01*
X031914Y007350D01*
X031914Y007465D01*
X031870Y007571D01*
X031789Y007652D01*
X031683Y007696D01*
X031568Y007696D01*
X031503Y007669D01*
X031273Y007900D01*
X031273Y011049D01*
X031280Y011056D01*
X031289Y011056D01*
X031395Y011099D01*
X031476Y011181D01*
X031520Y011287D01*
X031520Y011402D01*
X031476Y011508D01*
X031520Y011331D02*
X033519Y011331D01*
X033531Y011173D02*
X031468Y011173D01*
X031273Y011014D02*
X033531Y011014D01*
X033531Y010856D02*
X031273Y010856D01*
X031273Y010697D02*
X039117Y010697D01*
X039117Y010539D02*
X031273Y010539D01*
X031273Y010380D02*
X039117Y010380D01*
X039117Y010222D02*
X031273Y010222D01*
X031273Y010063D02*
X039117Y010063D01*
X039117Y009905D02*
X031273Y009905D01*
X031273Y009746D02*
X039117Y009746D01*
X039117Y009587D02*
X031273Y009587D01*
X031273Y009429D02*
X039117Y009429D01*
X039117Y009270D02*
X032988Y009270D01*
X032939Y009319D02*
X032789Y009382D01*
X032626Y009382D01*
X032475Y009319D01*
X032359Y009204D01*
X032297Y009053D01*
X032297Y008350D01*
X032359Y008199D01*
X032475Y008084D01*
X032626Y008022D01*
X032789Y008022D01*
X032939Y008084D01*
X033055Y008199D01*
X033117Y008350D01*
X033117Y009053D01*
X033055Y009204D01*
X032939Y009319D01*
X033093Y009112D02*
X039117Y009112D01*
X039117Y008953D02*
X033117Y008953D01*
X033117Y008795D02*
X039117Y008795D01*
X039117Y008636D02*
X033117Y008636D01*
X033117Y008478D02*
X039117Y008478D01*
X038959Y008319D02*
X033104Y008319D01*
X033016Y008161D02*
X038959Y008161D01*
X038959Y008002D02*
X031273Y008002D01*
X031273Y008161D02*
X031398Y008161D01*
X031359Y008199D02*
X031475Y008084D01*
X031626Y008022D01*
X031789Y008022D01*
X031939Y008084D01*
X032055Y008199D01*
X032117Y008350D01*
X032117Y009053D01*
X032055Y009204D01*
X031939Y009319D01*
X031789Y009382D01*
X031626Y009382D01*
X031475Y009319D01*
X031359Y009204D01*
X031297Y009053D01*
X031297Y008350D01*
X031359Y008199D01*
X031310Y008319D02*
X031273Y008319D01*
X031273Y008478D02*
X031297Y008478D01*
X031297Y008636D02*
X031273Y008636D01*
X031273Y008795D02*
X031297Y008795D01*
X031297Y008953D02*
X031273Y008953D01*
X031273Y009112D02*
X031321Y009112D01*
X031273Y009270D02*
X031426Y009270D01*
X031988Y009270D02*
X032426Y009270D01*
X032321Y009112D02*
X032093Y009112D01*
X032117Y008953D02*
X032297Y008953D01*
X032297Y008795D02*
X032117Y008795D01*
X032117Y008636D02*
X032297Y008636D01*
X032297Y008478D02*
X032117Y008478D01*
X032104Y008319D02*
X032310Y008319D01*
X032398Y008161D02*
X032016Y008161D01*
X031329Y007843D02*
X038959Y007843D01*
X039655Y007843D02*
X040617Y007843D01*
X040617Y007685D02*
X031709Y007685D01*
X031541Y007685D02*
X031488Y007685D01*
X031888Y007526D02*
X040617Y007526D01*
X040617Y007523D02*
X040728Y007412D01*
X040728Y007412D01*
X041017Y007123D01*
X041128Y007012D01*
X045909Y007012D01*
X045912Y007005D01*
X046010Y006907D01*
X046138Y006854D01*
X046276Y006854D01*
X046404Y006907D01*
X046502Y007005D01*
X046555Y007133D01*
X046555Y007271D01*
X046502Y007399D01*
X046404Y007497D01*
X046276Y007549D01*
X046138Y007549D01*
X046010Y007497D01*
X045912Y007399D01*
X045909Y007392D01*
X041286Y007392D01*
X040997Y007680D01*
X040997Y009704D01*
X041004Y009707D01*
X041102Y009805D01*
X041155Y009933D01*
X041155Y010071D01*
X041102Y010199D01*
X041004Y010297D01*
X040876Y010349D01*
X040738Y010349D01*
X040610Y010297D01*
X040512Y010199D01*
X040459Y010071D01*
X040459Y009933D01*
X040512Y009805D01*
X040610Y009707D01*
X040617Y009704D01*
X040617Y007523D01*
X040772Y007368D02*
X031914Y007368D01*
X031836Y007209D02*
X040931Y007209D01*
X041017Y007123D02*
X041017Y007123D01*
X041089Y007051D02*
X026737Y007051D01*
X026737Y007209D02*
X030431Y007209D01*
X030352Y007368D02*
X026737Y007368D01*
X026737Y007526D02*
X030378Y007526D01*
X030403Y007685D02*
X026737Y007685D01*
X026737Y007843D02*
X030403Y007843D01*
X030403Y008002D02*
X026737Y008002D01*
X026737Y008161D02*
X028398Y008161D01*
X028359Y008199D02*
X028475Y008084D01*
X028626Y008022D01*
X028789Y008022D01*
X028939Y008084D01*
X029055Y008199D01*
X029117Y008350D01*
X029117Y009053D01*
X029055Y009204D01*
X028939Y009319D01*
X028789Y009382D01*
X028626Y009382D01*
X028475Y009319D01*
X028359Y009204D01*
X028297Y009053D01*
X028297Y008350D01*
X028359Y008199D01*
X028310Y008319D02*
X026737Y008319D01*
X026737Y008478D02*
X028297Y008478D01*
X028297Y008636D02*
X026737Y008636D01*
X026737Y008795D02*
X028297Y008795D01*
X028297Y008953D02*
X026737Y008953D01*
X026737Y009112D02*
X028321Y009112D01*
X028426Y009270D02*
X026737Y009270D01*
X026737Y009429D02*
X030403Y009429D01*
X030403Y009587D02*
X026737Y009587D01*
X026737Y009746D02*
X030403Y009746D01*
X030403Y009905D02*
X026737Y009905D01*
X026737Y010063D02*
X030403Y010063D01*
X030403Y010222D02*
X026737Y010222D01*
X026737Y010380D02*
X030403Y010380D01*
X030403Y010539D02*
X026737Y010539D01*
X026737Y010697D02*
X030403Y010697D01*
X030403Y010856D02*
X026737Y010856D01*
X026737Y011014D02*
X030403Y011014D01*
X030207Y011173D02*
X026737Y011173D01*
X026737Y011331D02*
X028107Y011331D01*
X028031Y011490D02*
X026737Y011490D01*
X026737Y011649D02*
X028031Y011649D01*
X028031Y011807D02*
X026737Y011807D01*
X026737Y011966D02*
X028031Y011966D01*
X028147Y012124D02*
X026737Y012124D01*
X026737Y012283D02*
X027998Y012283D01*
X027942Y012441D02*
X026737Y012441D01*
X026737Y012600D02*
X027942Y012600D01*
X027942Y012758D02*
X026737Y012758D01*
X026737Y012917D02*
X027942Y012917D01*
X027942Y013075D02*
X026737Y013075D01*
X026737Y013234D02*
X027942Y013234D01*
X027990Y013392D02*
X026737Y013392D01*
X026737Y013551D02*
X029847Y013551D01*
X030005Y013392D02*
X029024Y013392D01*
X029072Y013234D02*
X030164Y013234D01*
X030310Y013710D02*
X034488Y013710D01*
X034371Y013551D02*
X034722Y013551D01*
X034707Y013802D02*
X034307Y014202D01*
X033467Y014202D01*
X033307Y014362D01*
X033307Y014102D01*
X033307Y014362D02*
X033307Y015302D01*
X033087Y015136D02*
X029072Y015136D01*
X029072Y014978D02*
X033087Y014978D01*
X033003Y015295D02*
X029042Y015295D01*
X028827Y015454D02*
X032844Y015454D01*
X032686Y015612D02*
X032231Y015612D01*
X032832Y016088D02*
X033659Y016088D01*
X033659Y016246D02*
X032176Y016246D01*
X031638Y016246D02*
X029876Y016246D01*
X029955Y016088D02*
X031559Y016088D01*
X032991Y015929D02*
X033666Y015929D01*
X033308Y015612D02*
X034570Y015612D01*
X034570Y015771D02*
X033149Y015771D01*
X033659Y016405D02*
X026810Y016405D01*
X026841Y016500D02*
X026749Y016217D01*
X026737Y016069D01*
X026737Y016055D01*
X026919Y016237D01*
X027163Y016338D01*
X027426Y016338D01*
X027670Y016237D01*
X027857Y016051D01*
X027958Y015807D01*
X027958Y015543D01*
X027857Y015299D01*
X027670Y015113D01*
X027426Y015012D01*
X027163Y015012D01*
X026919Y015113D01*
X026737Y015295D01*
X026737Y006213D01*
X026919Y006395D01*
X027163Y006495D01*
X027426Y006495D01*
X027670Y006395D01*
X027857Y006208D01*
X027958Y005964D01*
X027958Y005701D01*
X027857Y005457D01*
X027670Y005270D01*
X027426Y005169D01*
X027163Y005169D01*
X026919Y005270D01*
X026737Y005452D01*
X026737Y002778D01*
X026737Y002760D01*
X026737Y002683D01*
X026743Y002612D02*
X030993Y002612D01*
X030993Y002770D02*
X026737Y002770D01*
X026737Y002929D02*
X030993Y002929D01*
X030993Y003087D02*
X026737Y003087D01*
X026737Y003246D02*
X030993Y003246D01*
X030993Y003404D02*
X026737Y003404D01*
X026737Y003563D02*
X030993Y003563D01*
X030993Y003721D02*
X026737Y003721D01*
X026737Y003880D02*
X030993Y003880D01*
X030993Y004038D02*
X026737Y004038D01*
X026737Y004197D02*
X030993Y004197D01*
X030993Y004356D02*
X026737Y004356D01*
X026737Y004514D02*
X030993Y004514D01*
X030993Y004673D02*
X026737Y004673D01*
X026737Y004831D02*
X030993Y004831D01*
X030993Y004990D02*
X026737Y004990D01*
X026737Y005148D02*
X030993Y005148D01*
X030993Y005307D02*
X027707Y005307D01*
X027860Y005465D02*
X030993Y005465D01*
X031079Y005624D02*
X027926Y005624D01*
X027958Y005782D02*
X048059Y005782D01*
X048071Y005624D02*
X032368Y005624D01*
X032454Y005465D02*
X057102Y005465D01*
X056977Y005307D02*
X032454Y005307D01*
X032454Y005148D02*
X056977Y005148D01*
X056977Y004990D02*
X032454Y004990D01*
X032454Y004831D02*
X056977Y004831D01*
X056977Y004673D02*
X032454Y004673D01*
X032454Y004514D02*
X056977Y004514D01*
X056977Y004356D02*
X032454Y004356D01*
X032454Y004197D02*
X056977Y004197D01*
X056977Y004038D02*
X032454Y004038D01*
X032454Y003880D02*
X056895Y003880D01*
X056736Y003721D02*
X032499Y003721D01*
X032657Y003563D02*
X056577Y003563D01*
X059226Y003563D02*
X060529Y003563D01*
X060529Y003721D02*
X059226Y003721D01*
X059226Y003880D02*
X060529Y003880D01*
X060529Y004038D02*
X059226Y004038D01*
X059226Y004197D02*
X060529Y004197D01*
X060529Y004356D02*
X059226Y004356D01*
X059226Y004514D02*
X060529Y004514D01*
X060529Y004673D02*
X059226Y004673D01*
X059226Y004831D02*
X060529Y004831D01*
X060529Y004990D02*
X059226Y004990D01*
X059221Y005148D02*
X060529Y005148D01*
X060529Y005307D02*
X060384Y005307D01*
X059560Y005307D02*
X059063Y005307D01*
X058904Y005465D02*
X059406Y005465D01*
X059340Y005624D02*
X058746Y005624D01*
X059309Y005782D02*
X048861Y005782D01*
X048743Y005624D02*
X057261Y005624D01*
X059309Y005941D02*
X049054Y005941D01*
X049246Y006099D02*
X059365Y006099D01*
X059460Y006258D02*
X049439Y006258D01*
X049631Y006417D02*
X059649Y006417D01*
X060294Y006417D02*
X060529Y006417D01*
X060529Y006575D02*
X049824Y006575D01*
X050016Y006734D02*
X060529Y006734D01*
X060529Y006892D02*
X050209Y006892D01*
X050401Y007051D02*
X056379Y007051D01*
X056380Y007047D02*
X056462Y006966D01*
X056568Y006922D01*
X056683Y006922D01*
X056789Y006966D01*
X056870Y007047D01*
X056914Y007153D01*
X056914Y007268D01*
X056870Y007374D01*
X056864Y007380D01*
X056864Y010064D01*
X056864Y010262D01*
X056520Y010605D01*
X056520Y010614D01*
X056476Y010720D01*
X056395Y010802D01*
X056289Y010846D01*
X056174Y010846D01*
X056068Y010802D01*
X055987Y010720D01*
X055943Y010614D01*
X055943Y010499D01*
X055987Y010393D01*
X056068Y010312D01*
X056174Y010268D01*
X056183Y010268D01*
X056387Y010064D01*
X056387Y007380D01*
X056380Y007374D01*
X056336Y007268D01*
X056336Y007153D01*
X056380Y007047D01*
X056336Y007209D02*
X050589Y007209D01*
X050599Y007368D02*
X056378Y007368D01*
X056387Y007526D02*
X055600Y007526D01*
X055589Y007522D02*
X055739Y007584D01*
X055855Y007699D01*
X055917Y007850D01*
X055917Y008553D01*
X055855Y008704D01*
X055739Y008819D01*
X055589Y008882D01*
X055426Y008882D01*
X055275Y008819D01*
X055159Y008704D01*
X055097Y008553D01*
X055097Y007850D01*
X055159Y007699D01*
X055275Y007584D01*
X055426Y007522D01*
X055589Y007522D01*
X055414Y007526D02*
X054600Y007526D01*
X054589Y007522D02*
X054739Y007584D01*
X054855Y007699D01*
X054917Y007850D01*
X054917Y008553D01*
X054855Y008704D01*
X054739Y008819D01*
X054589Y008882D01*
X054426Y008882D01*
X054275Y008819D01*
X054159Y008704D01*
X054097Y008553D01*
X054097Y007850D01*
X054159Y007699D01*
X054275Y007584D01*
X054426Y007522D01*
X054589Y007522D01*
X054414Y007526D02*
X050597Y007526D01*
X050597Y007685D02*
X054174Y007685D01*
X054100Y007843D02*
X050597Y007843D01*
X050597Y008002D02*
X054097Y008002D01*
X054097Y008161D02*
X050597Y008161D01*
X050597Y008319D02*
X054097Y008319D01*
X054097Y008478D02*
X050597Y008478D01*
X050610Y008636D02*
X054131Y008636D01*
X054250Y008795D02*
X050769Y008795D01*
X050927Y008953D02*
X056387Y008953D01*
X056387Y008795D02*
X055764Y008795D01*
X055883Y008636D02*
X056387Y008636D01*
X056387Y008478D02*
X055917Y008478D01*
X055917Y008319D02*
X056387Y008319D01*
X056387Y008161D02*
X055917Y008161D01*
X055917Y008002D02*
X056387Y008002D01*
X056387Y007843D02*
X055914Y007843D01*
X055840Y007685D02*
X056387Y007685D01*
X056864Y007685D02*
X056995Y007685D01*
X056977Y007702D02*
X057117Y007563D01*
X057518Y007162D01*
X057518Y007153D01*
X057561Y007047D01*
X057643Y006966D01*
X057749Y006922D01*
X057864Y006922D01*
X057970Y006966D01*
X058051Y007047D01*
X058095Y007153D01*
X058095Y007268D01*
X058051Y007374D01*
X057970Y007455D01*
X057864Y007499D01*
X057855Y007499D01*
X057454Y007900D01*
X057454Y010387D01*
X057461Y010393D01*
X057504Y010499D01*
X057504Y010614D01*
X057461Y010720D01*
X057379Y010802D01*
X057273Y010846D01*
X057158Y010846D01*
X057052Y010802D01*
X056971Y010720D01*
X056927Y010614D01*
X056927Y010499D01*
X056971Y010393D01*
X056977Y010387D01*
X056977Y007702D01*
X056977Y007843D02*
X056864Y007843D01*
X056864Y008002D02*
X056977Y008002D01*
X056977Y008161D02*
X056864Y008161D01*
X056864Y008319D02*
X056977Y008319D01*
X056977Y008478D02*
X056864Y008478D01*
X056864Y008636D02*
X056977Y008636D01*
X056977Y008795D02*
X056864Y008795D01*
X056864Y008953D02*
X056977Y008953D01*
X056977Y009112D02*
X056864Y009112D01*
X056864Y009270D02*
X056977Y009270D01*
X056977Y009429D02*
X056864Y009429D01*
X056864Y009587D02*
X056977Y009587D01*
X056977Y009746D02*
X056864Y009746D01*
X056864Y009905D02*
X056977Y009905D01*
X056977Y010063D02*
X056864Y010063D01*
X056864Y010222D02*
X056977Y010222D01*
X056977Y010380D02*
X056745Y010380D01*
X056587Y010539D02*
X056927Y010539D01*
X056961Y010697D02*
X056486Y010697D01*
X055977Y010697D02*
X054373Y010697D01*
X054383Y010856D02*
X059531Y010856D01*
X059531Y010807D02*
X059531Y011110D01*
X058987Y011654D01*
X058947Y011750D01*
X058947Y011757D01*
X058724Y011757D01*
X058642Y011839D01*
X058642Y012845D01*
X058724Y012927D01*
X059690Y012927D01*
X059772Y012845D01*
X059772Y011839D01*
X059690Y011757D01*
X059620Y011757D01*
X059899Y011478D01*
X060201Y011478D01*
X060283Y011396D01*
X060283Y010807D01*
X060201Y010726D01*
X059613Y010726D01*
X059531Y010807D01*
X059531Y011014D02*
X054387Y011014D01*
X054546Y011173D02*
X059468Y011173D01*
X059310Y011331D02*
X054704Y011331D01*
X054863Y011490D02*
X059151Y011490D01*
X058993Y011649D02*
X054966Y011649D01*
X055240Y011807D02*
X058674Y011807D01*
X058642Y011966D02*
X055272Y011966D01*
X055272Y012124D02*
X058642Y012124D01*
X058642Y012283D02*
X055272Y012283D01*
X055272Y012441D02*
X058642Y012441D01*
X058642Y012600D02*
X055272Y012600D01*
X055272Y012758D02*
X058642Y012758D01*
X058714Y012917D02*
X055200Y012917D01*
X054094Y013042D02*
X053427Y012542D01*
X053427Y012486D01*
X053345Y012404D01*
X052048Y012404D01*
X051966Y012486D01*
X051966Y012917D01*
X051966Y012758D02*
X050455Y012758D01*
X050455Y012771D02*
X050402Y012899D01*
X050455Y012771D02*
X050455Y012633D01*
X050402Y012505D01*
X050304Y012407D01*
X050176Y012354D01*
X050038Y012354D01*
X049910Y012407D01*
X049812Y012505D01*
X049809Y012512D01*
X049648Y012512D01*
X049648Y012486D01*
X049566Y012404D01*
X048269Y012404D01*
X048187Y012486D01*
X048187Y012832D01*
X048127Y012773D01*
X048021Y012729D01*
X047906Y012729D01*
X047800Y012773D01*
X047719Y012854D01*
X047675Y012960D01*
X047675Y013039D01*
X047393Y013320D01*
X045877Y013320D01*
X045720Y013320D01*
X044047Y014994D01*
X043936Y015104D01*
X043936Y015526D01*
X043927Y015514D01*
X043877Y015464D01*
X043820Y015422D01*
X043757Y015390D01*
X043690Y015368D01*
X043620Y015357D01*
X043594Y015357D01*
X043594Y015797D01*
X043574Y015797D01*
X043574Y015357D01*
X043549Y015357D01*
X043479Y015368D01*
X043411Y015390D01*
X043348Y015422D01*
X043291Y015464D01*
X043241Y015514D01*
X043199Y015571D01*
X043167Y015634D01*
X043145Y015702D01*
X043134Y015772D01*
X043134Y015797D01*
X043574Y015797D01*
X043574Y015817D01*
X043134Y015817D01*
X043134Y015843D01*
X043145Y015913D01*
X043167Y015980D01*
X043199Y016043D01*
X043241Y016100D01*
X043291Y016150D01*
X043325Y016175D01*
X042768Y016175D01*
X042816Y016155D01*
X042932Y016039D01*
X042994Y015889D01*
X042994Y015726D01*
X042932Y015575D01*
X042816Y015460D01*
X042666Y015397D01*
X042503Y015397D01*
X042352Y015460D01*
X042237Y015575D01*
X042174Y015726D01*
X042174Y015889D01*
X042237Y016039D01*
X042352Y016155D01*
X042400Y016175D01*
X042137Y016175D01*
X041980Y016175D01*
X041731Y016424D01*
X041666Y016397D01*
X041503Y016397D01*
X041352Y016460D01*
X041237Y016575D01*
X041174Y016726D01*
X041174Y016889D01*
X041229Y017020D01*
X027783Y017020D01*
X027756Y017020D01*
X027688Y017020D01*
X027539Y017008D01*
X027256Y016916D01*
X027016Y016741D01*
X026841Y016500D01*
X026886Y016563D02*
X034623Y016563D01*
X034570Y016405D02*
X034355Y016405D01*
X035191Y016563D02*
X036101Y016563D01*
X036097Y016553D02*
X036097Y015850D01*
X036159Y015699D01*
X036275Y015584D01*
X036426Y015522D01*
X036589Y015522D01*
X036739Y015584D01*
X036855Y015699D01*
X036917Y015850D01*
X036917Y016553D01*
X036855Y016704D01*
X036739Y016819D01*
X036589Y016882D01*
X036426Y016882D01*
X036275Y016819D01*
X036159Y016704D01*
X036097Y016553D01*
X036097Y016405D02*
X035244Y016405D01*
X035244Y016246D02*
X036097Y016246D01*
X036097Y016088D02*
X035244Y016088D01*
X035211Y015929D02*
X036097Y015929D01*
X036130Y015771D02*
X035244Y015771D01*
X035244Y015612D02*
X036247Y015612D01*
X036767Y015612D02*
X037247Y015612D01*
X037130Y015771D02*
X036884Y015771D01*
X036917Y015929D02*
X037097Y015929D01*
X037097Y016088D02*
X036917Y016088D01*
X036917Y016246D02*
X037097Y016246D01*
X037097Y016405D02*
X036917Y016405D01*
X036913Y016563D02*
X037101Y016563D01*
X037177Y016722D02*
X036837Y016722D01*
X036592Y016880D02*
X037422Y016880D01*
X037592Y016880D02*
X041174Y016880D01*
X041176Y016722D02*
X037837Y016722D01*
X037913Y016563D02*
X041248Y016563D01*
X041484Y016405D02*
X037917Y016405D01*
X037917Y016246D02*
X041908Y016246D01*
X041816Y016155D02*
X041666Y016217D01*
X041503Y016217D01*
X041352Y016155D01*
X041237Y016039D01*
X041174Y015889D01*
X041174Y015726D01*
X041237Y015575D01*
X041352Y015460D01*
X041503Y015397D01*
X041666Y015397D01*
X041816Y015460D01*
X041932Y015575D01*
X041994Y015726D01*
X041994Y015889D01*
X041932Y016039D01*
X041816Y016155D01*
X041884Y016088D02*
X042285Y016088D01*
X042191Y015929D02*
X041978Y015929D01*
X041994Y015771D02*
X042174Y015771D01*
X042221Y015612D02*
X041947Y015612D01*
X041802Y015454D02*
X042367Y015454D01*
X042802Y015454D02*
X043305Y015454D01*
X043179Y015612D02*
X042947Y015612D01*
X042994Y015771D02*
X043134Y015771D01*
X043151Y015929D02*
X042978Y015929D01*
X042884Y016088D02*
X043232Y016088D01*
X043574Y015771D02*
X043594Y015771D01*
X043594Y015612D02*
X043574Y015612D01*
X043574Y015454D02*
X043594Y015454D01*
X043863Y015454D02*
X043936Y015454D01*
X043936Y015295D02*
X037800Y015295D01*
X037797Y015136D02*
X038572Y015136D01*
X038583Y015139D02*
X038537Y015127D01*
X038496Y015103D01*
X038462Y015070D01*
X038439Y015029D01*
X038426Y014983D01*
X038426Y014802D01*
X039196Y014802D01*
X039196Y014801D01*
X038426Y014801D01*
X038426Y014621D01*
X038439Y014575D01*
X038462Y014534D01*
X038496Y014500D01*
X038537Y014477D01*
X038583Y014464D01*
X039197Y014464D01*
X039811Y014464D01*
X039857Y014477D01*
X039898Y014500D01*
X039931Y014534D01*
X039955Y014575D01*
X039967Y014621D01*
X039967Y014801D01*
X039197Y014801D01*
X039197Y014464D01*
X039197Y014801D01*
X039197Y014801D01*
X039197Y014802D01*
X039197Y014802D01*
X039197Y015139D01*
X039811Y015139D01*
X039857Y015127D01*
X039898Y015103D01*
X039931Y015070D01*
X039955Y015029D01*
X039967Y014983D01*
X039967Y014802D01*
X039197Y014802D01*
X039197Y015139D01*
X038583Y015139D01*
X038426Y014978D02*
X037797Y014978D01*
X037797Y014819D02*
X038426Y014819D01*
X038426Y014661D02*
X037797Y014661D01*
X037797Y014502D02*
X038494Y014502D01*
X038476Y014027D02*
X038374Y014027D01*
X037840Y014027D02*
X037797Y014027D01*
X037797Y014185D02*
X044855Y014185D01*
X044697Y014344D02*
X037797Y014344D01*
X037417Y014344D02*
X037397Y014344D01*
X037397Y014185D02*
X037417Y014185D01*
X037417Y014027D02*
X037397Y014027D01*
X037397Y013868D02*
X037417Y013868D01*
X037417Y013710D02*
X037397Y013710D01*
X037397Y013551D02*
X037417Y013551D01*
X037417Y013392D02*
X037397Y013392D01*
X037397Y013234D02*
X037417Y013234D01*
X037417Y013075D02*
X037397Y013075D01*
X037397Y012917D02*
X037417Y012917D01*
X037407Y012758D02*
X037397Y012758D01*
X037526Y012600D02*
X038466Y012600D01*
X038524Y013075D02*
X037797Y013075D01*
X037797Y013551D02*
X037866Y013551D01*
X038348Y013551D02*
X038501Y013551D01*
X039927Y013868D02*
X045172Y013868D01*
X045014Y014027D02*
X039918Y014027D01*
X039900Y014502D02*
X044538Y014502D01*
X044380Y014661D02*
X039967Y014661D01*
X039967Y014819D02*
X044221Y014819D01*
X044063Y014978D02*
X039967Y014978D01*
X039821Y015136D02*
X043936Y015136D01*
X044802Y015454D02*
X045367Y015454D01*
X045352Y015460D02*
X045503Y015397D01*
X045666Y015397D01*
X045816Y015460D01*
X045932Y015575D01*
X045994Y015726D01*
X045994Y015889D01*
X045932Y016039D01*
X045816Y016155D01*
X045666Y016217D01*
X045503Y016217D01*
X045352Y016155D01*
X045237Y016039D01*
X045174Y015889D01*
X045174Y015726D01*
X045237Y015575D01*
X045352Y015460D01*
X045221Y015612D02*
X044947Y015612D01*
X044994Y015771D02*
X045174Y015771D01*
X045191Y015929D02*
X044978Y015929D01*
X044884Y016088D02*
X045285Y016088D01*
X045484Y016405D02*
X044684Y016405D01*
X044484Y016405D02*
X044155Y016405D01*
X044248Y016563D02*
X042920Y016563D01*
X042993Y016722D02*
X044176Y016722D01*
X044174Y016880D02*
X042994Y016880D01*
X041750Y016405D02*
X041684Y016405D01*
X041285Y016088D02*
X037917Y016088D01*
X037917Y015929D02*
X041191Y015929D01*
X041174Y015771D02*
X037884Y015771D01*
X037767Y015612D02*
X041221Y015612D01*
X041367Y015454D02*
X037777Y015454D01*
X037393Y015454D02*
X035244Y015454D01*
X035244Y015295D02*
X037416Y015295D01*
X037417Y015136D02*
X035127Y015136D01*
X034907Y015002D02*
X035107Y014802D01*
X035417Y014802D01*
X034907Y015002D02*
X034907Y015567D01*
X034603Y015929D02*
X034348Y015929D01*
X036177Y016722D02*
X027002Y016722D01*
X027207Y016880D02*
X036422Y016880D01*
X039197Y015136D02*
X039197Y015136D01*
X039197Y014978D02*
X039197Y014978D01*
X039197Y014819D02*
X039197Y014819D01*
X039197Y014661D02*
X039197Y014661D01*
X039197Y014502D02*
X039197Y014502D01*
X037417Y014502D02*
X037375Y014502D01*
X037417Y014661D02*
X037217Y014661D01*
X037058Y014819D02*
X037417Y014819D01*
X037417Y014978D02*
X036900Y014978D01*
X035417Y013802D02*
X034707Y013802D01*
X034330Y013868D02*
X033872Y013868D01*
X032742Y013868D02*
X030152Y013868D01*
X029993Y014027D02*
X032742Y014027D01*
X032742Y014185D02*
X029835Y014185D01*
X029676Y014344D02*
X032742Y014344D01*
X032742Y014502D02*
X029518Y014502D01*
X029359Y014661D02*
X032742Y014661D01*
X032742Y014819D02*
X029201Y014819D01*
X029212Y014185D02*
X028999Y014185D01*
X029371Y014027D02*
X026737Y014027D01*
X026737Y014185D02*
X028016Y014185D01*
X027942Y014344D02*
X026737Y014344D01*
X026737Y014502D02*
X027942Y014502D01*
X027942Y014661D02*
X026737Y014661D01*
X026737Y014819D02*
X027942Y014819D01*
X027942Y014978D02*
X026737Y014978D01*
X026737Y015136D02*
X026895Y015136D01*
X027694Y015136D02*
X027942Y015136D01*
X027972Y015295D02*
X027852Y015295D01*
X027920Y015454D02*
X028387Y015454D01*
X028387Y015612D02*
X027958Y015612D01*
X027958Y015771D02*
X028465Y015771D01*
X028623Y015929D02*
X027907Y015929D01*
X027819Y016088D02*
X028782Y016088D01*
X029338Y016246D02*
X027648Y016246D01*
X026941Y016246D02*
X026758Y016246D01*
X026770Y016088D02*
X026739Y016088D01*
X028929Y015612D02*
X029283Y015612D01*
X029530Y013868D02*
X026737Y013868D01*
X026737Y013710D02*
X029688Y013710D01*
X028507Y012842D02*
X028407Y012742D01*
X028783Y011490D02*
X030192Y011490D01*
X030155Y011331D02*
X028707Y011331D01*
X030696Y011490D02*
X030979Y011490D01*
X030881Y011331D02*
X030794Y011331D01*
X034283Y011014D02*
X039351Y011014D01*
X039192Y010856D02*
X034283Y010856D01*
X030403Y009270D02*
X029988Y009270D01*
X029939Y009319D02*
X029789Y009382D01*
X029626Y009382D01*
X029475Y009319D01*
X029359Y009204D01*
X029297Y009053D01*
X029297Y008350D01*
X029359Y008199D01*
X029475Y008084D01*
X029626Y008022D01*
X029789Y008022D01*
X029939Y008084D01*
X030055Y008199D01*
X030117Y008350D01*
X030117Y009053D01*
X030055Y009204D01*
X029939Y009319D01*
X030093Y009112D02*
X030403Y009112D01*
X030403Y008953D02*
X030117Y008953D01*
X030117Y008795D02*
X030403Y008795D01*
X030403Y008636D02*
X030117Y008636D01*
X030117Y008478D02*
X030403Y008478D01*
X030403Y008319D02*
X030104Y008319D01*
X030016Y008161D02*
X030403Y008161D01*
X029398Y008161D02*
X029016Y008161D01*
X029104Y008319D02*
X029310Y008319D01*
X029297Y008478D02*
X029117Y008478D01*
X029117Y008636D02*
X029297Y008636D01*
X029297Y008795D02*
X029117Y008795D01*
X029117Y008953D02*
X029297Y008953D01*
X029321Y009112D02*
X029093Y009112D01*
X028988Y009270D02*
X029426Y009270D01*
X030904Y007526D02*
X030972Y007526D01*
X030930Y007368D02*
X031131Y007368D01*
X031289Y007209D02*
X030851Y007209D01*
X027902Y006099D02*
X048059Y006099D01*
X048059Y005941D02*
X027958Y005941D01*
X027807Y006258D02*
X048841Y006258D01*
X049033Y006417D02*
X027617Y006417D01*
X026972Y006417D02*
X026737Y006417D01*
X026737Y006575D02*
X049226Y006575D01*
X049418Y006734D02*
X026737Y006734D01*
X026737Y006892D02*
X046046Y006892D01*
X046369Y006892D02*
X049611Y006892D01*
X049804Y007051D02*
X046521Y007051D01*
X046555Y007209D02*
X049996Y007209D01*
X050189Y007368D02*
X046515Y007368D01*
X046332Y007526D02*
X050217Y007526D01*
X050217Y007685D02*
X040997Y007685D01*
X040997Y007843D02*
X047130Y007843D01*
X047111Y007851D02*
X047217Y007807D01*
X047332Y007807D01*
X047438Y007851D01*
X047520Y007933D01*
X047564Y008039D01*
X047564Y008154D01*
X047520Y008260D01*
X047438Y008341D01*
X047332Y008385D01*
X047217Y008385D01*
X047111Y008341D01*
X047056Y008285D01*
X043711Y008285D01*
X043541Y008455D01*
X043625Y008455D01*
X043670Y008500D01*
X043679Y008485D01*
X043713Y008451D01*
X043754Y008428D01*
X043799Y008415D01*
X044041Y008415D01*
X044041Y008833D01*
X044157Y008833D01*
X044157Y008949D01*
X044041Y008949D01*
X044041Y009315D01*
X044041Y009733D01*
X044157Y009733D01*
X044157Y009849D01*
X044041Y009849D01*
X044041Y010266D01*
X043799Y010266D01*
X043754Y010254D01*
X043713Y010230D01*
X043679Y010196D01*
X043670Y010181D01*
X043626Y010225D01*
X043626Y010319D01*
X043583Y010425D01*
X043501Y010506D01*
X043395Y010550D01*
X043280Y010550D01*
X043174Y010506D01*
X043093Y010425D01*
X043049Y010319D01*
X043049Y010226D01*
X042958Y010226D01*
X042888Y010156D01*
X042818Y010226D01*
X042151Y010226D01*
X042069Y010144D01*
X041993Y010113D01*
X041912Y010031D01*
X041868Y009925D01*
X041868Y009810D01*
X041912Y009704D01*
X041993Y009623D01*
X042069Y009592D01*
X042069Y009437D01*
X042151Y009355D01*
X042265Y009355D01*
X042265Y009326D01*
X042151Y009326D01*
X042069Y009244D01*
X042069Y009160D01*
X041993Y009128D01*
X041912Y009047D01*
X041868Y008941D01*
X041868Y008826D01*
X041912Y008720D01*
X041993Y008639D01*
X042069Y008607D01*
X042069Y008537D01*
X042151Y008455D01*
X042818Y008455D01*
X042888Y008525D01*
X042958Y008455D01*
X043149Y008455D01*
X043149Y008313D01*
X043444Y008018D01*
X043555Y007907D01*
X047056Y007907D01*
X047111Y007851D01*
X047419Y007843D02*
X050217Y007843D01*
X050217Y008002D02*
X047548Y008002D01*
X047561Y008161D02*
X049164Y008161D01*
X048950Y008319D02*
X047460Y008319D01*
X047089Y008319D02*
X043678Y008319D01*
X043686Y008478D02*
X043647Y008478D01*
X044041Y008478D02*
X044157Y008478D01*
X044157Y008415D02*
X044398Y008415D01*
X044444Y008428D01*
X044485Y008451D01*
X044518Y008485D01*
X044542Y008526D01*
X044554Y008572D01*
X044554Y008833D01*
X044157Y008833D01*
X044157Y008415D01*
X044157Y008636D02*
X044041Y008636D01*
X044041Y008795D02*
X044157Y008795D01*
X044157Y008949D02*
X044554Y008949D01*
X044554Y009210D01*
X044542Y009255D01*
X044518Y009296D01*
X044485Y009330D01*
X044466Y009341D01*
X044485Y009351D01*
X044518Y009385D01*
X044542Y009426D01*
X044554Y009472D01*
X044554Y009733D01*
X044157Y009733D01*
X044157Y009315D01*
X044157Y008949D01*
X044157Y008953D02*
X044041Y008953D01*
X044041Y009112D02*
X044157Y009112D01*
X044157Y009270D02*
X044041Y009270D01*
X044041Y009429D02*
X044157Y009429D01*
X044157Y009587D02*
X044041Y009587D01*
X044157Y009746D02*
X044943Y009746D01*
X044943Y009756D02*
X044943Y009495D01*
X045341Y009495D01*
X045341Y009912D01*
X045099Y009912D01*
X045054Y009900D01*
X045013Y009876D01*
X044979Y009843D01*
X044956Y009802D01*
X044943Y009756D01*
X044943Y009587D02*
X044554Y009587D01*
X044543Y009429D02*
X045341Y009429D01*
X045341Y009379D02*
X045341Y009495D01*
X045457Y009495D01*
X045457Y009912D01*
X045698Y009912D01*
X045744Y009900D01*
X045785Y009876D01*
X045818Y009843D01*
X045827Y009827D01*
X045872Y009872D01*
X046539Y009872D01*
X046621Y009790D01*
X046621Y009748D01*
X046634Y009736D01*
X046678Y009630D01*
X046678Y009515D01*
X046634Y009409D01*
X046621Y009397D01*
X046621Y009084D01*
X046539Y009002D01*
X045872Y009002D01*
X045827Y009047D01*
X045818Y009031D01*
X045785Y008998D01*
X045744Y008974D01*
X045698Y008962D01*
X045457Y008962D01*
X045457Y009379D01*
X045341Y009379D01*
X045341Y008962D01*
X045099Y008962D01*
X045054Y008974D01*
X045013Y008998D01*
X044979Y009031D01*
X044956Y009072D01*
X044943Y009118D01*
X044943Y009379D01*
X045341Y009379D01*
X045341Y009270D02*
X045457Y009270D01*
X045457Y009112D02*
X045341Y009112D01*
X044945Y009112D02*
X044554Y009112D01*
X044554Y008953D02*
X048316Y008953D01*
X048474Y008795D02*
X044554Y008795D01*
X044554Y008636D02*
X048633Y008636D01*
X048791Y008478D02*
X044511Y008478D01*
X043460Y008002D02*
X040997Y008002D01*
X040997Y008161D02*
X043301Y008161D01*
X043149Y008319D02*
X040997Y008319D01*
X040997Y008478D02*
X042129Y008478D01*
X041999Y008636D02*
X040997Y008636D01*
X040997Y008795D02*
X041881Y008795D01*
X041873Y008953D02*
X040997Y008953D01*
X040997Y009112D02*
X041977Y009112D01*
X042095Y009270D02*
X040997Y009270D01*
X040997Y009429D02*
X042078Y009429D01*
X042069Y009587D02*
X040997Y009587D01*
X041043Y009746D02*
X041895Y009746D01*
X041868Y009905D02*
X041143Y009905D01*
X041155Y010063D02*
X041944Y010063D01*
X042147Y010222D02*
X041079Y010222D01*
X040535Y010222D02*
X039497Y010222D01*
X039497Y010380D02*
X043074Y010380D01*
X042954Y010222D02*
X042823Y010222D01*
X043252Y010539D02*
X042153Y010539D01*
X041766Y010539D02*
X039497Y010539D01*
X039571Y010697D02*
X041671Y010697D01*
X042085Y011014D02*
X042219Y011014D01*
X043423Y010539D02*
X046730Y010539D01*
X046889Y010380D02*
X043601Y010380D01*
X043630Y010222D02*
X043704Y010222D01*
X044041Y010222D02*
X044157Y010222D01*
X044157Y010266D02*
X044157Y009849D01*
X044554Y009849D01*
X044554Y010110D01*
X044542Y010155D01*
X044518Y010196D01*
X044485Y010230D01*
X044444Y010254D01*
X044398Y010266D01*
X044157Y010266D01*
X044157Y010063D02*
X044041Y010063D01*
X044041Y009905D02*
X044157Y009905D01*
X044554Y009905D02*
X045070Y009905D01*
X045341Y009905D02*
X045457Y009905D01*
X045457Y009746D02*
X045341Y009746D01*
X045341Y009587D02*
X045457Y009587D01*
X045727Y009905D02*
X047364Y009905D01*
X047206Y010063D02*
X044554Y010063D01*
X044493Y010222D02*
X047047Y010222D01*
X046624Y009746D02*
X047523Y009746D01*
X047681Y009587D02*
X046678Y009587D01*
X046642Y009429D02*
X047840Y009429D01*
X047998Y009270D02*
X046621Y009270D01*
X046621Y009112D02*
X048157Y009112D01*
X049009Y008795D02*
X050231Y008795D01*
X050217Y008636D02*
X049505Y008636D01*
X049619Y008478D02*
X050217Y008478D01*
X050217Y008319D02*
X049624Y008319D01*
X049519Y008161D02*
X050217Y008161D01*
X049178Y008636D02*
X049173Y008631D01*
X049131Y008953D02*
X050390Y008953D01*
X050549Y009112D02*
X049233Y009112D01*
X049223Y009270D02*
X050707Y009270D01*
X050866Y009429D02*
X049410Y009429D01*
X049521Y009587D02*
X051024Y009587D01*
X051183Y009746D02*
X049525Y009746D01*
X049418Y009905D02*
X051341Y009905D01*
X051500Y010063D02*
X049119Y010063D01*
X048960Y010222D02*
X051658Y010222D01*
X051817Y010380D02*
X048802Y010380D01*
X048643Y010539D02*
X051975Y010539D01*
X052016Y010697D02*
X048803Y010697D01*
X048843Y010856D02*
X052016Y010856D01*
X052074Y011014D02*
X048800Y011014D01*
X048501Y011173D02*
X052152Y011173D01*
X052152Y011331D02*
X048343Y011331D01*
X048147Y011649D02*
X048043Y011649D01*
X047886Y012124D02*
X047248Y012124D01*
X047268Y012283D02*
X048008Y012283D01*
X048232Y012441D02*
X047177Y012441D01*
X046782Y012441D02*
X044293Y012441D01*
X044340Y012283D02*
X046691Y012283D01*
X047693Y012917D02*
X042033Y012917D01*
X042191Y012758D02*
X047835Y012758D01*
X048093Y012758D02*
X048187Y012758D01*
X048187Y012600D02*
X044126Y012600D01*
X043927Y012600D02*
X042350Y012600D01*
X042508Y012441D02*
X043761Y012441D01*
X043738Y012283D02*
X042667Y012283D01*
X042825Y012124D02*
X043823Y012124D01*
X041874Y013075D02*
X047638Y013075D01*
X047480Y013234D02*
X041716Y013234D01*
X041557Y013392D02*
X045648Y013392D01*
X045489Y013551D02*
X041146Y013551D01*
X040074Y011966D02*
X039927Y011966D01*
X039927Y011807D02*
X040117Y011807D01*
X040117Y011649D02*
X039927Y011649D01*
X039497Y010063D02*
X040459Y010063D01*
X040471Y009905D02*
X039497Y009905D01*
X039497Y009746D02*
X040571Y009746D01*
X040617Y009587D02*
X039497Y009587D01*
X039497Y009429D02*
X040617Y009429D01*
X040617Y009270D02*
X039497Y009270D01*
X039497Y009112D02*
X040617Y009112D01*
X040617Y008953D02*
X039497Y008953D01*
X039497Y008795D02*
X040617Y008795D01*
X040617Y008636D02*
X039497Y008636D01*
X039497Y008478D02*
X040617Y008478D01*
X040617Y008319D02*
X039655Y008319D01*
X039655Y008161D02*
X040617Y008161D01*
X040617Y008002D02*
X039655Y008002D01*
X041151Y007526D02*
X046082Y007526D01*
X042936Y008478D02*
X042840Y008478D01*
X042485Y008891D02*
X042485Y009791D01*
X044534Y009270D02*
X044943Y009270D01*
X048917Y011364D02*
X049532Y011364D01*
X049577Y011377D01*
X049618Y011400D01*
X049652Y011434D01*
X049676Y011475D01*
X049688Y011521D01*
X049688Y011701D01*
X048918Y011701D01*
X048918Y011702D01*
X049688Y011702D01*
X049688Y011883D01*
X049676Y011929D01*
X049652Y011970D01*
X049618Y012003D01*
X049577Y012027D01*
X049532Y012039D01*
X048917Y012039D01*
X048917Y011702D01*
X048917Y011702D01*
X048917Y011701D01*
X048917Y011364D01*
X048917Y011490D02*
X048917Y011490D01*
X048917Y011649D02*
X048917Y011649D01*
X048917Y011807D02*
X048917Y011807D01*
X048917Y011966D02*
X048917Y011966D01*
X048436Y012124D02*
X054142Y012124D01*
X054142Y011966D02*
X053379Y011966D01*
X053427Y011807D02*
X054174Y011807D01*
X054286Y011649D02*
X053427Y011649D01*
X053427Y011490D02*
X054128Y011490D01*
X053666Y011331D02*
X052638Y011331D01*
X052592Y011173D02*
X053631Y011173D01*
X053631Y011014D02*
X053340Y011014D01*
X053042Y010702D02*
X053707Y010702D01*
X054007Y011002D01*
X053855Y010539D02*
X055943Y010539D01*
X056000Y010380D02*
X053332Y010380D01*
X052752Y010380D02*
X052662Y010380D01*
X052372Y010702D02*
X052372Y011377D01*
X052697Y011702D01*
X052015Y011966D02*
X049654Y011966D01*
X049688Y011807D02*
X051966Y011807D01*
X051966Y011649D02*
X049688Y011649D01*
X049680Y011490D02*
X051966Y011490D01*
X052671Y011014D02*
X052743Y011014D01*
X052196Y010222D02*
X056230Y010222D01*
X056387Y010063D02*
X052037Y010063D01*
X051879Y009905D02*
X056387Y009905D01*
X056387Y009746D02*
X051720Y009746D01*
X051561Y009587D02*
X056387Y009587D01*
X056387Y009429D02*
X051403Y009429D01*
X051244Y009270D02*
X056387Y009270D01*
X056387Y009112D02*
X051086Y009112D01*
X054764Y008795D02*
X055250Y008795D01*
X055131Y008636D02*
X054883Y008636D01*
X054917Y008478D02*
X055097Y008478D01*
X055097Y008319D02*
X054917Y008319D01*
X054917Y008161D02*
X055097Y008161D01*
X055097Y008002D02*
X054917Y008002D01*
X054914Y007843D02*
X055100Y007843D01*
X055174Y007685D02*
X054840Y007685D01*
X056864Y007526D02*
X057153Y007526D01*
X057312Y007368D02*
X056873Y007368D01*
X056914Y007209D02*
X057470Y007209D01*
X057560Y007051D02*
X056872Y007051D01*
X057669Y007685D02*
X057674Y007685D01*
X057659Y007699D02*
X057775Y007584D01*
X057926Y007522D01*
X058089Y007522D01*
X058239Y007584D01*
X058355Y007699D01*
X058417Y007850D01*
X058417Y008553D01*
X058355Y008704D01*
X058239Y008819D01*
X058089Y008882D01*
X057926Y008882D01*
X057775Y008819D01*
X057659Y008704D01*
X057597Y008553D01*
X057597Y007850D01*
X057659Y007699D01*
X057600Y007843D02*
X057510Y007843D01*
X057454Y008002D02*
X057597Y008002D01*
X057597Y008161D02*
X057454Y008161D01*
X057454Y008319D02*
X057597Y008319D01*
X057597Y008478D02*
X057454Y008478D01*
X057454Y008636D02*
X057631Y008636D01*
X057750Y008795D02*
X057454Y008795D01*
X057454Y008953D02*
X060529Y008953D01*
X060529Y008795D02*
X059264Y008795D01*
X059239Y008819D02*
X059089Y008882D01*
X058926Y008882D01*
X058775Y008819D01*
X058659Y008704D01*
X058597Y008553D01*
X058597Y007850D01*
X058659Y007699D01*
X058775Y007584D01*
X058926Y007522D01*
X059089Y007522D01*
X059239Y007584D01*
X059355Y007699D01*
X059417Y007850D01*
X059417Y008553D01*
X059355Y008704D01*
X059239Y008819D01*
X059383Y008636D02*
X060529Y008636D01*
X060529Y008478D02*
X059417Y008478D01*
X059417Y008319D02*
X060529Y008319D01*
X060529Y008161D02*
X059417Y008161D01*
X059417Y008002D02*
X060529Y008002D01*
X060529Y007843D02*
X059414Y007843D01*
X059340Y007685D02*
X060529Y007685D01*
X060529Y007526D02*
X059100Y007526D01*
X058914Y007526D02*
X058100Y007526D01*
X058054Y007368D02*
X060529Y007368D01*
X060529Y007209D02*
X058095Y007209D01*
X058053Y007051D02*
X060529Y007051D01*
X060529Y006258D02*
X060484Y006258D01*
X058674Y007685D02*
X058340Y007685D01*
X058414Y007843D02*
X058600Y007843D01*
X058597Y008002D02*
X058417Y008002D01*
X058417Y008161D02*
X058597Y008161D01*
X058597Y008319D02*
X058417Y008319D01*
X058417Y008478D02*
X058597Y008478D01*
X058631Y008636D02*
X058383Y008636D01*
X058264Y008795D02*
X058750Y008795D01*
X057454Y009112D02*
X060529Y009112D01*
X060529Y009270D02*
X057454Y009270D01*
X057454Y009429D02*
X060529Y009429D01*
X060529Y009587D02*
X057454Y009587D01*
X057454Y009746D02*
X060529Y009746D01*
X060529Y009905D02*
X057454Y009905D01*
X057454Y010063D02*
X060529Y010063D01*
X060529Y010222D02*
X057454Y010222D01*
X057454Y010380D02*
X060529Y010380D01*
X060529Y010539D02*
X057504Y010539D01*
X057470Y010697D02*
X060529Y010697D01*
X060529Y010856D02*
X060283Y010856D01*
X060283Y011014D02*
X060529Y011014D01*
X060529Y011173D02*
X060283Y011173D01*
X060283Y011331D02*
X060529Y011331D01*
X060529Y011490D02*
X059886Y011490D01*
X059728Y011649D02*
X060529Y011649D01*
X060529Y011807D02*
X059740Y011807D01*
X059772Y011966D02*
X060529Y011966D01*
X060529Y012124D02*
X059772Y012124D01*
X059772Y012283D02*
X060529Y012283D01*
X060529Y012441D02*
X059772Y012441D01*
X059772Y012600D02*
X060529Y012600D01*
X060529Y012758D02*
X059772Y012758D01*
X059700Y012917D02*
X060529Y012917D01*
X060529Y013075D02*
X058480Y013075D01*
X058635Y013234D02*
X060529Y013234D01*
X060529Y013392D02*
X058777Y013392D01*
X058919Y013551D02*
X060529Y013551D01*
X060529Y013710D02*
X059723Y013710D01*
X059772Y013868D02*
X060529Y013868D01*
X060529Y014027D02*
X059772Y014027D01*
X059772Y014185D02*
X060529Y014185D01*
X060529Y014344D02*
X059772Y014344D01*
X059772Y014502D02*
X060529Y014502D01*
X060529Y014661D02*
X059772Y014661D01*
X059717Y014819D02*
X060529Y014819D01*
X060529Y014978D02*
X059467Y014978D01*
X059433Y015136D02*
X059572Y015136D01*
X059414Y015295D02*
X059281Y015295D01*
X059346Y015454D02*
X059123Y015454D01*
X059309Y015612D02*
X057910Y015612D01*
X057304Y015612D02*
X056210Y015612D01*
X056255Y015454D02*
X057259Y015454D01*
X057259Y015295D02*
X056255Y015295D01*
X056255Y015136D02*
X057259Y015136D01*
X057317Y014978D02*
X056197Y014978D01*
X055604Y015612D02*
X054183Y015612D01*
X054183Y015454D02*
X054791Y015454D01*
X054787Y015449D02*
X054787Y015449D01*
X054183Y015771D02*
X059309Y015771D01*
X059359Y015929D02*
X054183Y015929D01*
X053431Y015929D02*
X047978Y015929D01*
X047994Y015771D02*
X053398Y015771D01*
X052764Y015136D02*
X049494Y015136D01*
X049587Y014978D02*
X052027Y014978D01*
X051966Y013868D02*
X051765Y013868D01*
X051966Y013710D02*
X049884Y013710D01*
X050042Y013868D02*
X051249Y013868D01*
X051966Y013551D02*
X049725Y013551D01*
X050441Y012600D02*
X051966Y012600D01*
X052011Y012441D02*
X050338Y012441D01*
X049876Y012441D02*
X049603Y012441D01*
X048313Y012283D02*
X054142Y012283D01*
X054142Y012441D02*
X053382Y012441D01*
X057897Y014978D02*
X058863Y014978D01*
X060371Y015136D02*
X060529Y015136D01*
X060497Y016088D02*
X060528Y016088D01*
X060508Y016246D02*
X060325Y016246D01*
X060456Y016405D02*
X047684Y016405D01*
X047484Y016405D02*
X046684Y016405D01*
X046666Y016217D02*
X046503Y016217D01*
X046352Y016155D01*
X046237Y016039D01*
X046174Y015889D01*
X046174Y015726D01*
X046237Y015575D01*
X046352Y015460D01*
X046503Y015397D01*
X046666Y015397D01*
X046816Y015460D01*
X046932Y015575D01*
X046994Y015726D01*
X046994Y015889D01*
X046932Y016039D01*
X046816Y016155D01*
X046666Y016217D01*
X046884Y016088D02*
X047285Y016088D01*
X047191Y015929D02*
X046978Y015929D01*
X046994Y015771D02*
X047174Y015771D01*
X047221Y015612D02*
X046947Y015612D01*
X046802Y015454D02*
X047367Y015454D01*
X046367Y015454D02*
X045802Y015454D01*
X045947Y015612D02*
X046221Y015612D01*
X046174Y015771D02*
X045994Y015771D01*
X045978Y015929D02*
X046191Y015929D01*
X046285Y016088D02*
X045884Y016088D01*
X045684Y016405D02*
X046484Y016405D01*
X046248Y016563D02*
X045920Y016563D01*
X045993Y016722D02*
X046176Y016722D01*
X046174Y016880D02*
X045994Y016880D01*
X045248Y016563D02*
X044920Y016563D01*
X044993Y016722D02*
X045176Y016722D01*
X045174Y016880D02*
X044994Y016880D01*
X044314Y016246D02*
X059618Y016246D01*
X059447Y016088D02*
X047884Y016088D01*
X047920Y016563D02*
X060380Y016563D01*
X060264Y016722D02*
X047993Y016722D01*
X047994Y016880D02*
X060059Y016880D01*
X047248Y016563D02*
X046920Y016563D01*
X046993Y016722D02*
X047176Y016722D01*
X047174Y016880D02*
X046994Y016880D01*
X057827Y007526D02*
X057914Y007526D01*
X059226Y003404D02*
X060529Y003404D01*
X060529Y003246D02*
X059226Y003246D01*
X059226Y003087D02*
X060529Y003087D01*
X060529Y002929D02*
X059226Y002929D01*
X059226Y002770D02*
X060529Y002770D01*
X060523Y002612D02*
X059226Y002612D01*
X059226Y002453D02*
X060491Y002453D01*
X060440Y002294D02*
X059226Y002294D01*
X059226Y002136D02*
X060342Y002136D01*
X060205Y001977D02*
X059210Y001977D01*
X059051Y001819D02*
X059959Y001819D01*
X031434Y001819D02*
X027307Y001819D01*
X027061Y001977D02*
X031315Y001977D01*
X031196Y002136D02*
X026924Y002136D01*
X026827Y002294D02*
X031077Y002294D01*
X030986Y002453D02*
X026775Y002453D01*
X026737Y005307D02*
X026882Y005307D01*
X026782Y006258D02*
X026737Y006258D01*
D20*
X039307Y008102D03*
X048407Y005902D03*
X048707Y004002D03*
X055907Y015302D03*
X057607Y015302D03*
X050207Y016202D03*
X034007Y016202D03*
X031907Y015902D03*
X029607Y015902D03*
D21*
X034007Y016202D02*
X034872Y016202D01*
X034907Y016236D01*
X037607Y012802D02*
X039197Y012802D01*
D22*
X040976Y012821D03*
X040976Y012329D03*
X040976Y011836D03*
X040976Y011344D03*
X041960Y010754D03*
X042157Y009868D03*
X043338Y010262D03*
X042157Y008884D03*
X046389Y009573D03*
X048751Y009573D03*
X048948Y009179D03*
X049243Y009671D03*
X049342Y008391D03*
X047275Y008096D03*
X048554Y010852D03*
X048161Y012033D03*
X046980Y012230D03*
X047964Y013017D03*
X046881Y014002D03*
X048948Y014986D03*
X049243Y014986D03*
X044027Y012329D03*
X040976Y013313D03*
X031231Y011344D03*
X030444Y011344D03*
X030641Y007407D03*
X031625Y007407D03*
X031625Y005045D03*
X031625Y004651D03*
X031625Y004258D03*
X056625Y007210D03*
X057806Y007210D03*
X058003Y005045D03*
X058003Y004651D03*
X058003Y004258D03*
X057216Y010557D03*
X056231Y010557D03*
D23*
X049243Y009671D02*
X047472Y011443D01*
X042649Y011443D01*
X041763Y012329D01*
X040976Y012329D01*
X040976Y012821D02*
X041566Y012821D01*
X042747Y011640D01*
X047767Y011640D01*
X048554Y010852D01*
X048357Y009671D02*
X046980Y011049D01*
X042452Y011049D01*
X042157Y011344D01*
X040976Y011344D01*
X040976Y011836D02*
X041960Y011836D01*
X042550Y011246D01*
X047078Y011246D01*
X048751Y009573D01*
X048357Y009671D02*
X048357Y009474D01*
X048653Y009179D01*
X048948Y009179D01*
X049145Y008391D02*
X049342Y008391D01*
X049243Y008391D01*
X049145Y008391D02*
X046783Y010754D01*
X041960Y010754D01*
X043338Y010262D02*
X043338Y009837D01*
X043292Y009791D01*
X043292Y008891D02*
X043338Y008845D01*
X043338Y008391D01*
X043633Y008096D01*
X047275Y008096D01*
X046206Y009437D02*
X046341Y009573D01*
X046389Y009573D01*
X042485Y008891D02*
X042478Y008884D01*
X042157Y008884D01*
X042846Y011836D02*
X047964Y011836D01*
X048161Y012033D01*
X046980Y012230D02*
X046783Y012033D01*
X044322Y012033D01*
X044027Y012329D01*
X042846Y011836D02*
X041369Y013313D01*
X040976Y013313D01*
X044125Y015183D02*
X044125Y016167D01*
X043928Y016364D01*
X042058Y016364D01*
X041615Y016807D01*
X041584Y016807D01*
X044125Y015183D02*
X045798Y013510D01*
X047472Y013510D01*
X047964Y013017D01*
X048917Y014702D02*
X048948Y014732D01*
X048948Y014986D01*
D24*
X051507Y014102D03*
X050107Y012702D03*
X050707Y010802D03*
X052507Y009702D03*
X046207Y007202D03*
X040807Y010002D03*
X038107Y013802D03*
D25*
X039197Y013802D01*
X037207Y014402D02*
X037207Y012602D01*
X037607Y012302D01*
X040007Y012302D01*
X040307Y012002D01*
X040307Y011202D01*
X040007Y010902D01*
X039507Y010902D01*
X039307Y010702D01*
X039307Y008102D01*
X040807Y007602D02*
X041207Y007202D01*
X046207Y007202D01*
X048407Y005902D02*
X048707Y005902D01*
X050407Y007302D01*
X050407Y008702D01*
X052372Y010667D01*
X052372Y010702D01*
X050107Y012702D02*
X048917Y012702D01*
X048917Y013702D02*
X049607Y013702D01*
X050007Y014102D01*
X051507Y014102D01*
X040807Y010002D02*
X040807Y007602D01*
X037607Y012802D02*
X037607Y015302D01*
X037507Y016002D01*
X037507Y016202D01*
X036807Y014802D02*
X035417Y014802D01*
X036807Y014802D02*
X037207Y014402D01*
D26*
X031231Y011344D02*
X031035Y011147D01*
X031035Y007801D01*
X031428Y007407D01*
X031625Y007407D01*
X030641Y007407D02*
X030641Y011147D01*
X030444Y011344D01*
X031231Y005439D02*
X032216Y005439D01*
X032216Y003667D01*
X032609Y003273D01*
X056625Y003273D01*
X057216Y003864D01*
X057216Y005242D01*
X057413Y005439D01*
X058594Y005439D01*
X058987Y005045D01*
X058987Y002092D01*
X058645Y001750D01*
X031783Y001750D01*
X031231Y002486D01*
X031231Y005439D01*
X031231Y005410D02*
X032216Y005410D01*
X032216Y005214D02*
X031231Y005214D01*
X031231Y005019D02*
X032216Y005019D01*
X032216Y004823D02*
X031231Y004823D01*
X031231Y004628D02*
X032216Y004628D01*
X032216Y004433D02*
X031231Y004433D01*
X031231Y004237D02*
X032216Y004237D01*
X032216Y004042D02*
X031231Y004042D01*
X031231Y003846D02*
X032216Y003846D01*
X032232Y003651D02*
X031231Y003651D01*
X031231Y003456D02*
X032427Y003456D01*
X031231Y003260D02*
X058987Y003260D01*
X058987Y003065D02*
X031231Y003065D01*
X031231Y002869D02*
X058987Y002869D01*
X058987Y002674D02*
X031231Y002674D01*
X031237Y002479D02*
X058987Y002479D01*
X058987Y002283D02*
X031384Y002283D01*
X031530Y002088D02*
X058983Y002088D01*
X058788Y001893D02*
X031677Y001893D01*
X056625Y007210D02*
X056625Y010163D01*
X056231Y010557D01*
X057216Y010557D02*
X057216Y007801D01*
X057806Y007210D01*
X057383Y005410D02*
X058623Y005410D01*
X058818Y005214D02*
X057216Y005214D01*
X057216Y005019D02*
X058987Y005019D01*
X058987Y004823D02*
X057216Y004823D01*
X057216Y004628D02*
X058987Y004628D01*
X058987Y004433D02*
X057216Y004433D01*
X057216Y004237D02*
X058987Y004237D01*
X058987Y004042D02*
X057216Y004042D01*
X057198Y003846D02*
X058987Y003846D01*
X058987Y003651D02*
X057003Y003651D01*
X056807Y003456D02*
X058987Y003456D01*
M02*
