G75*
G70*
%OFA0B0*%
%FSLAX24Y24*%
%IPPOS*%
%LPD*%
%AMOC8*
5,1,8,0,0,1.08239X$1,22.5*
%
%ADD10C,0.0098*%
%ADD11C,0.0394*%
D10*
X026507Y005832D02*
X026509Y005888D01*
X026515Y005943D01*
X026525Y005997D01*
X026538Y006051D01*
X026556Y006104D01*
X026577Y006155D01*
X026601Y006205D01*
X026629Y006253D01*
X026661Y006299D01*
X026695Y006343D01*
X026733Y006384D01*
X026773Y006422D01*
X026816Y006457D01*
X026861Y006489D01*
X026909Y006518D01*
X026958Y006544D01*
X027009Y006566D01*
X027061Y006584D01*
X027115Y006598D01*
X027170Y006609D01*
X027225Y006616D01*
X027280Y006619D01*
X027336Y006618D01*
X027391Y006613D01*
X027446Y006604D01*
X027500Y006592D01*
X027553Y006575D01*
X027605Y006555D01*
X027655Y006531D01*
X027703Y006504D01*
X027750Y006474D01*
X027794Y006440D01*
X027836Y006403D01*
X027874Y006363D01*
X027911Y006321D01*
X027944Y006276D01*
X027973Y006230D01*
X028000Y006181D01*
X028022Y006130D01*
X028042Y006078D01*
X028057Y006024D01*
X028069Y005970D01*
X028077Y005915D01*
X028081Y005860D01*
X028081Y005804D01*
X028077Y005749D01*
X028069Y005694D01*
X028057Y005640D01*
X028042Y005586D01*
X028022Y005534D01*
X028000Y005483D01*
X027973Y005434D01*
X027944Y005388D01*
X027911Y005343D01*
X027874Y005301D01*
X027836Y005261D01*
X027794Y005224D01*
X027750Y005190D01*
X027703Y005160D01*
X027655Y005133D01*
X027605Y005109D01*
X027553Y005089D01*
X027500Y005072D01*
X027446Y005060D01*
X027391Y005051D01*
X027336Y005046D01*
X027280Y005045D01*
X027225Y005048D01*
X027170Y005055D01*
X027115Y005066D01*
X027061Y005080D01*
X027009Y005098D01*
X026958Y005120D01*
X026909Y005146D01*
X026861Y005175D01*
X026816Y005207D01*
X026773Y005242D01*
X026733Y005280D01*
X026695Y005321D01*
X026661Y005365D01*
X026629Y005411D01*
X026601Y005459D01*
X026577Y005509D01*
X026556Y005560D01*
X026538Y005613D01*
X026525Y005667D01*
X026515Y005721D01*
X026509Y005776D01*
X026507Y005832D01*
X026507Y015675D02*
X026509Y015731D01*
X026515Y015786D01*
X026525Y015840D01*
X026538Y015894D01*
X026556Y015947D01*
X026577Y015998D01*
X026601Y016048D01*
X026629Y016096D01*
X026661Y016142D01*
X026695Y016186D01*
X026733Y016227D01*
X026773Y016265D01*
X026816Y016300D01*
X026861Y016332D01*
X026909Y016361D01*
X026958Y016387D01*
X027009Y016409D01*
X027061Y016427D01*
X027115Y016441D01*
X027170Y016452D01*
X027225Y016459D01*
X027280Y016462D01*
X027336Y016461D01*
X027391Y016456D01*
X027446Y016447D01*
X027500Y016435D01*
X027553Y016418D01*
X027605Y016398D01*
X027655Y016374D01*
X027703Y016347D01*
X027750Y016317D01*
X027794Y016283D01*
X027836Y016246D01*
X027874Y016206D01*
X027911Y016164D01*
X027944Y016119D01*
X027973Y016073D01*
X028000Y016024D01*
X028022Y015973D01*
X028042Y015921D01*
X028057Y015867D01*
X028069Y015813D01*
X028077Y015758D01*
X028081Y015703D01*
X028081Y015647D01*
X028077Y015592D01*
X028069Y015537D01*
X028057Y015483D01*
X028042Y015429D01*
X028022Y015377D01*
X028000Y015326D01*
X027973Y015277D01*
X027944Y015231D01*
X027911Y015186D01*
X027874Y015144D01*
X027836Y015104D01*
X027794Y015067D01*
X027750Y015033D01*
X027703Y015003D01*
X027655Y014976D01*
X027605Y014952D01*
X027553Y014932D01*
X027500Y014915D01*
X027446Y014903D01*
X027391Y014894D01*
X027336Y014889D01*
X027280Y014888D01*
X027225Y014891D01*
X027170Y014898D01*
X027115Y014909D01*
X027061Y014923D01*
X027009Y014941D01*
X026958Y014963D01*
X026909Y014989D01*
X026861Y015018D01*
X026816Y015050D01*
X026773Y015085D01*
X026733Y015123D01*
X026695Y015164D01*
X026661Y015208D01*
X026629Y015254D01*
X026601Y015302D01*
X026577Y015352D01*
X026556Y015403D01*
X026538Y015456D01*
X026525Y015510D01*
X026515Y015564D01*
X026509Y015619D01*
X026507Y015675D01*
X059185Y015675D02*
X059187Y015731D01*
X059193Y015786D01*
X059203Y015840D01*
X059216Y015894D01*
X059234Y015947D01*
X059255Y015998D01*
X059279Y016048D01*
X059307Y016096D01*
X059339Y016142D01*
X059373Y016186D01*
X059411Y016227D01*
X059451Y016265D01*
X059494Y016300D01*
X059539Y016332D01*
X059587Y016361D01*
X059636Y016387D01*
X059687Y016409D01*
X059739Y016427D01*
X059793Y016441D01*
X059848Y016452D01*
X059903Y016459D01*
X059958Y016462D01*
X060014Y016461D01*
X060069Y016456D01*
X060124Y016447D01*
X060178Y016435D01*
X060231Y016418D01*
X060283Y016398D01*
X060333Y016374D01*
X060381Y016347D01*
X060428Y016317D01*
X060472Y016283D01*
X060514Y016246D01*
X060552Y016206D01*
X060589Y016164D01*
X060622Y016119D01*
X060651Y016073D01*
X060678Y016024D01*
X060700Y015973D01*
X060720Y015921D01*
X060735Y015867D01*
X060747Y015813D01*
X060755Y015758D01*
X060759Y015703D01*
X060759Y015647D01*
X060755Y015592D01*
X060747Y015537D01*
X060735Y015483D01*
X060720Y015429D01*
X060700Y015377D01*
X060678Y015326D01*
X060651Y015277D01*
X060622Y015231D01*
X060589Y015186D01*
X060552Y015144D01*
X060514Y015104D01*
X060472Y015067D01*
X060428Y015033D01*
X060381Y015003D01*
X060333Y014976D01*
X060283Y014952D01*
X060231Y014932D01*
X060178Y014915D01*
X060124Y014903D01*
X060069Y014894D01*
X060014Y014889D01*
X059958Y014888D01*
X059903Y014891D01*
X059848Y014898D01*
X059793Y014909D01*
X059739Y014923D01*
X059687Y014941D01*
X059636Y014963D01*
X059587Y014989D01*
X059539Y015018D01*
X059494Y015050D01*
X059451Y015085D01*
X059411Y015123D01*
X059373Y015164D01*
X059339Y015208D01*
X059307Y015254D01*
X059279Y015302D01*
X059255Y015352D01*
X059234Y015403D01*
X059216Y015456D01*
X059203Y015510D01*
X059193Y015564D01*
X059187Y015619D01*
X059185Y015675D01*
X059185Y005832D02*
X059187Y005888D01*
X059193Y005943D01*
X059203Y005997D01*
X059216Y006051D01*
X059234Y006104D01*
X059255Y006155D01*
X059279Y006205D01*
X059307Y006253D01*
X059339Y006299D01*
X059373Y006343D01*
X059411Y006384D01*
X059451Y006422D01*
X059494Y006457D01*
X059539Y006489D01*
X059587Y006518D01*
X059636Y006544D01*
X059687Y006566D01*
X059739Y006584D01*
X059793Y006598D01*
X059848Y006609D01*
X059903Y006616D01*
X059958Y006619D01*
X060014Y006618D01*
X060069Y006613D01*
X060124Y006604D01*
X060178Y006592D01*
X060231Y006575D01*
X060283Y006555D01*
X060333Y006531D01*
X060381Y006504D01*
X060428Y006474D01*
X060472Y006440D01*
X060514Y006403D01*
X060552Y006363D01*
X060589Y006321D01*
X060622Y006276D01*
X060651Y006230D01*
X060678Y006181D01*
X060700Y006130D01*
X060720Y006078D01*
X060735Y006024D01*
X060747Y005970D01*
X060755Y005915D01*
X060759Y005860D01*
X060759Y005804D01*
X060755Y005749D01*
X060747Y005694D01*
X060735Y005640D01*
X060720Y005586D01*
X060700Y005534D01*
X060678Y005483D01*
X060651Y005434D01*
X060622Y005388D01*
X060589Y005343D01*
X060552Y005301D01*
X060514Y005261D01*
X060472Y005224D01*
X060428Y005190D01*
X060381Y005160D01*
X060333Y005133D01*
X060283Y005109D01*
X060231Y005089D01*
X060178Y005072D01*
X060124Y005060D01*
X060069Y005051D01*
X060014Y005046D01*
X059958Y005045D01*
X059903Y005048D01*
X059848Y005055D01*
X059793Y005066D01*
X059739Y005080D01*
X059687Y005098D01*
X059636Y005120D01*
X059587Y005146D01*
X059539Y005175D01*
X059494Y005207D01*
X059451Y005242D01*
X059411Y005280D01*
X059373Y005321D01*
X059339Y005365D01*
X059307Y005411D01*
X059279Y005459D01*
X059255Y005509D01*
X059234Y005560D01*
X059216Y005613D01*
X059203Y005667D01*
X059193Y005721D01*
X059187Y005776D01*
X059185Y005832D01*
D11*
X050228Y011702D02*
X050230Y011720D01*
X050236Y011736D01*
X050245Y011751D01*
X050258Y011764D01*
X050273Y011773D01*
X050289Y011779D01*
X050307Y011781D01*
X050325Y011779D01*
X050341Y011773D01*
X050356Y011764D01*
X050369Y011751D01*
X050378Y011736D01*
X050384Y011720D01*
X050386Y011702D01*
X050384Y011684D01*
X050378Y011668D01*
X050369Y011653D01*
X050356Y011640D01*
X050341Y011631D01*
X050325Y011625D01*
X050307Y011623D01*
X050289Y011625D01*
X050273Y011631D01*
X050258Y011640D01*
X050245Y011653D01*
X050236Y011668D01*
X050230Y011684D01*
X050228Y011702D01*
X037728Y014802D02*
X037730Y014820D01*
X037736Y014836D01*
X037745Y014851D01*
X037758Y014864D01*
X037773Y014873D01*
X037789Y014879D01*
X037807Y014881D01*
X037825Y014879D01*
X037841Y014873D01*
X037856Y014864D01*
X037869Y014851D01*
X037878Y014836D01*
X037884Y014820D01*
X037886Y014802D01*
X037884Y014784D01*
X037878Y014768D01*
X037869Y014753D01*
X037856Y014740D01*
X037841Y014731D01*
X037825Y014725D01*
X037807Y014723D01*
X037789Y014725D01*
X037773Y014731D01*
X037758Y014740D01*
X037745Y014753D01*
X037736Y014768D01*
X037730Y014784D01*
X037728Y014802D01*
M02*
