G75*
G70*
%OFA0B0*%
%FSLAX24Y24*%
%IPPOS*%
%LPD*%
%AMOC8*
5,1,8,0,0,1.08239X$1,22.5*
%
%ADD10C,0.0946*%
%ADD11C,0.0620*%
%ADD12R,0.0631X0.0671*%
%ADD13R,0.1261X0.0395*%
%ADD14R,0.0474X0.0513*%
%ADD15R,0.0513X0.0474*%
%ADD16C,0.0620*%
%ADD17R,0.0930X0.0970*%
%ADD18R,0.0552X0.0552*%
%ADD19R,0.0496X0.0496*%
%ADD20C,0.0377*%
%ADD21C,0.0496*%
D10*
X027294Y005832D03*
X027294Y015675D03*
X059972Y015675D03*
X059972Y005832D03*
D11*
X047584Y015807D03*
X046584Y015807D03*
X045584Y015807D03*
X044584Y015807D03*
X043584Y015807D03*
X042584Y015807D03*
X041584Y015807D03*
X041584Y016807D03*
X042584Y016807D03*
X044584Y016807D03*
X045584Y016807D03*
X046584Y016807D03*
X047584Y016807D03*
D12*
X044099Y009791D03*
X043292Y009791D03*
X042485Y009791D03*
X042485Y008891D03*
X043292Y008891D03*
X044099Y008891D03*
X045399Y009437D03*
X046206Y009437D03*
D13*
X048917Y011702D03*
X048917Y012702D03*
X048917Y013702D03*
X048917Y014702D03*
X052697Y014702D03*
X052697Y013702D03*
X052697Y012702D03*
X052697Y011702D03*
X039197Y011802D03*
X039197Y012802D03*
X039197Y013802D03*
X039197Y014802D03*
X035417Y014802D03*
X035417Y013802D03*
X035417Y012802D03*
X035417Y011802D03*
D14*
X034907Y015567D03*
X034907Y016236D03*
D15*
X052372Y010702D03*
X053042Y010702D03*
D16*
X054507Y008472D02*
X054507Y007932D01*
X055507Y007932D02*
X055507Y008472D01*
X058007Y008472D02*
X058007Y007932D01*
X059007Y007932D02*
X059007Y008472D01*
X037507Y015932D02*
X037507Y016472D01*
X036507Y016472D02*
X036507Y015932D01*
X032707Y008972D02*
X032707Y008432D01*
X031707Y008432D02*
X031707Y008972D01*
X029707Y008972D02*
X029707Y008432D01*
X028707Y008432D02*
X028707Y008972D01*
D17*
X033307Y012442D03*
X033307Y014362D03*
X028507Y014762D03*
X028507Y012842D03*
X054707Y012342D03*
X054707Y014262D03*
X059207Y014262D03*
X059207Y012342D03*
D18*
X059907Y011102D03*
X054007Y011002D03*
X053807Y015702D03*
X040307Y016102D03*
X033907Y011102D03*
X028407Y011702D03*
D19*
X029607Y015902D03*
X031907Y015902D03*
X034007Y016202D03*
X050207Y016202D03*
X055907Y015302D03*
X057607Y015302D03*
X039307Y008102D03*
X048407Y005902D03*
X048707Y004002D03*
D20*
X056625Y007210D03*
X057806Y007210D03*
X058003Y005045D03*
X058003Y004651D03*
X058003Y004258D03*
X049342Y008391D03*
X048948Y009179D03*
X048751Y009573D03*
X049243Y009671D03*
X046389Y009573D03*
X047275Y008096D03*
X043338Y010262D03*
X042157Y009868D03*
X041960Y010754D03*
X040976Y011344D03*
X040976Y011836D03*
X040976Y012329D03*
X040976Y012821D03*
X040976Y013313D03*
X044027Y012329D03*
X046980Y012230D03*
X048161Y012033D03*
X047964Y013017D03*
X046881Y014002D03*
X048948Y014986D03*
X049243Y014986D03*
X048554Y010852D03*
X042157Y008884D03*
X031625Y007407D03*
X030641Y007407D03*
X031625Y005045D03*
X031625Y004651D03*
X031625Y004258D03*
X031231Y011344D03*
X030444Y011344D03*
X056231Y010557D03*
X057216Y010557D03*
D21*
X052507Y009702D03*
X050707Y010802D03*
X050107Y012702D03*
X051507Y014102D03*
X040807Y010002D03*
X046207Y007202D03*
X038107Y013802D03*
M02*
