%
M48
M72
T01C0.0157
T02C0.0276
T03C0.0315
T04C0.0360
T05C0.0866
%
T01
X30444Y11344
X31231Y11344
X31625Y7407
X30641Y7407
X31625Y5045
X31625Y4651
X31625Y4258
X42157Y8884
X42157Y9868
X43338Y10262
X41960Y10754
X40976Y11344
X40976Y11836
X40976Y12329
X40976Y12821
X40976Y13313
X44027Y12329
X46980Y12230
X48161Y12033
X47964Y13017
X46881Y14002
X48948Y14986
X49243Y14986
X48554Y10852
X48751Y9573
X48948Y9179
X49243Y9671
X49342Y8391
X47275Y8096
X46389Y9573
X56231Y10557
X57216Y10557
X57806Y7210
X56625Y7210
X58003Y5045
X58003Y4651
X58003Y4258
T02
X48707Y4002
X48407Y5902
X46207Y7202
X40807Y10002
X39307Y8102
X50107Y12702
X51507Y14102
X50207Y16202
X55907Y15302
X57607Y15302
X50707Y10802
X52507Y9702
X38107Y13802
X34007Y16202
X31907Y15902
X29607Y15902
T03
X28407Y11702
X33907Y11102
X40307Y16102
X53807Y15702
X54007Y11002
X59907Y11102
T04
X59007Y8202
X58007Y8202
X55507Y8202
X54507Y8202
X47584Y15807
X46584Y15807
X45584Y15807
X44584Y15807
X43584Y15807
X42584Y15807
X41584Y15807
X41584Y16807
X42584Y16807
X44584Y16807
X45584Y16807
X46584Y16807
X47584Y16807
X37507Y16202
X36507Y16202
X32707Y8702
X31707Y8702
X29707Y8702
X28707Y8702
T05
X27294Y5832
X27294Y15675
X59972Y15675
X59972Y5832
M30
