G75*
G70*
%OFA0B0*%
%FSLAX24Y24*%
%IPPOS*%
%LPD*%
%AMOC8*
5,1,8,0,0,1.08239X$1,22.5*
%
%ADD10C,0.0200*%
%ADD11C,0.0550*%
%ADD12C,0.0394*%
%ADD13C,0.0040*%
%ADD14C,0.0098*%
%ADD15C,0.0050*%
%ADD16C,0.0030*%
%ADD17C,0.0060*%
%ADD18C,0.0031*%
%ADD19C,0.0236*%
%ADD20C,0.0118*%
%ADD21C,0.0150*%
%ADD22R,0.1050X0.0050*%
%ADD23R,0.1150X0.0050*%
%ADD24R,0.1250X0.0050*%
%ADD25R,0.1350X0.0050*%
%ADD26R,0.1450X0.0050*%
%ADD27R,0.1550X0.0050*%
%ADD28R,0.1650X0.0050*%
%ADD29R,0.1750X0.0050*%
%ADD30R,0.1850X0.0050*%
%ADD31R,0.0650X0.0050*%
%ADD32R,0.0600X0.0050*%
%ADD33R,0.0550X0.0050*%
%ADD34R,0.0200X0.0050*%
%ADD35R,0.0050X0.0050*%
%ADD36R,0.0100X0.0050*%
%ADD37R,0.0300X0.0050*%
%ADD38R,0.1100X0.0050*%
D10*
X033594Y006194D02*
X033757Y006031D01*
X034085Y006031D01*
X034248Y006194D01*
X034681Y006031D02*
X034681Y006685D01*
X035009Y007013D01*
X035336Y006685D01*
X035336Y006031D01*
X035769Y006031D02*
X035769Y007013D01*
X036423Y006031D01*
X036423Y007013D01*
X035336Y006522D02*
X034681Y006522D01*
X033594Y006849D02*
X033594Y006194D01*
X033594Y006849D02*
X033757Y007013D01*
X034085Y007013D01*
X034248Y006849D01*
X050307Y006849D02*
X050307Y006194D01*
X050471Y006031D01*
X050798Y006031D01*
X050962Y006194D01*
X051395Y006031D02*
X051395Y006685D01*
X051722Y007013D01*
X052049Y006685D01*
X052049Y006031D01*
X052482Y006031D02*
X052482Y007013D01*
X053137Y006031D01*
X053137Y007013D01*
X052049Y006522D02*
X051395Y006522D01*
X050962Y006849D02*
X050798Y007013D01*
X050471Y007013D01*
X050307Y006849D01*
D11*
X051350Y005441D02*
X050982Y005073D01*
X051350Y005441D02*
X052086Y005441D01*
X052454Y005073D01*
X052454Y004705D01*
X050982Y003233D01*
X052454Y003233D01*
X035734Y003233D02*
X035734Y004705D01*
X034998Y005441D01*
X034262Y004705D01*
X034262Y003233D01*
X034262Y004337D02*
X035734Y004337D01*
D12*
X040680Y002683D02*
X044617Y002683D01*
X043436Y003470D01*
X044617Y002683D02*
X043436Y001895D01*
D13*
X026783Y007821D02*
X026724Y007880D01*
X026724Y007998D01*
X026783Y008057D01*
X026842Y008183D02*
X026724Y008301D01*
X026842Y008419D01*
X027078Y008419D01*
X027078Y008546D02*
X026724Y008546D01*
X027078Y008782D01*
X026724Y008782D01*
X026901Y008419D02*
X026901Y008183D01*
X026842Y008183D02*
X027078Y008183D01*
X027019Y008057D02*
X027078Y007998D01*
X027078Y007880D01*
X027019Y007821D01*
X026783Y007821D01*
X027236Y008022D02*
X027236Y008258D01*
X027236Y008140D02*
X027590Y008140D01*
X027590Y008384D02*
X027236Y008384D01*
X027236Y008620D01*
X027236Y008747D02*
X027236Y008924D01*
X027295Y008983D01*
X027413Y008983D01*
X027472Y008924D01*
X027472Y008747D01*
X027472Y008865D02*
X027590Y008983D01*
X027590Y009109D02*
X027236Y009109D01*
X027354Y009227D01*
X027236Y009345D01*
X027590Y009345D01*
X027078Y009271D02*
X026842Y009271D01*
X026724Y009389D01*
X026842Y009507D01*
X027078Y009507D01*
X026901Y009507D02*
X026901Y009271D01*
X027236Y008747D02*
X027590Y008747D01*
X027590Y008620D02*
X027590Y008384D01*
X027413Y008384D02*
X027413Y008502D01*
X034893Y015163D02*
X034952Y015104D01*
X035188Y015104D01*
X035247Y015163D01*
X035247Y015281D01*
X035188Y015340D01*
X035247Y015467D02*
X035011Y015467D01*
X034893Y015585D01*
X035011Y015703D01*
X035247Y015703D01*
X035247Y015829D02*
X034893Y015829D01*
X035247Y016065D01*
X034893Y016065D01*
X035070Y015703D02*
X035070Y015467D01*
X034952Y015340D02*
X034893Y015281D01*
X034893Y015163D01*
X035011Y016554D02*
X034893Y016672D01*
X035011Y016790D01*
X035247Y016790D01*
X035070Y016790D02*
X035070Y016554D01*
X035011Y016554D02*
X035247Y016554D01*
X058811Y010084D02*
X058811Y009848D01*
X058870Y009789D01*
X058988Y009789D01*
X059047Y009848D01*
X059173Y009789D02*
X059173Y010025D01*
X059291Y010143D01*
X059409Y010025D01*
X059409Y009789D01*
X059536Y009789D02*
X059536Y010143D01*
X059771Y009789D01*
X059771Y010143D01*
X059409Y009966D02*
X059173Y009966D01*
X059047Y010084D02*
X058988Y010143D01*
X058870Y010143D01*
X058811Y010084D01*
X059007Y009553D02*
X059243Y009553D01*
X059125Y009553D02*
X059125Y009199D01*
X059370Y009199D02*
X059370Y009553D01*
X059606Y009553D01*
X059732Y009553D02*
X059909Y009553D01*
X059968Y009494D01*
X059968Y009376D01*
X059909Y009317D01*
X059732Y009317D01*
X059732Y009199D02*
X059732Y009553D01*
X059850Y009317D02*
X059968Y009199D01*
X060095Y009199D02*
X060095Y009553D01*
X060213Y009435D01*
X060331Y009553D01*
X060331Y009199D01*
X059606Y009199D02*
X059370Y009199D01*
X059370Y009376D02*
X059488Y009376D01*
X060260Y009789D02*
X060496Y010025D01*
X060496Y010084D01*
X060437Y010143D01*
X060319Y010143D01*
X060260Y010084D01*
X060260Y009789D02*
X060496Y009789D01*
D14*
X059972Y008982D02*
X059972Y007407D01*
X053672Y007407D01*
X053672Y008982D01*
X059972Y008982D01*
X033594Y009573D02*
X033594Y007801D01*
X027885Y007801D01*
X027885Y009573D01*
X033594Y009573D01*
D15*
X031807Y012502D02*
X029807Y012502D01*
X029807Y014502D01*
X031807Y014502D01*
X031807Y012502D01*
X042280Y014589D02*
X042351Y014519D01*
X042421Y014519D01*
X042491Y014589D01*
X042491Y014942D01*
X042421Y014942D02*
X042562Y014942D01*
X042715Y014942D02*
X042997Y014942D01*
X042856Y014942D02*
X042856Y014519D01*
X043150Y014519D02*
X043150Y014801D01*
X043291Y014942D01*
X043432Y014801D01*
X043432Y014519D01*
X043585Y014589D02*
X043656Y014519D01*
X043796Y014519D01*
X043867Y014589D01*
X043867Y014730D01*
X043726Y014730D01*
X043585Y014871D02*
X043585Y014589D01*
X043432Y014730D02*
X043150Y014730D01*
X043585Y014871D02*
X043656Y014942D01*
X043796Y014942D01*
X043867Y014871D01*
X048577Y016025D02*
X048579Y016039D01*
X048585Y016053D01*
X048593Y016065D01*
X048605Y016073D01*
X048619Y016079D01*
X048633Y016081D01*
X048647Y016079D01*
X048661Y016073D01*
X048673Y016065D01*
X048681Y016053D01*
X048687Y016039D01*
X048689Y016025D01*
X048687Y016011D01*
X048681Y015997D01*
X048673Y015985D01*
X048661Y015977D01*
X048647Y015971D01*
X048633Y015969D01*
X048619Y015971D01*
X048605Y015977D01*
X048593Y015985D01*
X048585Y015997D01*
X048579Y016011D01*
X048577Y016025D01*
X053151Y016844D02*
X053230Y016844D01*
X053230Y016726D01*
X053230Y016844D02*
X053230Y016962D01*
X053387Y016844D02*
X053466Y016844D01*
X055707Y013802D02*
X057707Y013802D01*
X057707Y011802D01*
X055707Y011802D01*
X055707Y013802D01*
X048910Y009096D02*
X048912Y009123D01*
X048918Y009150D01*
X048927Y009176D01*
X048940Y009200D01*
X048956Y009223D01*
X048975Y009242D01*
X048997Y009259D01*
X049021Y009273D01*
X049046Y009283D01*
X049073Y009290D01*
X049100Y009293D01*
X049128Y009292D01*
X049155Y009287D01*
X049181Y009279D01*
X049205Y009267D01*
X049228Y009251D01*
X049249Y009233D01*
X049266Y009212D01*
X049281Y009188D01*
X049292Y009163D01*
X049300Y009137D01*
X049304Y009110D01*
X049304Y009082D01*
X049300Y009055D01*
X049292Y009029D01*
X049281Y009004D01*
X049266Y008980D01*
X049249Y008959D01*
X049228Y008941D01*
X049206Y008925D01*
X049181Y008913D01*
X049155Y008905D01*
X049128Y008900D01*
X049100Y008899D01*
X049073Y008902D01*
X049046Y008909D01*
X049021Y008919D01*
X048997Y008933D01*
X048975Y008950D01*
X048956Y008969D01*
X048940Y008992D01*
X048927Y009016D01*
X048918Y009042D01*
X048912Y009069D01*
X048910Y009096D01*
X039325Y005200D02*
X039327Y005214D01*
X039333Y005228D01*
X039341Y005240D01*
X039353Y005248D01*
X039367Y005254D01*
X039381Y005256D01*
X039395Y005254D01*
X039409Y005248D01*
X039421Y005240D01*
X039429Y005228D01*
X039435Y005214D01*
X039437Y005200D01*
X039435Y005186D01*
X039429Y005172D01*
X039421Y005160D01*
X039409Y005152D01*
X039395Y005146D01*
X039381Y005144D01*
X039367Y005146D01*
X039353Y005152D01*
X039341Y005160D01*
X039333Y005172D01*
X039327Y005186D01*
X039325Y005200D01*
D16*
X035744Y014794D02*
X035479Y014794D01*
X035479Y014706D02*
X035479Y014883D01*
X035479Y014978D02*
X035744Y015155D01*
X035744Y014978D02*
X035479Y015155D01*
X035479Y015521D02*
X035744Y015521D01*
X035744Y015698D01*
X035744Y015793D02*
X035479Y015793D01*
X035744Y015970D01*
X035479Y015970D01*
X035567Y016065D02*
X035479Y016153D01*
X035567Y016242D01*
X035744Y016242D01*
X035744Y016337D02*
X035744Y016470D01*
X035700Y016514D01*
X035656Y016514D01*
X035611Y016470D01*
X035611Y016337D01*
X035611Y016242D02*
X035611Y016065D01*
X035567Y016065D02*
X035744Y016065D01*
X035744Y016337D02*
X035479Y016337D01*
X035479Y016470D01*
X035523Y016514D01*
X035567Y016514D01*
X035611Y016470D01*
X035479Y016609D02*
X035744Y016609D01*
X035744Y016786D01*
X035744Y016881D02*
X035744Y017057D01*
X035611Y016969D02*
X035611Y016881D01*
X035479Y016881D02*
X035744Y016881D01*
X035479Y016881D02*
X035479Y017057D01*
X035479Y015698D02*
X035479Y015521D01*
X035611Y015521D02*
X035611Y015610D01*
X053097Y016281D02*
X053274Y016281D01*
X053369Y016281D02*
X053546Y016281D01*
X053641Y016281D02*
X053773Y016281D01*
X053818Y016325D01*
X053818Y016502D01*
X053773Y016546D01*
X053641Y016546D01*
X053641Y016281D01*
X053457Y016413D02*
X053369Y016413D01*
X053369Y016281D02*
X053369Y016546D01*
X053546Y016546D01*
X053097Y016546D02*
X053097Y016281D01*
X054672Y015965D02*
X054760Y015788D01*
X054849Y015965D01*
X054944Y016010D02*
X054988Y016054D01*
X055076Y016054D01*
X055121Y016010D01*
X055121Y015965D01*
X054944Y015788D01*
X055121Y015788D01*
X055215Y015788D02*
X055260Y015788D01*
X055260Y015833D01*
X055215Y015833D01*
X055215Y015788D01*
X055351Y015833D02*
X055528Y016010D01*
X055528Y015833D01*
X055484Y015788D01*
X055396Y015788D01*
X055351Y015833D01*
X055351Y016010D01*
X055396Y016054D01*
X055484Y016054D01*
X055528Y016010D01*
D17*
X055584Y016394D02*
X055584Y016748D01*
X055407Y016925D01*
X055230Y016748D01*
X055230Y016394D01*
X055041Y016482D02*
X054952Y016394D01*
X054775Y016394D01*
X054687Y016482D01*
X054687Y016836D01*
X054775Y016925D01*
X054952Y016925D01*
X055041Y016836D01*
X055230Y016659D02*
X055584Y016659D01*
X055774Y016394D02*
X055774Y016925D01*
X056128Y016394D01*
X056128Y016925D01*
X056862Y016925D02*
X057039Y016748D01*
X057216Y016925D01*
X057216Y016394D01*
X057405Y016394D02*
X057582Y016394D01*
X057494Y016394D02*
X057494Y016748D01*
X057405Y016748D01*
X057494Y016925D02*
X057494Y017013D01*
X057768Y016748D02*
X057768Y016394D01*
X057768Y016571D02*
X057945Y016748D01*
X058033Y016748D01*
X058221Y016748D02*
X058221Y016394D01*
X058221Y016571D02*
X058398Y016748D01*
X058486Y016748D01*
X058674Y016659D02*
X058674Y016482D01*
X058763Y016394D01*
X058940Y016394D01*
X059028Y016482D01*
X059028Y016659D01*
X058940Y016748D01*
X058763Y016748D01*
X058674Y016659D01*
X059218Y016571D02*
X059395Y016748D01*
X059483Y016748D01*
X059218Y016748D02*
X059218Y016394D01*
X056862Y016394D02*
X056862Y016925D01*
X057607Y008702D02*
X058407Y008702D01*
X058507Y008602D01*
X058607Y008702D01*
X059407Y008702D01*
X059507Y008602D01*
X059507Y007802D01*
X059407Y007702D01*
X058607Y007702D01*
X058507Y007802D01*
X058407Y007702D01*
X057607Y007702D01*
X057507Y007802D01*
X057507Y008602D01*
X057607Y008702D01*
X056007Y008602D02*
X056007Y007802D01*
X055907Y007702D01*
X055107Y007702D01*
X055007Y007802D01*
X054907Y007702D01*
X054107Y007702D01*
X054007Y007802D01*
X054007Y008602D01*
X054107Y008702D01*
X054907Y008702D01*
X055007Y008602D01*
X055107Y008702D01*
X055907Y008702D01*
X056007Y008602D01*
X038007Y015802D02*
X038007Y016602D01*
X037907Y016702D01*
X037107Y016702D01*
X037007Y016602D01*
X036907Y016702D01*
X036107Y016702D01*
X036007Y016602D01*
X036007Y015802D01*
X036107Y015702D01*
X036907Y015702D01*
X037007Y015802D01*
X037107Y015702D01*
X037907Y015702D01*
X038007Y015802D01*
X033107Y009202D02*
X032307Y009202D01*
X032207Y009102D01*
X032107Y009202D01*
X031307Y009202D01*
X031207Y009102D01*
X031207Y008302D01*
X031307Y008202D01*
X032107Y008202D01*
X032207Y008302D01*
X032307Y008202D01*
X033107Y008202D01*
X033207Y008302D01*
X033207Y009102D01*
X033107Y009202D01*
X030207Y009102D02*
X030207Y008302D01*
X030107Y008202D01*
X029307Y008202D01*
X029207Y008302D01*
X029107Y008202D01*
X028307Y008202D01*
X028207Y008302D01*
X028207Y009102D01*
X028307Y009202D01*
X029107Y009202D01*
X029207Y009102D01*
X029307Y009202D01*
X030107Y009202D01*
X030207Y009102D01*
D18*
X053230Y016844D02*
X053387Y016726D01*
X053387Y016962D01*
X053230Y016844D01*
X053240Y016852D02*
X053387Y016852D01*
X053387Y016882D02*
X053280Y016882D01*
X053320Y016912D02*
X053387Y016912D01*
X053387Y016942D02*
X053360Y016942D01*
X053387Y016822D02*
X053260Y016822D01*
X053300Y016792D02*
X053387Y016792D01*
X053387Y016762D02*
X053340Y016762D01*
X053380Y016732D02*
X053387Y016732D01*
D19*
X056089Y013302D02*
X056091Y013323D01*
X056097Y013343D01*
X056106Y013363D01*
X056118Y013380D01*
X056133Y013394D01*
X056151Y013406D01*
X056171Y013414D01*
X056191Y013419D01*
X056212Y013420D01*
X056233Y013417D01*
X056253Y013411D01*
X056272Y013400D01*
X056289Y013387D01*
X056302Y013371D01*
X056313Y013353D01*
X056321Y013333D01*
X056325Y013313D01*
X056325Y013291D01*
X056321Y013271D01*
X056313Y013251D01*
X056302Y013233D01*
X056289Y013217D01*
X056272Y013204D01*
X056253Y013193D01*
X056233Y013187D01*
X056212Y013184D01*
X056191Y013185D01*
X056171Y013190D01*
X056151Y013198D01*
X056133Y013210D01*
X056118Y013224D01*
X056106Y013241D01*
X056097Y013261D01*
X056091Y013281D01*
X056089Y013302D01*
X057089Y013302D02*
X057091Y013323D01*
X057097Y013343D01*
X057106Y013363D01*
X057118Y013380D01*
X057133Y013394D01*
X057151Y013406D01*
X057171Y013414D01*
X057191Y013419D01*
X057212Y013420D01*
X057233Y013417D01*
X057253Y013411D01*
X057272Y013400D01*
X057289Y013387D01*
X057302Y013371D01*
X057313Y013353D01*
X057321Y013333D01*
X057325Y013313D01*
X057325Y013291D01*
X057321Y013271D01*
X057313Y013251D01*
X057302Y013233D01*
X057289Y013217D01*
X057272Y013204D01*
X057253Y013193D01*
X057233Y013187D01*
X057212Y013184D01*
X057191Y013185D01*
X057171Y013190D01*
X057151Y013198D01*
X057133Y013210D01*
X057118Y013224D01*
X057106Y013241D01*
X057097Y013261D01*
X057091Y013281D01*
X057089Y013302D01*
X031189Y014002D02*
X031191Y014023D01*
X031197Y014043D01*
X031206Y014063D01*
X031218Y014080D01*
X031233Y014094D01*
X031251Y014106D01*
X031271Y014114D01*
X031291Y014119D01*
X031312Y014120D01*
X031333Y014117D01*
X031353Y014111D01*
X031372Y014100D01*
X031389Y014087D01*
X031402Y014071D01*
X031413Y014053D01*
X031421Y014033D01*
X031425Y014013D01*
X031425Y013991D01*
X031421Y013971D01*
X031413Y013951D01*
X031402Y013933D01*
X031389Y013917D01*
X031372Y013904D01*
X031353Y013893D01*
X031333Y013887D01*
X031312Y013884D01*
X031291Y013885D01*
X031271Y013890D01*
X031251Y013898D01*
X031233Y013910D01*
X031218Y013924D01*
X031206Y013941D01*
X031197Y013961D01*
X031191Y013981D01*
X031189Y014002D01*
X030189Y014002D02*
X030191Y014023D01*
X030197Y014043D01*
X030206Y014063D01*
X030218Y014080D01*
X030233Y014094D01*
X030251Y014106D01*
X030271Y014114D01*
X030291Y014119D01*
X030312Y014120D01*
X030333Y014117D01*
X030353Y014111D01*
X030372Y014100D01*
X030389Y014087D01*
X030402Y014071D01*
X030413Y014053D01*
X030421Y014033D01*
X030425Y014013D01*
X030425Y013991D01*
X030421Y013971D01*
X030413Y013951D01*
X030402Y013933D01*
X030389Y013917D01*
X030372Y013904D01*
X030353Y013893D01*
X030333Y013887D01*
X030312Y013884D01*
X030291Y013885D01*
X030271Y013890D01*
X030251Y013898D01*
X030233Y013910D01*
X030218Y013924D01*
X030206Y013941D01*
X030197Y013961D01*
X030191Y013981D01*
X030189Y014002D01*
D20*
X037026Y014191D02*
X037028Y014212D01*
X037034Y014232D01*
X037043Y014252D01*
X037055Y014269D01*
X037070Y014283D01*
X037088Y014295D01*
X037108Y014303D01*
X037128Y014308D01*
X037149Y014309D01*
X037170Y014306D01*
X037190Y014300D01*
X037209Y014289D01*
X037226Y014276D01*
X037239Y014260D01*
X037250Y014242D01*
X037258Y014222D01*
X037262Y014202D01*
X037262Y014180D01*
X037258Y014160D01*
X037250Y014140D01*
X037239Y014122D01*
X037226Y014106D01*
X037209Y014093D01*
X037190Y014082D01*
X037170Y014076D01*
X037149Y014073D01*
X037128Y014074D01*
X037108Y014079D01*
X037088Y014087D01*
X037070Y014099D01*
X037055Y014113D01*
X037043Y014130D01*
X037034Y014150D01*
X037028Y014170D01*
X037026Y014191D01*
D21*
X039857Y004133D02*
X039857Y003051D01*
D22*
X033903Y012132D03*
D23*
X033903Y012182D03*
X033903Y014532D03*
D24*
X033903Y014482D03*
X033903Y012232D03*
D25*
X033903Y012282D03*
X033903Y014432D03*
D26*
X033903Y014382D03*
X033903Y012332D03*
D27*
X033903Y012382D03*
X033903Y014332D03*
D28*
X033903Y014282D03*
X033903Y012432D03*
D29*
X033903Y012482D03*
X033903Y014232D03*
D30*
X033903Y014182D03*
X033903Y014132D03*
X033903Y014082D03*
X033903Y014032D03*
X033903Y012682D03*
X033903Y012632D03*
X033903Y012582D03*
X033903Y012532D03*
D31*
X033303Y012732D03*
X034503Y012732D03*
X034503Y013982D03*
X033303Y013982D03*
D32*
X033278Y013932D03*
X034528Y013932D03*
X034528Y012782D03*
X033278Y012782D03*
D33*
X033253Y012832D03*
X033253Y012882D03*
X033253Y012932D03*
X033253Y012982D03*
X033253Y013032D03*
X033253Y013082D03*
X033253Y013132D03*
X033253Y013182D03*
X033253Y013232D03*
X033253Y013282D03*
X033253Y013332D03*
X033253Y013382D03*
X033253Y013432D03*
X033253Y013482D03*
X033253Y013532D03*
X033253Y013582D03*
X033253Y013632D03*
X033253Y013682D03*
X033253Y013732D03*
X033253Y013782D03*
X033253Y013832D03*
X033253Y013882D03*
X034553Y013882D03*
X034553Y013832D03*
X034553Y013782D03*
X034553Y013732D03*
X034553Y012932D03*
X034553Y012882D03*
X034553Y012832D03*
D34*
X034378Y012982D03*
X034728Y012982D03*
D35*
X034303Y013032D03*
X034553Y013632D03*
D36*
X034778Y013032D03*
D37*
X034528Y013682D03*
D38*
X033878Y014582D03*
M02*
