G75*
G70*
%OFA0B0*%
%FSLAX24Y24*%
%IPPOS*%
%LPD*%
%AMOC8*
5,1,8,0,0,1.08239X$1,22.5*
%
%ADD10C,0.0000*%
D10*
X001625Y002625D02*
X001625Y040625D01*
X081625Y040625D01*
X081625Y002625D01*
X001625Y002625D01*
X002873Y013875D02*
X002875Y013918D01*
X002881Y013961D01*
X002891Y014003D01*
X002904Y014044D01*
X002921Y014083D01*
X002942Y014121D01*
X002966Y014157D01*
X002993Y014191D01*
X003023Y014221D01*
X003056Y014249D01*
X003092Y014274D01*
X003129Y014296D01*
X003168Y014314D01*
X003209Y014328D01*
X003251Y014339D01*
X003293Y014346D01*
X003336Y014349D01*
X003379Y014348D01*
X003422Y014343D01*
X003464Y014334D01*
X003506Y014322D01*
X003546Y014305D01*
X003584Y014285D01*
X003620Y014262D01*
X003654Y014236D01*
X003686Y014206D01*
X003715Y014174D01*
X003740Y014139D01*
X003763Y014103D01*
X003782Y014064D01*
X003797Y014024D01*
X003809Y013982D01*
X003817Y013940D01*
X003821Y013897D01*
X003821Y013853D01*
X003817Y013810D01*
X003809Y013768D01*
X003797Y013726D01*
X003782Y013686D01*
X003763Y013647D01*
X003740Y013611D01*
X003715Y013576D01*
X003686Y013544D01*
X003654Y013514D01*
X003620Y013488D01*
X003584Y013465D01*
X003546Y013445D01*
X003506Y013428D01*
X003464Y013416D01*
X003422Y013407D01*
X003379Y013402D01*
X003336Y013401D01*
X003293Y013404D01*
X003251Y013411D01*
X003209Y013422D01*
X003168Y013436D01*
X003129Y013454D01*
X003092Y013476D01*
X003056Y013501D01*
X003023Y013529D01*
X002993Y013559D01*
X002966Y013593D01*
X002942Y013629D01*
X002921Y013667D01*
X002904Y013706D01*
X002891Y013747D01*
X002881Y013789D01*
X002875Y013832D01*
X002873Y013875D01*
X006929Y013875D02*
X006931Y013918D01*
X006937Y013961D01*
X006947Y014003D01*
X006960Y014044D01*
X006977Y014083D01*
X006998Y014121D01*
X007022Y014157D01*
X007049Y014191D01*
X007079Y014221D01*
X007112Y014249D01*
X007148Y014274D01*
X007185Y014296D01*
X007224Y014314D01*
X007265Y014328D01*
X007307Y014339D01*
X007349Y014346D01*
X007392Y014349D01*
X007435Y014348D01*
X007478Y014343D01*
X007520Y014334D01*
X007562Y014322D01*
X007602Y014305D01*
X007640Y014285D01*
X007676Y014262D01*
X007710Y014236D01*
X007742Y014206D01*
X007771Y014174D01*
X007796Y014139D01*
X007819Y014103D01*
X007838Y014064D01*
X007853Y014024D01*
X007865Y013982D01*
X007873Y013940D01*
X007877Y013897D01*
X007877Y013853D01*
X007873Y013810D01*
X007865Y013768D01*
X007853Y013726D01*
X007838Y013686D01*
X007819Y013647D01*
X007796Y013611D01*
X007771Y013576D01*
X007742Y013544D01*
X007710Y013514D01*
X007676Y013488D01*
X007640Y013465D01*
X007602Y013445D01*
X007562Y013428D01*
X007520Y013416D01*
X007478Y013407D01*
X007435Y013402D01*
X007392Y013401D01*
X007349Y013404D01*
X007307Y013411D01*
X007265Y013422D01*
X007224Y013436D01*
X007185Y013454D01*
X007148Y013476D01*
X007112Y013501D01*
X007079Y013529D01*
X007049Y013559D01*
X007022Y013593D01*
X006998Y013629D01*
X006977Y013667D01*
X006960Y013706D01*
X006947Y013747D01*
X006937Y013789D01*
X006931Y013832D01*
X006929Y013875D01*
X012748Y013875D02*
X012750Y013918D01*
X012756Y013961D01*
X012766Y014003D01*
X012779Y014044D01*
X012796Y014083D01*
X012817Y014121D01*
X012841Y014157D01*
X012868Y014191D01*
X012898Y014221D01*
X012931Y014249D01*
X012967Y014274D01*
X013004Y014296D01*
X013043Y014314D01*
X013084Y014328D01*
X013126Y014339D01*
X013168Y014346D01*
X013211Y014349D01*
X013254Y014348D01*
X013297Y014343D01*
X013339Y014334D01*
X013381Y014322D01*
X013421Y014305D01*
X013459Y014285D01*
X013495Y014262D01*
X013529Y014236D01*
X013561Y014206D01*
X013590Y014174D01*
X013615Y014139D01*
X013638Y014103D01*
X013657Y014064D01*
X013672Y014024D01*
X013684Y013982D01*
X013692Y013940D01*
X013696Y013897D01*
X013696Y013853D01*
X013692Y013810D01*
X013684Y013768D01*
X013672Y013726D01*
X013657Y013686D01*
X013638Y013647D01*
X013615Y013611D01*
X013590Y013576D01*
X013561Y013544D01*
X013529Y013514D01*
X013495Y013488D01*
X013459Y013465D01*
X013421Y013445D01*
X013381Y013428D01*
X013339Y013416D01*
X013297Y013407D01*
X013254Y013402D01*
X013211Y013401D01*
X013168Y013404D01*
X013126Y013411D01*
X013084Y013422D01*
X013043Y013436D01*
X013004Y013454D01*
X012967Y013476D01*
X012931Y013501D01*
X012898Y013529D01*
X012868Y013559D01*
X012841Y013593D01*
X012817Y013629D01*
X012796Y013667D01*
X012779Y013706D01*
X012766Y013747D01*
X012756Y013789D01*
X012750Y013832D01*
X012748Y013875D01*
X016804Y013875D02*
X016806Y013918D01*
X016812Y013961D01*
X016822Y014003D01*
X016835Y014044D01*
X016852Y014083D01*
X016873Y014121D01*
X016897Y014157D01*
X016924Y014191D01*
X016954Y014221D01*
X016987Y014249D01*
X017023Y014274D01*
X017060Y014296D01*
X017099Y014314D01*
X017140Y014328D01*
X017182Y014339D01*
X017224Y014346D01*
X017267Y014349D01*
X017310Y014348D01*
X017353Y014343D01*
X017395Y014334D01*
X017437Y014322D01*
X017477Y014305D01*
X017515Y014285D01*
X017551Y014262D01*
X017585Y014236D01*
X017617Y014206D01*
X017646Y014174D01*
X017671Y014139D01*
X017694Y014103D01*
X017713Y014064D01*
X017728Y014024D01*
X017740Y013982D01*
X017748Y013940D01*
X017752Y013897D01*
X017752Y013853D01*
X017748Y013810D01*
X017740Y013768D01*
X017728Y013726D01*
X017713Y013686D01*
X017694Y013647D01*
X017671Y013611D01*
X017646Y013576D01*
X017617Y013544D01*
X017585Y013514D01*
X017551Y013488D01*
X017515Y013465D01*
X017477Y013445D01*
X017437Y013428D01*
X017395Y013416D01*
X017353Y013407D01*
X017310Y013402D01*
X017267Y013401D01*
X017224Y013404D01*
X017182Y013411D01*
X017140Y013422D01*
X017099Y013436D01*
X017060Y013454D01*
X017023Y013476D01*
X016987Y013501D01*
X016954Y013529D01*
X016924Y013559D01*
X016897Y013593D01*
X016873Y013629D01*
X016852Y013667D01*
X016835Y013706D01*
X016822Y013747D01*
X016812Y013789D01*
X016806Y013832D01*
X016804Y013875D01*
X013672Y017251D02*
X013674Y017290D01*
X013680Y017329D01*
X013690Y017367D01*
X013703Y017404D01*
X013720Y017439D01*
X013740Y017473D01*
X013764Y017504D01*
X013791Y017533D01*
X013820Y017559D01*
X013852Y017582D01*
X013886Y017602D01*
X013922Y017618D01*
X013959Y017630D01*
X013998Y017639D01*
X014037Y017644D01*
X014076Y017645D01*
X014115Y017642D01*
X014154Y017635D01*
X014191Y017624D01*
X014228Y017610D01*
X014263Y017592D01*
X014296Y017571D01*
X014327Y017546D01*
X014355Y017519D01*
X014380Y017489D01*
X014402Y017456D01*
X014421Y017422D01*
X014436Y017386D01*
X014448Y017348D01*
X014456Y017310D01*
X014460Y017271D01*
X014460Y017231D01*
X014456Y017192D01*
X014448Y017154D01*
X014436Y017116D01*
X014421Y017080D01*
X014402Y017046D01*
X014380Y017013D01*
X014355Y016983D01*
X014327Y016956D01*
X014296Y016931D01*
X014263Y016910D01*
X014228Y016892D01*
X014191Y016878D01*
X014154Y016867D01*
X014115Y016860D01*
X014076Y016857D01*
X014037Y016858D01*
X013998Y016863D01*
X013959Y016872D01*
X013922Y016884D01*
X013886Y016900D01*
X013852Y016920D01*
X013820Y016943D01*
X013791Y016969D01*
X013764Y016998D01*
X013740Y017029D01*
X013720Y017063D01*
X013703Y017098D01*
X013690Y017135D01*
X013680Y017173D01*
X013674Y017212D01*
X013672Y017251D01*
X022873Y013875D02*
X022875Y013918D01*
X022881Y013961D01*
X022891Y014003D01*
X022904Y014044D01*
X022921Y014083D01*
X022942Y014121D01*
X022966Y014157D01*
X022993Y014191D01*
X023023Y014221D01*
X023056Y014249D01*
X023092Y014274D01*
X023129Y014296D01*
X023168Y014314D01*
X023209Y014328D01*
X023251Y014339D01*
X023293Y014346D01*
X023336Y014349D01*
X023379Y014348D01*
X023422Y014343D01*
X023464Y014334D01*
X023506Y014322D01*
X023546Y014305D01*
X023584Y014285D01*
X023620Y014262D01*
X023654Y014236D01*
X023686Y014206D01*
X023715Y014174D01*
X023740Y014139D01*
X023763Y014103D01*
X023782Y014064D01*
X023797Y014024D01*
X023809Y013982D01*
X023817Y013940D01*
X023821Y013897D01*
X023821Y013853D01*
X023817Y013810D01*
X023809Y013768D01*
X023797Y013726D01*
X023782Y013686D01*
X023763Y013647D01*
X023740Y013611D01*
X023715Y013576D01*
X023686Y013544D01*
X023654Y013514D01*
X023620Y013488D01*
X023584Y013465D01*
X023546Y013445D01*
X023506Y013428D01*
X023464Y013416D01*
X023422Y013407D01*
X023379Y013402D01*
X023336Y013401D01*
X023293Y013404D01*
X023251Y013411D01*
X023209Y013422D01*
X023168Y013436D01*
X023129Y013454D01*
X023092Y013476D01*
X023056Y013501D01*
X023023Y013529D01*
X022993Y013559D01*
X022966Y013593D01*
X022942Y013629D01*
X022921Y013667D01*
X022904Y013706D01*
X022891Y013747D01*
X022881Y013789D01*
X022875Y013832D01*
X022873Y013875D01*
X026929Y013875D02*
X026931Y013918D01*
X026937Y013961D01*
X026947Y014003D01*
X026960Y014044D01*
X026977Y014083D01*
X026998Y014121D01*
X027022Y014157D01*
X027049Y014191D01*
X027079Y014221D01*
X027112Y014249D01*
X027148Y014274D01*
X027185Y014296D01*
X027224Y014314D01*
X027265Y014328D01*
X027307Y014339D01*
X027349Y014346D01*
X027392Y014349D01*
X027435Y014348D01*
X027478Y014343D01*
X027520Y014334D01*
X027562Y014322D01*
X027602Y014305D01*
X027640Y014285D01*
X027676Y014262D01*
X027710Y014236D01*
X027742Y014206D01*
X027771Y014174D01*
X027796Y014139D01*
X027819Y014103D01*
X027838Y014064D01*
X027853Y014024D01*
X027865Y013982D01*
X027873Y013940D01*
X027877Y013897D01*
X027877Y013853D01*
X027873Y013810D01*
X027865Y013768D01*
X027853Y013726D01*
X027838Y013686D01*
X027819Y013647D01*
X027796Y013611D01*
X027771Y013576D01*
X027742Y013544D01*
X027710Y013514D01*
X027676Y013488D01*
X027640Y013465D01*
X027602Y013445D01*
X027562Y013428D01*
X027520Y013416D01*
X027478Y013407D01*
X027435Y013402D01*
X027392Y013401D01*
X027349Y013404D01*
X027307Y013411D01*
X027265Y013422D01*
X027224Y013436D01*
X027185Y013454D01*
X027148Y013476D01*
X027112Y013501D01*
X027079Y013529D01*
X027049Y013559D01*
X027022Y013593D01*
X026998Y013629D01*
X026977Y013667D01*
X026960Y013706D01*
X026947Y013747D01*
X026937Y013789D01*
X026931Y013832D01*
X026929Y013875D01*
X028790Y017251D02*
X028792Y017290D01*
X028798Y017329D01*
X028808Y017367D01*
X028821Y017404D01*
X028838Y017439D01*
X028858Y017473D01*
X028882Y017504D01*
X028909Y017533D01*
X028938Y017559D01*
X028970Y017582D01*
X029004Y017602D01*
X029040Y017618D01*
X029077Y017630D01*
X029116Y017639D01*
X029155Y017644D01*
X029194Y017645D01*
X029233Y017642D01*
X029272Y017635D01*
X029309Y017624D01*
X029346Y017610D01*
X029381Y017592D01*
X029414Y017571D01*
X029445Y017546D01*
X029473Y017519D01*
X029498Y017489D01*
X029520Y017456D01*
X029539Y017422D01*
X029554Y017386D01*
X029566Y017348D01*
X029574Y017310D01*
X029578Y017271D01*
X029578Y017231D01*
X029574Y017192D01*
X029566Y017154D01*
X029554Y017116D01*
X029539Y017080D01*
X029520Y017046D01*
X029498Y017013D01*
X029473Y016983D01*
X029445Y016956D01*
X029414Y016931D01*
X029381Y016910D01*
X029346Y016892D01*
X029309Y016878D01*
X029272Y016867D01*
X029233Y016860D01*
X029194Y016857D01*
X029155Y016858D01*
X029116Y016863D01*
X029077Y016872D01*
X029040Y016884D01*
X029004Y016900D01*
X028970Y016920D01*
X028938Y016943D01*
X028909Y016969D01*
X028882Y016998D01*
X028858Y017029D01*
X028838Y017063D01*
X028821Y017098D01*
X028808Y017135D01*
X028798Y017173D01*
X028792Y017212D01*
X028790Y017251D01*
X032873Y013875D02*
X032875Y013918D01*
X032881Y013961D01*
X032891Y014003D01*
X032904Y014044D01*
X032921Y014083D01*
X032942Y014121D01*
X032966Y014157D01*
X032993Y014191D01*
X033023Y014221D01*
X033056Y014249D01*
X033092Y014274D01*
X033129Y014296D01*
X033168Y014314D01*
X033209Y014328D01*
X033251Y014339D01*
X033293Y014346D01*
X033336Y014349D01*
X033379Y014348D01*
X033422Y014343D01*
X033464Y014334D01*
X033506Y014322D01*
X033546Y014305D01*
X033584Y014285D01*
X033620Y014262D01*
X033654Y014236D01*
X033686Y014206D01*
X033715Y014174D01*
X033740Y014139D01*
X033763Y014103D01*
X033782Y014064D01*
X033797Y014024D01*
X033809Y013982D01*
X033817Y013940D01*
X033821Y013897D01*
X033821Y013853D01*
X033817Y013810D01*
X033809Y013768D01*
X033797Y013726D01*
X033782Y013686D01*
X033763Y013647D01*
X033740Y013611D01*
X033715Y013576D01*
X033686Y013544D01*
X033654Y013514D01*
X033620Y013488D01*
X033584Y013465D01*
X033546Y013445D01*
X033506Y013428D01*
X033464Y013416D01*
X033422Y013407D01*
X033379Y013402D01*
X033336Y013401D01*
X033293Y013404D01*
X033251Y013411D01*
X033209Y013422D01*
X033168Y013436D01*
X033129Y013454D01*
X033092Y013476D01*
X033056Y013501D01*
X033023Y013529D01*
X032993Y013559D01*
X032966Y013593D01*
X032942Y013629D01*
X032921Y013667D01*
X032904Y013706D01*
X032891Y013747D01*
X032881Y013789D01*
X032875Y013832D01*
X032873Y013875D01*
X036929Y013875D02*
X036931Y013918D01*
X036937Y013961D01*
X036947Y014003D01*
X036960Y014044D01*
X036977Y014083D01*
X036998Y014121D01*
X037022Y014157D01*
X037049Y014191D01*
X037079Y014221D01*
X037112Y014249D01*
X037148Y014274D01*
X037185Y014296D01*
X037224Y014314D01*
X037265Y014328D01*
X037307Y014339D01*
X037349Y014346D01*
X037392Y014349D01*
X037435Y014348D01*
X037478Y014343D01*
X037520Y014334D01*
X037562Y014322D01*
X037602Y014305D01*
X037640Y014285D01*
X037676Y014262D01*
X037710Y014236D01*
X037742Y014206D01*
X037771Y014174D01*
X037796Y014139D01*
X037819Y014103D01*
X037838Y014064D01*
X037853Y014024D01*
X037865Y013982D01*
X037873Y013940D01*
X037877Y013897D01*
X037877Y013853D01*
X037873Y013810D01*
X037865Y013768D01*
X037853Y013726D01*
X037838Y013686D01*
X037819Y013647D01*
X037796Y013611D01*
X037771Y013576D01*
X037742Y013544D01*
X037710Y013514D01*
X037676Y013488D01*
X037640Y013465D01*
X037602Y013445D01*
X037562Y013428D01*
X037520Y013416D01*
X037478Y013407D01*
X037435Y013402D01*
X037392Y013401D01*
X037349Y013404D01*
X037307Y013411D01*
X037265Y013422D01*
X037224Y013436D01*
X037185Y013454D01*
X037148Y013476D01*
X037112Y013501D01*
X037079Y013529D01*
X037049Y013559D01*
X037022Y013593D01*
X036998Y013629D01*
X036977Y013667D01*
X036960Y013706D01*
X036947Y013747D01*
X036937Y013789D01*
X036931Y013832D01*
X036929Y013875D01*
X040837Y014377D02*
X040839Y014416D01*
X040845Y014455D01*
X040855Y014493D01*
X040868Y014530D01*
X040885Y014565D01*
X040905Y014599D01*
X040929Y014630D01*
X040956Y014659D01*
X040985Y014685D01*
X041017Y014708D01*
X041051Y014728D01*
X041087Y014744D01*
X041124Y014756D01*
X041163Y014765D01*
X041202Y014770D01*
X041241Y014771D01*
X041280Y014768D01*
X041319Y014761D01*
X041356Y014750D01*
X041393Y014736D01*
X041428Y014718D01*
X041461Y014697D01*
X041492Y014672D01*
X041520Y014645D01*
X041545Y014615D01*
X041567Y014582D01*
X041586Y014548D01*
X041601Y014512D01*
X041613Y014474D01*
X041621Y014436D01*
X041625Y014397D01*
X041625Y014357D01*
X041621Y014318D01*
X041613Y014280D01*
X041601Y014242D01*
X041586Y014206D01*
X041567Y014172D01*
X041545Y014139D01*
X041520Y014109D01*
X041492Y014082D01*
X041461Y014057D01*
X041428Y014036D01*
X041393Y014018D01*
X041356Y014004D01*
X041319Y013993D01*
X041280Y013986D01*
X041241Y013983D01*
X041202Y013984D01*
X041163Y013989D01*
X041124Y013998D01*
X041087Y014010D01*
X041051Y014026D01*
X041017Y014046D01*
X040985Y014069D01*
X040956Y014095D01*
X040929Y014124D01*
X040905Y014155D01*
X040885Y014189D01*
X040868Y014224D01*
X040855Y014261D01*
X040845Y014299D01*
X040839Y014338D01*
X040837Y014377D01*
X051625Y014377D02*
X051627Y014416D01*
X051633Y014455D01*
X051643Y014493D01*
X051656Y014530D01*
X051673Y014565D01*
X051693Y014599D01*
X051717Y014630D01*
X051744Y014659D01*
X051773Y014685D01*
X051805Y014708D01*
X051839Y014728D01*
X051875Y014744D01*
X051912Y014756D01*
X051951Y014765D01*
X051990Y014770D01*
X052029Y014771D01*
X052068Y014768D01*
X052107Y014761D01*
X052144Y014750D01*
X052181Y014736D01*
X052216Y014718D01*
X052249Y014697D01*
X052280Y014672D01*
X052308Y014645D01*
X052333Y014615D01*
X052355Y014582D01*
X052374Y014548D01*
X052389Y014512D01*
X052401Y014474D01*
X052409Y014436D01*
X052413Y014397D01*
X052413Y014357D01*
X052409Y014318D01*
X052401Y014280D01*
X052389Y014242D01*
X052374Y014206D01*
X052355Y014172D01*
X052333Y014139D01*
X052308Y014109D01*
X052280Y014082D01*
X052249Y014057D01*
X052216Y014036D01*
X052181Y014018D01*
X052144Y014004D01*
X052107Y013993D01*
X052068Y013986D01*
X052029Y013983D01*
X051990Y013984D01*
X051951Y013989D01*
X051912Y013998D01*
X051875Y014010D01*
X051839Y014026D01*
X051805Y014046D01*
X051773Y014069D01*
X051744Y014095D01*
X051717Y014124D01*
X051693Y014155D01*
X051673Y014189D01*
X051656Y014224D01*
X051643Y014261D01*
X051633Y014299D01*
X051627Y014338D01*
X051625Y014377D01*
X059262Y014377D02*
X059264Y014416D01*
X059270Y014455D01*
X059280Y014493D01*
X059293Y014530D01*
X059310Y014565D01*
X059330Y014599D01*
X059354Y014630D01*
X059381Y014659D01*
X059410Y014685D01*
X059442Y014708D01*
X059476Y014728D01*
X059512Y014744D01*
X059549Y014756D01*
X059588Y014765D01*
X059627Y014770D01*
X059666Y014771D01*
X059705Y014768D01*
X059744Y014761D01*
X059781Y014750D01*
X059818Y014736D01*
X059853Y014718D01*
X059886Y014697D01*
X059917Y014672D01*
X059945Y014645D01*
X059970Y014615D01*
X059992Y014582D01*
X060011Y014548D01*
X060026Y014512D01*
X060038Y014474D01*
X060046Y014436D01*
X060050Y014397D01*
X060050Y014357D01*
X060046Y014318D01*
X060038Y014280D01*
X060026Y014242D01*
X060011Y014206D01*
X059992Y014172D01*
X059970Y014139D01*
X059945Y014109D01*
X059917Y014082D01*
X059886Y014057D01*
X059853Y014036D01*
X059818Y014018D01*
X059781Y014004D01*
X059744Y013993D01*
X059705Y013986D01*
X059666Y013983D01*
X059627Y013984D01*
X059588Y013989D01*
X059549Y013998D01*
X059512Y014010D01*
X059476Y014026D01*
X059442Y014046D01*
X059410Y014069D01*
X059381Y014095D01*
X059354Y014124D01*
X059330Y014155D01*
X059310Y014189D01*
X059293Y014224D01*
X059280Y014261D01*
X059270Y014299D01*
X059264Y014338D01*
X059262Y014377D01*
X073200Y014377D02*
X073202Y014416D01*
X073208Y014455D01*
X073218Y014493D01*
X073231Y014530D01*
X073248Y014565D01*
X073268Y014599D01*
X073292Y014630D01*
X073319Y014659D01*
X073348Y014685D01*
X073380Y014708D01*
X073414Y014728D01*
X073450Y014744D01*
X073487Y014756D01*
X073526Y014765D01*
X073565Y014770D01*
X073604Y014771D01*
X073643Y014768D01*
X073682Y014761D01*
X073719Y014750D01*
X073756Y014736D01*
X073791Y014718D01*
X073824Y014697D01*
X073855Y014672D01*
X073883Y014645D01*
X073908Y014615D01*
X073930Y014582D01*
X073949Y014548D01*
X073964Y014512D01*
X073976Y014474D01*
X073984Y014436D01*
X073988Y014397D01*
X073988Y014357D01*
X073984Y014318D01*
X073976Y014280D01*
X073964Y014242D01*
X073949Y014206D01*
X073930Y014172D01*
X073908Y014139D01*
X073883Y014109D01*
X073855Y014082D01*
X073824Y014057D01*
X073791Y014036D01*
X073756Y014018D01*
X073719Y014004D01*
X073682Y013993D01*
X073643Y013986D01*
X073604Y013983D01*
X073565Y013984D01*
X073526Y013989D01*
X073487Y013998D01*
X073450Y014010D01*
X073414Y014026D01*
X073380Y014046D01*
X073348Y014069D01*
X073319Y014095D01*
X073292Y014124D01*
X073268Y014155D01*
X073248Y014189D01*
X073231Y014224D01*
X073218Y014261D01*
X073208Y014299D01*
X073202Y014338D01*
X073200Y014377D01*
X073790Y007251D02*
X073792Y007290D01*
X073798Y007329D01*
X073808Y007367D01*
X073821Y007404D01*
X073838Y007439D01*
X073858Y007473D01*
X073882Y007504D01*
X073909Y007533D01*
X073938Y007559D01*
X073970Y007582D01*
X074004Y007602D01*
X074040Y007618D01*
X074077Y007630D01*
X074116Y007639D01*
X074155Y007644D01*
X074194Y007645D01*
X074233Y007642D01*
X074272Y007635D01*
X074309Y007624D01*
X074346Y007610D01*
X074381Y007592D01*
X074414Y007571D01*
X074445Y007546D01*
X074473Y007519D01*
X074498Y007489D01*
X074520Y007456D01*
X074539Y007422D01*
X074554Y007386D01*
X074566Y007348D01*
X074574Y007310D01*
X074578Y007271D01*
X074578Y007231D01*
X074574Y007192D01*
X074566Y007154D01*
X074554Y007116D01*
X074539Y007080D01*
X074520Y007046D01*
X074498Y007013D01*
X074473Y006983D01*
X074445Y006956D01*
X074414Y006931D01*
X074381Y006910D01*
X074346Y006892D01*
X074309Y006878D01*
X074272Y006867D01*
X074233Y006860D01*
X074194Y006857D01*
X074155Y006858D01*
X074116Y006863D01*
X074077Y006872D01*
X074040Y006884D01*
X074004Y006900D01*
X073970Y006920D01*
X073938Y006943D01*
X073909Y006969D01*
X073882Y006998D01*
X073858Y007029D01*
X073838Y007063D01*
X073821Y007098D01*
X073808Y007135D01*
X073798Y007173D01*
X073792Y007212D01*
X073790Y007251D01*
X058672Y007251D02*
X058674Y007290D01*
X058680Y007329D01*
X058690Y007367D01*
X058703Y007404D01*
X058720Y007439D01*
X058740Y007473D01*
X058764Y007504D01*
X058791Y007533D01*
X058820Y007559D01*
X058852Y007582D01*
X058886Y007602D01*
X058922Y007618D01*
X058959Y007630D01*
X058998Y007639D01*
X059037Y007644D01*
X059076Y007645D01*
X059115Y007642D01*
X059154Y007635D01*
X059191Y007624D01*
X059228Y007610D01*
X059263Y007592D01*
X059296Y007571D01*
X059327Y007546D01*
X059355Y007519D01*
X059380Y007489D01*
X059402Y007456D01*
X059421Y007422D01*
X059436Y007386D01*
X059448Y007348D01*
X059456Y007310D01*
X059460Y007271D01*
X059460Y007231D01*
X059456Y007192D01*
X059448Y007154D01*
X059436Y007116D01*
X059421Y007080D01*
X059402Y007046D01*
X059380Y007013D01*
X059355Y006983D01*
X059327Y006956D01*
X059296Y006931D01*
X059263Y006910D01*
X059228Y006892D01*
X059191Y006878D01*
X059154Y006867D01*
X059115Y006860D01*
X059076Y006857D01*
X059037Y006858D01*
X058998Y006863D01*
X058959Y006872D01*
X058922Y006884D01*
X058886Y006900D01*
X058852Y006920D01*
X058820Y006943D01*
X058791Y006969D01*
X058764Y006998D01*
X058740Y007029D01*
X058720Y007063D01*
X058703Y007098D01*
X058690Y007135D01*
X058680Y007173D01*
X058674Y007212D01*
X058672Y007251D01*
X052215Y007251D02*
X052217Y007290D01*
X052223Y007329D01*
X052233Y007367D01*
X052246Y007404D01*
X052263Y007439D01*
X052283Y007473D01*
X052307Y007504D01*
X052334Y007533D01*
X052363Y007559D01*
X052395Y007582D01*
X052429Y007602D01*
X052465Y007618D01*
X052502Y007630D01*
X052541Y007639D01*
X052580Y007644D01*
X052619Y007645D01*
X052658Y007642D01*
X052697Y007635D01*
X052734Y007624D01*
X052771Y007610D01*
X052806Y007592D01*
X052839Y007571D01*
X052870Y007546D01*
X052898Y007519D01*
X052923Y007489D01*
X052945Y007456D01*
X052964Y007422D01*
X052979Y007386D01*
X052991Y007348D01*
X052999Y007310D01*
X053003Y007271D01*
X053003Y007231D01*
X052999Y007192D01*
X052991Y007154D01*
X052979Y007116D01*
X052964Y007080D01*
X052945Y007046D01*
X052923Y007013D01*
X052898Y006983D01*
X052870Y006956D01*
X052839Y006931D01*
X052806Y006910D01*
X052771Y006892D01*
X052734Y006878D01*
X052697Y006867D01*
X052658Y006860D01*
X052619Y006857D01*
X052580Y006858D01*
X052541Y006863D01*
X052502Y006872D01*
X052465Y006884D01*
X052429Y006900D01*
X052395Y006920D01*
X052363Y006943D01*
X052334Y006969D01*
X052307Y006998D01*
X052283Y007029D01*
X052263Y007063D01*
X052246Y007098D01*
X052233Y007135D01*
X052223Y007173D01*
X052217Y007212D01*
X052215Y007251D01*
X040247Y007251D02*
X040249Y007290D01*
X040255Y007329D01*
X040265Y007367D01*
X040278Y007404D01*
X040295Y007439D01*
X040315Y007473D01*
X040339Y007504D01*
X040366Y007533D01*
X040395Y007559D01*
X040427Y007582D01*
X040461Y007602D01*
X040497Y007618D01*
X040534Y007630D01*
X040573Y007639D01*
X040612Y007644D01*
X040651Y007645D01*
X040690Y007642D01*
X040729Y007635D01*
X040766Y007624D01*
X040803Y007610D01*
X040838Y007592D01*
X040871Y007571D01*
X040902Y007546D01*
X040930Y007519D01*
X040955Y007489D01*
X040977Y007456D01*
X040996Y007422D01*
X041011Y007386D01*
X041023Y007348D01*
X041031Y007310D01*
X041035Y007271D01*
X041035Y007231D01*
X041031Y007192D01*
X041023Y007154D01*
X041011Y007116D01*
X040996Y007080D01*
X040977Y007046D01*
X040955Y007013D01*
X040930Y006983D01*
X040902Y006956D01*
X040871Y006931D01*
X040838Y006910D01*
X040803Y006892D01*
X040766Y006878D01*
X040729Y006867D01*
X040690Y006860D01*
X040651Y006857D01*
X040612Y006858D01*
X040573Y006863D01*
X040534Y006872D01*
X040497Y006884D01*
X040461Y006900D01*
X040427Y006920D01*
X040395Y006943D01*
X040366Y006969D01*
X040339Y006998D01*
X040315Y007029D01*
X040295Y007063D01*
X040278Y007098D01*
X040265Y007135D01*
X040255Y007173D01*
X040249Y007212D01*
X040247Y007251D01*
X028200Y024377D02*
X028202Y024416D01*
X028208Y024455D01*
X028218Y024493D01*
X028231Y024530D01*
X028248Y024565D01*
X028268Y024599D01*
X028292Y024630D01*
X028319Y024659D01*
X028348Y024685D01*
X028380Y024708D01*
X028414Y024728D01*
X028450Y024744D01*
X028487Y024756D01*
X028526Y024765D01*
X028565Y024770D01*
X028604Y024771D01*
X028643Y024768D01*
X028682Y024761D01*
X028719Y024750D01*
X028756Y024736D01*
X028791Y024718D01*
X028824Y024697D01*
X028855Y024672D01*
X028883Y024645D01*
X028908Y024615D01*
X028930Y024582D01*
X028949Y024548D01*
X028964Y024512D01*
X028976Y024474D01*
X028984Y024436D01*
X028988Y024397D01*
X028988Y024357D01*
X028984Y024318D01*
X028976Y024280D01*
X028964Y024242D01*
X028949Y024206D01*
X028930Y024172D01*
X028908Y024139D01*
X028883Y024109D01*
X028855Y024082D01*
X028824Y024057D01*
X028791Y024036D01*
X028756Y024018D01*
X028719Y024004D01*
X028682Y023993D01*
X028643Y023986D01*
X028604Y023983D01*
X028565Y023984D01*
X028526Y023989D01*
X028487Y023998D01*
X028450Y024010D01*
X028414Y024026D01*
X028380Y024046D01*
X028348Y024069D01*
X028319Y024095D01*
X028292Y024124D01*
X028268Y024155D01*
X028248Y024189D01*
X028231Y024224D01*
X028218Y024261D01*
X028208Y024299D01*
X028202Y024338D01*
X028200Y024377D01*
X026929Y028875D02*
X026931Y028918D01*
X026937Y028961D01*
X026947Y029003D01*
X026960Y029044D01*
X026977Y029083D01*
X026998Y029121D01*
X027022Y029157D01*
X027049Y029191D01*
X027079Y029221D01*
X027112Y029249D01*
X027148Y029274D01*
X027185Y029296D01*
X027224Y029314D01*
X027265Y029328D01*
X027307Y029339D01*
X027349Y029346D01*
X027392Y029349D01*
X027435Y029348D01*
X027478Y029343D01*
X027520Y029334D01*
X027562Y029322D01*
X027602Y029305D01*
X027640Y029285D01*
X027676Y029262D01*
X027710Y029236D01*
X027742Y029206D01*
X027771Y029174D01*
X027796Y029139D01*
X027819Y029103D01*
X027838Y029064D01*
X027853Y029024D01*
X027865Y028982D01*
X027873Y028940D01*
X027877Y028897D01*
X027877Y028853D01*
X027873Y028810D01*
X027865Y028768D01*
X027853Y028726D01*
X027838Y028686D01*
X027819Y028647D01*
X027796Y028611D01*
X027771Y028576D01*
X027742Y028544D01*
X027710Y028514D01*
X027676Y028488D01*
X027640Y028465D01*
X027602Y028445D01*
X027562Y028428D01*
X027520Y028416D01*
X027478Y028407D01*
X027435Y028402D01*
X027392Y028401D01*
X027349Y028404D01*
X027307Y028411D01*
X027265Y028422D01*
X027224Y028436D01*
X027185Y028454D01*
X027148Y028476D01*
X027112Y028501D01*
X027079Y028529D01*
X027049Y028559D01*
X027022Y028593D01*
X026998Y028629D01*
X026977Y028667D01*
X026960Y028706D01*
X026947Y028747D01*
X026937Y028789D01*
X026931Y028832D01*
X026929Y028875D01*
X022873Y028875D02*
X022875Y028918D01*
X022881Y028961D01*
X022891Y029003D01*
X022904Y029044D01*
X022921Y029083D01*
X022942Y029121D01*
X022966Y029157D01*
X022993Y029191D01*
X023023Y029221D01*
X023056Y029249D01*
X023092Y029274D01*
X023129Y029296D01*
X023168Y029314D01*
X023209Y029328D01*
X023251Y029339D01*
X023293Y029346D01*
X023336Y029349D01*
X023379Y029348D01*
X023422Y029343D01*
X023464Y029334D01*
X023506Y029322D01*
X023546Y029305D01*
X023584Y029285D01*
X023620Y029262D01*
X023654Y029236D01*
X023686Y029206D01*
X023715Y029174D01*
X023740Y029139D01*
X023763Y029103D01*
X023782Y029064D01*
X023797Y029024D01*
X023809Y028982D01*
X023817Y028940D01*
X023821Y028897D01*
X023821Y028853D01*
X023817Y028810D01*
X023809Y028768D01*
X023797Y028726D01*
X023782Y028686D01*
X023763Y028647D01*
X023740Y028611D01*
X023715Y028576D01*
X023686Y028544D01*
X023654Y028514D01*
X023620Y028488D01*
X023584Y028465D01*
X023546Y028445D01*
X023506Y028428D01*
X023464Y028416D01*
X023422Y028407D01*
X023379Y028402D01*
X023336Y028401D01*
X023293Y028404D01*
X023251Y028411D01*
X023209Y028422D01*
X023168Y028436D01*
X023129Y028454D01*
X023092Y028476D01*
X023056Y028501D01*
X023023Y028529D01*
X022993Y028559D01*
X022966Y028593D01*
X022942Y028629D01*
X022921Y028667D01*
X022904Y028706D01*
X022891Y028747D01*
X022881Y028789D01*
X022875Y028832D01*
X022873Y028875D01*
X016929Y028875D02*
X016931Y028918D01*
X016937Y028961D01*
X016947Y029003D01*
X016960Y029044D01*
X016977Y029083D01*
X016998Y029121D01*
X017022Y029157D01*
X017049Y029191D01*
X017079Y029221D01*
X017112Y029249D01*
X017148Y029274D01*
X017185Y029296D01*
X017224Y029314D01*
X017265Y029328D01*
X017307Y029339D01*
X017349Y029346D01*
X017392Y029349D01*
X017435Y029348D01*
X017478Y029343D01*
X017520Y029334D01*
X017562Y029322D01*
X017602Y029305D01*
X017640Y029285D01*
X017676Y029262D01*
X017710Y029236D01*
X017742Y029206D01*
X017771Y029174D01*
X017796Y029139D01*
X017819Y029103D01*
X017838Y029064D01*
X017853Y029024D01*
X017865Y028982D01*
X017873Y028940D01*
X017877Y028897D01*
X017877Y028853D01*
X017873Y028810D01*
X017865Y028768D01*
X017853Y028726D01*
X017838Y028686D01*
X017819Y028647D01*
X017796Y028611D01*
X017771Y028576D01*
X017742Y028544D01*
X017710Y028514D01*
X017676Y028488D01*
X017640Y028465D01*
X017602Y028445D01*
X017562Y028428D01*
X017520Y028416D01*
X017478Y028407D01*
X017435Y028402D01*
X017392Y028401D01*
X017349Y028404D01*
X017307Y028411D01*
X017265Y028422D01*
X017224Y028436D01*
X017185Y028454D01*
X017148Y028476D01*
X017112Y028501D01*
X017079Y028529D01*
X017049Y028559D01*
X017022Y028593D01*
X016998Y028629D01*
X016977Y028667D01*
X016960Y028706D01*
X016947Y028747D01*
X016937Y028789D01*
X016931Y028832D01*
X016929Y028875D01*
X012873Y028875D02*
X012875Y028918D01*
X012881Y028961D01*
X012891Y029003D01*
X012904Y029044D01*
X012921Y029083D01*
X012942Y029121D01*
X012966Y029157D01*
X012993Y029191D01*
X013023Y029221D01*
X013056Y029249D01*
X013092Y029274D01*
X013129Y029296D01*
X013168Y029314D01*
X013209Y029328D01*
X013251Y029339D01*
X013293Y029346D01*
X013336Y029349D01*
X013379Y029348D01*
X013422Y029343D01*
X013464Y029334D01*
X013506Y029322D01*
X013546Y029305D01*
X013584Y029285D01*
X013620Y029262D01*
X013654Y029236D01*
X013686Y029206D01*
X013715Y029174D01*
X013740Y029139D01*
X013763Y029103D01*
X013782Y029064D01*
X013797Y029024D01*
X013809Y028982D01*
X013817Y028940D01*
X013821Y028897D01*
X013821Y028853D01*
X013817Y028810D01*
X013809Y028768D01*
X013797Y028726D01*
X013782Y028686D01*
X013763Y028647D01*
X013740Y028611D01*
X013715Y028576D01*
X013686Y028544D01*
X013654Y028514D01*
X013620Y028488D01*
X013584Y028465D01*
X013546Y028445D01*
X013506Y028428D01*
X013464Y028416D01*
X013422Y028407D01*
X013379Y028402D01*
X013336Y028401D01*
X013293Y028404D01*
X013251Y028411D01*
X013209Y028422D01*
X013168Y028436D01*
X013129Y028454D01*
X013092Y028476D01*
X013056Y028501D01*
X013023Y028529D01*
X012993Y028559D01*
X012966Y028593D01*
X012942Y028629D01*
X012921Y028667D01*
X012904Y028706D01*
X012891Y028747D01*
X012881Y028789D01*
X012875Y028832D01*
X012873Y028875D01*
X006929Y028875D02*
X006931Y028918D01*
X006937Y028961D01*
X006947Y029003D01*
X006960Y029044D01*
X006977Y029083D01*
X006998Y029121D01*
X007022Y029157D01*
X007049Y029191D01*
X007079Y029221D01*
X007112Y029249D01*
X007148Y029274D01*
X007185Y029296D01*
X007224Y029314D01*
X007265Y029328D01*
X007307Y029339D01*
X007349Y029346D01*
X007392Y029349D01*
X007435Y029348D01*
X007478Y029343D01*
X007520Y029334D01*
X007562Y029322D01*
X007602Y029305D01*
X007640Y029285D01*
X007676Y029262D01*
X007710Y029236D01*
X007742Y029206D01*
X007771Y029174D01*
X007796Y029139D01*
X007819Y029103D01*
X007838Y029064D01*
X007853Y029024D01*
X007865Y028982D01*
X007873Y028940D01*
X007877Y028897D01*
X007877Y028853D01*
X007873Y028810D01*
X007865Y028768D01*
X007853Y028726D01*
X007838Y028686D01*
X007819Y028647D01*
X007796Y028611D01*
X007771Y028576D01*
X007742Y028544D01*
X007710Y028514D01*
X007676Y028488D01*
X007640Y028465D01*
X007602Y028445D01*
X007562Y028428D01*
X007520Y028416D01*
X007478Y028407D01*
X007435Y028402D01*
X007392Y028401D01*
X007349Y028404D01*
X007307Y028411D01*
X007265Y028422D01*
X007224Y028436D01*
X007185Y028454D01*
X007148Y028476D01*
X007112Y028501D01*
X007079Y028529D01*
X007049Y028559D01*
X007022Y028593D01*
X006998Y028629D01*
X006977Y028667D01*
X006960Y028706D01*
X006947Y028747D01*
X006937Y028789D01*
X006931Y028832D01*
X006929Y028875D01*
X002873Y028875D02*
X002875Y028918D01*
X002881Y028961D01*
X002891Y029003D01*
X002904Y029044D01*
X002921Y029083D01*
X002942Y029121D01*
X002966Y029157D01*
X002993Y029191D01*
X003023Y029221D01*
X003056Y029249D01*
X003092Y029274D01*
X003129Y029296D01*
X003168Y029314D01*
X003209Y029328D01*
X003251Y029339D01*
X003293Y029346D01*
X003336Y029349D01*
X003379Y029348D01*
X003422Y029343D01*
X003464Y029334D01*
X003506Y029322D01*
X003546Y029305D01*
X003584Y029285D01*
X003620Y029262D01*
X003654Y029236D01*
X003686Y029206D01*
X003715Y029174D01*
X003740Y029139D01*
X003763Y029103D01*
X003782Y029064D01*
X003797Y029024D01*
X003809Y028982D01*
X003817Y028940D01*
X003821Y028897D01*
X003821Y028853D01*
X003817Y028810D01*
X003809Y028768D01*
X003797Y028726D01*
X003782Y028686D01*
X003763Y028647D01*
X003740Y028611D01*
X003715Y028576D01*
X003686Y028544D01*
X003654Y028514D01*
X003620Y028488D01*
X003584Y028465D01*
X003546Y028445D01*
X003506Y028428D01*
X003464Y028416D01*
X003422Y028407D01*
X003379Y028402D01*
X003336Y028401D01*
X003293Y028404D01*
X003251Y028411D01*
X003209Y028422D01*
X003168Y028436D01*
X003129Y028454D01*
X003092Y028476D01*
X003056Y028501D01*
X003023Y028529D01*
X002993Y028559D01*
X002966Y028593D01*
X002942Y028629D01*
X002921Y028667D01*
X002904Y028706D01*
X002891Y028747D01*
X002881Y028789D01*
X002875Y028832D01*
X002873Y028875D01*
X014262Y024377D02*
X014264Y024416D01*
X014270Y024455D01*
X014280Y024493D01*
X014293Y024530D01*
X014310Y024565D01*
X014330Y024599D01*
X014354Y024630D01*
X014381Y024659D01*
X014410Y024685D01*
X014442Y024708D01*
X014476Y024728D01*
X014512Y024744D01*
X014549Y024756D01*
X014588Y024765D01*
X014627Y024770D01*
X014666Y024771D01*
X014705Y024768D01*
X014744Y024761D01*
X014781Y024750D01*
X014818Y024736D01*
X014853Y024718D01*
X014886Y024697D01*
X014917Y024672D01*
X014945Y024645D01*
X014970Y024615D01*
X014992Y024582D01*
X015011Y024548D01*
X015026Y024512D01*
X015038Y024474D01*
X015046Y024436D01*
X015050Y024397D01*
X015050Y024357D01*
X015046Y024318D01*
X015038Y024280D01*
X015026Y024242D01*
X015011Y024206D01*
X014992Y024172D01*
X014970Y024139D01*
X014945Y024109D01*
X014917Y024082D01*
X014886Y024057D01*
X014853Y024036D01*
X014818Y024018D01*
X014781Y024004D01*
X014744Y023993D01*
X014705Y023986D01*
X014666Y023983D01*
X014627Y023984D01*
X014588Y023989D01*
X014549Y023998D01*
X014512Y024010D01*
X014476Y024026D01*
X014442Y024046D01*
X014410Y024069D01*
X014381Y024095D01*
X014354Y024124D01*
X014330Y024155D01*
X014310Y024189D01*
X014293Y024224D01*
X014280Y024261D01*
X014270Y024299D01*
X014264Y024338D01*
X014262Y024377D01*
X032873Y028875D02*
X032875Y028918D01*
X032881Y028961D01*
X032891Y029003D01*
X032904Y029044D01*
X032921Y029083D01*
X032942Y029121D01*
X032966Y029157D01*
X032993Y029191D01*
X033023Y029221D01*
X033056Y029249D01*
X033092Y029274D01*
X033129Y029296D01*
X033168Y029314D01*
X033209Y029328D01*
X033251Y029339D01*
X033293Y029346D01*
X033336Y029349D01*
X033379Y029348D01*
X033422Y029343D01*
X033464Y029334D01*
X033506Y029322D01*
X033546Y029305D01*
X033584Y029285D01*
X033620Y029262D01*
X033654Y029236D01*
X033686Y029206D01*
X033715Y029174D01*
X033740Y029139D01*
X033763Y029103D01*
X033782Y029064D01*
X033797Y029024D01*
X033809Y028982D01*
X033817Y028940D01*
X033821Y028897D01*
X033821Y028853D01*
X033817Y028810D01*
X033809Y028768D01*
X033797Y028726D01*
X033782Y028686D01*
X033763Y028647D01*
X033740Y028611D01*
X033715Y028576D01*
X033686Y028544D01*
X033654Y028514D01*
X033620Y028488D01*
X033584Y028465D01*
X033546Y028445D01*
X033506Y028428D01*
X033464Y028416D01*
X033422Y028407D01*
X033379Y028402D01*
X033336Y028401D01*
X033293Y028404D01*
X033251Y028411D01*
X033209Y028422D01*
X033168Y028436D01*
X033129Y028454D01*
X033092Y028476D01*
X033056Y028501D01*
X033023Y028529D01*
X032993Y028559D01*
X032966Y028593D01*
X032942Y028629D01*
X032921Y028667D01*
X032904Y028706D01*
X032891Y028747D01*
X032881Y028789D01*
X032875Y028832D01*
X032873Y028875D01*
X036929Y028875D02*
X036931Y028918D01*
X036937Y028961D01*
X036947Y029003D01*
X036960Y029044D01*
X036977Y029083D01*
X036998Y029121D01*
X037022Y029157D01*
X037049Y029191D01*
X037079Y029221D01*
X037112Y029249D01*
X037148Y029274D01*
X037185Y029296D01*
X037224Y029314D01*
X037265Y029328D01*
X037307Y029339D01*
X037349Y029346D01*
X037392Y029349D01*
X037435Y029348D01*
X037478Y029343D01*
X037520Y029334D01*
X037562Y029322D01*
X037602Y029305D01*
X037640Y029285D01*
X037676Y029262D01*
X037710Y029236D01*
X037742Y029206D01*
X037771Y029174D01*
X037796Y029139D01*
X037819Y029103D01*
X037838Y029064D01*
X037853Y029024D01*
X037865Y028982D01*
X037873Y028940D01*
X037877Y028897D01*
X037877Y028853D01*
X037873Y028810D01*
X037865Y028768D01*
X037853Y028726D01*
X037838Y028686D01*
X037819Y028647D01*
X037796Y028611D01*
X037771Y028576D01*
X037742Y028544D01*
X037710Y028514D01*
X037676Y028488D01*
X037640Y028465D01*
X037602Y028445D01*
X037562Y028428D01*
X037520Y028416D01*
X037478Y028407D01*
X037435Y028402D01*
X037392Y028401D01*
X037349Y028404D01*
X037307Y028411D01*
X037265Y028422D01*
X037224Y028436D01*
X037185Y028454D01*
X037148Y028476D01*
X037112Y028501D01*
X037079Y028529D01*
X037049Y028559D01*
X037022Y028593D01*
X036998Y028629D01*
X036977Y028667D01*
X036960Y028706D01*
X036947Y028747D01*
X036937Y028789D01*
X036931Y028832D01*
X036929Y028875D01*
X040745Y029125D02*
X040747Y029175D01*
X040753Y029225D01*
X040763Y029274D01*
X040777Y029322D01*
X040794Y029369D01*
X040815Y029414D01*
X040840Y029458D01*
X040868Y029499D01*
X040900Y029538D01*
X040934Y029575D01*
X040971Y029609D01*
X041011Y029639D01*
X041053Y029666D01*
X041097Y029690D01*
X041143Y029711D01*
X041190Y029727D01*
X041238Y029740D01*
X041288Y029749D01*
X041337Y029754D01*
X041388Y029755D01*
X041438Y029752D01*
X041487Y029745D01*
X041536Y029734D01*
X041584Y029719D01*
X041630Y029701D01*
X041675Y029679D01*
X041718Y029653D01*
X041759Y029624D01*
X041798Y029592D01*
X041834Y029557D01*
X041866Y029519D01*
X041896Y029479D01*
X041923Y029436D01*
X041946Y029392D01*
X041965Y029346D01*
X041981Y029298D01*
X041993Y029249D01*
X042001Y029200D01*
X042005Y029150D01*
X042005Y029100D01*
X042001Y029050D01*
X041993Y029001D01*
X041981Y028952D01*
X041965Y028904D01*
X041946Y028858D01*
X041923Y028814D01*
X041896Y028771D01*
X041866Y028731D01*
X041834Y028693D01*
X041798Y028658D01*
X041759Y028626D01*
X041718Y028597D01*
X041675Y028571D01*
X041630Y028549D01*
X041584Y028531D01*
X041536Y028516D01*
X041487Y028505D01*
X041438Y028498D01*
X041388Y028495D01*
X041337Y028496D01*
X041288Y028501D01*
X041238Y028510D01*
X041190Y028523D01*
X041143Y028539D01*
X041097Y028560D01*
X041053Y028584D01*
X041011Y028611D01*
X040971Y028641D01*
X040934Y028675D01*
X040900Y028712D01*
X040868Y028751D01*
X040840Y028792D01*
X040815Y028836D01*
X040794Y028881D01*
X040777Y028928D01*
X040763Y028976D01*
X040753Y029025D01*
X040747Y029075D01*
X040745Y029125D01*
X040247Y031251D02*
X040249Y031290D01*
X040255Y031329D01*
X040265Y031367D01*
X040278Y031404D01*
X040295Y031439D01*
X040315Y031473D01*
X040339Y031504D01*
X040366Y031533D01*
X040395Y031559D01*
X040427Y031582D01*
X040461Y031602D01*
X040497Y031618D01*
X040534Y031630D01*
X040573Y031639D01*
X040612Y031644D01*
X040651Y031645D01*
X040690Y031642D01*
X040729Y031635D01*
X040766Y031624D01*
X040803Y031610D01*
X040838Y031592D01*
X040871Y031571D01*
X040902Y031546D01*
X040930Y031519D01*
X040955Y031489D01*
X040977Y031456D01*
X040996Y031422D01*
X041011Y031386D01*
X041023Y031348D01*
X041031Y031310D01*
X041035Y031271D01*
X041035Y031231D01*
X041031Y031192D01*
X041023Y031154D01*
X041011Y031116D01*
X040996Y031080D01*
X040977Y031046D01*
X040955Y031013D01*
X040930Y030983D01*
X040902Y030956D01*
X040871Y030931D01*
X040838Y030910D01*
X040803Y030892D01*
X040766Y030878D01*
X040729Y030867D01*
X040690Y030860D01*
X040651Y030857D01*
X040612Y030858D01*
X040573Y030863D01*
X040534Y030872D01*
X040497Y030884D01*
X040461Y030900D01*
X040427Y030920D01*
X040395Y030943D01*
X040366Y030969D01*
X040339Y030998D01*
X040315Y031029D01*
X040295Y031063D01*
X040278Y031098D01*
X040265Y031135D01*
X040255Y031173D01*
X040249Y031212D01*
X040247Y031251D01*
X036338Y035125D02*
X036340Y035168D01*
X036346Y035211D01*
X036356Y035253D01*
X036369Y035294D01*
X036386Y035333D01*
X036407Y035371D01*
X036431Y035407D01*
X036458Y035441D01*
X036488Y035471D01*
X036521Y035499D01*
X036557Y035524D01*
X036594Y035546D01*
X036633Y035564D01*
X036674Y035578D01*
X036716Y035589D01*
X036758Y035596D01*
X036801Y035599D01*
X036844Y035598D01*
X036887Y035593D01*
X036929Y035584D01*
X036971Y035572D01*
X037011Y035555D01*
X037049Y035535D01*
X037085Y035512D01*
X037119Y035486D01*
X037151Y035456D01*
X037180Y035424D01*
X037205Y035389D01*
X037228Y035353D01*
X037247Y035314D01*
X037262Y035274D01*
X037274Y035232D01*
X037282Y035190D01*
X037286Y035147D01*
X037286Y035103D01*
X037282Y035060D01*
X037274Y035018D01*
X037262Y034976D01*
X037247Y034936D01*
X037228Y034897D01*
X037205Y034861D01*
X037180Y034826D01*
X037151Y034794D01*
X037119Y034764D01*
X037085Y034738D01*
X037049Y034715D01*
X037011Y034695D01*
X036971Y034678D01*
X036929Y034666D01*
X036887Y034657D01*
X036844Y034652D01*
X036801Y034651D01*
X036758Y034654D01*
X036716Y034661D01*
X036674Y034672D01*
X036633Y034686D01*
X036594Y034704D01*
X036557Y034726D01*
X036521Y034751D01*
X036488Y034779D01*
X036458Y034809D01*
X036431Y034843D01*
X036407Y034879D01*
X036386Y034917D01*
X036369Y034956D01*
X036356Y034997D01*
X036346Y035039D01*
X036340Y035082D01*
X036338Y035125D01*
X033464Y035125D02*
X033466Y035168D01*
X033472Y035211D01*
X033482Y035253D01*
X033495Y035294D01*
X033512Y035333D01*
X033533Y035371D01*
X033557Y035407D01*
X033584Y035441D01*
X033614Y035471D01*
X033647Y035499D01*
X033683Y035524D01*
X033720Y035546D01*
X033759Y035564D01*
X033800Y035578D01*
X033842Y035589D01*
X033884Y035596D01*
X033927Y035599D01*
X033970Y035598D01*
X034013Y035593D01*
X034055Y035584D01*
X034097Y035572D01*
X034137Y035555D01*
X034175Y035535D01*
X034211Y035512D01*
X034245Y035486D01*
X034277Y035456D01*
X034306Y035424D01*
X034331Y035389D01*
X034354Y035353D01*
X034373Y035314D01*
X034388Y035274D01*
X034400Y035232D01*
X034408Y035190D01*
X034412Y035147D01*
X034412Y035103D01*
X034408Y035060D01*
X034400Y035018D01*
X034388Y034976D01*
X034373Y034936D01*
X034354Y034897D01*
X034331Y034861D01*
X034306Y034826D01*
X034277Y034794D01*
X034245Y034764D01*
X034211Y034738D01*
X034175Y034715D01*
X034137Y034695D01*
X034097Y034678D01*
X034055Y034666D01*
X034013Y034657D01*
X033970Y034652D01*
X033927Y034651D01*
X033884Y034654D01*
X033842Y034661D01*
X033800Y034672D01*
X033759Y034686D01*
X033720Y034704D01*
X033683Y034726D01*
X033647Y034751D01*
X033614Y034779D01*
X033584Y034809D01*
X033557Y034843D01*
X033533Y034879D01*
X033512Y034917D01*
X033495Y034956D01*
X033482Y034997D01*
X033472Y035039D01*
X033466Y035082D01*
X033464Y035125D01*
X040837Y038377D02*
X040839Y038416D01*
X040845Y038455D01*
X040855Y038493D01*
X040868Y038530D01*
X040885Y038565D01*
X040905Y038599D01*
X040929Y038630D01*
X040956Y038659D01*
X040985Y038685D01*
X041017Y038708D01*
X041051Y038728D01*
X041087Y038744D01*
X041124Y038756D01*
X041163Y038765D01*
X041202Y038770D01*
X041241Y038771D01*
X041280Y038768D01*
X041319Y038761D01*
X041356Y038750D01*
X041393Y038736D01*
X041428Y038718D01*
X041461Y038697D01*
X041492Y038672D01*
X041520Y038645D01*
X041545Y038615D01*
X041567Y038582D01*
X041586Y038548D01*
X041601Y038512D01*
X041613Y038474D01*
X041621Y038436D01*
X041625Y038397D01*
X041625Y038357D01*
X041621Y038318D01*
X041613Y038280D01*
X041601Y038242D01*
X041586Y038206D01*
X041567Y038172D01*
X041545Y038139D01*
X041520Y038109D01*
X041492Y038082D01*
X041461Y038057D01*
X041428Y038036D01*
X041393Y038018D01*
X041356Y038004D01*
X041319Y037993D01*
X041280Y037986D01*
X041241Y037983D01*
X041202Y037984D01*
X041163Y037989D01*
X041124Y037998D01*
X041087Y038010D01*
X041051Y038026D01*
X041017Y038046D01*
X040985Y038069D01*
X040956Y038095D01*
X040929Y038124D01*
X040905Y038155D01*
X040885Y038189D01*
X040868Y038224D01*
X040855Y038261D01*
X040845Y038299D01*
X040839Y038338D01*
X040837Y038377D01*
X051625Y038377D02*
X051627Y038416D01*
X051633Y038455D01*
X051643Y038493D01*
X051656Y038530D01*
X051673Y038565D01*
X051693Y038599D01*
X051717Y038630D01*
X051744Y038659D01*
X051773Y038685D01*
X051805Y038708D01*
X051839Y038728D01*
X051875Y038744D01*
X051912Y038756D01*
X051951Y038765D01*
X051990Y038770D01*
X052029Y038771D01*
X052068Y038768D01*
X052107Y038761D01*
X052144Y038750D01*
X052181Y038736D01*
X052216Y038718D01*
X052249Y038697D01*
X052280Y038672D01*
X052308Y038645D01*
X052333Y038615D01*
X052355Y038582D01*
X052374Y038548D01*
X052389Y038512D01*
X052401Y038474D01*
X052409Y038436D01*
X052413Y038397D01*
X052413Y038357D01*
X052409Y038318D01*
X052401Y038280D01*
X052389Y038242D01*
X052374Y038206D01*
X052355Y038172D01*
X052333Y038139D01*
X052308Y038109D01*
X052280Y038082D01*
X052249Y038057D01*
X052216Y038036D01*
X052181Y038018D01*
X052144Y038004D01*
X052107Y037993D01*
X052068Y037986D01*
X052029Y037983D01*
X051990Y037984D01*
X051951Y037989D01*
X051912Y037998D01*
X051875Y038010D01*
X051839Y038026D01*
X051805Y038046D01*
X051773Y038069D01*
X051744Y038095D01*
X051717Y038124D01*
X051693Y038155D01*
X051673Y038189D01*
X051656Y038224D01*
X051643Y038261D01*
X051633Y038299D01*
X051627Y038338D01*
X051625Y038377D01*
X052215Y031251D02*
X052217Y031290D01*
X052223Y031329D01*
X052233Y031367D01*
X052246Y031404D01*
X052263Y031439D01*
X052283Y031473D01*
X052307Y031504D01*
X052334Y031533D01*
X052363Y031559D01*
X052395Y031582D01*
X052429Y031602D01*
X052465Y031618D01*
X052502Y031630D01*
X052541Y031639D01*
X052580Y031644D01*
X052619Y031645D01*
X052658Y031642D01*
X052697Y031635D01*
X052734Y031624D01*
X052771Y031610D01*
X052806Y031592D01*
X052839Y031571D01*
X052870Y031546D01*
X052898Y031519D01*
X052923Y031489D01*
X052945Y031456D01*
X052964Y031422D01*
X052979Y031386D01*
X052991Y031348D01*
X052999Y031310D01*
X053003Y031271D01*
X053003Y031231D01*
X052999Y031192D01*
X052991Y031154D01*
X052979Y031116D01*
X052964Y031080D01*
X052945Y031046D01*
X052923Y031013D01*
X052898Y030983D01*
X052870Y030956D01*
X052839Y030931D01*
X052806Y030910D01*
X052771Y030892D01*
X052734Y030878D01*
X052697Y030867D01*
X052658Y030860D01*
X052619Y030857D01*
X052580Y030858D01*
X052541Y030863D01*
X052502Y030872D01*
X052465Y030884D01*
X052429Y030900D01*
X052395Y030920D01*
X052363Y030943D01*
X052334Y030969D01*
X052307Y030998D01*
X052283Y031029D01*
X052263Y031063D01*
X052246Y031098D01*
X052233Y031135D01*
X052223Y031173D01*
X052217Y031212D01*
X052215Y031251D01*
X006338Y035125D02*
X006340Y035168D01*
X006346Y035211D01*
X006356Y035253D01*
X006369Y035294D01*
X006386Y035333D01*
X006407Y035371D01*
X006431Y035407D01*
X006458Y035441D01*
X006488Y035471D01*
X006521Y035499D01*
X006557Y035524D01*
X006594Y035546D01*
X006633Y035564D01*
X006674Y035578D01*
X006716Y035589D01*
X006758Y035596D01*
X006801Y035599D01*
X006844Y035598D01*
X006887Y035593D01*
X006929Y035584D01*
X006971Y035572D01*
X007011Y035555D01*
X007049Y035535D01*
X007085Y035512D01*
X007119Y035486D01*
X007151Y035456D01*
X007180Y035424D01*
X007205Y035389D01*
X007228Y035353D01*
X007247Y035314D01*
X007262Y035274D01*
X007274Y035232D01*
X007282Y035190D01*
X007286Y035147D01*
X007286Y035103D01*
X007282Y035060D01*
X007274Y035018D01*
X007262Y034976D01*
X007247Y034936D01*
X007228Y034897D01*
X007205Y034861D01*
X007180Y034826D01*
X007151Y034794D01*
X007119Y034764D01*
X007085Y034738D01*
X007049Y034715D01*
X007011Y034695D01*
X006971Y034678D01*
X006929Y034666D01*
X006887Y034657D01*
X006844Y034652D01*
X006801Y034651D01*
X006758Y034654D01*
X006716Y034661D01*
X006674Y034672D01*
X006633Y034686D01*
X006594Y034704D01*
X006557Y034726D01*
X006521Y034751D01*
X006488Y034779D01*
X006458Y034809D01*
X006431Y034843D01*
X006407Y034879D01*
X006386Y034917D01*
X006369Y034956D01*
X006356Y034997D01*
X006346Y035039D01*
X006340Y035082D01*
X006338Y035125D01*
X003464Y035125D02*
X003466Y035168D01*
X003472Y035211D01*
X003482Y035253D01*
X003495Y035294D01*
X003512Y035333D01*
X003533Y035371D01*
X003557Y035407D01*
X003584Y035441D01*
X003614Y035471D01*
X003647Y035499D01*
X003683Y035524D01*
X003720Y035546D01*
X003759Y035564D01*
X003800Y035578D01*
X003842Y035589D01*
X003884Y035596D01*
X003927Y035599D01*
X003970Y035598D01*
X004013Y035593D01*
X004055Y035584D01*
X004097Y035572D01*
X004137Y035555D01*
X004175Y035535D01*
X004211Y035512D01*
X004245Y035486D01*
X004277Y035456D01*
X004306Y035424D01*
X004331Y035389D01*
X004354Y035353D01*
X004373Y035314D01*
X004388Y035274D01*
X004400Y035232D01*
X004408Y035190D01*
X004412Y035147D01*
X004412Y035103D01*
X004408Y035060D01*
X004400Y035018D01*
X004388Y034976D01*
X004373Y034936D01*
X004354Y034897D01*
X004331Y034861D01*
X004306Y034826D01*
X004277Y034794D01*
X004245Y034764D01*
X004211Y034738D01*
X004175Y034715D01*
X004137Y034695D01*
X004097Y034678D01*
X004055Y034666D01*
X004013Y034657D01*
X003970Y034652D01*
X003927Y034651D01*
X003884Y034654D01*
X003842Y034661D01*
X003800Y034672D01*
X003759Y034686D01*
X003720Y034704D01*
X003683Y034726D01*
X003647Y034751D01*
X003614Y034779D01*
X003584Y034809D01*
X003557Y034843D01*
X003533Y034879D01*
X003512Y034917D01*
X003495Y034956D01*
X003482Y034997D01*
X003472Y035039D01*
X003466Y035082D01*
X003464Y035125D01*
M02*
