G75*
G70*
%OFA0B0*%
%FSLAX24Y24*%
%IPPOS*%
%LPD*%
%AMOC8*
5,1,8,0,0,1.08239X$1,22.5*
%
%ADD10C,0.0000*%
%ADD11C,0.0060*%
%ADD12C,0.0030*%
%ADD13R,0.0160X0.0530*%
%ADD14C,0.0070*%
%ADD15C,0.0080*%
%ADD16C,0.0010*%
%ADD17C,0.0040*%
%ADD18R,0.0374X0.0197*%
%ADD19R,0.0197X0.0374*%
%ADD20R,0.0340X0.0160*%
%ADD21R,0.0160X0.0340*%
%ADD22C,0.0020*%
%ADD23C,0.0050*%
%ADD24R,0.0450X0.0200*%
%ADD25C,0.0039*%
%ADD26R,0.0200X0.0450*%
%ADD27C,0.0100*%
%ADD28C,0.0079*%
%ADD29R,0.0200X0.0200*%
%ADD30R,0.0100X0.0200*%
%ADD31R,0.0200X0.0100*%
%ADD32R,0.2150X0.0050*%
%ADD33R,0.2250X0.0050*%
%ADD34R,0.2350X0.0050*%
%ADD35R,0.2450X0.0050*%
%ADD36R,0.2550X0.0050*%
%ADD37R,0.2650X0.0050*%
%ADD38R,0.2750X0.0050*%
%ADD39R,0.2850X0.0050*%
%ADD40R,0.2950X0.0050*%
%ADD41R,0.3050X0.0050*%
%ADD42R,0.3150X0.0050*%
%ADD43R,0.3350X0.0050*%
%ADD44R,0.3400X0.0050*%
%ADD45R,0.3450X0.0050*%
%ADD46R,0.3550X0.0050*%
%ADD47R,0.3650X0.0050*%
%ADD48R,0.3750X0.0050*%
%ADD49R,0.1350X0.0050*%
%ADD50R,0.1300X0.0050*%
%ADD51R,0.1250X0.0050*%
%ADD52R,0.1200X0.0050*%
%ADD53R,0.1150X0.0050*%
%ADD54R,0.0550X0.0050*%
%ADD55R,0.0450X0.0050*%
%ADD56R,0.0350X0.0050*%
%ADD57R,0.0250X0.0050*%
%ADD58R,0.0200X0.0050*%
%ADD59R,0.0150X0.0050*%
%ADD60R,0.0100X0.0050*%
%ADD61R,0.0050X0.0050*%
%ADD62R,0.0700X0.0050*%
%ADD63R,0.0950X0.0050*%
%ADD64R,0.3700X0.0050*%
%ADD65R,0.3600X0.0050*%
%ADD66R,0.3500X0.0050*%
%ADD67R,0.3200X0.0050*%
D10*
X001625Y002625D02*
X001625Y040625D01*
X081625Y040625D01*
X081625Y002625D01*
X001625Y002625D01*
X002873Y013875D02*
X002875Y013918D01*
X002881Y013961D01*
X002891Y014003D01*
X002904Y014044D01*
X002921Y014083D01*
X002942Y014121D01*
X002966Y014157D01*
X002993Y014191D01*
X003023Y014221D01*
X003056Y014249D01*
X003092Y014274D01*
X003129Y014296D01*
X003168Y014314D01*
X003209Y014328D01*
X003251Y014339D01*
X003293Y014346D01*
X003336Y014349D01*
X003379Y014348D01*
X003422Y014343D01*
X003464Y014334D01*
X003506Y014322D01*
X003546Y014305D01*
X003584Y014285D01*
X003620Y014262D01*
X003654Y014236D01*
X003686Y014206D01*
X003715Y014174D01*
X003740Y014139D01*
X003763Y014103D01*
X003782Y014064D01*
X003797Y014024D01*
X003809Y013982D01*
X003817Y013940D01*
X003821Y013897D01*
X003821Y013853D01*
X003817Y013810D01*
X003809Y013768D01*
X003797Y013726D01*
X003782Y013686D01*
X003763Y013647D01*
X003740Y013611D01*
X003715Y013576D01*
X003686Y013544D01*
X003654Y013514D01*
X003620Y013488D01*
X003584Y013465D01*
X003546Y013445D01*
X003506Y013428D01*
X003464Y013416D01*
X003422Y013407D01*
X003379Y013402D01*
X003336Y013401D01*
X003293Y013404D01*
X003251Y013411D01*
X003209Y013422D01*
X003168Y013436D01*
X003129Y013454D01*
X003092Y013476D01*
X003056Y013501D01*
X003023Y013529D01*
X002993Y013559D01*
X002966Y013593D01*
X002942Y013629D01*
X002921Y013667D01*
X002904Y013706D01*
X002891Y013747D01*
X002881Y013789D01*
X002875Y013832D01*
X002873Y013875D01*
X006929Y013875D02*
X006931Y013918D01*
X006937Y013961D01*
X006947Y014003D01*
X006960Y014044D01*
X006977Y014083D01*
X006998Y014121D01*
X007022Y014157D01*
X007049Y014191D01*
X007079Y014221D01*
X007112Y014249D01*
X007148Y014274D01*
X007185Y014296D01*
X007224Y014314D01*
X007265Y014328D01*
X007307Y014339D01*
X007349Y014346D01*
X007392Y014349D01*
X007435Y014348D01*
X007478Y014343D01*
X007520Y014334D01*
X007562Y014322D01*
X007602Y014305D01*
X007640Y014285D01*
X007676Y014262D01*
X007710Y014236D01*
X007742Y014206D01*
X007771Y014174D01*
X007796Y014139D01*
X007819Y014103D01*
X007838Y014064D01*
X007853Y014024D01*
X007865Y013982D01*
X007873Y013940D01*
X007877Y013897D01*
X007877Y013853D01*
X007873Y013810D01*
X007865Y013768D01*
X007853Y013726D01*
X007838Y013686D01*
X007819Y013647D01*
X007796Y013611D01*
X007771Y013576D01*
X007742Y013544D01*
X007710Y013514D01*
X007676Y013488D01*
X007640Y013465D01*
X007602Y013445D01*
X007562Y013428D01*
X007520Y013416D01*
X007478Y013407D01*
X007435Y013402D01*
X007392Y013401D01*
X007349Y013404D01*
X007307Y013411D01*
X007265Y013422D01*
X007224Y013436D01*
X007185Y013454D01*
X007148Y013476D01*
X007112Y013501D01*
X007079Y013529D01*
X007049Y013559D01*
X007022Y013593D01*
X006998Y013629D01*
X006977Y013667D01*
X006960Y013706D01*
X006947Y013747D01*
X006937Y013789D01*
X006931Y013832D01*
X006929Y013875D01*
X012748Y013875D02*
X012750Y013918D01*
X012756Y013961D01*
X012766Y014003D01*
X012779Y014044D01*
X012796Y014083D01*
X012817Y014121D01*
X012841Y014157D01*
X012868Y014191D01*
X012898Y014221D01*
X012931Y014249D01*
X012967Y014274D01*
X013004Y014296D01*
X013043Y014314D01*
X013084Y014328D01*
X013126Y014339D01*
X013168Y014346D01*
X013211Y014349D01*
X013254Y014348D01*
X013297Y014343D01*
X013339Y014334D01*
X013381Y014322D01*
X013421Y014305D01*
X013459Y014285D01*
X013495Y014262D01*
X013529Y014236D01*
X013561Y014206D01*
X013590Y014174D01*
X013615Y014139D01*
X013638Y014103D01*
X013657Y014064D01*
X013672Y014024D01*
X013684Y013982D01*
X013692Y013940D01*
X013696Y013897D01*
X013696Y013853D01*
X013692Y013810D01*
X013684Y013768D01*
X013672Y013726D01*
X013657Y013686D01*
X013638Y013647D01*
X013615Y013611D01*
X013590Y013576D01*
X013561Y013544D01*
X013529Y013514D01*
X013495Y013488D01*
X013459Y013465D01*
X013421Y013445D01*
X013381Y013428D01*
X013339Y013416D01*
X013297Y013407D01*
X013254Y013402D01*
X013211Y013401D01*
X013168Y013404D01*
X013126Y013411D01*
X013084Y013422D01*
X013043Y013436D01*
X013004Y013454D01*
X012967Y013476D01*
X012931Y013501D01*
X012898Y013529D01*
X012868Y013559D01*
X012841Y013593D01*
X012817Y013629D01*
X012796Y013667D01*
X012779Y013706D01*
X012766Y013747D01*
X012756Y013789D01*
X012750Y013832D01*
X012748Y013875D01*
X016804Y013875D02*
X016806Y013918D01*
X016812Y013961D01*
X016822Y014003D01*
X016835Y014044D01*
X016852Y014083D01*
X016873Y014121D01*
X016897Y014157D01*
X016924Y014191D01*
X016954Y014221D01*
X016987Y014249D01*
X017023Y014274D01*
X017060Y014296D01*
X017099Y014314D01*
X017140Y014328D01*
X017182Y014339D01*
X017224Y014346D01*
X017267Y014349D01*
X017310Y014348D01*
X017353Y014343D01*
X017395Y014334D01*
X017437Y014322D01*
X017477Y014305D01*
X017515Y014285D01*
X017551Y014262D01*
X017585Y014236D01*
X017617Y014206D01*
X017646Y014174D01*
X017671Y014139D01*
X017694Y014103D01*
X017713Y014064D01*
X017728Y014024D01*
X017740Y013982D01*
X017748Y013940D01*
X017752Y013897D01*
X017752Y013853D01*
X017748Y013810D01*
X017740Y013768D01*
X017728Y013726D01*
X017713Y013686D01*
X017694Y013647D01*
X017671Y013611D01*
X017646Y013576D01*
X017617Y013544D01*
X017585Y013514D01*
X017551Y013488D01*
X017515Y013465D01*
X017477Y013445D01*
X017437Y013428D01*
X017395Y013416D01*
X017353Y013407D01*
X017310Y013402D01*
X017267Y013401D01*
X017224Y013404D01*
X017182Y013411D01*
X017140Y013422D01*
X017099Y013436D01*
X017060Y013454D01*
X017023Y013476D01*
X016987Y013501D01*
X016954Y013529D01*
X016924Y013559D01*
X016897Y013593D01*
X016873Y013629D01*
X016852Y013667D01*
X016835Y013706D01*
X016822Y013747D01*
X016812Y013789D01*
X016806Y013832D01*
X016804Y013875D01*
X013672Y017251D02*
X013674Y017290D01*
X013680Y017329D01*
X013690Y017367D01*
X013703Y017404D01*
X013720Y017439D01*
X013740Y017473D01*
X013764Y017504D01*
X013791Y017533D01*
X013820Y017559D01*
X013852Y017582D01*
X013886Y017602D01*
X013922Y017618D01*
X013959Y017630D01*
X013998Y017639D01*
X014037Y017644D01*
X014076Y017645D01*
X014115Y017642D01*
X014154Y017635D01*
X014191Y017624D01*
X014228Y017610D01*
X014263Y017592D01*
X014296Y017571D01*
X014327Y017546D01*
X014355Y017519D01*
X014380Y017489D01*
X014402Y017456D01*
X014421Y017422D01*
X014436Y017386D01*
X014448Y017348D01*
X014456Y017310D01*
X014460Y017271D01*
X014460Y017231D01*
X014456Y017192D01*
X014448Y017154D01*
X014436Y017116D01*
X014421Y017080D01*
X014402Y017046D01*
X014380Y017013D01*
X014355Y016983D01*
X014327Y016956D01*
X014296Y016931D01*
X014263Y016910D01*
X014228Y016892D01*
X014191Y016878D01*
X014154Y016867D01*
X014115Y016860D01*
X014076Y016857D01*
X014037Y016858D01*
X013998Y016863D01*
X013959Y016872D01*
X013922Y016884D01*
X013886Y016900D01*
X013852Y016920D01*
X013820Y016943D01*
X013791Y016969D01*
X013764Y016998D01*
X013740Y017029D01*
X013720Y017063D01*
X013703Y017098D01*
X013690Y017135D01*
X013680Y017173D01*
X013674Y017212D01*
X013672Y017251D01*
X022873Y013875D02*
X022875Y013918D01*
X022881Y013961D01*
X022891Y014003D01*
X022904Y014044D01*
X022921Y014083D01*
X022942Y014121D01*
X022966Y014157D01*
X022993Y014191D01*
X023023Y014221D01*
X023056Y014249D01*
X023092Y014274D01*
X023129Y014296D01*
X023168Y014314D01*
X023209Y014328D01*
X023251Y014339D01*
X023293Y014346D01*
X023336Y014349D01*
X023379Y014348D01*
X023422Y014343D01*
X023464Y014334D01*
X023506Y014322D01*
X023546Y014305D01*
X023584Y014285D01*
X023620Y014262D01*
X023654Y014236D01*
X023686Y014206D01*
X023715Y014174D01*
X023740Y014139D01*
X023763Y014103D01*
X023782Y014064D01*
X023797Y014024D01*
X023809Y013982D01*
X023817Y013940D01*
X023821Y013897D01*
X023821Y013853D01*
X023817Y013810D01*
X023809Y013768D01*
X023797Y013726D01*
X023782Y013686D01*
X023763Y013647D01*
X023740Y013611D01*
X023715Y013576D01*
X023686Y013544D01*
X023654Y013514D01*
X023620Y013488D01*
X023584Y013465D01*
X023546Y013445D01*
X023506Y013428D01*
X023464Y013416D01*
X023422Y013407D01*
X023379Y013402D01*
X023336Y013401D01*
X023293Y013404D01*
X023251Y013411D01*
X023209Y013422D01*
X023168Y013436D01*
X023129Y013454D01*
X023092Y013476D01*
X023056Y013501D01*
X023023Y013529D01*
X022993Y013559D01*
X022966Y013593D01*
X022942Y013629D01*
X022921Y013667D01*
X022904Y013706D01*
X022891Y013747D01*
X022881Y013789D01*
X022875Y013832D01*
X022873Y013875D01*
X026929Y013875D02*
X026931Y013918D01*
X026937Y013961D01*
X026947Y014003D01*
X026960Y014044D01*
X026977Y014083D01*
X026998Y014121D01*
X027022Y014157D01*
X027049Y014191D01*
X027079Y014221D01*
X027112Y014249D01*
X027148Y014274D01*
X027185Y014296D01*
X027224Y014314D01*
X027265Y014328D01*
X027307Y014339D01*
X027349Y014346D01*
X027392Y014349D01*
X027435Y014348D01*
X027478Y014343D01*
X027520Y014334D01*
X027562Y014322D01*
X027602Y014305D01*
X027640Y014285D01*
X027676Y014262D01*
X027710Y014236D01*
X027742Y014206D01*
X027771Y014174D01*
X027796Y014139D01*
X027819Y014103D01*
X027838Y014064D01*
X027853Y014024D01*
X027865Y013982D01*
X027873Y013940D01*
X027877Y013897D01*
X027877Y013853D01*
X027873Y013810D01*
X027865Y013768D01*
X027853Y013726D01*
X027838Y013686D01*
X027819Y013647D01*
X027796Y013611D01*
X027771Y013576D01*
X027742Y013544D01*
X027710Y013514D01*
X027676Y013488D01*
X027640Y013465D01*
X027602Y013445D01*
X027562Y013428D01*
X027520Y013416D01*
X027478Y013407D01*
X027435Y013402D01*
X027392Y013401D01*
X027349Y013404D01*
X027307Y013411D01*
X027265Y013422D01*
X027224Y013436D01*
X027185Y013454D01*
X027148Y013476D01*
X027112Y013501D01*
X027079Y013529D01*
X027049Y013559D01*
X027022Y013593D01*
X026998Y013629D01*
X026977Y013667D01*
X026960Y013706D01*
X026947Y013747D01*
X026937Y013789D01*
X026931Y013832D01*
X026929Y013875D01*
X028790Y017251D02*
X028792Y017290D01*
X028798Y017329D01*
X028808Y017367D01*
X028821Y017404D01*
X028838Y017439D01*
X028858Y017473D01*
X028882Y017504D01*
X028909Y017533D01*
X028938Y017559D01*
X028970Y017582D01*
X029004Y017602D01*
X029040Y017618D01*
X029077Y017630D01*
X029116Y017639D01*
X029155Y017644D01*
X029194Y017645D01*
X029233Y017642D01*
X029272Y017635D01*
X029309Y017624D01*
X029346Y017610D01*
X029381Y017592D01*
X029414Y017571D01*
X029445Y017546D01*
X029473Y017519D01*
X029498Y017489D01*
X029520Y017456D01*
X029539Y017422D01*
X029554Y017386D01*
X029566Y017348D01*
X029574Y017310D01*
X029578Y017271D01*
X029578Y017231D01*
X029574Y017192D01*
X029566Y017154D01*
X029554Y017116D01*
X029539Y017080D01*
X029520Y017046D01*
X029498Y017013D01*
X029473Y016983D01*
X029445Y016956D01*
X029414Y016931D01*
X029381Y016910D01*
X029346Y016892D01*
X029309Y016878D01*
X029272Y016867D01*
X029233Y016860D01*
X029194Y016857D01*
X029155Y016858D01*
X029116Y016863D01*
X029077Y016872D01*
X029040Y016884D01*
X029004Y016900D01*
X028970Y016920D01*
X028938Y016943D01*
X028909Y016969D01*
X028882Y016998D01*
X028858Y017029D01*
X028838Y017063D01*
X028821Y017098D01*
X028808Y017135D01*
X028798Y017173D01*
X028792Y017212D01*
X028790Y017251D01*
X032873Y013875D02*
X032875Y013918D01*
X032881Y013961D01*
X032891Y014003D01*
X032904Y014044D01*
X032921Y014083D01*
X032942Y014121D01*
X032966Y014157D01*
X032993Y014191D01*
X033023Y014221D01*
X033056Y014249D01*
X033092Y014274D01*
X033129Y014296D01*
X033168Y014314D01*
X033209Y014328D01*
X033251Y014339D01*
X033293Y014346D01*
X033336Y014349D01*
X033379Y014348D01*
X033422Y014343D01*
X033464Y014334D01*
X033506Y014322D01*
X033546Y014305D01*
X033584Y014285D01*
X033620Y014262D01*
X033654Y014236D01*
X033686Y014206D01*
X033715Y014174D01*
X033740Y014139D01*
X033763Y014103D01*
X033782Y014064D01*
X033797Y014024D01*
X033809Y013982D01*
X033817Y013940D01*
X033821Y013897D01*
X033821Y013853D01*
X033817Y013810D01*
X033809Y013768D01*
X033797Y013726D01*
X033782Y013686D01*
X033763Y013647D01*
X033740Y013611D01*
X033715Y013576D01*
X033686Y013544D01*
X033654Y013514D01*
X033620Y013488D01*
X033584Y013465D01*
X033546Y013445D01*
X033506Y013428D01*
X033464Y013416D01*
X033422Y013407D01*
X033379Y013402D01*
X033336Y013401D01*
X033293Y013404D01*
X033251Y013411D01*
X033209Y013422D01*
X033168Y013436D01*
X033129Y013454D01*
X033092Y013476D01*
X033056Y013501D01*
X033023Y013529D01*
X032993Y013559D01*
X032966Y013593D01*
X032942Y013629D01*
X032921Y013667D01*
X032904Y013706D01*
X032891Y013747D01*
X032881Y013789D01*
X032875Y013832D01*
X032873Y013875D01*
X036929Y013875D02*
X036931Y013918D01*
X036937Y013961D01*
X036947Y014003D01*
X036960Y014044D01*
X036977Y014083D01*
X036998Y014121D01*
X037022Y014157D01*
X037049Y014191D01*
X037079Y014221D01*
X037112Y014249D01*
X037148Y014274D01*
X037185Y014296D01*
X037224Y014314D01*
X037265Y014328D01*
X037307Y014339D01*
X037349Y014346D01*
X037392Y014349D01*
X037435Y014348D01*
X037478Y014343D01*
X037520Y014334D01*
X037562Y014322D01*
X037602Y014305D01*
X037640Y014285D01*
X037676Y014262D01*
X037710Y014236D01*
X037742Y014206D01*
X037771Y014174D01*
X037796Y014139D01*
X037819Y014103D01*
X037838Y014064D01*
X037853Y014024D01*
X037865Y013982D01*
X037873Y013940D01*
X037877Y013897D01*
X037877Y013853D01*
X037873Y013810D01*
X037865Y013768D01*
X037853Y013726D01*
X037838Y013686D01*
X037819Y013647D01*
X037796Y013611D01*
X037771Y013576D01*
X037742Y013544D01*
X037710Y013514D01*
X037676Y013488D01*
X037640Y013465D01*
X037602Y013445D01*
X037562Y013428D01*
X037520Y013416D01*
X037478Y013407D01*
X037435Y013402D01*
X037392Y013401D01*
X037349Y013404D01*
X037307Y013411D01*
X037265Y013422D01*
X037224Y013436D01*
X037185Y013454D01*
X037148Y013476D01*
X037112Y013501D01*
X037079Y013529D01*
X037049Y013559D01*
X037022Y013593D01*
X036998Y013629D01*
X036977Y013667D01*
X036960Y013706D01*
X036947Y013747D01*
X036937Y013789D01*
X036931Y013832D01*
X036929Y013875D01*
X040837Y014377D02*
X040839Y014416D01*
X040845Y014455D01*
X040855Y014493D01*
X040868Y014530D01*
X040885Y014565D01*
X040905Y014599D01*
X040929Y014630D01*
X040956Y014659D01*
X040985Y014685D01*
X041017Y014708D01*
X041051Y014728D01*
X041087Y014744D01*
X041124Y014756D01*
X041163Y014765D01*
X041202Y014770D01*
X041241Y014771D01*
X041280Y014768D01*
X041319Y014761D01*
X041356Y014750D01*
X041393Y014736D01*
X041428Y014718D01*
X041461Y014697D01*
X041492Y014672D01*
X041520Y014645D01*
X041545Y014615D01*
X041567Y014582D01*
X041586Y014548D01*
X041601Y014512D01*
X041613Y014474D01*
X041621Y014436D01*
X041625Y014397D01*
X041625Y014357D01*
X041621Y014318D01*
X041613Y014280D01*
X041601Y014242D01*
X041586Y014206D01*
X041567Y014172D01*
X041545Y014139D01*
X041520Y014109D01*
X041492Y014082D01*
X041461Y014057D01*
X041428Y014036D01*
X041393Y014018D01*
X041356Y014004D01*
X041319Y013993D01*
X041280Y013986D01*
X041241Y013983D01*
X041202Y013984D01*
X041163Y013989D01*
X041124Y013998D01*
X041087Y014010D01*
X041051Y014026D01*
X041017Y014046D01*
X040985Y014069D01*
X040956Y014095D01*
X040929Y014124D01*
X040905Y014155D01*
X040885Y014189D01*
X040868Y014224D01*
X040855Y014261D01*
X040845Y014299D01*
X040839Y014338D01*
X040837Y014377D01*
X051625Y014377D02*
X051627Y014416D01*
X051633Y014455D01*
X051643Y014493D01*
X051656Y014530D01*
X051673Y014565D01*
X051693Y014599D01*
X051717Y014630D01*
X051744Y014659D01*
X051773Y014685D01*
X051805Y014708D01*
X051839Y014728D01*
X051875Y014744D01*
X051912Y014756D01*
X051951Y014765D01*
X051990Y014770D01*
X052029Y014771D01*
X052068Y014768D01*
X052107Y014761D01*
X052144Y014750D01*
X052181Y014736D01*
X052216Y014718D01*
X052249Y014697D01*
X052280Y014672D01*
X052308Y014645D01*
X052333Y014615D01*
X052355Y014582D01*
X052374Y014548D01*
X052389Y014512D01*
X052401Y014474D01*
X052409Y014436D01*
X052413Y014397D01*
X052413Y014357D01*
X052409Y014318D01*
X052401Y014280D01*
X052389Y014242D01*
X052374Y014206D01*
X052355Y014172D01*
X052333Y014139D01*
X052308Y014109D01*
X052280Y014082D01*
X052249Y014057D01*
X052216Y014036D01*
X052181Y014018D01*
X052144Y014004D01*
X052107Y013993D01*
X052068Y013986D01*
X052029Y013983D01*
X051990Y013984D01*
X051951Y013989D01*
X051912Y013998D01*
X051875Y014010D01*
X051839Y014026D01*
X051805Y014046D01*
X051773Y014069D01*
X051744Y014095D01*
X051717Y014124D01*
X051693Y014155D01*
X051673Y014189D01*
X051656Y014224D01*
X051643Y014261D01*
X051633Y014299D01*
X051627Y014338D01*
X051625Y014377D01*
X059262Y014377D02*
X059264Y014416D01*
X059270Y014455D01*
X059280Y014493D01*
X059293Y014530D01*
X059310Y014565D01*
X059330Y014599D01*
X059354Y014630D01*
X059381Y014659D01*
X059410Y014685D01*
X059442Y014708D01*
X059476Y014728D01*
X059512Y014744D01*
X059549Y014756D01*
X059588Y014765D01*
X059627Y014770D01*
X059666Y014771D01*
X059705Y014768D01*
X059744Y014761D01*
X059781Y014750D01*
X059818Y014736D01*
X059853Y014718D01*
X059886Y014697D01*
X059917Y014672D01*
X059945Y014645D01*
X059970Y014615D01*
X059992Y014582D01*
X060011Y014548D01*
X060026Y014512D01*
X060038Y014474D01*
X060046Y014436D01*
X060050Y014397D01*
X060050Y014357D01*
X060046Y014318D01*
X060038Y014280D01*
X060026Y014242D01*
X060011Y014206D01*
X059992Y014172D01*
X059970Y014139D01*
X059945Y014109D01*
X059917Y014082D01*
X059886Y014057D01*
X059853Y014036D01*
X059818Y014018D01*
X059781Y014004D01*
X059744Y013993D01*
X059705Y013986D01*
X059666Y013983D01*
X059627Y013984D01*
X059588Y013989D01*
X059549Y013998D01*
X059512Y014010D01*
X059476Y014026D01*
X059442Y014046D01*
X059410Y014069D01*
X059381Y014095D01*
X059354Y014124D01*
X059330Y014155D01*
X059310Y014189D01*
X059293Y014224D01*
X059280Y014261D01*
X059270Y014299D01*
X059264Y014338D01*
X059262Y014377D01*
X073200Y014377D02*
X073202Y014416D01*
X073208Y014455D01*
X073218Y014493D01*
X073231Y014530D01*
X073248Y014565D01*
X073268Y014599D01*
X073292Y014630D01*
X073319Y014659D01*
X073348Y014685D01*
X073380Y014708D01*
X073414Y014728D01*
X073450Y014744D01*
X073487Y014756D01*
X073526Y014765D01*
X073565Y014770D01*
X073604Y014771D01*
X073643Y014768D01*
X073682Y014761D01*
X073719Y014750D01*
X073756Y014736D01*
X073791Y014718D01*
X073824Y014697D01*
X073855Y014672D01*
X073883Y014645D01*
X073908Y014615D01*
X073930Y014582D01*
X073949Y014548D01*
X073964Y014512D01*
X073976Y014474D01*
X073984Y014436D01*
X073988Y014397D01*
X073988Y014357D01*
X073984Y014318D01*
X073976Y014280D01*
X073964Y014242D01*
X073949Y014206D01*
X073930Y014172D01*
X073908Y014139D01*
X073883Y014109D01*
X073855Y014082D01*
X073824Y014057D01*
X073791Y014036D01*
X073756Y014018D01*
X073719Y014004D01*
X073682Y013993D01*
X073643Y013986D01*
X073604Y013983D01*
X073565Y013984D01*
X073526Y013989D01*
X073487Y013998D01*
X073450Y014010D01*
X073414Y014026D01*
X073380Y014046D01*
X073348Y014069D01*
X073319Y014095D01*
X073292Y014124D01*
X073268Y014155D01*
X073248Y014189D01*
X073231Y014224D01*
X073218Y014261D01*
X073208Y014299D01*
X073202Y014338D01*
X073200Y014377D01*
X073790Y007251D02*
X073792Y007290D01*
X073798Y007329D01*
X073808Y007367D01*
X073821Y007404D01*
X073838Y007439D01*
X073858Y007473D01*
X073882Y007504D01*
X073909Y007533D01*
X073938Y007559D01*
X073970Y007582D01*
X074004Y007602D01*
X074040Y007618D01*
X074077Y007630D01*
X074116Y007639D01*
X074155Y007644D01*
X074194Y007645D01*
X074233Y007642D01*
X074272Y007635D01*
X074309Y007624D01*
X074346Y007610D01*
X074381Y007592D01*
X074414Y007571D01*
X074445Y007546D01*
X074473Y007519D01*
X074498Y007489D01*
X074520Y007456D01*
X074539Y007422D01*
X074554Y007386D01*
X074566Y007348D01*
X074574Y007310D01*
X074578Y007271D01*
X074578Y007231D01*
X074574Y007192D01*
X074566Y007154D01*
X074554Y007116D01*
X074539Y007080D01*
X074520Y007046D01*
X074498Y007013D01*
X074473Y006983D01*
X074445Y006956D01*
X074414Y006931D01*
X074381Y006910D01*
X074346Y006892D01*
X074309Y006878D01*
X074272Y006867D01*
X074233Y006860D01*
X074194Y006857D01*
X074155Y006858D01*
X074116Y006863D01*
X074077Y006872D01*
X074040Y006884D01*
X074004Y006900D01*
X073970Y006920D01*
X073938Y006943D01*
X073909Y006969D01*
X073882Y006998D01*
X073858Y007029D01*
X073838Y007063D01*
X073821Y007098D01*
X073808Y007135D01*
X073798Y007173D01*
X073792Y007212D01*
X073790Y007251D01*
X058672Y007251D02*
X058674Y007290D01*
X058680Y007329D01*
X058690Y007367D01*
X058703Y007404D01*
X058720Y007439D01*
X058740Y007473D01*
X058764Y007504D01*
X058791Y007533D01*
X058820Y007559D01*
X058852Y007582D01*
X058886Y007602D01*
X058922Y007618D01*
X058959Y007630D01*
X058998Y007639D01*
X059037Y007644D01*
X059076Y007645D01*
X059115Y007642D01*
X059154Y007635D01*
X059191Y007624D01*
X059228Y007610D01*
X059263Y007592D01*
X059296Y007571D01*
X059327Y007546D01*
X059355Y007519D01*
X059380Y007489D01*
X059402Y007456D01*
X059421Y007422D01*
X059436Y007386D01*
X059448Y007348D01*
X059456Y007310D01*
X059460Y007271D01*
X059460Y007231D01*
X059456Y007192D01*
X059448Y007154D01*
X059436Y007116D01*
X059421Y007080D01*
X059402Y007046D01*
X059380Y007013D01*
X059355Y006983D01*
X059327Y006956D01*
X059296Y006931D01*
X059263Y006910D01*
X059228Y006892D01*
X059191Y006878D01*
X059154Y006867D01*
X059115Y006860D01*
X059076Y006857D01*
X059037Y006858D01*
X058998Y006863D01*
X058959Y006872D01*
X058922Y006884D01*
X058886Y006900D01*
X058852Y006920D01*
X058820Y006943D01*
X058791Y006969D01*
X058764Y006998D01*
X058740Y007029D01*
X058720Y007063D01*
X058703Y007098D01*
X058690Y007135D01*
X058680Y007173D01*
X058674Y007212D01*
X058672Y007251D01*
X052215Y007251D02*
X052217Y007290D01*
X052223Y007329D01*
X052233Y007367D01*
X052246Y007404D01*
X052263Y007439D01*
X052283Y007473D01*
X052307Y007504D01*
X052334Y007533D01*
X052363Y007559D01*
X052395Y007582D01*
X052429Y007602D01*
X052465Y007618D01*
X052502Y007630D01*
X052541Y007639D01*
X052580Y007644D01*
X052619Y007645D01*
X052658Y007642D01*
X052697Y007635D01*
X052734Y007624D01*
X052771Y007610D01*
X052806Y007592D01*
X052839Y007571D01*
X052870Y007546D01*
X052898Y007519D01*
X052923Y007489D01*
X052945Y007456D01*
X052964Y007422D01*
X052979Y007386D01*
X052991Y007348D01*
X052999Y007310D01*
X053003Y007271D01*
X053003Y007231D01*
X052999Y007192D01*
X052991Y007154D01*
X052979Y007116D01*
X052964Y007080D01*
X052945Y007046D01*
X052923Y007013D01*
X052898Y006983D01*
X052870Y006956D01*
X052839Y006931D01*
X052806Y006910D01*
X052771Y006892D01*
X052734Y006878D01*
X052697Y006867D01*
X052658Y006860D01*
X052619Y006857D01*
X052580Y006858D01*
X052541Y006863D01*
X052502Y006872D01*
X052465Y006884D01*
X052429Y006900D01*
X052395Y006920D01*
X052363Y006943D01*
X052334Y006969D01*
X052307Y006998D01*
X052283Y007029D01*
X052263Y007063D01*
X052246Y007098D01*
X052233Y007135D01*
X052223Y007173D01*
X052217Y007212D01*
X052215Y007251D01*
X040247Y007251D02*
X040249Y007290D01*
X040255Y007329D01*
X040265Y007367D01*
X040278Y007404D01*
X040295Y007439D01*
X040315Y007473D01*
X040339Y007504D01*
X040366Y007533D01*
X040395Y007559D01*
X040427Y007582D01*
X040461Y007602D01*
X040497Y007618D01*
X040534Y007630D01*
X040573Y007639D01*
X040612Y007644D01*
X040651Y007645D01*
X040690Y007642D01*
X040729Y007635D01*
X040766Y007624D01*
X040803Y007610D01*
X040838Y007592D01*
X040871Y007571D01*
X040902Y007546D01*
X040930Y007519D01*
X040955Y007489D01*
X040977Y007456D01*
X040996Y007422D01*
X041011Y007386D01*
X041023Y007348D01*
X041031Y007310D01*
X041035Y007271D01*
X041035Y007231D01*
X041031Y007192D01*
X041023Y007154D01*
X041011Y007116D01*
X040996Y007080D01*
X040977Y007046D01*
X040955Y007013D01*
X040930Y006983D01*
X040902Y006956D01*
X040871Y006931D01*
X040838Y006910D01*
X040803Y006892D01*
X040766Y006878D01*
X040729Y006867D01*
X040690Y006860D01*
X040651Y006857D01*
X040612Y006858D01*
X040573Y006863D01*
X040534Y006872D01*
X040497Y006884D01*
X040461Y006900D01*
X040427Y006920D01*
X040395Y006943D01*
X040366Y006969D01*
X040339Y006998D01*
X040315Y007029D01*
X040295Y007063D01*
X040278Y007098D01*
X040265Y007135D01*
X040255Y007173D01*
X040249Y007212D01*
X040247Y007251D01*
X028200Y024377D02*
X028202Y024416D01*
X028208Y024455D01*
X028218Y024493D01*
X028231Y024530D01*
X028248Y024565D01*
X028268Y024599D01*
X028292Y024630D01*
X028319Y024659D01*
X028348Y024685D01*
X028380Y024708D01*
X028414Y024728D01*
X028450Y024744D01*
X028487Y024756D01*
X028526Y024765D01*
X028565Y024770D01*
X028604Y024771D01*
X028643Y024768D01*
X028682Y024761D01*
X028719Y024750D01*
X028756Y024736D01*
X028791Y024718D01*
X028824Y024697D01*
X028855Y024672D01*
X028883Y024645D01*
X028908Y024615D01*
X028930Y024582D01*
X028949Y024548D01*
X028964Y024512D01*
X028976Y024474D01*
X028984Y024436D01*
X028988Y024397D01*
X028988Y024357D01*
X028984Y024318D01*
X028976Y024280D01*
X028964Y024242D01*
X028949Y024206D01*
X028930Y024172D01*
X028908Y024139D01*
X028883Y024109D01*
X028855Y024082D01*
X028824Y024057D01*
X028791Y024036D01*
X028756Y024018D01*
X028719Y024004D01*
X028682Y023993D01*
X028643Y023986D01*
X028604Y023983D01*
X028565Y023984D01*
X028526Y023989D01*
X028487Y023998D01*
X028450Y024010D01*
X028414Y024026D01*
X028380Y024046D01*
X028348Y024069D01*
X028319Y024095D01*
X028292Y024124D01*
X028268Y024155D01*
X028248Y024189D01*
X028231Y024224D01*
X028218Y024261D01*
X028208Y024299D01*
X028202Y024338D01*
X028200Y024377D01*
X026929Y028875D02*
X026931Y028918D01*
X026937Y028961D01*
X026947Y029003D01*
X026960Y029044D01*
X026977Y029083D01*
X026998Y029121D01*
X027022Y029157D01*
X027049Y029191D01*
X027079Y029221D01*
X027112Y029249D01*
X027148Y029274D01*
X027185Y029296D01*
X027224Y029314D01*
X027265Y029328D01*
X027307Y029339D01*
X027349Y029346D01*
X027392Y029349D01*
X027435Y029348D01*
X027478Y029343D01*
X027520Y029334D01*
X027562Y029322D01*
X027602Y029305D01*
X027640Y029285D01*
X027676Y029262D01*
X027710Y029236D01*
X027742Y029206D01*
X027771Y029174D01*
X027796Y029139D01*
X027819Y029103D01*
X027838Y029064D01*
X027853Y029024D01*
X027865Y028982D01*
X027873Y028940D01*
X027877Y028897D01*
X027877Y028853D01*
X027873Y028810D01*
X027865Y028768D01*
X027853Y028726D01*
X027838Y028686D01*
X027819Y028647D01*
X027796Y028611D01*
X027771Y028576D01*
X027742Y028544D01*
X027710Y028514D01*
X027676Y028488D01*
X027640Y028465D01*
X027602Y028445D01*
X027562Y028428D01*
X027520Y028416D01*
X027478Y028407D01*
X027435Y028402D01*
X027392Y028401D01*
X027349Y028404D01*
X027307Y028411D01*
X027265Y028422D01*
X027224Y028436D01*
X027185Y028454D01*
X027148Y028476D01*
X027112Y028501D01*
X027079Y028529D01*
X027049Y028559D01*
X027022Y028593D01*
X026998Y028629D01*
X026977Y028667D01*
X026960Y028706D01*
X026947Y028747D01*
X026937Y028789D01*
X026931Y028832D01*
X026929Y028875D01*
X022873Y028875D02*
X022875Y028918D01*
X022881Y028961D01*
X022891Y029003D01*
X022904Y029044D01*
X022921Y029083D01*
X022942Y029121D01*
X022966Y029157D01*
X022993Y029191D01*
X023023Y029221D01*
X023056Y029249D01*
X023092Y029274D01*
X023129Y029296D01*
X023168Y029314D01*
X023209Y029328D01*
X023251Y029339D01*
X023293Y029346D01*
X023336Y029349D01*
X023379Y029348D01*
X023422Y029343D01*
X023464Y029334D01*
X023506Y029322D01*
X023546Y029305D01*
X023584Y029285D01*
X023620Y029262D01*
X023654Y029236D01*
X023686Y029206D01*
X023715Y029174D01*
X023740Y029139D01*
X023763Y029103D01*
X023782Y029064D01*
X023797Y029024D01*
X023809Y028982D01*
X023817Y028940D01*
X023821Y028897D01*
X023821Y028853D01*
X023817Y028810D01*
X023809Y028768D01*
X023797Y028726D01*
X023782Y028686D01*
X023763Y028647D01*
X023740Y028611D01*
X023715Y028576D01*
X023686Y028544D01*
X023654Y028514D01*
X023620Y028488D01*
X023584Y028465D01*
X023546Y028445D01*
X023506Y028428D01*
X023464Y028416D01*
X023422Y028407D01*
X023379Y028402D01*
X023336Y028401D01*
X023293Y028404D01*
X023251Y028411D01*
X023209Y028422D01*
X023168Y028436D01*
X023129Y028454D01*
X023092Y028476D01*
X023056Y028501D01*
X023023Y028529D01*
X022993Y028559D01*
X022966Y028593D01*
X022942Y028629D01*
X022921Y028667D01*
X022904Y028706D01*
X022891Y028747D01*
X022881Y028789D01*
X022875Y028832D01*
X022873Y028875D01*
X016929Y028875D02*
X016931Y028918D01*
X016937Y028961D01*
X016947Y029003D01*
X016960Y029044D01*
X016977Y029083D01*
X016998Y029121D01*
X017022Y029157D01*
X017049Y029191D01*
X017079Y029221D01*
X017112Y029249D01*
X017148Y029274D01*
X017185Y029296D01*
X017224Y029314D01*
X017265Y029328D01*
X017307Y029339D01*
X017349Y029346D01*
X017392Y029349D01*
X017435Y029348D01*
X017478Y029343D01*
X017520Y029334D01*
X017562Y029322D01*
X017602Y029305D01*
X017640Y029285D01*
X017676Y029262D01*
X017710Y029236D01*
X017742Y029206D01*
X017771Y029174D01*
X017796Y029139D01*
X017819Y029103D01*
X017838Y029064D01*
X017853Y029024D01*
X017865Y028982D01*
X017873Y028940D01*
X017877Y028897D01*
X017877Y028853D01*
X017873Y028810D01*
X017865Y028768D01*
X017853Y028726D01*
X017838Y028686D01*
X017819Y028647D01*
X017796Y028611D01*
X017771Y028576D01*
X017742Y028544D01*
X017710Y028514D01*
X017676Y028488D01*
X017640Y028465D01*
X017602Y028445D01*
X017562Y028428D01*
X017520Y028416D01*
X017478Y028407D01*
X017435Y028402D01*
X017392Y028401D01*
X017349Y028404D01*
X017307Y028411D01*
X017265Y028422D01*
X017224Y028436D01*
X017185Y028454D01*
X017148Y028476D01*
X017112Y028501D01*
X017079Y028529D01*
X017049Y028559D01*
X017022Y028593D01*
X016998Y028629D01*
X016977Y028667D01*
X016960Y028706D01*
X016947Y028747D01*
X016937Y028789D01*
X016931Y028832D01*
X016929Y028875D01*
X012873Y028875D02*
X012875Y028918D01*
X012881Y028961D01*
X012891Y029003D01*
X012904Y029044D01*
X012921Y029083D01*
X012942Y029121D01*
X012966Y029157D01*
X012993Y029191D01*
X013023Y029221D01*
X013056Y029249D01*
X013092Y029274D01*
X013129Y029296D01*
X013168Y029314D01*
X013209Y029328D01*
X013251Y029339D01*
X013293Y029346D01*
X013336Y029349D01*
X013379Y029348D01*
X013422Y029343D01*
X013464Y029334D01*
X013506Y029322D01*
X013546Y029305D01*
X013584Y029285D01*
X013620Y029262D01*
X013654Y029236D01*
X013686Y029206D01*
X013715Y029174D01*
X013740Y029139D01*
X013763Y029103D01*
X013782Y029064D01*
X013797Y029024D01*
X013809Y028982D01*
X013817Y028940D01*
X013821Y028897D01*
X013821Y028853D01*
X013817Y028810D01*
X013809Y028768D01*
X013797Y028726D01*
X013782Y028686D01*
X013763Y028647D01*
X013740Y028611D01*
X013715Y028576D01*
X013686Y028544D01*
X013654Y028514D01*
X013620Y028488D01*
X013584Y028465D01*
X013546Y028445D01*
X013506Y028428D01*
X013464Y028416D01*
X013422Y028407D01*
X013379Y028402D01*
X013336Y028401D01*
X013293Y028404D01*
X013251Y028411D01*
X013209Y028422D01*
X013168Y028436D01*
X013129Y028454D01*
X013092Y028476D01*
X013056Y028501D01*
X013023Y028529D01*
X012993Y028559D01*
X012966Y028593D01*
X012942Y028629D01*
X012921Y028667D01*
X012904Y028706D01*
X012891Y028747D01*
X012881Y028789D01*
X012875Y028832D01*
X012873Y028875D01*
X006929Y028875D02*
X006931Y028918D01*
X006937Y028961D01*
X006947Y029003D01*
X006960Y029044D01*
X006977Y029083D01*
X006998Y029121D01*
X007022Y029157D01*
X007049Y029191D01*
X007079Y029221D01*
X007112Y029249D01*
X007148Y029274D01*
X007185Y029296D01*
X007224Y029314D01*
X007265Y029328D01*
X007307Y029339D01*
X007349Y029346D01*
X007392Y029349D01*
X007435Y029348D01*
X007478Y029343D01*
X007520Y029334D01*
X007562Y029322D01*
X007602Y029305D01*
X007640Y029285D01*
X007676Y029262D01*
X007710Y029236D01*
X007742Y029206D01*
X007771Y029174D01*
X007796Y029139D01*
X007819Y029103D01*
X007838Y029064D01*
X007853Y029024D01*
X007865Y028982D01*
X007873Y028940D01*
X007877Y028897D01*
X007877Y028853D01*
X007873Y028810D01*
X007865Y028768D01*
X007853Y028726D01*
X007838Y028686D01*
X007819Y028647D01*
X007796Y028611D01*
X007771Y028576D01*
X007742Y028544D01*
X007710Y028514D01*
X007676Y028488D01*
X007640Y028465D01*
X007602Y028445D01*
X007562Y028428D01*
X007520Y028416D01*
X007478Y028407D01*
X007435Y028402D01*
X007392Y028401D01*
X007349Y028404D01*
X007307Y028411D01*
X007265Y028422D01*
X007224Y028436D01*
X007185Y028454D01*
X007148Y028476D01*
X007112Y028501D01*
X007079Y028529D01*
X007049Y028559D01*
X007022Y028593D01*
X006998Y028629D01*
X006977Y028667D01*
X006960Y028706D01*
X006947Y028747D01*
X006937Y028789D01*
X006931Y028832D01*
X006929Y028875D01*
X002873Y028875D02*
X002875Y028918D01*
X002881Y028961D01*
X002891Y029003D01*
X002904Y029044D01*
X002921Y029083D01*
X002942Y029121D01*
X002966Y029157D01*
X002993Y029191D01*
X003023Y029221D01*
X003056Y029249D01*
X003092Y029274D01*
X003129Y029296D01*
X003168Y029314D01*
X003209Y029328D01*
X003251Y029339D01*
X003293Y029346D01*
X003336Y029349D01*
X003379Y029348D01*
X003422Y029343D01*
X003464Y029334D01*
X003506Y029322D01*
X003546Y029305D01*
X003584Y029285D01*
X003620Y029262D01*
X003654Y029236D01*
X003686Y029206D01*
X003715Y029174D01*
X003740Y029139D01*
X003763Y029103D01*
X003782Y029064D01*
X003797Y029024D01*
X003809Y028982D01*
X003817Y028940D01*
X003821Y028897D01*
X003821Y028853D01*
X003817Y028810D01*
X003809Y028768D01*
X003797Y028726D01*
X003782Y028686D01*
X003763Y028647D01*
X003740Y028611D01*
X003715Y028576D01*
X003686Y028544D01*
X003654Y028514D01*
X003620Y028488D01*
X003584Y028465D01*
X003546Y028445D01*
X003506Y028428D01*
X003464Y028416D01*
X003422Y028407D01*
X003379Y028402D01*
X003336Y028401D01*
X003293Y028404D01*
X003251Y028411D01*
X003209Y028422D01*
X003168Y028436D01*
X003129Y028454D01*
X003092Y028476D01*
X003056Y028501D01*
X003023Y028529D01*
X002993Y028559D01*
X002966Y028593D01*
X002942Y028629D01*
X002921Y028667D01*
X002904Y028706D01*
X002891Y028747D01*
X002881Y028789D01*
X002875Y028832D01*
X002873Y028875D01*
X014262Y024377D02*
X014264Y024416D01*
X014270Y024455D01*
X014280Y024493D01*
X014293Y024530D01*
X014310Y024565D01*
X014330Y024599D01*
X014354Y024630D01*
X014381Y024659D01*
X014410Y024685D01*
X014442Y024708D01*
X014476Y024728D01*
X014512Y024744D01*
X014549Y024756D01*
X014588Y024765D01*
X014627Y024770D01*
X014666Y024771D01*
X014705Y024768D01*
X014744Y024761D01*
X014781Y024750D01*
X014818Y024736D01*
X014853Y024718D01*
X014886Y024697D01*
X014917Y024672D01*
X014945Y024645D01*
X014970Y024615D01*
X014992Y024582D01*
X015011Y024548D01*
X015026Y024512D01*
X015038Y024474D01*
X015046Y024436D01*
X015050Y024397D01*
X015050Y024357D01*
X015046Y024318D01*
X015038Y024280D01*
X015026Y024242D01*
X015011Y024206D01*
X014992Y024172D01*
X014970Y024139D01*
X014945Y024109D01*
X014917Y024082D01*
X014886Y024057D01*
X014853Y024036D01*
X014818Y024018D01*
X014781Y024004D01*
X014744Y023993D01*
X014705Y023986D01*
X014666Y023983D01*
X014627Y023984D01*
X014588Y023989D01*
X014549Y023998D01*
X014512Y024010D01*
X014476Y024026D01*
X014442Y024046D01*
X014410Y024069D01*
X014381Y024095D01*
X014354Y024124D01*
X014330Y024155D01*
X014310Y024189D01*
X014293Y024224D01*
X014280Y024261D01*
X014270Y024299D01*
X014264Y024338D01*
X014262Y024377D01*
X032873Y028875D02*
X032875Y028918D01*
X032881Y028961D01*
X032891Y029003D01*
X032904Y029044D01*
X032921Y029083D01*
X032942Y029121D01*
X032966Y029157D01*
X032993Y029191D01*
X033023Y029221D01*
X033056Y029249D01*
X033092Y029274D01*
X033129Y029296D01*
X033168Y029314D01*
X033209Y029328D01*
X033251Y029339D01*
X033293Y029346D01*
X033336Y029349D01*
X033379Y029348D01*
X033422Y029343D01*
X033464Y029334D01*
X033506Y029322D01*
X033546Y029305D01*
X033584Y029285D01*
X033620Y029262D01*
X033654Y029236D01*
X033686Y029206D01*
X033715Y029174D01*
X033740Y029139D01*
X033763Y029103D01*
X033782Y029064D01*
X033797Y029024D01*
X033809Y028982D01*
X033817Y028940D01*
X033821Y028897D01*
X033821Y028853D01*
X033817Y028810D01*
X033809Y028768D01*
X033797Y028726D01*
X033782Y028686D01*
X033763Y028647D01*
X033740Y028611D01*
X033715Y028576D01*
X033686Y028544D01*
X033654Y028514D01*
X033620Y028488D01*
X033584Y028465D01*
X033546Y028445D01*
X033506Y028428D01*
X033464Y028416D01*
X033422Y028407D01*
X033379Y028402D01*
X033336Y028401D01*
X033293Y028404D01*
X033251Y028411D01*
X033209Y028422D01*
X033168Y028436D01*
X033129Y028454D01*
X033092Y028476D01*
X033056Y028501D01*
X033023Y028529D01*
X032993Y028559D01*
X032966Y028593D01*
X032942Y028629D01*
X032921Y028667D01*
X032904Y028706D01*
X032891Y028747D01*
X032881Y028789D01*
X032875Y028832D01*
X032873Y028875D01*
X036929Y028875D02*
X036931Y028918D01*
X036937Y028961D01*
X036947Y029003D01*
X036960Y029044D01*
X036977Y029083D01*
X036998Y029121D01*
X037022Y029157D01*
X037049Y029191D01*
X037079Y029221D01*
X037112Y029249D01*
X037148Y029274D01*
X037185Y029296D01*
X037224Y029314D01*
X037265Y029328D01*
X037307Y029339D01*
X037349Y029346D01*
X037392Y029349D01*
X037435Y029348D01*
X037478Y029343D01*
X037520Y029334D01*
X037562Y029322D01*
X037602Y029305D01*
X037640Y029285D01*
X037676Y029262D01*
X037710Y029236D01*
X037742Y029206D01*
X037771Y029174D01*
X037796Y029139D01*
X037819Y029103D01*
X037838Y029064D01*
X037853Y029024D01*
X037865Y028982D01*
X037873Y028940D01*
X037877Y028897D01*
X037877Y028853D01*
X037873Y028810D01*
X037865Y028768D01*
X037853Y028726D01*
X037838Y028686D01*
X037819Y028647D01*
X037796Y028611D01*
X037771Y028576D01*
X037742Y028544D01*
X037710Y028514D01*
X037676Y028488D01*
X037640Y028465D01*
X037602Y028445D01*
X037562Y028428D01*
X037520Y028416D01*
X037478Y028407D01*
X037435Y028402D01*
X037392Y028401D01*
X037349Y028404D01*
X037307Y028411D01*
X037265Y028422D01*
X037224Y028436D01*
X037185Y028454D01*
X037148Y028476D01*
X037112Y028501D01*
X037079Y028529D01*
X037049Y028559D01*
X037022Y028593D01*
X036998Y028629D01*
X036977Y028667D01*
X036960Y028706D01*
X036947Y028747D01*
X036937Y028789D01*
X036931Y028832D01*
X036929Y028875D01*
X040745Y029125D02*
X040747Y029175D01*
X040753Y029225D01*
X040763Y029274D01*
X040777Y029322D01*
X040794Y029369D01*
X040815Y029414D01*
X040840Y029458D01*
X040868Y029499D01*
X040900Y029538D01*
X040934Y029575D01*
X040971Y029609D01*
X041011Y029639D01*
X041053Y029666D01*
X041097Y029690D01*
X041143Y029711D01*
X041190Y029727D01*
X041238Y029740D01*
X041288Y029749D01*
X041337Y029754D01*
X041388Y029755D01*
X041438Y029752D01*
X041487Y029745D01*
X041536Y029734D01*
X041584Y029719D01*
X041630Y029701D01*
X041675Y029679D01*
X041718Y029653D01*
X041759Y029624D01*
X041798Y029592D01*
X041834Y029557D01*
X041866Y029519D01*
X041896Y029479D01*
X041923Y029436D01*
X041946Y029392D01*
X041965Y029346D01*
X041981Y029298D01*
X041993Y029249D01*
X042001Y029200D01*
X042005Y029150D01*
X042005Y029100D01*
X042001Y029050D01*
X041993Y029001D01*
X041981Y028952D01*
X041965Y028904D01*
X041946Y028858D01*
X041923Y028814D01*
X041896Y028771D01*
X041866Y028731D01*
X041834Y028693D01*
X041798Y028658D01*
X041759Y028626D01*
X041718Y028597D01*
X041675Y028571D01*
X041630Y028549D01*
X041584Y028531D01*
X041536Y028516D01*
X041487Y028505D01*
X041438Y028498D01*
X041388Y028495D01*
X041337Y028496D01*
X041288Y028501D01*
X041238Y028510D01*
X041190Y028523D01*
X041143Y028539D01*
X041097Y028560D01*
X041053Y028584D01*
X041011Y028611D01*
X040971Y028641D01*
X040934Y028675D01*
X040900Y028712D01*
X040868Y028751D01*
X040840Y028792D01*
X040815Y028836D01*
X040794Y028881D01*
X040777Y028928D01*
X040763Y028976D01*
X040753Y029025D01*
X040747Y029075D01*
X040745Y029125D01*
X040247Y031251D02*
X040249Y031290D01*
X040255Y031329D01*
X040265Y031367D01*
X040278Y031404D01*
X040295Y031439D01*
X040315Y031473D01*
X040339Y031504D01*
X040366Y031533D01*
X040395Y031559D01*
X040427Y031582D01*
X040461Y031602D01*
X040497Y031618D01*
X040534Y031630D01*
X040573Y031639D01*
X040612Y031644D01*
X040651Y031645D01*
X040690Y031642D01*
X040729Y031635D01*
X040766Y031624D01*
X040803Y031610D01*
X040838Y031592D01*
X040871Y031571D01*
X040902Y031546D01*
X040930Y031519D01*
X040955Y031489D01*
X040977Y031456D01*
X040996Y031422D01*
X041011Y031386D01*
X041023Y031348D01*
X041031Y031310D01*
X041035Y031271D01*
X041035Y031231D01*
X041031Y031192D01*
X041023Y031154D01*
X041011Y031116D01*
X040996Y031080D01*
X040977Y031046D01*
X040955Y031013D01*
X040930Y030983D01*
X040902Y030956D01*
X040871Y030931D01*
X040838Y030910D01*
X040803Y030892D01*
X040766Y030878D01*
X040729Y030867D01*
X040690Y030860D01*
X040651Y030857D01*
X040612Y030858D01*
X040573Y030863D01*
X040534Y030872D01*
X040497Y030884D01*
X040461Y030900D01*
X040427Y030920D01*
X040395Y030943D01*
X040366Y030969D01*
X040339Y030998D01*
X040315Y031029D01*
X040295Y031063D01*
X040278Y031098D01*
X040265Y031135D01*
X040255Y031173D01*
X040249Y031212D01*
X040247Y031251D01*
X036338Y035125D02*
X036340Y035168D01*
X036346Y035211D01*
X036356Y035253D01*
X036369Y035294D01*
X036386Y035333D01*
X036407Y035371D01*
X036431Y035407D01*
X036458Y035441D01*
X036488Y035471D01*
X036521Y035499D01*
X036557Y035524D01*
X036594Y035546D01*
X036633Y035564D01*
X036674Y035578D01*
X036716Y035589D01*
X036758Y035596D01*
X036801Y035599D01*
X036844Y035598D01*
X036887Y035593D01*
X036929Y035584D01*
X036971Y035572D01*
X037011Y035555D01*
X037049Y035535D01*
X037085Y035512D01*
X037119Y035486D01*
X037151Y035456D01*
X037180Y035424D01*
X037205Y035389D01*
X037228Y035353D01*
X037247Y035314D01*
X037262Y035274D01*
X037274Y035232D01*
X037282Y035190D01*
X037286Y035147D01*
X037286Y035103D01*
X037282Y035060D01*
X037274Y035018D01*
X037262Y034976D01*
X037247Y034936D01*
X037228Y034897D01*
X037205Y034861D01*
X037180Y034826D01*
X037151Y034794D01*
X037119Y034764D01*
X037085Y034738D01*
X037049Y034715D01*
X037011Y034695D01*
X036971Y034678D01*
X036929Y034666D01*
X036887Y034657D01*
X036844Y034652D01*
X036801Y034651D01*
X036758Y034654D01*
X036716Y034661D01*
X036674Y034672D01*
X036633Y034686D01*
X036594Y034704D01*
X036557Y034726D01*
X036521Y034751D01*
X036488Y034779D01*
X036458Y034809D01*
X036431Y034843D01*
X036407Y034879D01*
X036386Y034917D01*
X036369Y034956D01*
X036356Y034997D01*
X036346Y035039D01*
X036340Y035082D01*
X036338Y035125D01*
X033464Y035125D02*
X033466Y035168D01*
X033472Y035211D01*
X033482Y035253D01*
X033495Y035294D01*
X033512Y035333D01*
X033533Y035371D01*
X033557Y035407D01*
X033584Y035441D01*
X033614Y035471D01*
X033647Y035499D01*
X033683Y035524D01*
X033720Y035546D01*
X033759Y035564D01*
X033800Y035578D01*
X033842Y035589D01*
X033884Y035596D01*
X033927Y035599D01*
X033970Y035598D01*
X034013Y035593D01*
X034055Y035584D01*
X034097Y035572D01*
X034137Y035555D01*
X034175Y035535D01*
X034211Y035512D01*
X034245Y035486D01*
X034277Y035456D01*
X034306Y035424D01*
X034331Y035389D01*
X034354Y035353D01*
X034373Y035314D01*
X034388Y035274D01*
X034400Y035232D01*
X034408Y035190D01*
X034412Y035147D01*
X034412Y035103D01*
X034408Y035060D01*
X034400Y035018D01*
X034388Y034976D01*
X034373Y034936D01*
X034354Y034897D01*
X034331Y034861D01*
X034306Y034826D01*
X034277Y034794D01*
X034245Y034764D01*
X034211Y034738D01*
X034175Y034715D01*
X034137Y034695D01*
X034097Y034678D01*
X034055Y034666D01*
X034013Y034657D01*
X033970Y034652D01*
X033927Y034651D01*
X033884Y034654D01*
X033842Y034661D01*
X033800Y034672D01*
X033759Y034686D01*
X033720Y034704D01*
X033683Y034726D01*
X033647Y034751D01*
X033614Y034779D01*
X033584Y034809D01*
X033557Y034843D01*
X033533Y034879D01*
X033512Y034917D01*
X033495Y034956D01*
X033482Y034997D01*
X033472Y035039D01*
X033466Y035082D01*
X033464Y035125D01*
X040837Y038377D02*
X040839Y038416D01*
X040845Y038455D01*
X040855Y038493D01*
X040868Y038530D01*
X040885Y038565D01*
X040905Y038599D01*
X040929Y038630D01*
X040956Y038659D01*
X040985Y038685D01*
X041017Y038708D01*
X041051Y038728D01*
X041087Y038744D01*
X041124Y038756D01*
X041163Y038765D01*
X041202Y038770D01*
X041241Y038771D01*
X041280Y038768D01*
X041319Y038761D01*
X041356Y038750D01*
X041393Y038736D01*
X041428Y038718D01*
X041461Y038697D01*
X041492Y038672D01*
X041520Y038645D01*
X041545Y038615D01*
X041567Y038582D01*
X041586Y038548D01*
X041601Y038512D01*
X041613Y038474D01*
X041621Y038436D01*
X041625Y038397D01*
X041625Y038357D01*
X041621Y038318D01*
X041613Y038280D01*
X041601Y038242D01*
X041586Y038206D01*
X041567Y038172D01*
X041545Y038139D01*
X041520Y038109D01*
X041492Y038082D01*
X041461Y038057D01*
X041428Y038036D01*
X041393Y038018D01*
X041356Y038004D01*
X041319Y037993D01*
X041280Y037986D01*
X041241Y037983D01*
X041202Y037984D01*
X041163Y037989D01*
X041124Y037998D01*
X041087Y038010D01*
X041051Y038026D01*
X041017Y038046D01*
X040985Y038069D01*
X040956Y038095D01*
X040929Y038124D01*
X040905Y038155D01*
X040885Y038189D01*
X040868Y038224D01*
X040855Y038261D01*
X040845Y038299D01*
X040839Y038338D01*
X040837Y038377D01*
X051625Y038377D02*
X051627Y038416D01*
X051633Y038455D01*
X051643Y038493D01*
X051656Y038530D01*
X051673Y038565D01*
X051693Y038599D01*
X051717Y038630D01*
X051744Y038659D01*
X051773Y038685D01*
X051805Y038708D01*
X051839Y038728D01*
X051875Y038744D01*
X051912Y038756D01*
X051951Y038765D01*
X051990Y038770D01*
X052029Y038771D01*
X052068Y038768D01*
X052107Y038761D01*
X052144Y038750D01*
X052181Y038736D01*
X052216Y038718D01*
X052249Y038697D01*
X052280Y038672D01*
X052308Y038645D01*
X052333Y038615D01*
X052355Y038582D01*
X052374Y038548D01*
X052389Y038512D01*
X052401Y038474D01*
X052409Y038436D01*
X052413Y038397D01*
X052413Y038357D01*
X052409Y038318D01*
X052401Y038280D01*
X052389Y038242D01*
X052374Y038206D01*
X052355Y038172D01*
X052333Y038139D01*
X052308Y038109D01*
X052280Y038082D01*
X052249Y038057D01*
X052216Y038036D01*
X052181Y038018D01*
X052144Y038004D01*
X052107Y037993D01*
X052068Y037986D01*
X052029Y037983D01*
X051990Y037984D01*
X051951Y037989D01*
X051912Y037998D01*
X051875Y038010D01*
X051839Y038026D01*
X051805Y038046D01*
X051773Y038069D01*
X051744Y038095D01*
X051717Y038124D01*
X051693Y038155D01*
X051673Y038189D01*
X051656Y038224D01*
X051643Y038261D01*
X051633Y038299D01*
X051627Y038338D01*
X051625Y038377D01*
X052215Y031251D02*
X052217Y031290D01*
X052223Y031329D01*
X052233Y031367D01*
X052246Y031404D01*
X052263Y031439D01*
X052283Y031473D01*
X052307Y031504D01*
X052334Y031533D01*
X052363Y031559D01*
X052395Y031582D01*
X052429Y031602D01*
X052465Y031618D01*
X052502Y031630D01*
X052541Y031639D01*
X052580Y031644D01*
X052619Y031645D01*
X052658Y031642D01*
X052697Y031635D01*
X052734Y031624D01*
X052771Y031610D01*
X052806Y031592D01*
X052839Y031571D01*
X052870Y031546D01*
X052898Y031519D01*
X052923Y031489D01*
X052945Y031456D01*
X052964Y031422D01*
X052979Y031386D01*
X052991Y031348D01*
X052999Y031310D01*
X053003Y031271D01*
X053003Y031231D01*
X052999Y031192D01*
X052991Y031154D01*
X052979Y031116D01*
X052964Y031080D01*
X052945Y031046D01*
X052923Y031013D01*
X052898Y030983D01*
X052870Y030956D01*
X052839Y030931D01*
X052806Y030910D01*
X052771Y030892D01*
X052734Y030878D01*
X052697Y030867D01*
X052658Y030860D01*
X052619Y030857D01*
X052580Y030858D01*
X052541Y030863D01*
X052502Y030872D01*
X052465Y030884D01*
X052429Y030900D01*
X052395Y030920D01*
X052363Y030943D01*
X052334Y030969D01*
X052307Y030998D01*
X052283Y031029D01*
X052263Y031063D01*
X052246Y031098D01*
X052233Y031135D01*
X052223Y031173D01*
X052217Y031212D01*
X052215Y031251D01*
X006338Y035125D02*
X006340Y035168D01*
X006346Y035211D01*
X006356Y035253D01*
X006369Y035294D01*
X006386Y035333D01*
X006407Y035371D01*
X006431Y035407D01*
X006458Y035441D01*
X006488Y035471D01*
X006521Y035499D01*
X006557Y035524D01*
X006594Y035546D01*
X006633Y035564D01*
X006674Y035578D01*
X006716Y035589D01*
X006758Y035596D01*
X006801Y035599D01*
X006844Y035598D01*
X006887Y035593D01*
X006929Y035584D01*
X006971Y035572D01*
X007011Y035555D01*
X007049Y035535D01*
X007085Y035512D01*
X007119Y035486D01*
X007151Y035456D01*
X007180Y035424D01*
X007205Y035389D01*
X007228Y035353D01*
X007247Y035314D01*
X007262Y035274D01*
X007274Y035232D01*
X007282Y035190D01*
X007286Y035147D01*
X007286Y035103D01*
X007282Y035060D01*
X007274Y035018D01*
X007262Y034976D01*
X007247Y034936D01*
X007228Y034897D01*
X007205Y034861D01*
X007180Y034826D01*
X007151Y034794D01*
X007119Y034764D01*
X007085Y034738D01*
X007049Y034715D01*
X007011Y034695D01*
X006971Y034678D01*
X006929Y034666D01*
X006887Y034657D01*
X006844Y034652D01*
X006801Y034651D01*
X006758Y034654D01*
X006716Y034661D01*
X006674Y034672D01*
X006633Y034686D01*
X006594Y034704D01*
X006557Y034726D01*
X006521Y034751D01*
X006488Y034779D01*
X006458Y034809D01*
X006431Y034843D01*
X006407Y034879D01*
X006386Y034917D01*
X006369Y034956D01*
X006356Y034997D01*
X006346Y035039D01*
X006340Y035082D01*
X006338Y035125D01*
X003464Y035125D02*
X003466Y035168D01*
X003472Y035211D01*
X003482Y035253D01*
X003495Y035294D01*
X003512Y035333D01*
X003533Y035371D01*
X003557Y035407D01*
X003584Y035441D01*
X003614Y035471D01*
X003647Y035499D01*
X003683Y035524D01*
X003720Y035546D01*
X003759Y035564D01*
X003800Y035578D01*
X003842Y035589D01*
X003884Y035596D01*
X003927Y035599D01*
X003970Y035598D01*
X004013Y035593D01*
X004055Y035584D01*
X004097Y035572D01*
X004137Y035555D01*
X004175Y035535D01*
X004211Y035512D01*
X004245Y035486D01*
X004277Y035456D01*
X004306Y035424D01*
X004331Y035389D01*
X004354Y035353D01*
X004373Y035314D01*
X004388Y035274D01*
X004400Y035232D01*
X004408Y035190D01*
X004412Y035147D01*
X004412Y035103D01*
X004408Y035060D01*
X004400Y035018D01*
X004388Y034976D01*
X004373Y034936D01*
X004354Y034897D01*
X004331Y034861D01*
X004306Y034826D01*
X004277Y034794D01*
X004245Y034764D01*
X004211Y034738D01*
X004175Y034715D01*
X004137Y034695D01*
X004097Y034678D01*
X004055Y034666D01*
X004013Y034657D01*
X003970Y034652D01*
X003927Y034651D01*
X003884Y034654D01*
X003842Y034661D01*
X003800Y034672D01*
X003759Y034686D01*
X003720Y034704D01*
X003683Y034726D01*
X003647Y034751D01*
X003614Y034779D01*
X003584Y034809D01*
X003557Y034843D01*
X003533Y034879D01*
X003512Y034917D01*
X003495Y034956D01*
X003482Y034997D01*
X003472Y035039D01*
X003466Y035082D01*
X003464Y035125D01*
D11*
X004655Y032171D02*
X004869Y032171D01*
X004762Y032171D02*
X004762Y031530D01*
X004655Y031530D02*
X004869Y031530D01*
X005085Y031530D02*
X005085Y032171D01*
X005512Y031530D01*
X005512Y032171D01*
X005729Y032171D02*
X005729Y031530D01*
X006050Y031530D01*
X006156Y031637D01*
X006156Y032064D01*
X006050Y032171D01*
X005729Y032171D01*
X009030Y030314D02*
X009030Y029887D01*
X009137Y029780D01*
X009350Y029780D01*
X009457Y029887D01*
X009457Y030100D01*
X009244Y030100D01*
X009457Y030314D02*
X009350Y030421D01*
X009137Y030421D01*
X009030Y030314D01*
X009125Y029375D02*
X008875Y029125D01*
X008875Y028625D01*
X009125Y028375D01*
X009625Y028375D01*
X009875Y028625D01*
X010125Y028375D01*
X010625Y028375D01*
X010875Y028625D01*
X011125Y028375D01*
X011625Y028375D01*
X011875Y028625D01*
X011875Y029125D01*
X011625Y029375D01*
X011125Y029375D01*
X010875Y029125D01*
X010625Y029375D01*
X010125Y029375D01*
X009875Y029125D01*
X009625Y029375D01*
X009125Y029375D01*
X011155Y030100D02*
X011582Y030100D01*
X011369Y030314D02*
X011369Y029887D01*
X013369Y026671D02*
X013582Y026457D01*
X013582Y026030D01*
X013800Y026137D02*
X013906Y026030D01*
X014120Y026030D01*
X014227Y026137D01*
X014227Y026671D01*
X014444Y026671D02*
X014871Y026030D01*
X015089Y025923D02*
X015516Y025923D01*
X015733Y026030D02*
X016053Y026030D01*
X016160Y026137D01*
X016160Y026244D01*
X016053Y026350D01*
X015733Y026350D01*
X015733Y026030D02*
X015733Y026671D01*
X016053Y026671D01*
X016160Y026564D01*
X016160Y026457D01*
X016053Y026350D01*
X016378Y026137D02*
X016485Y026030D01*
X016698Y026030D01*
X016805Y026137D01*
X016805Y026671D01*
X017022Y026564D02*
X017022Y026457D01*
X017129Y026350D01*
X017343Y026350D01*
X017449Y026244D01*
X017449Y026137D01*
X017343Y026030D01*
X017129Y026030D01*
X017022Y026137D01*
X017022Y026564D02*
X017129Y026671D01*
X017343Y026671D01*
X017449Y026564D01*
X016378Y026671D02*
X016378Y026137D01*
X014871Y026671D02*
X014444Y026030D01*
X013800Y026137D02*
X013800Y026671D01*
X013582Y026350D02*
X013155Y026350D01*
X013155Y026457D02*
X013369Y026671D01*
X013155Y026457D02*
X013155Y026030D01*
X018875Y028625D02*
X019125Y028375D01*
X019625Y028375D01*
X019875Y028625D01*
X020125Y028375D01*
X020625Y028375D01*
X020875Y028625D01*
X021125Y028375D01*
X021625Y028375D01*
X021875Y028625D01*
X021875Y029125D01*
X021625Y029375D01*
X021125Y029375D01*
X020875Y029125D01*
X020625Y029375D01*
X020125Y029375D01*
X019875Y029125D01*
X019625Y029375D01*
X019125Y029375D01*
X018875Y029125D01*
X018875Y028625D01*
X019369Y029887D02*
X019369Y030314D01*
X019582Y030100D02*
X019155Y030100D01*
X021155Y029994D02*
X021475Y029994D01*
X021582Y030100D01*
X021582Y030314D01*
X021475Y030421D01*
X021155Y030421D01*
X021155Y029780D01*
X024155Y026671D02*
X024369Y026457D01*
X024582Y026671D01*
X024582Y026030D01*
X024800Y026030D02*
X024800Y026457D01*
X025013Y026671D01*
X025227Y026457D01*
X025227Y026030D01*
X025444Y026030D02*
X025658Y026030D01*
X025551Y026030D02*
X025551Y026671D01*
X025444Y026671D02*
X025658Y026671D01*
X025874Y026671D02*
X026301Y026030D01*
X026301Y026671D01*
X025874Y026671D02*
X025874Y026030D01*
X025227Y026350D02*
X024800Y026350D01*
X024155Y026030D02*
X024155Y026671D01*
X033905Y026564D02*
X033905Y026457D01*
X034012Y026350D01*
X034225Y026350D01*
X034332Y026244D01*
X034332Y026137D01*
X034225Y026030D01*
X034012Y026030D01*
X033905Y026137D01*
X033905Y026564D02*
X034012Y026671D01*
X034225Y026671D01*
X034332Y026564D01*
X034550Y026671D02*
X034977Y026671D01*
X034763Y026671D02*
X034763Y026030D01*
X035194Y026030D02*
X035194Y026457D01*
X035408Y026671D01*
X035621Y026457D01*
X035621Y026030D01*
X035839Y026030D02*
X035839Y026671D01*
X036159Y026671D01*
X036266Y026564D01*
X036266Y026350D01*
X036159Y026244D01*
X035839Y026244D01*
X036052Y026244D02*
X036266Y026030D01*
X036697Y026030D02*
X036697Y026671D01*
X036910Y026671D02*
X036483Y026671D01*
X035621Y026350D02*
X035194Y026350D01*
X036875Y030625D02*
X036625Y030875D01*
X036625Y031375D01*
X036875Y031625D01*
X036625Y031875D01*
X036625Y032375D01*
X036875Y032625D01*
X037375Y032625D01*
X037625Y032375D01*
X037625Y031875D01*
X037375Y031625D01*
X037625Y031375D01*
X037625Y030875D01*
X037375Y030625D01*
X049360Y032955D02*
X049360Y033295D01*
X049640Y033295D02*
X049640Y032955D01*
X054375Y029375D02*
X054375Y028375D01*
X055275Y028375D01*
X055375Y028475D01*
X055475Y028375D01*
X056275Y028375D01*
X056375Y028475D01*
X056475Y028375D01*
X057275Y028375D01*
X057375Y028475D01*
X057475Y028375D01*
X058275Y028375D01*
X058375Y028475D01*
X058475Y028375D01*
X059275Y028375D01*
X059375Y028475D01*
X059475Y028375D01*
X060375Y028375D01*
X060375Y029375D01*
X059475Y029375D01*
X059375Y029275D01*
X059275Y029375D01*
X058475Y029375D01*
X058375Y029275D01*
X058275Y029375D01*
X057475Y029375D01*
X057375Y029275D01*
X057275Y029375D01*
X056475Y029375D01*
X056375Y029275D01*
X056275Y029375D01*
X055475Y029375D01*
X055375Y029275D01*
X055275Y029375D01*
X054375Y029375D01*
X054675Y029075D02*
X054675Y028675D01*
X054775Y028675D01*
X054775Y028575D01*
X054975Y028575D01*
X054975Y028675D01*
X055075Y028675D01*
X055075Y029075D01*
X054975Y029075D01*
X054975Y029175D01*
X054775Y029175D01*
X054775Y029075D01*
X054675Y029075D01*
X055675Y029075D02*
X055675Y028675D01*
X055775Y028675D01*
X055775Y028575D01*
X055975Y028575D01*
X055975Y028675D01*
X056075Y028675D01*
X056075Y029075D01*
X055975Y029075D01*
X055975Y029175D01*
X055775Y029175D01*
X055775Y029075D01*
X055675Y029075D01*
X056675Y029075D02*
X056675Y028675D01*
X056775Y028675D01*
X056775Y028575D01*
X056975Y028575D01*
X056975Y028675D01*
X057075Y028675D01*
X057075Y029075D01*
X056975Y029075D01*
X056975Y029175D01*
X056775Y029175D01*
X056775Y029075D01*
X056675Y029075D01*
X057675Y029075D02*
X057675Y028675D01*
X057775Y028675D01*
X057775Y028575D01*
X057975Y028575D01*
X057975Y028675D01*
X058075Y028675D01*
X058075Y029075D01*
X057975Y029075D01*
X057975Y029175D01*
X057775Y029175D01*
X057775Y029075D01*
X057675Y029075D01*
X058675Y029075D02*
X058675Y028675D01*
X058775Y028675D01*
X058775Y028575D01*
X058975Y028575D01*
X058975Y028675D01*
X059075Y028675D01*
X059075Y029075D01*
X058975Y029075D01*
X058975Y029175D01*
X058775Y029175D01*
X058775Y029075D01*
X058675Y029075D01*
X059675Y029075D02*
X059675Y028675D01*
X059775Y028675D01*
X059775Y028575D01*
X059975Y028575D01*
X059975Y028675D01*
X060075Y028675D01*
X060075Y029075D01*
X059975Y029075D01*
X059975Y029175D01*
X059775Y029175D01*
X059775Y029075D01*
X059675Y029075D01*
X059088Y026672D02*
X058939Y026672D01*
X057688Y026672D01*
X057671Y026670D01*
X057654Y026666D01*
X057638Y026659D01*
X057624Y026649D01*
X057611Y026636D01*
X057601Y026622D01*
X057594Y026606D01*
X057590Y026589D01*
X057588Y026572D01*
X057588Y026494D02*
X057588Y026144D01*
X057588Y026044D02*
X057588Y025644D01*
X057588Y025544D02*
X057588Y025144D01*
X057588Y025044D02*
X057588Y024694D01*
X057588Y024575D02*
X057590Y024558D01*
X057594Y024541D01*
X057601Y024525D01*
X057611Y024511D01*
X057624Y024498D01*
X057638Y024488D01*
X057654Y024481D01*
X057671Y024477D01*
X057688Y024475D01*
X058939Y024475D01*
X059088Y024475D01*
X059105Y024477D01*
X059122Y024481D01*
X059138Y024488D01*
X059152Y024498D01*
X059165Y024511D01*
X059175Y024525D01*
X059182Y024541D01*
X059186Y024558D01*
X059188Y024575D01*
X059188Y024694D02*
X059188Y025044D01*
X059188Y025144D02*
X059188Y025544D01*
X059188Y025644D02*
X059188Y026044D01*
X059188Y026144D02*
X059188Y026494D01*
X059188Y026572D02*
X059186Y026589D01*
X059182Y026606D01*
X059175Y026622D01*
X059165Y026636D01*
X059152Y026649D01*
X059138Y026659D01*
X059122Y026666D01*
X059105Y026670D01*
X059088Y026672D01*
X058613Y026227D02*
X058720Y026120D01*
X058720Y025906D01*
X058613Y025800D01*
X058400Y025800D02*
X058293Y026013D01*
X058293Y026120D01*
X058400Y026227D01*
X058613Y026227D01*
X058400Y025800D02*
X058079Y025800D01*
X058079Y026227D01*
X058079Y025582D02*
X058613Y025582D01*
X058720Y025475D01*
X058720Y025262D01*
X058613Y025155D01*
X058079Y025155D01*
X058598Y024815D02*
X058600Y024839D01*
X058606Y024863D01*
X058615Y024885D01*
X058628Y024905D01*
X058644Y024923D01*
X058663Y024938D01*
X058684Y024951D01*
X058706Y024959D01*
X058730Y024964D01*
X058754Y024965D01*
X058778Y024962D01*
X058801Y024955D01*
X058823Y024945D01*
X058843Y024931D01*
X058860Y024914D01*
X058875Y024895D01*
X058886Y024874D01*
X058894Y024851D01*
X058898Y024827D01*
X058898Y024803D01*
X058894Y024779D01*
X058886Y024756D01*
X058875Y024735D01*
X058860Y024716D01*
X058843Y024699D01*
X058823Y024685D01*
X058801Y024675D01*
X058778Y024668D01*
X058754Y024665D01*
X058730Y024666D01*
X058706Y024671D01*
X058684Y024679D01*
X058663Y024692D01*
X058644Y024707D01*
X058628Y024725D01*
X058615Y024745D01*
X058606Y024767D01*
X058600Y024791D01*
X058598Y024815D01*
X063985Y023170D02*
X063985Y022830D01*
X064265Y022830D02*
X064265Y023170D01*
X064860Y023170D02*
X064860Y022830D01*
X065140Y022830D02*
X065140Y023170D01*
X066610Y023170D02*
X066610Y022830D01*
X066890Y022830D02*
X066890Y023170D01*
X071155Y022180D02*
X075605Y022180D01*
X075605Y025080D01*
X071155Y025080D01*
X071155Y022180D01*
X075005Y024720D02*
X075007Y024749D01*
X075013Y024777D01*
X075022Y024804D01*
X075036Y024829D01*
X075052Y024853D01*
X075072Y024873D01*
X075094Y024892D01*
X075118Y024906D01*
X075145Y024918D01*
X075172Y024926D01*
X075201Y024930D01*
X075229Y024930D01*
X075258Y024926D01*
X075285Y024918D01*
X075312Y024906D01*
X075336Y024892D01*
X075358Y024873D01*
X075378Y024853D01*
X075394Y024829D01*
X075408Y024804D01*
X075417Y024777D01*
X075423Y024749D01*
X075425Y024720D01*
X075423Y024691D01*
X075417Y024663D01*
X075408Y024636D01*
X075394Y024611D01*
X075378Y024587D01*
X075358Y024567D01*
X075336Y024548D01*
X075312Y024534D01*
X075285Y024522D01*
X075258Y024514D01*
X075229Y024510D01*
X075201Y024510D01*
X075172Y024514D01*
X075145Y024522D01*
X075118Y024534D01*
X075094Y024548D01*
X075072Y024567D01*
X075052Y024587D01*
X075036Y024611D01*
X075022Y024636D01*
X075013Y024663D01*
X075007Y024691D01*
X075005Y024720D01*
X076205Y020265D02*
X076545Y020265D01*
X076545Y019985D02*
X076205Y019985D01*
X069170Y017890D02*
X068830Y017890D01*
X068830Y017610D02*
X069170Y017610D01*
X065727Y019387D02*
X065620Y019280D01*
X065406Y019280D01*
X065300Y019387D01*
X065082Y019387D02*
X065082Y019921D01*
X065300Y019814D02*
X065406Y019921D01*
X065620Y019921D01*
X065727Y019814D01*
X065727Y019707D01*
X065620Y019600D01*
X065727Y019494D01*
X065727Y019387D01*
X065620Y019600D02*
X065513Y019600D01*
X065082Y019387D02*
X064975Y019280D01*
X064762Y019280D01*
X064655Y019387D01*
X064655Y019921D01*
X051515Y028205D02*
X051515Y028545D01*
X051235Y028545D02*
X051235Y028205D01*
X050515Y028205D02*
X050515Y028545D01*
X050235Y028545D02*
X050235Y028205D01*
X061975Y034405D02*
X061975Y034845D01*
X063275Y034845D02*
X063275Y034405D01*
X063275Y036405D02*
X063275Y036845D01*
X061975Y036845D02*
X061975Y036405D01*
X067475Y036405D02*
X067475Y036845D01*
X068775Y036845D02*
X068775Y036405D01*
X068775Y034845D02*
X068775Y034405D01*
X067475Y034405D02*
X067475Y034845D01*
X072475Y031562D02*
X072475Y030311D01*
X072475Y030162D01*
X072477Y030145D01*
X072481Y030128D01*
X072488Y030112D01*
X072498Y030098D01*
X072511Y030085D01*
X072525Y030075D01*
X072541Y030068D01*
X072558Y030064D01*
X072575Y030062D01*
X072694Y030062D02*
X073044Y030062D01*
X073144Y030062D02*
X073544Y030062D01*
X073644Y030062D02*
X074044Y030062D01*
X074144Y030062D02*
X074494Y030062D01*
X074572Y030062D02*
X074589Y030064D01*
X074606Y030068D01*
X074622Y030075D01*
X074636Y030085D01*
X074649Y030098D01*
X074659Y030112D01*
X074666Y030128D01*
X074670Y030145D01*
X074672Y030162D01*
X074672Y030311D01*
X074672Y031562D01*
X074670Y031579D01*
X074666Y031596D01*
X074659Y031612D01*
X074649Y031626D01*
X074636Y031639D01*
X074622Y031649D01*
X074606Y031656D01*
X074589Y031660D01*
X074572Y031662D01*
X074494Y031662D02*
X074144Y031662D01*
X074044Y031662D02*
X073644Y031662D01*
X073544Y031662D02*
X073144Y031662D01*
X073044Y031662D02*
X072694Y031662D01*
X072575Y031662D02*
X072558Y031660D01*
X072541Y031656D01*
X072525Y031649D01*
X072511Y031639D01*
X072498Y031626D01*
X072488Y031612D01*
X072481Y031596D01*
X072477Y031579D01*
X072475Y031562D01*
X073116Y031221D02*
X073116Y030687D01*
X073223Y030580D01*
X073436Y030580D01*
X073543Y030687D01*
X073543Y031221D01*
X073760Y030900D02*
X074081Y030900D01*
X074187Y030794D01*
X074187Y030687D01*
X074081Y030580D01*
X073867Y030580D01*
X073760Y030687D01*
X073760Y030900D01*
X073974Y031114D01*
X074187Y031221D01*
X072665Y030502D02*
X072667Y030526D01*
X072673Y030550D01*
X072682Y030572D01*
X072695Y030592D01*
X072711Y030610D01*
X072730Y030625D01*
X072751Y030638D01*
X072773Y030646D01*
X072797Y030651D01*
X072821Y030652D01*
X072845Y030649D01*
X072868Y030642D01*
X072890Y030632D01*
X072910Y030618D01*
X072927Y030601D01*
X072942Y030582D01*
X072953Y030561D01*
X072961Y030538D01*
X072965Y030514D01*
X072965Y030490D01*
X072961Y030466D01*
X072953Y030443D01*
X072942Y030422D01*
X072927Y030403D01*
X072910Y030386D01*
X072890Y030372D01*
X072868Y030362D01*
X072845Y030355D01*
X072821Y030352D01*
X072797Y030353D01*
X072773Y030358D01*
X072751Y030366D01*
X072730Y030379D01*
X072711Y030394D01*
X072695Y030412D01*
X072682Y030432D01*
X072673Y030454D01*
X072667Y030478D01*
X072665Y030502D01*
X072265Y029295D02*
X072265Y028955D01*
X071985Y028955D02*
X071985Y029295D01*
X076625Y032625D02*
X076625Y033525D01*
X076725Y033625D01*
X076625Y033725D01*
X076625Y034525D01*
X076725Y034625D01*
X076625Y034725D01*
X076625Y035525D01*
X076725Y035625D01*
X076625Y035725D01*
X076625Y036525D01*
X076725Y036625D01*
X076625Y036725D01*
X076625Y037525D01*
X076725Y037625D01*
X076625Y037725D01*
X076625Y038625D01*
X077625Y038625D01*
X077625Y037725D01*
X077525Y037625D01*
X077625Y037525D01*
X077625Y036725D01*
X077525Y036625D01*
X077625Y036525D01*
X077625Y035725D01*
X077525Y035625D01*
X077625Y035525D01*
X077625Y034725D01*
X077525Y034625D01*
X077625Y034525D01*
X077625Y033725D01*
X077525Y033625D01*
X077625Y033525D01*
X077625Y032625D01*
X076625Y032625D01*
X076925Y032925D02*
X077325Y032925D01*
X077325Y033025D01*
X077425Y033025D01*
X077425Y033225D01*
X077325Y033225D01*
X077325Y033325D01*
X076925Y033325D01*
X076925Y033225D01*
X076825Y033225D01*
X076825Y033025D01*
X076925Y033025D01*
X076925Y032925D01*
X076925Y033925D02*
X077325Y033925D01*
X077325Y034025D01*
X077425Y034025D01*
X077425Y034225D01*
X077325Y034225D01*
X077325Y034325D01*
X076925Y034325D01*
X076925Y034225D01*
X076825Y034225D01*
X076825Y034025D01*
X076925Y034025D01*
X076925Y033925D01*
X076925Y034925D02*
X077325Y034925D01*
X077325Y035025D01*
X077425Y035025D01*
X077425Y035225D01*
X077325Y035225D01*
X077325Y035325D01*
X076925Y035325D01*
X076925Y035225D01*
X076825Y035225D01*
X076825Y035025D01*
X076925Y035025D01*
X076925Y034925D01*
X076925Y035925D02*
X077325Y035925D01*
X077325Y036025D01*
X077425Y036025D01*
X077425Y036225D01*
X077325Y036225D01*
X077325Y036325D01*
X076925Y036325D01*
X076925Y036225D01*
X076825Y036225D01*
X076825Y036025D01*
X076925Y036025D01*
X076925Y035925D01*
X076925Y036925D02*
X077325Y036925D01*
X077325Y037025D01*
X077425Y037025D01*
X077425Y037225D01*
X077325Y037225D01*
X077325Y037325D01*
X076925Y037325D01*
X076925Y037225D01*
X076825Y037225D01*
X076825Y037025D01*
X076925Y037025D01*
X076925Y036925D01*
X076925Y037925D02*
X077325Y037925D01*
X077325Y038025D01*
X077425Y038025D01*
X077425Y038225D01*
X077325Y038225D01*
X077325Y038325D01*
X076925Y038325D01*
X076925Y038225D01*
X076825Y038225D01*
X076825Y038025D01*
X076925Y038025D01*
X076925Y037925D01*
X036551Y038155D02*
X036124Y038155D01*
X036551Y038582D01*
X036551Y038689D01*
X036444Y038796D01*
X036231Y038796D01*
X036124Y038689D01*
X035906Y038689D02*
X035906Y038262D01*
X035800Y038155D01*
X035479Y038155D01*
X035479Y038796D01*
X035800Y038796D01*
X035906Y038689D01*
X035262Y038796D02*
X035262Y038155D01*
X034835Y038796D01*
X034835Y038155D01*
X034619Y038155D02*
X034405Y038155D01*
X034512Y038155D02*
X034512Y038796D01*
X034405Y038796D02*
X034619Y038796D01*
X006641Y026155D02*
X006214Y026155D01*
X006427Y026155D02*
X006427Y026796D01*
X006214Y026582D01*
X005996Y026796D02*
X005569Y026155D01*
X005352Y026262D02*
X005352Y026796D01*
X005569Y026796D02*
X005996Y026155D01*
X006125Y025875D02*
X006625Y025875D01*
X006875Y025625D01*
X006875Y025125D01*
X006625Y024875D01*
X006125Y024875D01*
X005875Y025125D01*
X005625Y024875D01*
X005125Y024875D01*
X004875Y025125D01*
X004625Y024875D01*
X004125Y024875D01*
X003875Y025125D01*
X003875Y025625D01*
X004125Y025875D01*
X004625Y025875D01*
X004875Y025625D01*
X005125Y025875D01*
X005625Y025875D01*
X005875Y025625D01*
X006125Y025875D01*
X005352Y026262D02*
X005245Y026155D01*
X005031Y026155D01*
X004925Y026262D01*
X004925Y026796D01*
X004707Y026582D02*
X004707Y026155D01*
X004707Y026475D02*
X004280Y026475D01*
X004280Y026582D02*
X004280Y026155D01*
X004280Y026582D02*
X004494Y026796D01*
X004707Y026582D01*
X004781Y016046D02*
X004675Y015939D01*
X004675Y015512D01*
X004781Y015405D01*
X004995Y015405D01*
X005102Y015512D01*
X005102Y015939D01*
X004995Y016046D01*
X004781Y016046D01*
X004457Y016046D02*
X004457Y015405D01*
X004457Y015725D02*
X004030Y015725D01*
X004030Y015405D02*
X004030Y016046D01*
X005319Y016046D02*
X005319Y015405D01*
X005319Y015619D02*
X005639Y015619D01*
X005746Y015725D01*
X005746Y015939D01*
X005639Y016046D01*
X005319Y016046D01*
X005533Y015619D02*
X005746Y015405D01*
X005964Y015405D02*
X005964Y016046D01*
X006391Y015405D01*
X006391Y016046D01*
X009030Y015314D02*
X009030Y014887D01*
X009137Y014780D01*
X009350Y014780D01*
X009457Y014887D01*
X009457Y015100D01*
X009244Y015100D01*
X009457Y015314D02*
X009350Y015421D01*
X009137Y015421D01*
X009030Y015314D01*
X009125Y014375D02*
X008875Y014125D01*
X008875Y013625D01*
X009125Y013375D01*
X009625Y013375D01*
X009875Y013625D01*
X010125Y013375D01*
X010625Y013375D01*
X010875Y013625D01*
X011125Y013375D01*
X011625Y013375D01*
X011875Y013625D01*
X011875Y014125D01*
X011625Y014375D01*
X011125Y014375D01*
X010875Y014125D01*
X010625Y014375D01*
X010125Y014375D01*
X009875Y014125D01*
X009625Y014375D01*
X009125Y014375D01*
X011155Y015225D02*
X011582Y015225D01*
X011369Y015439D02*
X011369Y015012D01*
X014155Y015280D02*
X014155Y015707D01*
X014369Y015921D01*
X014582Y015707D01*
X014582Y015280D01*
X014800Y015387D02*
X014906Y015280D01*
X015120Y015280D01*
X015227Y015387D01*
X015227Y015921D01*
X015444Y015921D02*
X015871Y015280D01*
X016089Y015280D02*
X016516Y015707D01*
X016516Y015814D01*
X016409Y015921D01*
X016195Y015921D01*
X016089Y015814D01*
X015871Y015921D02*
X015444Y015280D01*
X016089Y015280D02*
X016516Y015280D01*
X014800Y015387D02*
X014800Y015921D01*
X014582Y015600D02*
X014155Y015600D01*
X014000Y011125D02*
X013750Y010875D01*
X013750Y010375D01*
X014000Y010125D01*
X014500Y010125D01*
X014750Y010375D01*
X015000Y010125D01*
X015500Y010125D01*
X015750Y010375D01*
X016000Y010125D01*
X016500Y010125D01*
X016750Y010375D01*
X016750Y010875D01*
X016500Y011125D01*
X016000Y011125D01*
X015750Y010875D01*
X015500Y011125D01*
X015000Y011125D01*
X014750Y010875D01*
X014500Y011125D01*
X014000Y011125D01*
X021780Y007421D02*
X022100Y007421D01*
X022207Y007314D01*
X022207Y007100D01*
X022100Y006994D01*
X021780Y006994D01*
X021994Y006994D02*
X022207Y006780D01*
X022425Y006780D02*
X022638Y006780D01*
X022531Y006780D02*
X022531Y007207D01*
X022425Y007207D01*
X022531Y007421D02*
X022531Y007527D01*
X022854Y007100D02*
X022961Y007207D01*
X023281Y007207D01*
X023281Y007421D02*
X023281Y006780D01*
X022961Y006780D01*
X022854Y006887D01*
X022854Y007100D01*
X023499Y007100D02*
X023499Y006887D01*
X023606Y006780D01*
X023819Y006780D01*
X023926Y006994D02*
X023499Y006994D01*
X023499Y007100D02*
X023606Y007207D01*
X023819Y007207D01*
X023926Y007100D01*
X023926Y006994D01*
X024143Y006994D02*
X024357Y007207D01*
X024464Y007207D01*
X024143Y007207D02*
X024143Y006780D01*
X024465Y006296D02*
X024358Y006189D01*
X024358Y005762D01*
X024465Y005655D01*
X024678Y005655D01*
X024785Y005762D01*
X025003Y005655D02*
X025003Y006082D01*
X025216Y006296D01*
X025430Y006082D01*
X025430Y005655D01*
X025647Y005655D02*
X025647Y006296D01*
X026074Y005655D01*
X026074Y006296D01*
X026076Y006780D02*
X026076Y007207D01*
X025970Y007207D01*
X026076Y007421D02*
X026076Y007527D01*
X025752Y007314D02*
X025645Y007421D01*
X025325Y007421D01*
X025325Y006780D01*
X025645Y006780D01*
X025752Y006887D01*
X025752Y007314D01*
X025970Y006780D02*
X026183Y006780D01*
X026399Y006780D02*
X026720Y006780D01*
X026826Y006887D01*
X026720Y006994D01*
X026506Y006994D01*
X026399Y007100D01*
X026506Y007207D01*
X026826Y007207D01*
X027044Y007207D02*
X027044Y006566D01*
X027044Y006780D02*
X027364Y006780D01*
X027471Y006887D01*
X027471Y007100D01*
X027364Y007207D01*
X027044Y007207D01*
X027688Y007421D02*
X027795Y007421D01*
X027795Y006780D01*
X027688Y006780D02*
X027902Y006780D01*
X028118Y006887D02*
X028225Y006994D01*
X028545Y006994D01*
X028545Y007100D02*
X028545Y006780D01*
X028225Y006780D01*
X028118Y006887D01*
X028225Y007207D02*
X028438Y007207D01*
X028545Y007100D01*
X028763Y007207D02*
X028763Y006887D01*
X028869Y006780D01*
X029190Y006780D01*
X029190Y006673D02*
X029083Y006566D01*
X028976Y006566D01*
X029190Y006673D02*
X029190Y007207D01*
X030052Y007100D02*
X030372Y007100D01*
X030479Y006994D01*
X030479Y006887D01*
X030372Y006780D01*
X030052Y006780D01*
X030052Y007421D01*
X030372Y007421D01*
X030479Y007314D01*
X030479Y007207D01*
X030372Y007100D01*
X030696Y006887D02*
X030803Y006994D01*
X031123Y006994D01*
X031123Y007100D02*
X031123Y006780D01*
X030803Y006780D01*
X030696Y006887D01*
X030803Y007207D02*
X031017Y007207D01*
X031123Y007100D01*
X031341Y007100D02*
X031341Y006887D01*
X031448Y006780D01*
X031768Y006780D01*
X031985Y006780D02*
X031985Y007421D01*
X031768Y007207D02*
X031448Y007207D01*
X031341Y007100D01*
X031985Y006994D02*
X032306Y006780D01*
X032522Y006780D02*
X032843Y006780D01*
X032950Y006887D01*
X032950Y007100D01*
X032843Y007207D01*
X032522Y007207D01*
X032522Y006566D01*
X032306Y007207D02*
X031985Y006994D01*
X033167Y006780D02*
X033381Y006780D01*
X033274Y006780D02*
X033274Y007421D01*
X033167Y007421D01*
X033704Y007207D02*
X033917Y007207D01*
X034024Y007100D01*
X034024Y006780D01*
X033704Y006780D01*
X033597Y006887D01*
X033704Y006994D01*
X034024Y006994D01*
X034241Y007207D02*
X034562Y007207D01*
X034668Y007100D01*
X034668Y006780D01*
X034886Y006887D02*
X034886Y007100D01*
X034993Y007207D01*
X035206Y007207D01*
X035313Y007100D01*
X035313Y006994D01*
X034886Y006994D01*
X034886Y006887D02*
X034993Y006780D01*
X035206Y006780D01*
X034241Y006780D02*
X034241Y007207D01*
X030050Y006082D02*
X029943Y006082D01*
X029729Y005869D01*
X029729Y006082D02*
X029729Y005655D01*
X029512Y005762D02*
X029512Y005975D01*
X029405Y006082D01*
X029192Y006082D01*
X029085Y005975D01*
X029085Y005762D01*
X029192Y005655D01*
X029405Y005655D01*
X029512Y005762D01*
X028868Y006082D02*
X028761Y006082D01*
X028548Y005869D01*
X028548Y006082D02*
X028548Y005655D01*
X028331Y006082D02*
X028224Y006082D01*
X028011Y005869D01*
X028011Y006082D02*
X028011Y005655D01*
X027794Y005655D02*
X027581Y005655D01*
X027688Y005655D02*
X027688Y006082D01*
X027581Y006082D01*
X027688Y006296D02*
X027688Y006402D01*
X027363Y005975D02*
X027363Y005655D01*
X027150Y005655D02*
X027150Y005975D01*
X027257Y006082D01*
X027363Y005975D01*
X027150Y005975D02*
X027043Y006082D01*
X026936Y006082D01*
X026936Y005655D01*
X025430Y005975D02*
X025003Y005975D01*
X024785Y006189D02*
X024678Y006296D01*
X024465Y006296D01*
X023496Y006296D02*
X023496Y005655D01*
X023176Y005655D01*
X023069Y005762D01*
X023069Y005975D01*
X023176Y006082D01*
X023496Y006082D01*
X022852Y005975D02*
X022852Y005655D01*
X022852Y005975D02*
X022745Y006082D01*
X022425Y006082D01*
X022425Y005655D01*
X022207Y005655D02*
X022207Y006082D01*
X021994Y006296D01*
X021780Y006082D01*
X021780Y005655D01*
X021780Y005975D02*
X022207Y005975D01*
X021780Y006780D02*
X021780Y007421D01*
X021780Y005046D02*
X021780Y004619D01*
X021994Y004405D01*
X022207Y004619D01*
X022207Y005046D01*
X022425Y004832D02*
X022638Y005046D01*
X022638Y004405D01*
X022425Y004405D02*
X022852Y004405D01*
X023069Y004405D02*
X023069Y004512D01*
X023176Y004512D01*
X023176Y004405D01*
X023069Y004405D01*
X023391Y004512D02*
X023498Y004405D01*
X023712Y004405D01*
X023818Y004512D01*
X023818Y004619D01*
X023712Y004725D01*
X023605Y004725D01*
X023712Y004725D02*
X023818Y004832D01*
X023818Y004939D01*
X023712Y005046D01*
X023498Y005046D01*
X023391Y004939D01*
X024530Y015280D02*
X024530Y015921D01*
X024850Y015921D01*
X024957Y015814D01*
X024957Y015600D01*
X024850Y015494D01*
X024530Y015494D01*
X025175Y015494D02*
X025495Y015494D01*
X025602Y015600D01*
X025602Y015814D01*
X025495Y015921D01*
X025175Y015921D01*
X025175Y015280D01*
X025388Y015494D02*
X025602Y015280D01*
X025819Y015280D02*
X026246Y015280D01*
X026033Y015600D02*
X025819Y015600D01*
X025819Y015280D02*
X025819Y015921D01*
X026246Y015921D01*
X034155Y015814D02*
X034155Y015707D01*
X034262Y015600D01*
X034475Y015600D01*
X034582Y015494D01*
X034582Y015387D01*
X034475Y015280D01*
X034262Y015280D01*
X034155Y015387D01*
X034155Y015814D02*
X034262Y015921D01*
X034475Y015921D01*
X034582Y015814D01*
X034800Y015921D02*
X035227Y015921D01*
X035013Y015921D02*
X035013Y015280D01*
X035444Y015387D02*
X035444Y015814D01*
X035551Y015921D01*
X035764Y015921D01*
X035871Y015814D01*
X035871Y015387D01*
X035764Y015280D01*
X035551Y015280D01*
X035444Y015387D01*
X036089Y015494D02*
X036409Y015494D01*
X036516Y015600D01*
X036516Y015814D01*
X036409Y015921D01*
X036089Y015921D01*
X036089Y015280D01*
X068110Y006920D02*
X068110Y006580D01*
X068390Y006580D02*
X068390Y006920D01*
D12*
X052046Y026547D02*
X052046Y026609D01*
X052293Y026856D01*
X052293Y026918D01*
X052046Y026918D01*
X051924Y026918D02*
X051924Y026609D01*
X051863Y026547D01*
X051739Y026547D01*
X051677Y026609D01*
X051677Y026918D01*
X048517Y031040D02*
X048270Y031040D01*
X048393Y031040D02*
X048393Y031410D01*
X048270Y031287D01*
X048149Y031349D02*
X048087Y031410D01*
X047902Y031410D01*
X047902Y031040D01*
X048087Y031040D01*
X048149Y031102D01*
X048149Y031349D01*
X047780Y031410D02*
X047533Y031410D01*
X047533Y031040D01*
X047780Y031040D01*
X047657Y031225D02*
X047533Y031225D01*
X047412Y031040D02*
X047165Y031040D01*
X047165Y031410D01*
X050040Y031665D02*
X050287Y031665D01*
X050408Y031665D02*
X050655Y031665D01*
X050777Y031665D02*
X050777Y032035D01*
X050962Y032035D01*
X051024Y031974D01*
X051024Y031727D01*
X050962Y031665D01*
X050777Y031665D01*
X050532Y031850D02*
X050408Y031850D01*
X050408Y032035D02*
X050408Y031665D01*
X050040Y031665D02*
X050040Y032035D01*
X050408Y032035D02*
X050655Y032035D01*
X051145Y031974D02*
X051145Y031727D01*
X051392Y031974D01*
X051392Y031727D01*
X051330Y031665D01*
X051207Y031665D01*
X051145Y031727D01*
X051145Y031974D02*
X051207Y032035D01*
X051330Y032035D01*
X051392Y031974D01*
X051377Y034415D02*
X051377Y034785D01*
X051500Y034785D02*
X051253Y034785D01*
X051132Y034724D02*
X051132Y034662D01*
X051070Y034600D01*
X050885Y034600D01*
X050885Y034415D02*
X051070Y034415D01*
X051132Y034477D01*
X051132Y034538D01*
X051070Y034600D01*
X051132Y034724D02*
X051070Y034785D01*
X050885Y034785D01*
X050885Y034415D01*
X051622Y034415D02*
X051622Y034785D01*
X051869Y034415D01*
X051869Y034785D01*
X050637Y037840D02*
X050637Y038210D01*
X050760Y038210D02*
X050513Y038210D01*
X050392Y038210D02*
X050145Y038210D01*
X050145Y037840D01*
X050392Y037840D01*
X050268Y038025D02*
X050145Y038025D01*
X050024Y037963D02*
X050024Y037902D01*
X049962Y037840D01*
X049838Y037840D01*
X049777Y037902D01*
X049655Y037840D02*
X049408Y037840D01*
X049408Y038210D01*
X049655Y038210D01*
X049777Y038149D02*
X049777Y038087D01*
X049838Y038025D01*
X049962Y038025D01*
X050024Y037963D01*
X050024Y038149D02*
X049962Y038210D01*
X049838Y038210D01*
X049777Y038149D01*
X049532Y038025D02*
X049408Y038025D01*
X049287Y038025D02*
X049225Y037963D01*
X049040Y037963D01*
X049040Y037840D02*
X049040Y038210D01*
X049225Y038210D01*
X049287Y038149D01*
X049287Y038025D01*
X049163Y037963D02*
X049287Y037840D01*
X060765Y034457D02*
X060950Y034272D01*
X060950Y034519D01*
X061135Y034457D02*
X060765Y034457D01*
X060826Y034150D02*
X060765Y034089D01*
X060765Y033903D01*
X061135Y033903D01*
X061135Y034089D01*
X061073Y034150D01*
X060826Y034150D01*
X064265Y034089D02*
X064265Y033903D01*
X064635Y033903D01*
X064635Y034089D01*
X064573Y034150D01*
X064326Y034150D01*
X064265Y034089D01*
X064326Y034272D02*
X064265Y034333D01*
X064265Y034457D01*
X064326Y034519D01*
X064388Y034519D01*
X064450Y034457D01*
X064512Y034519D01*
X064573Y034519D01*
X064635Y034457D01*
X064635Y034333D01*
X064573Y034272D01*
X064450Y034395D02*
X064450Y034457D01*
X011755Y035140D02*
X011508Y035140D01*
X011632Y035140D02*
X011632Y035510D01*
X011508Y035387D01*
X011387Y035449D02*
X011325Y035510D01*
X011140Y035510D01*
X011140Y035140D01*
X011325Y035140D01*
X011387Y035202D01*
X011387Y035449D01*
X011325Y036390D02*
X011387Y036452D01*
X011387Y036699D01*
X011325Y036760D01*
X011140Y036760D01*
X011140Y036390D01*
X011325Y036390D01*
X011508Y036452D02*
X011570Y036390D01*
X011693Y036390D01*
X011755Y036452D01*
X011755Y036575D01*
X011693Y036637D01*
X011632Y036637D01*
X011508Y036575D01*
X011508Y036760D01*
X011755Y036760D01*
D13*
X071375Y025365D03*
X071875Y025365D03*
X072375Y025365D03*
X072875Y025365D03*
X073375Y025365D03*
X073875Y025365D03*
X074375Y025365D03*
X074875Y025365D03*
X075375Y025365D03*
X075375Y021895D03*
X074875Y021895D03*
X074375Y021895D03*
X073875Y021895D03*
X073375Y021895D03*
X072875Y021895D03*
X072375Y021895D03*
X071875Y021895D03*
X071375Y021895D03*
D14*
X072515Y023045D02*
X072725Y023045D01*
X072830Y023150D01*
X072830Y023676D01*
X073055Y023360D02*
X073370Y023676D01*
X073370Y023045D01*
X073475Y023360D02*
X073055Y023360D01*
X072515Y023045D02*
X072410Y023150D01*
X072410Y023676D01*
D15*
X072611Y026245D02*
X072139Y026245D01*
X071391Y026757D02*
X071391Y026993D01*
X072139Y027505D02*
X072611Y027505D01*
X073359Y026993D02*
X073359Y026757D01*
X074981Y026810D02*
X074981Y027440D01*
X074982Y027440D02*
X074988Y027458D01*
X074997Y027476D01*
X075009Y027491D01*
X075025Y027503D01*
X075042Y027512D01*
X075061Y027518D01*
X075080Y027520D01*
X075100Y027518D01*
X075650Y027518D02*
X075668Y027520D01*
X075685Y027519D01*
X075702Y027515D01*
X075718Y027508D01*
X075733Y027498D01*
X075745Y027486D01*
X075755Y027472D01*
X075763Y027456D01*
X075768Y027440D01*
X075769Y027440D02*
X075769Y026810D01*
X075768Y026810D02*
X075763Y026794D01*
X075755Y026778D01*
X075745Y026764D01*
X075733Y026752D01*
X075718Y026742D01*
X075702Y026735D01*
X075685Y026731D01*
X075668Y026730D01*
X075650Y026732D01*
X075100Y026732D02*
X075080Y026730D01*
X075061Y026732D01*
X075042Y026738D01*
X075025Y026747D01*
X075009Y026759D01*
X074997Y026774D01*
X074988Y026792D01*
X074982Y026810D01*
X074596Y019562D02*
X077904Y019562D01*
X077904Y017366D01*
X077293Y017366D01*
X077293Y015884D01*
X077904Y015884D01*
X077904Y013366D01*
X077293Y013366D01*
X077293Y011884D01*
X077904Y011884D01*
X077904Y009688D01*
X074596Y009688D01*
X074596Y011787D01*
X074715Y011787D01*
X074715Y012369D01*
X074596Y012369D01*
X074596Y013884D01*
X074596Y015366D01*
X074596Y019562D01*
X074961Y019119D02*
X077539Y019119D01*
X077539Y017369D01*
X077904Y017366D02*
X077904Y015884D01*
X077539Y015883D02*
X077539Y013367D01*
X077904Y013366D02*
X077904Y011884D01*
X077539Y011881D02*
X077539Y010131D01*
X074961Y010131D01*
X074961Y013884D01*
X075207Y013884D02*
X075207Y015366D01*
X074596Y015366D01*
X074961Y015366D02*
X074961Y019119D01*
X075207Y013884D02*
X074596Y013884D01*
X065109Y014632D02*
X065109Y014868D01*
X064361Y015380D02*
X063889Y015380D01*
X063141Y014868D02*
X063141Y014632D01*
X063889Y014120D02*
X064361Y014120D01*
X050567Y031069D02*
X050567Y031250D01*
X050445Y031158D01*
X050567Y031250D02*
X050567Y031431D01*
X050445Y031336D02*
X050561Y031260D01*
X049192Y031250D02*
X049192Y031431D01*
X049070Y031336D02*
X049186Y031260D01*
X049192Y031250D02*
X049070Y031158D01*
X049192Y031069D02*
X049192Y031250D01*
X050500Y032519D02*
X050894Y032125D01*
X052106Y032125D01*
X052500Y032519D01*
X052500Y032731D02*
X052500Y033519D01*
X052500Y033731D02*
X052106Y034125D01*
X050894Y034125D01*
X050500Y033731D01*
X050500Y033519D02*
X050500Y032731D01*
X051000Y033125D02*
X051002Y033169D01*
X051008Y033213D01*
X051018Y033256D01*
X051031Y033298D01*
X051048Y033339D01*
X051069Y033378D01*
X051093Y033415D01*
X051120Y033450D01*
X051150Y033482D01*
X051183Y033512D01*
X051219Y033538D01*
X051256Y033562D01*
X051296Y033581D01*
X051337Y033598D01*
X051380Y033610D01*
X051423Y033619D01*
X051467Y033624D01*
X051511Y033625D01*
X051555Y033622D01*
X051599Y033615D01*
X051642Y033604D01*
X051684Y033590D01*
X051724Y033572D01*
X051763Y033550D01*
X051799Y033526D01*
X051833Y033498D01*
X051865Y033467D01*
X051894Y033433D01*
X051920Y033397D01*
X051942Y033359D01*
X051961Y033319D01*
X051976Y033277D01*
X051988Y033235D01*
X051996Y033191D01*
X052000Y033147D01*
X052000Y033103D01*
X051996Y033059D01*
X051988Y033015D01*
X051976Y032973D01*
X051961Y032931D01*
X051942Y032891D01*
X051920Y032853D01*
X051894Y032817D01*
X051865Y032783D01*
X051833Y032752D01*
X051799Y032724D01*
X051763Y032700D01*
X051724Y032678D01*
X051684Y032660D01*
X051642Y032646D01*
X051599Y032635D01*
X051555Y032628D01*
X051511Y032625D01*
X051467Y032626D01*
X051423Y032631D01*
X051380Y032640D01*
X051337Y032652D01*
X051296Y032669D01*
X051256Y032688D01*
X051219Y032712D01*
X051183Y032738D01*
X051150Y032768D01*
X051120Y032800D01*
X051093Y032835D01*
X051069Y032872D01*
X051048Y032911D01*
X051031Y032952D01*
X051018Y032994D01*
X051008Y033037D01*
X051002Y033081D01*
X051000Y033125D01*
X050894Y035500D02*
X052106Y035500D01*
X052500Y035894D01*
X052500Y036106D02*
X052500Y036894D01*
X052500Y037106D02*
X052106Y037500D01*
X050894Y037500D01*
X050500Y037106D01*
X050500Y036894D02*
X050500Y036106D01*
X050500Y035894D02*
X050894Y035500D01*
X051000Y036500D02*
X051002Y036544D01*
X051008Y036588D01*
X051018Y036631D01*
X051031Y036673D01*
X051048Y036714D01*
X051069Y036753D01*
X051093Y036790D01*
X051120Y036825D01*
X051150Y036857D01*
X051183Y036887D01*
X051219Y036913D01*
X051256Y036937D01*
X051296Y036956D01*
X051337Y036973D01*
X051380Y036985D01*
X051423Y036994D01*
X051467Y036999D01*
X051511Y037000D01*
X051555Y036997D01*
X051599Y036990D01*
X051642Y036979D01*
X051684Y036965D01*
X051724Y036947D01*
X051763Y036925D01*
X051799Y036901D01*
X051833Y036873D01*
X051865Y036842D01*
X051894Y036808D01*
X051920Y036772D01*
X051942Y036734D01*
X051961Y036694D01*
X051976Y036652D01*
X051988Y036610D01*
X051996Y036566D01*
X052000Y036522D01*
X052000Y036478D01*
X051996Y036434D01*
X051988Y036390D01*
X051976Y036348D01*
X051961Y036306D01*
X051942Y036266D01*
X051920Y036228D01*
X051894Y036192D01*
X051865Y036158D01*
X051833Y036127D01*
X051799Y036099D01*
X051763Y036075D01*
X051724Y036053D01*
X051684Y036035D01*
X051642Y036021D01*
X051599Y036010D01*
X051555Y036003D01*
X051511Y036000D01*
X051467Y036001D01*
X051423Y036006D01*
X051380Y036015D01*
X051337Y036027D01*
X051296Y036044D01*
X051256Y036063D01*
X051219Y036087D01*
X051183Y036113D01*
X051150Y036143D01*
X051120Y036175D01*
X051093Y036210D01*
X051069Y036247D01*
X051048Y036286D01*
X051031Y036327D01*
X051018Y036369D01*
X051008Y036412D01*
X051002Y036456D01*
X051000Y036500D01*
X062021Y036311D02*
X063229Y036311D01*
X063229Y036939D01*
X062021Y036939D01*
X062021Y036311D01*
X062243Y036507D02*
X062243Y036727D01*
X062349Y036625D02*
X062129Y036625D01*
X062021Y034939D02*
X063229Y034939D01*
X063229Y034311D01*
X062021Y034311D01*
X062021Y034939D01*
X062243Y034727D02*
X062243Y034507D01*
X062349Y034625D02*
X062129Y034625D01*
X067521Y034311D02*
X068729Y034311D01*
X068729Y034939D01*
X067521Y034939D01*
X067521Y034311D01*
X067743Y034507D02*
X067743Y034727D01*
X067849Y034625D02*
X067629Y034625D01*
X067521Y036311D02*
X068729Y036311D01*
X068729Y036939D01*
X067521Y036939D01*
X067521Y036311D01*
X067743Y036507D02*
X067743Y036727D01*
X067849Y036625D02*
X067629Y036625D01*
D16*
X071380Y027780D02*
X071380Y027755D01*
X071430Y027705D01*
X071430Y027630D01*
X071430Y027705D02*
X071480Y027755D01*
X071480Y027780D01*
X071527Y027755D02*
X071552Y027780D01*
X071602Y027780D01*
X071627Y027755D01*
X071627Y027730D01*
X071527Y027630D01*
X071627Y027630D01*
X074720Y027167D02*
X074720Y027067D01*
X074795Y027067D01*
X074770Y027117D01*
X074770Y027142D01*
X074795Y027167D01*
X074845Y027167D01*
X074870Y027142D01*
X074870Y027092D01*
X074845Y027067D01*
X074795Y027020D02*
X074820Y026995D01*
X074820Y026920D01*
X074870Y026920D02*
X074720Y026920D01*
X074720Y026995D01*
X074745Y027020D01*
X074795Y027020D01*
X074720Y026873D02*
X074720Y026823D01*
X074720Y026848D02*
X074845Y026848D01*
X074870Y026823D01*
X074870Y026798D01*
X074845Y026773D01*
X070155Y017642D02*
X070083Y017642D01*
X070065Y017624D01*
X070065Y017587D01*
X070083Y017569D01*
X070101Y017569D01*
X070119Y017587D01*
X070119Y017642D01*
X070155Y017642D02*
X070173Y017624D01*
X070173Y017587D01*
X070155Y017569D01*
X070173Y017533D02*
X070137Y017497D01*
X070137Y017515D02*
X070137Y017461D01*
X070173Y017461D02*
X070065Y017461D01*
X070065Y017515D01*
X070083Y017533D01*
X070119Y017533D01*
X070137Y017515D01*
X068048Y013875D02*
X068048Y013803D01*
X068048Y013839D02*
X067940Y013839D01*
X067976Y013803D01*
X068048Y013767D02*
X068048Y013694D01*
X068048Y013658D02*
X068012Y013622D01*
X068012Y013640D02*
X068012Y013586D01*
X068048Y013586D02*
X067940Y013586D01*
X067940Y013640D01*
X067958Y013658D01*
X067994Y013658D01*
X068012Y013640D01*
X067976Y013694D02*
X067940Y013731D01*
X068048Y013731D01*
X063377Y015505D02*
X063277Y015505D01*
X063327Y015505D02*
X063327Y015655D01*
X063277Y015605D01*
X063230Y015630D02*
X063230Y015655D01*
X063230Y015630D02*
X063180Y015580D01*
X063180Y015505D01*
X063180Y015580D02*
X063130Y015630D01*
X063130Y015655D01*
D17*
X062665Y015015D02*
X062665Y014735D01*
X062330Y014735D02*
X062330Y015015D01*
X061980Y015057D02*
X061980Y015211D01*
X061903Y015287D01*
X061750Y015287D01*
X061673Y015211D01*
X061673Y015134D01*
X061750Y014980D01*
X061520Y014980D01*
X061520Y015287D01*
X061596Y014827D02*
X061520Y014750D01*
X061520Y014597D01*
X061596Y014520D01*
X061903Y014520D01*
X061980Y014597D01*
X061980Y014750D01*
X061903Y014827D01*
X061903Y014980D02*
X061980Y015057D01*
X065585Y015015D02*
X065585Y014735D01*
X065920Y014735D02*
X065920Y015015D01*
X066335Y015015D02*
X066335Y014735D01*
X066670Y014735D02*
X066670Y015015D01*
X066653Y013867D02*
X066577Y013867D01*
X066500Y013790D01*
X066500Y013560D01*
X066653Y013560D01*
X066730Y013636D01*
X066730Y013790D01*
X066653Y013867D01*
X066346Y013713D02*
X066270Y013867D01*
X066346Y013713D02*
X066500Y013560D01*
X066730Y013406D02*
X066730Y013099D01*
X066730Y013253D02*
X066270Y013253D01*
X066423Y013099D01*
X066346Y012946D02*
X066270Y012869D01*
X066270Y012716D01*
X066346Y012639D01*
X066653Y012639D01*
X066730Y012716D01*
X066730Y012869D01*
X066653Y012946D01*
X066105Y013051D02*
X066105Y013204D01*
X066028Y013281D01*
X065875Y013435D02*
X065875Y013742D01*
X066105Y013665D02*
X065645Y013665D01*
X065875Y013435D01*
X065721Y013281D02*
X065645Y013204D01*
X065645Y013051D01*
X065721Y012974D01*
X066028Y012974D01*
X066105Y013051D01*
X068795Y016870D02*
X069102Y016870D01*
X069255Y016870D02*
X069562Y016870D01*
X069409Y016870D02*
X069409Y017330D01*
X069255Y017177D01*
X068795Y017330D02*
X068795Y016870D01*
X068860Y018335D02*
X069140Y018335D01*
X069140Y018670D02*
X068860Y018670D01*
X069770Y018972D02*
X069847Y018895D01*
X070000Y018895D01*
X070077Y018972D01*
X070230Y018895D02*
X070537Y018895D01*
X070384Y018895D02*
X070384Y019355D01*
X070230Y019202D01*
X070077Y019279D02*
X070000Y019355D01*
X069847Y019355D01*
X069770Y019279D01*
X069770Y018972D01*
X069140Y019210D02*
X068860Y019210D01*
X068860Y019545D02*
X069140Y019545D01*
X069287Y019895D02*
X068980Y019895D01*
X069287Y020202D01*
X069287Y020279D01*
X069211Y020355D01*
X069057Y020355D01*
X068980Y020279D01*
X068827Y020279D02*
X068750Y020355D01*
X068597Y020355D01*
X068520Y020279D01*
X068520Y019972D01*
X068597Y019895D01*
X068750Y019895D01*
X068827Y019972D01*
X069441Y019895D02*
X069748Y019895D01*
X069594Y019895D02*
X069594Y020355D01*
X069441Y020202D01*
X070691Y019279D02*
X070691Y019202D01*
X070768Y019125D01*
X070998Y019125D01*
X070998Y018972D02*
X070998Y019279D01*
X070921Y019355D01*
X070768Y019355D01*
X070691Y019279D01*
X070691Y018972D02*
X070768Y018895D01*
X070921Y018895D01*
X070998Y018972D01*
X074139Y019895D02*
X074139Y020355D01*
X074369Y020355D01*
X074446Y020279D01*
X074446Y020125D01*
X074369Y020048D01*
X074139Y020048D01*
X074292Y020048D02*
X074446Y019895D01*
X074599Y019895D02*
X074906Y019895D01*
X074753Y019895D02*
X074753Y020355D01*
X074599Y020202D01*
X075060Y020125D02*
X075213Y020202D01*
X075290Y020202D01*
X075367Y020125D01*
X075367Y019972D01*
X075290Y019895D01*
X075136Y019895D01*
X075060Y019972D01*
X075060Y020125D02*
X075060Y020355D01*
X075367Y020355D01*
X076895Y020716D02*
X076895Y020869D01*
X076971Y020946D01*
X077048Y021099D02*
X076895Y021253D01*
X077355Y021253D01*
X077355Y021406D02*
X077355Y021099D01*
X077278Y020946D02*
X077355Y020869D01*
X077355Y020716D01*
X077278Y020639D01*
X076971Y020639D01*
X076895Y020716D01*
X076295Y021235D02*
X076295Y021515D01*
X075960Y021515D02*
X075960Y021235D01*
X076895Y021636D02*
X076971Y021560D01*
X077278Y021560D01*
X076971Y021867D01*
X077278Y021867D01*
X077355Y021790D01*
X077355Y021636D01*
X077278Y021560D01*
X076895Y021636D02*
X076895Y021790D01*
X076971Y021867D01*
X074778Y026349D02*
X074855Y026426D01*
X074855Y026579D01*
X074778Y026656D01*
X074855Y026810D02*
X074548Y027117D01*
X074471Y027117D01*
X074395Y027040D01*
X074395Y026886D01*
X074471Y026810D01*
X074471Y026656D02*
X074395Y026579D01*
X074395Y026426D01*
X074471Y026349D01*
X074778Y026349D01*
X074855Y026810D02*
X074855Y027117D01*
X074170Y027015D02*
X074170Y026735D01*
X073835Y026735D02*
X073835Y027015D01*
X073640Y028330D02*
X073360Y028330D01*
X073360Y028665D02*
X073640Y028665D01*
X074224Y028654D02*
X074224Y028347D01*
X074301Y028270D01*
X074454Y028270D01*
X074531Y028347D01*
X074685Y028347D02*
X074761Y028270D01*
X074915Y028270D01*
X074992Y028347D01*
X074992Y028423D01*
X074915Y028500D01*
X074685Y028500D01*
X074685Y028347D01*
X074685Y028500D02*
X074838Y028654D01*
X074992Y028730D01*
X074531Y028654D02*
X074454Y028730D01*
X074301Y028730D01*
X074224Y028654D01*
X071605Y028599D02*
X071145Y028599D01*
X071145Y028829D01*
X071221Y028906D01*
X071375Y028906D01*
X071452Y028829D01*
X071452Y028599D01*
X071452Y028753D02*
X071605Y028906D01*
X071375Y029060D02*
X071375Y029367D01*
X071605Y029290D02*
X071145Y029290D01*
X071375Y029060D01*
X070790Y027015D02*
X070790Y026735D01*
X070455Y026735D02*
X070455Y027015D01*
X070105Y027057D02*
X070028Y026980D01*
X070105Y027057D02*
X070105Y027211D01*
X070028Y027287D01*
X069952Y027287D01*
X069875Y027211D01*
X069875Y027134D01*
X069875Y027211D02*
X069798Y027287D01*
X069721Y027287D01*
X069645Y027211D01*
X069645Y027057D01*
X069721Y026980D01*
X069721Y026827D02*
X069645Y026750D01*
X069645Y026597D01*
X069721Y026520D01*
X070028Y026520D01*
X070105Y026597D01*
X070105Y026750D01*
X070028Y026827D01*
X066980Y024540D02*
X066980Y024386D01*
X066903Y024310D01*
X066750Y024310D02*
X066673Y024463D01*
X066673Y024540D01*
X066750Y024617D01*
X066903Y024617D01*
X066980Y024540D01*
X066750Y024310D02*
X066520Y024310D01*
X066520Y024617D01*
X066105Y024537D02*
X066105Y024230D01*
X065798Y024537D01*
X065721Y024537D01*
X065645Y024461D01*
X065645Y024307D01*
X065721Y024230D01*
X065721Y024077D02*
X065645Y024000D01*
X065645Y023847D01*
X065721Y023770D01*
X066028Y023770D01*
X066105Y023847D01*
X066105Y024000D01*
X066028Y024077D01*
X066520Y024079D02*
X066520Y023849D01*
X066980Y023849D01*
X066827Y023849D02*
X066827Y024079D01*
X066750Y024156D01*
X066596Y024156D01*
X066520Y024079D01*
X066827Y024003D02*
X066980Y024156D01*
X066105Y024768D02*
X066028Y024691D01*
X065721Y024998D01*
X066028Y024998D01*
X066105Y024921D01*
X066105Y024768D01*
X066028Y024691D02*
X065721Y024691D01*
X065645Y024768D01*
X065645Y024921D01*
X065721Y024998D01*
X065230Y024790D02*
X064770Y024790D01*
X065000Y024560D01*
X065000Y024867D01*
X065230Y024406D02*
X065230Y024099D01*
X065230Y023946D02*
X065077Y023792D01*
X065077Y023869D02*
X065077Y023639D01*
X065230Y023639D02*
X064770Y023639D01*
X064770Y023869D01*
X064846Y023946D01*
X065000Y023946D01*
X065077Y023869D01*
X064923Y024099D02*
X064770Y024253D01*
X065230Y024253D01*
X064255Y024227D02*
X064255Y023920D01*
X063795Y023920D01*
X063871Y024380D02*
X063795Y024457D01*
X063795Y024611D01*
X063871Y024687D01*
X063948Y024687D01*
X064255Y024380D01*
X064255Y024687D01*
X063355Y024634D02*
X062895Y024634D01*
X063048Y024480D01*
X062971Y024327D02*
X062895Y024250D01*
X062895Y024097D01*
X062971Y024020D01*
X063278Y024020D01*
X063355Y024097D01*
X063355Y024250D01*
X063278Y024327D01*
X063355Y024480D02*
X063355Y024787D01*
X062105Y025176D02*
X062105Y025329D01*
X062028Y025406D01*
X062028Y025560D02*
X062105Y025560D01*
X062028Y025560D02*
X061721Y025867D01*
X061645Y025867D01*
X061645Y025560D01*
X061721Y025406D02*
X061645Y025329D01*
X061645Y025176D01*
X061721Y025099D01*
X062028Y025099D01*
X062105Y025176D01*
X061170Y025485D02*
X061170Y025765D01*
X060835Y025765D02*
X060835Y025485D01*
X063080Y023140D02*
X063080Y022860D01*
X063415Y022860D02*
X063415Y023140D01*
X065705Y023140D02*
X065705Y022860D01*
X066040Y022860D02*
X066040Y023140D01*
X061367Y018779D02*
X061290Y018855D01*
X061136Y018855D01*
X061060Y018779D01*
X061060Y018702D01*
X061136Y018625D01*
X061290Y018625D01*
X061367Y018548D01*
X061367Y018472D01*
X061290Y018395D01*
X061136Y018395D01*
X061060Y018472D01*
X061060Y018548D01*
X061136Y018625D01*
X061290Y018625D02*
X061367Y018702D01*
X061367Y018779D01*
X060906Y018395D02*
X060599Y018395D01*
X060753Y018395D02*
X060753Y018855D01*
X060599Y018702D01*
X060446Y018779D02*
X060369Y018855D01*
X060216Y018855D01*
X060139Y018779D01*
X060139Y018472D01*
X060216Y018395D01*
X060369Y018395D01*
X060446Y018472D01*
X061235Y018040D02*
X061515Y018040D01*
X061515Y017705D02*
X061235Y017705D01*
X052355Y027639D02*
X051895Y027639D01*
X051895Y027869D01*
X051971Y027946D01*
X052125Y027946D01*
X052202Y027869D01*
X052202Y027639D01*
X052202Y027792D02*
X052355Y027946D01*
X052355Y028099D02*
X052355Y028406D01*
X052355Y028253D02*
X051895Y028253D01*
X052048Y028099D01*
X052048Y028560D02*
X051971Y028560D01*
X051895Y028636D01*
X051895Y028790D01*
X051971Y028867D01*
X052048Y028867D01*
X052125Y028790D01*
X052125Y028636D01*
X052048Y028560D01*
X052125Y028636D02*
X052202Y028560D01*
X052278Y028560D01*
X052355Y028636D01*
X052355Y028790D01*
X052278Y028867D01*
X052202Y028867D01*
X052125Y028790D01*
X049855Y028665D02*
X049855Y028511D01*
X049778Y028435D01*
X049855Y028281D02*
X049702Y028128D01*
X049702Y028204D02*
X049702Y027974D01*
X049855Y027974D02*
X049395Y027974D01*
X049395Y028204D01*
X049471Y028281D01*
X049625Y028281D01*
X049702Y028204D01*
X049471Y028435D02*
X049395Y028511D01*
X049395Y028665D01*
X049471Y028742D01*
X049548Y028742D01*
X049625Y028665D01*
X049702Y028742D01*
X049778Y028742D01*
X049855Y028665D01*
X049625Y028665D02*
X049625Y028588D01*
X049605Y034145D02*
X049145Y034145D01*
X049145Y034375D01*
X049221Y034452D01*
X049375Y034452D01*
X049452Y034375D01*
X049452Y034145D01*
X049452Y034298D02*
X049605Y034452D01*
X049605Y034605D02*
X049605Y034912D01*
X049605Y034759D02*
X049145Y034759D01*
X049298Y034605D01*
X062395Y033779D02*
X062395Y033472D01*
X062472Y033395D01*
X062625Y033395D01*
X062702Y033472D01*
X062855Y033472D02*
X062932Y033395D01*
X063086Y033395D01*
X063162Y033472D01*
X063162Y033779D01*
X063086Y033855D01*
X062932Y033855D01*
X062855Y033779D01*
X062855Y033702D01*
X062932Y033625D01*
X063162Y033625D01*
X062702Y033779D02*
X062625Y033855D01*
X062472Y033855D01*
X062395Y033779D01*
X067645Y033779D02*
X067645Y033472D01*
X067722Y033395D01*
X067875Y033395D01*
X067952Y033472D01*
X068105Y033395D02*
X068412Y033395D01*
X068259Y033395D02*
X068259Y033855D01*
X068105Y033702D01*
X067952Y033779D02*
X067875Y033855D01*
X067722Y033855D01*
X067645Y033779D01*
X068566Y033855D02*
X068566Y033625D01*
X068719Y033702D01*
X068796Y033702D01*
X068873Y033625D01*
X068873Y033472D01*
X068796Y033395D01*
X068643Y033395D01*
X068566Y033472D01*
X068566Y033855D02*
X068873Y033855D01*
X068796Y037520D02*
X068643Y037520D01*
X068566Y037597D01*
X068412Y037520D02*
X068105Y037520D01*
X068259Y037520D02*
X068259Y037980D01*
X068105Y037827D01*
X067952Y037904D02*
X067875Y037980D01*
X067722Y037980D01*
X067645Y037904D01*
X067645Y037597D01*
X067722Y037520D01*
X067875Y037520D01*
X067952Y037597D01*
X068566Y037904D02*
X068643Y037980D01*
X068796Y037980D01*
X068873Y037904D01*
X068873Y037827D01*
X068796Y037750D01*
X068873Y037673D01*
X068873Y037597D01*
X068796Y037520D01*
X068796Y037750D02*
X068719Y037750D01*
X063162Y037673D02*
X063162Y037597D01*
X063086Y037520D01*
X062932Y037520D01*
X062855Y037597D01*
X062855Y037673D01*
X062932Y037750D01*
X063086Y037750D01*
X063162Y037673D01*
X063086Y037750D02*
X063162Y037827D01*
X063162Y037904D01*
X063086Y037980D01*
X062932Y037980D01*
X062855Y037904D01*
X062855Y037827D01*
X062932Y037750D01*
X062702Y037597D02*
X062625Y037520D01*
X062472Y037520D01*
X062395Y037597D01*
X062395Y037904D01*
X062472Y037980D01*
X062625Y037980D01*
X062702Y037904D01*
X025208Y008458D02*
X025208Y007998D01*
X025208Y008228D02*
X024901Y008228D01*
X024747Y008075D02*
X024670Y007998D01*
X024517Y007998D01*
X024440Y008075D01*
X024440Y008382D01*
X024517Y008458D01*
X024670Y008458D01*
X024747Y008382D01*
X024901Y008458D02*
X024901Y007998D01*
X024287Y007998D02*
X023980Y007998D01*
X023980Y008458D01*
X024287Y008458D01*
X024133Y008228D02*
X023980Y008228D01*
X023826Y008458D02*
X023519Y008458D01*
X023366Y008458D02*
X023366Y007998D01*
X023059Y008458D01*
X023059Y007998D01*
X022906Y007998D02*
X022906Y008458D01*
X022599Y008458D02*
X022599Y007998D01*
X022445Y007998D02*
X022138Y007998D01*
X022138Y008458D01*
X022445Y008458D01*
X022599Y008458D02*
X022906Y007998D01*
X022292Y008228D02*
X022138Y008228D01*
X021908Y008075D02*
X021908Y008458D01*
X021831Y008458D02*
X021985Y008458D01*
X021908Y008075D02*
X021831Y007998D01*
X021755Y007998D01*
X021678Y008075D01*
X023673Y007998D02*
X023673Y008458D01*
X068895Y006992D02*
X068895Y006685D01*
X068971Y006531D02*
X069125Y006531D01*
X069202Y006454D01*
X069202Y006224D01*
X069355Y006224D02*
X068895Y006224D01*
X068895Y006454D01*
X068971Y006531D01*
X069202Y006378D02*
X069355Y006531D01*
X069355Y006685D02*
X069278Y006685D01*
X068971Y006992D01*
X068895Y006992D01*
D18*
X066502Y014647D03*
X065752Y014647D03*
X065752Y015107D03*
X066502Y015107D03*
X062498Y015103D03*
X062498Y014643D03*
X076127Y021147D03*
X076127Y021607D03*
X074002Y026647D03*
X074002Y027107D03*
X070623Y027103D03*
X070623Y026643D03*
X065873Y023228D03*
X065873Y022768D03*
X063248Y022768D03*
X063248Y023228D03*
X061002Y025397D03*
X061002Y025857D03*
D19*
X073272Y028498D03*
X073732Y028498D03*
X069228Y019377D03*
X068768Y019377D03*
X068768Y018502D03*
X069228Y018502D03*
X061607Y017873D03*
X061147Y017873D03*
D20*
X064125Y022750D03*
X065000Y022750D03*
X065000Y023250D03*
X064125Y023250D03*
X066750Y023250D03*
X066750Y022750D03*
X072125Y028875D03*
X072125Y029375D03*
X051375Y028625D03*
X050375Y028625D03*
X050375Y028125D03*
X051375Y028125D03*
X049500Y032875D03*
X049500Y033375D03*
X068250Y007000D03*
X068250Y006500D03*
D21*
X068750Y017750D03*
X069250Y017750D03*
X076125Y020125D03*
X076625Y020125D03*
D22*
X058939Y024475D02*
X058939Y026672D01*
X072475Y030311D02*
X074672Y030311D01*
X023184Y009777D02*
X023314Y009826D01*
X023342Y009758D01*
X023373Y009693D01*
X023408Y009629D01*
X023446Y009567D01*
X023487Y009507D01*
X023532Y009449D01*
X023579Y009393D01*
X023629Y009340D01*
X023681Y009290D01*
X023737Y009243D01*
X023794Y009198D01*
X023854Y009156D01*
X023916Y009118D01*
X023980Y009083D01*
X024045Y009051D01*
X024112Y009023D01*
X024181Y008998D01*
X024251Y008977D01*
X024321Y008959D01*
X024393Y008945D01*
X024465Y008935D01*
X024537Y008929D01*
X024610Y008926D01*
X024683Y008927D01*
X024756Y008932D01*
X024828Y008941D01*
X024900Y008953D01*
X024971Y008969D01*
X025041Y008989D01*
X025110Y009012D01*
X025159Y008882D01*
X025159Y008881D01*
X025086Y008856D01*
X025011Y008835D01*
X024936Y008818D01*
X024859Y008804D01*
X024782Y008794D01*
X024705Y008788D01*
X024627Y008786D01*
X024550Y008788D01*
X024472Y008794D01*
X024395Y008803D01*
X024319Y008817D01*
X024243Y008834D01*
X024169Y008855D01*
X024095Y008880D01*
X024023Y008908D01*
X023952Y008940D01*
X023883Y008976D01*
X023816Y009015D01*
X023751Y009057D01*
X023688Y009102D01*
X023628Y009151D01*
X023570Y009202D01*
X023515Y009257D01*
X023462Y009314D01*
X023413Y009373D01*
X023366Y009435D01*
X023323Y009500D01*
X023283Y009566D01*
X023246Y009635D01*
X023213Y009705D01*
X023183Y009776D01*
X023200Y009783D01*
X023229Y009712D01*
X023262Y009643D01*
X023298Y009575D01*
X023338Y009509D01*
X023381Y009446D01*
X023427Y009385D01*
X023476Y009326D01*
X023528Y009269D01*
X023582Y009215D01*
X023640Y009164D01*
X023699Y009117D01*
X023762Y009072D01*
X023826Y009030D01*
X023892Y008991D01*
X023960Y008956D01*
X024030Y008925D01*
X024101Y008897D01*
X024174Y008872D01*
X024248Y008851D01*
X024323Y008834D01*
X024398Y008821D01*
X024474Y008811D01*
X024551Y008806D01*
X024627Y008804D01*
X024704Y008806D01*
X024780Y008812D01*
X024856Y008822D01*
X024932Y008835D01*
X025006Y008852D01*
X025080Y008873D01*
X025153Y008898D01*
X025146Y008915D01*
X025075Y008891D01*
X025002Y008870D01*
X024928Y008853D01*
X024854Y008839D01*
X024778Y008830D01*
X024703Y008824D01*
X024627Y008822D01*
X024551Y008824D01*
X024476Y008829D01*
X024401Y008839D01*
X024326Y008852D01*
X024252Y008869D01*
X024179Y008889D01*
X024108Y008913D01*
X024037Y008941D01*
X023968Y008972D01*
X023901Y009007D01*
X023835Y009045D01*
X023772Y009086D01*
X023710Y009131D01*
X023651Y009178D01*
X023595Y009229D01*
X023541Y009282D01*
X023489Y009337D01*
X023441Y009396D01*
X023395Y009456D01*
X023353Y009519D01*
X023314Y009584D01*
X023278Y009651D01*
X023246Y009719D01*
X023217Y009789D01*
X023234Y009795D01*
X023262Y009726D01*
X023294Y009659D01*
X023330Y009593D01*
X023368Y009529D01*
X023410Y009467D01*
X023455Y009407D01*
X023503Y009349D01*
X023554Y009294D01*
X023607Y009242D01*
X023663Y009192D01*
X023721Y009145D01*
X023782Y009101D01*
X023845Y009060D01*
X023909Y009023D01*
X023976Y008989D01*
X024044Y008958D01*
X024114Y008930D01*
X024185Y008907D01*
X024257Y008886D01*
X024330Y008870D01*
X024403Y008857D01*
X024478Y008847D01*
X024552Y008842D01*
X024627Y008840D01*
X024702Y008842D01*
X024776Y008848D01*
X024851Y008857D01*
X024924Y008870D01*
X024997Y008887D01*
X025069Y008908D01*
X025140Y008932D01*
X025134Y008949D01*
X025061Y008924D01*
X024988Y008903D01*
X024913Y008887D01*
X024838Y008874D01*
X024762Y008864D01*
X024686Y008859D01*
X024610Y008858D01*
X024533Y008861D01*
X024457Y008868D01*
X024382Y008878D01*
X024307Y008893D01*
X024233Y008911D01*
X024159Y008934D01*
X024088Y008960D01*
X024017Y008989D01*
X023949Y009023D01*
X023882Y009059D01*
X023817Y009100D01*
X023754Y009143D01*
X023694Y009190D01*
X023636Y009240D01*
X023580Y009293D01*
X023528Y009348D01*
X023478Y009406D01*
X023432Y009467D01*
X023389Y009530D01*
X023349Y009595D01*
X023313Y009662D01*
X023280Y009731D01*
X023250Y009802D01*
X023267Y009808D01*
X023296Y009738D01*
X023329Y009670D01*
X023365Y009604D01*
X023404Y009540D01*
X023447Y009477D01*
X023493Y009417D01*
X023541Y009360D01*
X023593Y009305D01*
X023648Y009253D01*
X023705Y009204D01*
X023765Y009158D01*
X023827Y009115D01*
X023891Y009075D01*
X023957Y009039D01*
X024025Y009006D01*
X024094Y008976D01*
X024165Y008951D01*
X024237Y008929D01*
X024311Y008910D01*
X024385Y008896D01*
X024459Y008885D01*
X024534Y008879D01*
X024610Y008876D01*
X024685Y008877D01*
X024761Y008882D01*
X024835Y008891D01*
X024910Y008904D01*
X024983Y008921D01*
X025056Y008941D01*
X025127Y008966D01*
X025121Y008982D01*
X025051Y008958D01*
X024979Y008938D01*
X024906Y008922D01*
X024833Y008909D01*
X024759Y008900D01*
X024684Y008895D01*
X024610Y008894D01*
X024535Y008897D01*
X024461Y008903D01*
X024388Y008914D01*
X024314Y008928D01*
X024242Y008946D01*
X024171Y008968D01*
X024101Y008993D01*
X024032Y009022D01*
X023965Y009055D01*
X023900Y009090D01*
X023836Y009130D01*
X023775Y009172D01*
X023716Y009218D01*
X023660Y009266D01*
X023606Y009318D01*
X023555Y009372D01*
X023507Y009429D01*
X023461Y009488D01*
X023419Y009549D01*
X023380Y009613D01*
X023345Y009678D01*
X023313Y009746D01*
X023284Y009814D01*
X023301Y009821D01*
X023329Y009753D01*
X023361Y009686D01*
X023396Y009622D01*
X023434Y009559D01*
X023476Y009498D01*
X023521Y009440D01*
X023568Y009384D01*
X023619Y009330D01*
X023672Y009280D01*
X023728Y009232D01*
X023786Y009187D01*
X023846Y009145D01*
X023909Y009106D01*
X023973Y009070D01*
X024040Y009038D01*
X024107Y009010D01*
X024176Y008985D01*
X024247Y008963D01*
X024318Y008946D01*
X024390Y008932D01*
X024463Y008921D01*
X024537Y008915D01*
X024610Y008912D01*
X024684Y008913D01*
X024757Y008918D01*
X024830Y008927D01*
X024903Y008939D01*
X024974Y008956D01*
X025045Y008976D01*
X025115Y008999D01*
X025171Y008893D02*
X025033Y008870D01*
X025034Y008870D02*
X025019Y008939D01*
X025002Y009007D01*
X024980Y009074D01*
X024956Y009140D01*
X024928Y009205D01*
X024896Y009268D01*
X024862Y009329D01*
X024824Y009389D01*
X024784Y009446D01*
X024740Y009501D01*
X024694Y009554D01*
X024645Y009605D01*
X024593Y009653D01*
X024539Y009698D01*
X024483Y009741D01*
X024425Y009780D01*
X024364Y009816D01*
X024302Y009850D01*
X024364Y009975D01*
X024429Y009940D01*
X024493Y009903D01*
X024554Y009862D01*
X024613Y009818D01*
X024670Y009772D01*
X024725Y009722D01*
X024777Y009670D01*
X024827Y009616D01*
X024873Y009559D01*
X024917Y009500D01*
X024959Y009439D01*
X024997Y009376D01*
X025032Y009311D01*
X025063Y009245D01*
X025092Y009177D01*
X025117Y009108D01*
X025139Y009037D01*
X025157Y008966D01*
X025172Y008894D01*
X025154Y008891D01*
X025139Y008962D01*
X025121Y009033D01*
X025100Y009102D01*
X025075Y009170D01*
X025047Y009237D01*
X025016Y009303D01*
X024981Y009367D01*
X024943Y009429D01*
X024903Y009490D01*
X024859Y009548D01*
X024813Y009604D01*
X024764Y009658D01*
X024712Y009709D01*
X024658Y009758D01*
X024602Y009804D01*
X024544Y009847D01*
X024483Y009887D01*
X024421Y009925D01*
X024356Y009959D01*
X024348Y009943D01*
X024415Y009907D01*
X024480Y009868D01*
X024543Y009825D01*
X024604Y009780D01*
X024662Y009731D01*
X024717Y009679D01*
X024770Y009625D01*
X024820Y009568D01*
X024867Y009508D01*
X024911Y009446D01*
X024951Y009382D01*
X024988Y009316D01*
X025022Y009248D01*
X025052Y009179D01*
X025079Y009108D01*
X025102Y009035D01*
X025121Y008962D01*
X025136Y008888D01*
X025118Y008885D01*
X025103Y008958D01*
X025084Y009031D01*
X025062Y009102D01*
X025036Y009172D01*
X025006Y009241D01*
X024973Y009308D01*
X024936Y009373D01*
X024896Y009436D01*
X024853Y009498D01*
X024806Y009556D01*
X024757Y009613D01*
X024705Y009667D01*
X024650Y009718D01*
X024592Y009766D01*
X024533Y009811D01*
X024471Y009853D01*
X024406Y009891D01*
X024340Y009927D01*
X024332Y009911D01*
X024398Y009876D01*
X024461Y009837D01*
X024522Y009796D01*
X024581Y009752D01*
X024638Y009704D01*
X024692Y009654D01*
X024744Y009601D01*
X024792Y009545D01*
X024838Y009487D01*
X024881Y009426D01*
X024920Y009364D01*
X024957Y009300D01*
X024989Y009233D01*
X025019Y009165D01*
X025045Y009096D01*
X025067Y009026D01*
X025086Y008954D01*
X025101Y008882D01*
X025083Y008879D01*
X025068Y008950D01*
X025050Y009021D01*
X025028Y009090D01*
X025002Y009159D01*
X024973Y009226D01*
X024941Y009291D01*
X024905Y009355D01*
X024866Y009416D01*
X024824Y009476D01*
X024779Y009533D01*
X024730Y009588D01*
X024680Y009641D01*
X024626Y009691D01*
X024570Y009737D01*
X024512Y009781D01*
X024451Y009822D01*
X024389Y009860D01*
X024324Y009894D01*
X024317Y009878D01*
X024380Y009844D01*
X024442Y009807D01*
X024501Y009767D01*
X024559Y009723D01*
X024614Y009677D01*
X024667Y009628D01*
X024717Y009576D01*
X024765Y009522D01*
X024809Y009465D01*
X024851Y009406D01*
X024889Y009346D01*
X024925Y009283D01*
X024957Y009218D01*
X024985Y009152D01*
X025011Y009085D01*
X025032Y009016D01*
X025051Y008946D01*
X025065Y008876D01*
X025047Y008872D01*
X025033Y008942D01*
X025015Y009011D01*
X024994Y009079D01*
X024969Y009145D01*
X024940Y009211D01*
X024909Y009274D01*
X024874Y009336D01*
X024836Y009396D01*
X024795Y009455D01*
X024751Y009510D01*
X024704Y009564D01*
X024654Y009615D01*
X024602Y009663D01*
X024548Y009709D01*
X024491Y009752D01*
X024432Y009792D01*
X024371Y009829D01*
X024309Y009862D01*
X023619Y011556D02*
X023705Y011445D01*
X023704Y011446D02*
X023651Y011401D01*
X023599Y011354D01*
X023551Y011304D01*
X023505Y011251D01*
X023461Y011196D01*
X023421Y011139D01*
X023384Y011080D01*
X023350Y011019D01*
X023319Y010957D01*
X023292Y010893D01*
X023268Y010827D01*
X023247Y010760D01*
X023230Y010693D01*
X023216Y010624D01*
X023206Y010555D01*
X023200Y010486D01*
X023197Y010416D01*
X023198Y010346D01*
X023203Y010277D01*
X023064Y010263D01*
X023063Y010263D01*
X023058Y010336D01*
X023057Y010409D01*
X023059Y010483D01*
X023065Y010556D01*
X023075Y010628D01*
X023088Y010701D01*
X023105Y010772D01*
X023125Y010842D01*
X023149Y010912D01*
X023176Y010980D01*
X023207Y011047D01*
X023241Y011112D01*
X023278Y011175D01*
X023318Y011236D01*
X023361Y011296D01*
X023407Y011353D01*
X023456Y011408D01*
X023508Y011460D01*
X023562Y011509D01*
X023618Y011556D01*
X023629Y011542D01*
X023573Y011496D01*
X023520Y011447D01*
X023469Y011395D01*
X023421Y011341D01*
X023375Y011285D01*
X023333Y011226D01*
X023293Y011166D01*
X023257Y011103D01*
X023223Y011039D01*
X023193Y010973D01*
X023166Y010906D01*
X023142Y010837D01*
X023122Y010767D01*
X023106Y010697D01*
X023093Y010626D01*
X023083Y010554D01*
X023077Y010482D01*
X023075Y010409D01*
X023076Y010337D01*
X023081Y010264D01*
X023099Y010266D01*
X023094Y010338D01*
X023093Y010409D01*
X023095Y010481D01*
X023101Y010552D01*
X023111Y010623D01*
X023123Y010693D01*
X023140Y010763D01*
X023160Y010832D01*
X023183Y010899D01*
X023209Y010966D01*
X023239Y011031D01*
X023272Y011094D01*
X023308Y011156D01*
X023348Y011216D01*
X023390Y011274D01*
X023435Y011329D01*
X023482Y011383D01*
X023533Y011434D01*
X023585Y011482D01*
X023640Y011528D01*
X023651Y011514D01*
X023594Y011466D01*
X023540Y011416D01*
X023488Y011362D01*
X023439Y011306D01*
X023393Y011248D01*
X023350Y011187D01*
X023310Y011124D01*
X023274Y011059D01*
X023241Y010993D01*
X023212Y010924D01*
X023186Y010855D01*
X023164Y010784D01*
X023146Y010711D01*
X023131Y010639D01*
X023121Y010565D01*
X023114Y010491D01*
X023111Y010417D01*
X023112Y010342D01*
X023117Y010268D01*
X023135Y010270D01*
X023130Y010343D01*
X023129Y010416D01*
X023132Y010490D01*
X023139Y010563D01*
X023149Y010636D01*
X023163Y010708D01*
X023181Y010779D01*
X023203Y010849D01*
X023228Y010918D01*
X023257Y010985D01*
X023290Y011051D01*
X023326Y011115D01*
X023365Y011177D01*
X023407Y011237D01*
X023453Y011295D01*
X023501Y011350D01*
X023552Y011403D01*
X023606Y011453D01*
X023662Y011499D01*
X023673Y011485D01*
X023618Y011439D01*
X023565Y011390D01*
X023514Y011338D01*
X023466Y011283D01*
X023422Y011226D01*
X023380Y011167D01*
X023341Y011106D01*
X023306Y011043D01*
X023274Y010978D01*
X023245Y010911D01*
X023220Y010843D01*
X023199Y010774D01*
X023181Y010704D01*
X023167Y010633D01*
X023156Y010561D01*
X023150Y010489D01*
X023147Y010416D01*
X023148Y010344D01*
X023153Y010272D01*
X023171Y010273D01*
X023166Y010345D01*
X023165Y010416D01*
X023168Y010488D01*
X023174Y010559D01*
X023185Y010630D01*
X023199Y010700D01*
X023216Y010769D01*
X023237Y010837D01*
X023262Y010904D01*
X023290Y010970D01*
X023322Y011034D01*
X023357Y011097D01*
X023395Y011157D01*
X023436Y011216D01*
X023480Y011272D01*
X023527Y011326D01*
X023577Y011377D01*
X023630Y011425D01*
X023684Y011471D01*
X023696Y011457D01*
X023641Y011412D01*
X023590Y011364D01*
X023540Y011313D01*
X023494Y011260D01*
X023450Y011205D01*
X023410Y011147D01*
X023372Y011087D01*
X023338Y011026D01*
X023306Y010963D01*
X023279Y010898D01*
X023254Y010832D01*
X023233Y010764D01*
X023216Y010696D01*
X023202Y010627D01*
X023192Y010557D01*
X023186Y010487D01*
X023183Y010416D01*
X023184Y010346D01*
X023189Y010275D01*
X022107Y008883D02*
X022158Y009014D01*
X022157Y009013D02*
X022225Y008989D01*
X022294Y008969D01*
X022365Y008952D01*
X022436Y008939D01*
X022507Y008929D01*
X022579Y008924D01*
X022651Y008922D01*
X022724Y008924D01*
X022796Y008930D01*
X022867Y008939D01*
X022938Y008953D01*
X023008Y008970D01*
X023078Y008991D01*
X023146Y009015D01*
X023212Y009043D01*
X023277Y009074D01*
X023341Y009109D01*
X023402Y009147D01*
X023479Y009031D01*
X023480Y009030D01*
X023415Y008990D01*
X023349Y008954D01*
X023282Y008920D01*
X023212Y008891D01*
X023142Y008864D01*
X023070Y008842D01*
X022997Y008822D01*
X022923Y008807D01*
X022848Y008795D01*
X022773Y008787D01*
X022698Y008783D01*
X022622Y008782D01*
X022547Y008785D01*
X022472Y008792D01*
X022397Y008803D01*
X022323Y008818D01*
X022249Y008836D01*
X022177Y008857D01*
X022106Y008883D01*
X022113Y008899D01*
X022183Y008874D01*
X022254Y008853D01*
X022327Y008835D01*
X022400Y008821D01*
X022474Y008810D01*
X022548Y008803D01*
X022623Y008800D01*
X022697Y008801D01*
X022772Y008805D01*
X022846Y008813D01*
X022919Y008825D01*
X022992Y008840D01*
X023064Y008859D01*
X023136Y008881D01*
X023205Y008907D01*
X023274Y008937D01*
X023341Y008970D01*
X023406Y009006D01*
X023470Y009045D01*
X023460Y009060D01*
X023397Y009021D01*
X023333Y008986D01*
X023266Y008953D01*
X023199Y008924D01*
X023130Y008898D01*
X023059Y008876D01*
X022988Y008857D01*
X022916Y008842D01*
X022843Y008831D01*
X022770Y008823D01*
X022697Y008819D01*
X022623Y008818D01*
X022549Y008821D01*
X022476Y008828D01*
X022403Y008839D01*
X022331Y008853D01*
X022259Y008870D01*
X022189Y008892D01*
X022119Y008916D01*
X022126Y008933D01*
X022194Y008909D01*
X022264Y008888D01*
X022335Y008870D01*
X022406Y008856D01*
X022478Y008846D01*
X022551Y008839D01*
X022623Y008836D01*
X022696Y008837D01*
X022769Y008841D01*
X022841Y008849D01*
X022913Y008860D01*
X022984Y008875D01*
X023054Y008893D01*
X023124Y008915D01*
X023192Y008941D01*
X023259Y008969D01*
X023324Y009001D01*
X023388Y009037D01*
X023450Y009075D01*
X023440Y009090D01*
X023379Y009052D01*
X023316Y009017D01*
X023251Y008986D01*
X023185Y008957D01*
X023118Y008932D01*
X023049Y008911D01*
X022980Y008892D01*
X022910Y008878D01*
X022839Y008867D01*
X022767Y008859D01*
X022695Y008855D01*
X022624Y008854D01*
X022552Y008857D01*
X022480Y008864D01*
X022409Y008874D01*
X022339Y008888D01*
X022269Y008905D01*
X022200Y008926D01*
X022132Y008950D01*
X022139Y008967D01*
X022209Y008942D01*
X022281Y008920D01*
X022354Y008903D01*
X022428Y008889D01*
X022502Y008880D01*
X022577Y008874D01*
X022652Y008872D01*
X022726Y008874D01*
X022801Y008880D01*
X022875Y008890D01*
X022949Y008904D01*
X023022Y008922D01*
X023093Y008943D01*
X023164Y008968D01*
X023233Y008997D01*
X023300Y009030D01*
X023366Y009066D01*
X023430Y009105D01*
X023420Y009120D01*
X023357Y009081D01*
X023292Y009046D01*
X023225Y009014D01*
X023157Y008985D01*
X023088Y008960D01*
X023017Y008939D01*
X022945Y008922D01*
X022872Y008908D01*
X022799Y008898D01*
X022725Y008892D01*
X022652Y008890D01*
X022578Y008892D01*
X022504Y008898D01*
X022431Y008907D01*
X022358Y008920D01*
X022286Y008938D01*
X022215Y008959D01*
X022145Y008983D01*
X022152Y009000D01*
X022221Y008976D01*
X022291Y008955D01*
X022362Y008938D01*
X022433Y008925D01*
X022506Y008915D01*
X022579Y008910D01*
X022651Y008908D01*
X022724Y008910D01*
X022797Y008916D01*
X022869Y008926D01*
X022941Y008939D01*
X023012Y008956D01*
X023082Y008977D01*
X023151Y009002D01*
X023218Y009030D01*
X023284Y009062D01*
X023348Y009097D01*
X023410Y009135D01*
X023862Y010137D02*
X023838Y009999D01*
X023838Y010000D02*
X023767Y010010D01*
X023695Y010016D01*
X023623Y010019D01*
X023550Y010018D01*
X023478Y010013D01*
X023407Y010004D01*
X023336Y009992D01*
X023265Y009976D01*
X023196Y009956D01*
X023128Y009933D01*
X023061Y009906D01*
X022995Y009876D01*
X022931Y009842D01*
X022869Y009806D01*
X022809Y009766D01*
X022751Y009722D01*
X022696Y009676D01*
X022642Y009628D01*
X022592Y009576D01*
X022544Y009522D01*
X022499Y009465D01*
X022457Y009407D01*
X022419Y009346D01*
X022383Y009283D01*
X022351Y009218D01*
X022322Y009152D01*
X022297Y009085D01*
X022275Y009016D01*
X022256Y008946D01*
X022242Y008876D01*
X022104Y008899D01*
X022119Y008975D01*
X022139Y009049D01*
X022162Y009123D01*
X022188Y009195D01*
X022218Y009266D01*
X022252Y009335D01*
X022289Y009402D01*
X022330Y009467D01*
X022373Y009531D01*
X022420Y009592D01*
X022470Y009650D01*
X022523Y009706D01*
X022579Y009760D01*
X022637Y009810D01*
X022697Y009857D01*
X022760Y009902D01*
X022825Y009943D01*
X022892Y009981D01*
X022961Y010015D01*
X023032Y010046D01*
X023103Y010073D01*
X023177Y010097D01*
X023251Y010117D01*
X023326Y010133D01*
X023402Y010145D01*
X023479Y010153D01*
X023555Y010158D01*
X023632Y010159D01*
X023709Y010156D01*
X023786Y010149D01*
X023862Y010138D01*
X023859Y010120D01*
X023784Y010131D01*
X023708Y010138D01*
X023632Y010141D01*
X023556Y010140D01*
X023480Y010135D01*
X023405Y010127D01*
X023330Y010115D01*
X023255Y010099D01*
X023182Y010079D01*
X023109Y010056D01*
X023038Y010029D01*
X022969Y009999D01*
X022901Y009965D01*
X022834Y009927D01*
X022770Y009887D01*
X022708Y009843D01*
X022648Y009796D01*
X022591Y009746D01*
X022536Y009694D01*
X022484Y009638D01*
X022434Y009580D01*
X022388Y009520D01*
X022345Y009458D01*
X022305Y009393D01*
X022268Y009326D01*
X022235Y009258D01*
X022205Y009188D01*
X022179Y009117D01*
X022156Y009044D01*
X022137Y008971D01*
X022122Y008896D01*
X022139Y008893D01*
X022154Y008967D01*
X022173Y009039D01*
X022196Y009111D01*
X022222Y009182D01*
X022251Y009251D01*
X022284Y009318D01*
X022320Y009384D01*
X022360Y009448D01*
X022403Y009510D01*
X022448Y009569D01*
X022497Y009626D01*
X022549Y009681D01*
X022603Y009733D01*
X022660Y009782D01*
X022719Y009829D01*
X022780Y009872D01*
X022844Y009912D01*
X022909Y009949D01*
X022976Y009982D01*
X023045Y010012D01*
X023115Y010039D01*
X023187Y010062D01*
X023259Y010081D01*
X023333Y010097D01*
X023407Y010109D01*
X023482Y010118D01*
X023557Y010122D01*
X023632Y010123D01*
X023707Y010120D01*
X023782Y010113D01*
X023856Y010102D01*
X023853Y010085D01*
X023779Y010095D01*
X023705Y010102D01*
X023631Y010105D01*
X023557Y010104D01*
X023483Y010100D01*
X023409Y010091D01*
X023336Y010080D01*
X023264Y010064D01*
X023192Y010045D01*
X023121Y010022D01*
X023052Y009996D01*
X022984Y009966D01*
X022917Y009933D01*
X022853Y009896D01*
X022790Y009857D01*
X022729Y009814D01*
X022671Y009768D01*
X022615Y009720D01*
X022561Y009668D01*
X022511Y009614D01*
X022462Y009558D01*
X022417Y009499D01*
X022375Y009438D01*
X022336Y009375D01*
X022300Y009310D01*
X022268Y009243D01*
X022238Y009175D01*
X022213Y009105D01*
X022191Y009035D01*
X022172Y008963D01*
X022157Y008890D01*
X022175Y008887D01*
X022190Y008961D01*
X022209Y009035D01*
X022232Y009107D01*
X022259Y009178D01*
X022289Y009247D01*
X022323Y009315D01*
X022360Y009381D01*
X022401Y009444D01*
X022445Y009506D01*
X022492Y009565D01*
X022542Y009622D01*
X022595Y009676D01*
X022651Y009728D01*
X022709Y009776D01*
X022770Y009821D01*
X022833Y009863D01*
X022898Y009902D01*
X022965Y009937D01*
X023034Y009969D01*
X023104Y009997D01*
X023176Y010021D01*
X023249Y010042D01*
X023323Y010059D01*
X023397Y010072D01*
X023472Y010081D01*
X023548Y010086D01*
X023624Y010087D01*
X023699Y010084D01*
X023775Y010078D01*
X023850Y010067D01*
X023847Y010049D01*
X023773Y010060D01*
X023698Y010066D01*
X023623Y010069D01*
X023549Y010068D01*
X023474Y010063D01*
X023400Y010054D01*
X023326Y010041D01*
X023253Y010024D01*
X023181Y010004D01*
X023110Y009980D01*
X023041Y009952D01*
X022973Y009921D01*
X022907Y009886D01*
X022842Y009848D01*
X022780Y009806D01*
X022720Y009762D01*
X022663Y009714D01*
X022608Y009663D01*
X022555Y009610D01*
X022506Y009554D01*
X022459Y009495D01*
X022416Y009434D01*
X022376Y009371D01*
X022339Y009306D01*
X022305Y009239D01*
X022276Y009171D01*
X022249Y009101D01*
X022227Y009030D01*
X022208Y008957D01*
X022193Y008884D01*
X022210Y008881D01*
X022225Y008953D01*
X022244Y009025D01*
X022266Y009095D01*
X022292Y009164D01*
X022322Y009232D01*
X022355Y009298D01*
X022391Y009362D01*
X022431Y009424D01*
X022474Y009485D01*
X022520Y009542D01*
X022568Y009598D01*
X022620Y009651D01*
X022675Y009700D01*
X022731Y009748D01*
X022791Y009792D01*
X022852Y009833D01*
X022916Y009870D01*
X022981Y009905D01*
X023048Y009936D01*
X023117Y009963D01*
X023186Y009987D01*
X023258Y010007D01*
X023330Y010023D01*
X023402Y010036D01*
X023476Y010045D01*
X023549Y010050D01*
X023623Y010051D01*
X023697Y010048D01*
X023770Y010042D01*
X023844Y010032D01*
X023840Y010014D01*
X023768Y010024D01*
X023696Y010030D01*
X023623Y010033D01*
X023550Y010032D01*
X023477Y010027D01*
X023405Y010018D01*
X023333Y010006D01*
X023262Y009989D01*
X023192Y009970D01*
X023123Y009946D01*
X023055Y009919D01*
X022989Y009889D01*
X022924Y009855D01*
X022862Y009817D01*
X022801Y009777D01*
X022743Y009733D01*
X022686Y009687D01*
X022633Y009638D01*
X022582Y009586D01*
X022533Y009531D01*
X022488Y009474D01*
X022446Y009414D01*
X022407Y009353D01*
X022371Y009290D01*
X022338Y009224D01*
X022309Y009158D01*
X022283Y009089D01*
X022261Y009020D01*
X022243Y008949D01*
X022228Y008878D01*
X023860Y009364D02*
X023751Y009452D01*
X023752Y009451D02*
X023796Y009511D01*
X023838Y009572D01*
X023876Y009636D01*
X023911Y009701D01*
X023943Y009769D01*
X023971Y009837D01*
X023995Y009908D01*
X024016Y009979D01*
X024033Y010051D01*
X024047Y010124D01*
X024056Y010198D01*
X024062Y010272D01*
X024064Y010346D01*
X024062Y010421D01*
X024056Y010495D01*
X024047Y010568D01*
X024034Y010641D01*
X024017Y010714D01*
X023996Y010785D01*
X023971Y010855D01*
X023943Y010924D01*
X023912Y010991D01*
X023877Y011057D01*
X023839Y011121D01*
X023797Y011182D01*
X023752Y011242D01*
X023705Y011299D01*
X023654Y011353D01*
X023601Y011405D01*
X023545Y011454D01*
X023633Y011562D01*
X023634Y011562D01*
X023693Y011510D01*
X023750Y011455D01*
X023804Y011398D01*
X023855Y011337D01*
X023903Y011275D01*
X023948Y011210D01*
X023989Y011142D01*
X024027Y011073D01*
X024062Y011002D01*
X024093Y010929D01*
X024120Y010855D01*
X024144Y010780D01*
X024163Y010704D01*
X024179Y010626D01*
X024191Y010548D01*
X024199Y010470D01*
X024203Y010391D01*
X024204Y010312D01*
X024200Y010233D01*
X024192Y010154D01*
X024181Y010076D01*
X024165Y009999D01*
X024146Y009922D01*
X024123Y009847D01*
X024096Y009773D01*
X024065Y009700D01*
X024031Y009629D01*
X023994Y009559D01*
X023953Y009492D01*
X023908Y009426D01*
X023861Y009363D01*
X023847Y009375D01*
X023894Y009437D01*
X023937Y009502D01*
X023978Y009568D01*
X024015Y009637D01*
X024049Y009707D01*
X024079Y009779D01*
X024106Y009853D01*
X024129Y009927D01*
X024148Y010003D01*
X024163Y010079D01*
X024174Y010157D01*
X024182Y010234D01*
X024186Y010312D01*
X024185Y010390D01*
X024181Y010468D01*
X024173Y010546D01*
X024161Y010623D01*
X024146Y010699D01*
X024126Y010775D01*
X024103Y010850D01*
X024076Y010923D01*
X024045Y010995D01*
X024011Y011065D01*
X023974Y011133D01*
X023933Y011200D01*
X023889Y011264D01*
X023841Y011326D01*
X023791Y011386D01*
X023737Y011443D01*
X023681Y011497D01*
X023623Y011548D01*
X023611Y011534D01*
X023669Y011483D01*
X023725Y011430D01*
X023777Y011374D01*
X023827Y011315D01*
X023874Y011253D01*
X023918Y011190D01*
X023958Y011124D01*
X023995Y011056D01*
X024029Y010987D01*
X024059Y010916D01*
X024086Y010844D01*
X024109Y010770D01*
X024128Y010695D01*
X024144Y010620D01*
X024155Y010544D01*
X024163Y010467D01*
X024167Y010390D01*
X024168Y010313D01*
X024164Y010236D01*
X024156Y010159D01*
X024145Y010083D01*
X024130Y010007D01*
X024111Y009932D01*
X024089Y009858D01*
X024062Y009786D01*
X024033Y009715D01*
X023999Y009645D01*
X023962Y009577D01*
X023922Y009511D01*
X023879Y009448D01*
X023832Y009386D01*
X023818Y009397D01*
X023864Y009458D01*
X023907Y009521D01*
X023947Y009586D01*
X023983Y009653D01*
X024016Y009722D01*
X024046Y009792D01*
X024072Y009864D01*
X024094Y009937D01*
X024113Y010011D01*
X024127Y010086D01*
X024139Y010161D01*
X024146Y010237D01*
X024150Y010313D01*
X024149Y010389D01*
X024145Y010465D01*
X024138Y010541D01*
X024126Y010617D01*
X024111Y010691D01*
X024092Y010765D01*
X024069Y010838D01*
X024043Y010909D01*
X024013Y010980D01*
X023979Y011048D01*
X023943Y011115D01*
X023903Y011180D01*
X023859Y011243D01*
X023813Y011303D01*
X023764Y011361D01*
X023712Y011417D01*
X023657Y011470D01*
X023600Y011520D01*
X023588Y011506D01*
X023645Y011457D01*
X023699Y011404D01*
X023751Y011349D01*
X023799Y011292D01*
X023845Y011232D01*
X023888Y011170D01*
X023927Y011106D01*
X023963Y011040D01*
X023996Y010972D01*
X024026Y010903D01*
X024052Y010832D01*
X024074Y010760D01*
X024093Y010687D01*
X024108Y010613D01*
X024120Y010539D01*
X024127Y010464D01*
X024131Y010389D01*
X024132Y010314D01*
X024128Y010238D01*
X024121Y010163D01*
X024110Y010089D01*
X024095Y010015D01*
X024077Y009942D01*
X024055Y009870D01*
X024029Y009799D01*
X024000Y009730D01*
X023967Y009662D01*
X023931Y009595D01*
X023892Y009531D01*
X023850Y009469D01*
X023804Y009409D01*
X023790Y009420D01*
X023835Y009479D01*
X023877Y009541D01*
X023916Y009604D01*
X023951Y009670D01*
X023983Y009737D01*
X024012Y009806D01*
X024037Y009876D01*
X024059Y009947D01*
X024077Y010019D01*
X024092Y010092D01*
X024103Y010166D01*
X024110Y010240D01*
X024114Y010314D01*
X024113Y010388D01*
X024110Y010463D01*
X024102Y010537D01*
X024091Y010610D01*
X024076Y010683D01*
X024057Y010755D01*
X024035Y010826D01*
X024009Y010896D01*
X023980Y010965D01*
X023947Y011032D01*
X023912Y011097D01*
X023873Y011160D01*
X023830Y011221D01*
X023785Y011281D01*
X023737Y011337D01*
X023686Y011392D01*
X023633Y011443D01*
X023577Y011492D01*
X023565Y011479D01*
X023623Y011429D01*
X023677Y011376D01*
X023729Y011320D01*
X023777Y011262D01*
X023823Y011201D01*
X023865Y011138D01*
X023905Y011073D01*
X023940Y011006D01*
X023973Y010937D01*
X024001Y010867D01*
X024026Y010795D01*
X024047Y010722D01*
X024065Y010648D01*
X024079Y010573D01*
X024088Y010498D01*
X024094Y010422D01*
X024096Y010346D01*
X024094Y010270D01*
X024088Y010195D01*
X024078Y010119D01*
X024065Y010045D01*
X024047Y009971D01*
X024026Y009898D01*
X024001Y009826D01*
X023972Y009756D01*
X023940Y009687D01*
X023904Y009620D01*
X023865Y009555D01*
X023822Y009492D01*
X023776Y009431D01*
X023762Y009442D01*
X023808Y009502D01*
X023850Y009565D01*
X023888Y009629D01*
X023924Y009695D01*
X023956Y009763D01*
X023984Y009832D01*
X024009Y009903D01*
X024030Y009975D01*
X024047Y010048D01*
X024060Y010122D01*
X024070Y010196D01*
X024076Y010271D01*
X024078Y010346D01*
X024076Y010421D01*
X024070Y010496D01*
X024061Y010570D01*
X024047Y010644D01*
X024030Y010717D01*
X024009Y010789D01*
X023984Y010860D01*
X023956Y010930D01*
X023924Y010998D01*
X023889Y011064D01*
X023850Y011128D01*
X023808Y011190D01*
X023763Y011250D01*
X023715Y011308D01*
X023664Y011363D01*
X023610Y011415D01*
X023554Y011465D01*
D23*
X017383Y009675D02*
X017308Y009750D01*
X017158Y009750D01*
X017083Y009675D01*
X017083Y009375D01*
X017158Y009300D01*
X017308Y009300D01*
X017383Y009375D01*
X016923Y009300D02*
X016923Y009750D01*
X016623Y009750D02*
X016923Y009300D01*
X016623Y009300D02*
X016623Y009750D01*
X016463Y009675D02*
X016388Y009750D01*
X016237Y009750D01*
X016162Y009675D01*
X016162Y009375D01*
X016237Y009300D01*
X016388Y009300D01*
X016463Y009375D01*
X016463Y009675D01*
X016002Y009750D02*
X016002Y009300D01*
X015702Y009750D01*
X015702Y009300D01*
X015542Y009225D02*
X015242Y009225D01*
X015081Y009300D02*
X014781Y009300D01*
X015081Y009600D01*
X015081Y009675D01*
X015006Y009750D01*
X014856Y009750D01*
X014781Y009675D01*
X014621Y009750D02*
X014321Y009300D01*
X014161Y009375D02*
X014161Y009750D01*
X014321Y009750D02*
X014621Y009300D01*
X014161Y009375D02*
X014086Y009300D01*
X013935Y009300D01*
X013860Y009375D01*
X013860Y009750D01*
X013700Y009600D02*
X013700Y009300D01*
X013700Y009525D02*
X013400Y009525D01*
X013400Y009600D02*
X013550Y009750D01*
X013700Y009600D01*
X013400Y009600D02*
X013400Y009300D01*
X013425Y010400D02*
X013425Y010850D01*
X013275Y010700D01*
X013275Y010400D02*
X013575Y010400D01*
X010667Y012225D02*
X010367Y012225D01*
X010206Y012300D02*
X009906Y012300D01*
X010206Y012600D01*
X010206Y012675D01*
X010131Y012750D01*
X009981Y012750D01*
X009906Y012675D01*
X009746Y012750D02*
X009446Y012300D01*
X009286Y012375D02*
X009286Y012750D01*
X009446Y012750D02*
X009746Y012300D01*
X009286Y012375D02*
X009211Y012300D01*
X009060Y012300D01*
X008985Y012375D01*
X008985Y012750D01*
X008825Y012600D02*
X008675Y012750D01*
X008525Y012600D01*
X008525Y012300D01*
X008525Y012525D02*
X008825Y012525D01*
X008825Y012600D02*
X008825Y012300D01*
X008700Y013650D02*
X008400Y013650D01*
X008550Y013650D02*
X008550Y014100D01*
X008400Y013950D01*
X010827Y012600D02*
X010977Y012750D01*
X010977Y012300D01*
X010827Y012300D02*
X011127Y012300D01*
X011287Y012300D02*
X011588Y012600D01*
X011588Y012675D01*
X011513Y012750D01*
X011362Y012750D01*
X011287Y012675D01*
X011287Y012300D02*
X011588Y012300D01*
X011748Y012450D02*
X011898Y012300D01*
X012048Y012450D01*
X012048Y012750D01*
X012208Y012675D02*
X012208Y012375D01*
X012283Y012300D01*
X012433Y012300D01*
X012508Y012375D01*
X012508Y012525D01*
X012358Y012525D01*
X012208Y012675D02*
X012283Y012750D01*
X012433Y012750D01*
X012508Y012675D01*
X011748Y012750D02*
X011748Y012450D01*
X007183Y024050D02*
X007258Y024125D01*
X007183Y024050D02*
X007033Y024050D01*
X006958Y024125D01*
X006958Y024425D01*
X007033Y024500D01*
X007183Y024500D01*
X007258Y024425D01*
X006798Y024500D02*
X006798Y024050D01*
X006498Y024500D01*
X006498Y024050D01*
X006338Y024125D02*
X006263Y024050D01*
X006112Y024050D01*
X006037Y024125D01*
X006037Y024425D01*
X006112Y024500D01*
X006263Y024500D01*
X006338Y024425D01*
X006338Y024125D01*
X005877Y024050D02*
X005577Y024500D01*
X005577Y024050D01*
X005417Y023975D02*
X005117Y023975D01*
X004956Y024050D02*
X004656Y024050D01*
X004806Y024050D02*
X004806Y024500D01*
X004656Y024350D01*
X004496Y024500D02*
X004196Y024050D01*
X004036Y024125D02*
X004036Y024500D01*
X004196Y024500D02*
X004496Y024050D01*
X004036Y024125D02*
X003961Y024050D01*
X003810Y024050D01*
X003735Y024125D01*
X003735Y024500D01*
X003575Y024350D02*
X003425Y024500D01*
X003275Y024350D01*
X003275Y024050D01*
X003275Y024275D02*
X003575Y024275D01*
X003575Y024350D02*
X003575Y024050D01*
X003550Y025150D02*
X003550Y025600D01*
X003400Y025450D01*
X003400Y025150D02*
X003700Y025150D01*
X005877Y024500D02*
X005877Y024050D01*
X008400Y027425D02*
X008400Y027725D01*
X008550Y027875D01*
X008700Y027725D01*
X008700Y027425D01*
X008860Y027500D02*
X008935Y027425D01*
X009086Y027425D01*
X009161Y027500D01*
X009161Y027875D01*
X009321Y027875D02*
X009621Y027425D01*
X009781Y027425D02*
X010081Y027425D01*
X009931Y027425D02*
X009931Y027875D01*
X009781Y027725D01*
X009621Y027875D02*
X009321Y027425D01*
X008860Y027500D02*
X008860Y027875D01*
X008700Y027650D02*
X008400Y027650D01*
X010242Y027350D02*
X010542Y027350D01*
X010702Y027425D02*
X011002Y027425D01*
X010852Y027425D02*
X010852Y027875D01*
X010702Y027725D01*
X011162Y027800D02*
X011237Y027875D01*
X011388Y027875D01*
X011463Y027800D01*
X011463Y027725D01*
X011162Y027425D01*
X011463Y027425D01*
X011623Y027575D02*
X011773Y027425D01*
X011923Y027575D01*
X011923Y027875D01*
X012083Y027800D02*
X012083Y027500D01*
X012158Y027425D01*
X012308Y027425D01*
X012383Y027500D01*
X012383Y027650D01*
X012233Y027650D01*
X012083Y027800D02*
X012158Y027875D01*
X012308Y027875D01*
X012383Y027800D01*
X011623Y027875D02*
X011623Y027575D01*
X008700Y028650D02*
X008400Y028650D01*
X008550Y028650D02*
X008550Y029100D01*
X008400Y028950D01*
X018275Y027875D02*
X018425Y027725D01*
X018575Y027875D01*
X018575Y027425D01*
X018735Y027425D02*
X018735Y027725D01*
X018886Y027875D01*
X019036Y027725D01*
X019036Y027425D01*
X019196Y027425D02*
X019346Y027425D01*
X019271Y027425D02*
X019271Y027875D01*
X019196Y027875D02*
X019346Y027875D01*
X019503Y027875D02*
X019803Y027425D01*
X019803Y027875D01*
X019503Y027875D02*
X019503Y027425D01*
X019963Y027350D02*
X020263Y027350D01*
X020423Y027425D02*
X020423Y027875D01*
X020649Y027875D01*
X020724Y027800D01*
X020724Y027650D01*
X020649Y027575D01*
X020423Y027575D01*
X020884Y027575D02*
X021109Y027575D01*
X021184Y027650D01*
X021184Y027800D01*
X021109Y027875D01*
X020884Y027875D01*
X020884Y027425D01*
X021034Y027575D02*
X021184Y027425D01*
X021344Y027425D02*
X021344Y027875D01*
X021645Y027875D01*
X021494Y027650D02*
X021344Y027650D01*
X021344Y027425D02*
X021645Y027425D01*
X021805Y027350D02*
X022105Y027350D01*
X022265Y027425D02*
X022565Y027425D01*
X022415Y027425D02*
X022415Y027875D01*
X022265Y027725D01*
X022725Y027800D02*
X022801Y027875D01*
X022951Y027875D01*
X023026Y027800D01*
X023026Y027725D01*
X022725Y027425D01*
X023026Y027425D01*
X019036Y027650D02*
X018735Y027650D01*
X018275Y027425D02*
X018275Y027875D01*
X018400Y028650D02*
X018700Y028650D01*
X018550Y028650D02*
X018550Y029100D01*
X018400Y028950D01*
X010716Y034981D02*
X009534Y034981D01*
X009534Y035769D01*
X010716Y035769D01*
X010716Y034981D01*
X010420Y035375D02*
X010223Y035375D01*
X010223Y035572D01*
X010027Y035375D01*
X009830Y035375D01*
X010027Y035375D02*
X010027Y035572D01*
X010027Y035375D02*
X010027Y035178D01*
X010223Y035178D02*
X010027Y035375D01*
X010223Y035375D02*
X010223Y035178D01*
X010716Y036106D02*
X009534Y036106D01*
X009534Y036894D01*
X010716Y036894D01*
X010716Y036106D01*
X010420Y036500D02*
X010223Y036500D01*
X010223Y036697D01*
X010027Y036500D01*
X009830Y036500D01*
X010027Y036500D02*
X010027Y036697D01*
X010027Y036500D02*
X010027Y036303D01*
X010223Y036303D02*
X010027Y036500D01*
X010223Y036500D02*
X010223Y036303D01*
X032275Y031300D02*
X032275Y031225D01*
X032350Y031150D01*
X032500Y031150D01*
X032575Y031075D01*
X032575Y031000D01*
X032500Y030925D01*
X032350Y030925D01*
X032275Y031000D01*
X032275Y031300D02*
X032350Y031375D01*
X032500Y031375D01*
X032575Y031300D01*
X032735Y031375D02*
X033036Y031375D01*
X032886Y031375D02*
X032886Y030925D01*
X033196Y030925D02*
X033196Y031225D01*
X033346Y031375D01*
X033496Y031225D01*
X033496Y030925D01*
X033656Y030925D02*
X033656Y031375D01*
X033881Y031375D01*
X033956Y031300D01*
X033956Y031150D01*
X033881Y031075D01*
X033656Y031075D01*
X033806Y031075D02*
X033956Y030925D01*
X034267Y030925D02*
X034267Y031375D01*
X034117Y031375D02*
X034417Y031375D01*
X034577Y030850D02*
X034877Y030850D01*
X035037Y031000D02*
X035112Y030925D01*
X035263Y030925D01*
X035338Y031000D01*
X035338Y031150D01*
X035187Y031150D01*
X035037Y031300D02*
X035037Y031000D01*
X035037Y031300D02*
X035112Y031375D01*
X035263Y031375D01*
X035338Y031300D01*
X035498Y031375D02*
X035798Y030925D01*
X035798Y031375D01*
X035958Y031375D02*
X036183Y031375D01*
X036258Y031300D01*
X036258Y031000D01*
X036183Y030925D01*
X035958Y030925D01*
X035958Y031375D01*
X035498Y031375D02*
X035498Y030925D01*
X036875Y030625D02*
X037375Y030625D01*
X039875Y030625D02*
X039875Y002625D01*
X081625Y002625D01*
X081625Y030625D01*
X081625Y040625D01*
X053500Y040625D01*
X053500Y030625D01*
X081625Y030625D01*
X039875Y030625D01*
X037350Y032690D02*
X037350Y032990D01*
X037350Y032840D02*
X036900Y032840D01*
X037050Y032690D01*
X033496Y031150D02*
X033196Y031150D01*
X050650Y033129D02*
X050750Y032950D01*
X050750Y032625D01*
X050750Y033216D02*
X050750Y033564D01*
X052250Y036061D02*
X052250Y036409D01*
X052350Y036496D02*
X052250Y036675D01*
X052250Y037000D01*
X060481Y036216D02*
X060481Y035034D01*
X061269Y035034D01*
X061269Y036216D01*
X060481Y036216D01*
X060875Y035920D02*
X060875Y035723D01*
X061072Y035723D01*
X061072Y035527D02*
X060875Y035723D01*
X060678Y035723D01*
X060678Y035527D02*
X060875Y035723D01*
X060875Y035527D02*
X061072Y035527D01*
X060875Y035527D02*
X060678Y035527D01*
X060875Y035527D02*
X060875Y035330D01*
X063981Y035034D02*
X064769Y035034D01*
X064769Y036216D01*
X063981Y036216D01*
X063981Y035034D01*
X064375Y035330D02*
X064375Y035527D01*
X064572Y035527D01*
X064375Y035723D01*
X064375Y035920D01*
X064375Y035723D02*
X064572Y035723D01*
X064375Y035723D02*
X064178Y035723D01*
X064178Y035527D02*
X064375Y035723D01*
X064375Y035527D02*
X064178Y035527D01*
X050445Y026652D02*
X050447Y026666D01*
X050453Y026680D01*
X050461Y026692D01*
X050473Y026700D01*
X050487Y026706D01*
X050501Y026708D01*
X050515Y026706D01*
X050529Y026700D01*
X050541Y026692D01*
X050549Y026680D01*
X050555Y026666D01*
X050557Y026652D01*
X050555Y026638D01*
X050549Y026624D01*
X050541Y026612D01*
X050529Y026604D01*
X050515Y026598D01*
X050501Y026596D01*
X050487Y026598D01*
X050473Y026604D01*
X050461Y026612D01*
X050453Y026624D01*
X050447Y026638D01*
X050445Y026652D01*
X062723Y021527D02*
X067527Y021527D01*
X067527Y016723D01*
X062723Y016723D01*
X062723Y021527D01*
X066700Y020897D02*
X066702Y020924D01*
X066708Y020951D01*
X066717Y020977D01*
X066730Y021001D01*
X066746Y021024D01*
X066765Y021043D01*
X066787Y021060D01*
X066811Y021074D01*
X066836Y021084D01*
X066863Y021091D01*
X066890Y021094D01*
X066918Y021093D01*
X066945Y021088D01*
X066971Y021080D01*
X066995Y021068D01*
X067018Y021052D01*
X067039Y021034D01*
X067056Y021013D01*
X067071Y020989D01*
X067082Y020964D01*
X067090Y020938D01*
X067094Y020911D01*
X067094Y020883D01*
X067090Y020856D01*
X067082Y020830D01*
X067071Y020805D01*
X067056Y020781D01*
X067039Y020760D01*
X067018Y020742D01*
X066996Y020726D01*
X066971Y020714D01*
X066945Y020706D01*
X066918Y020701D01*
X066890Y020700D01*
X066863Y020703D01*
X066836Y020710D01*
X066811Y020720D01*
X066787Y020734D01*
X066765Y020751D01*
X066746Y020770D01*
X066730Y020793D01*
X066717Y020817D01*
X066708Y020843D01*
X066702Y020870D01*
X066700Y020897D01*
D24*
X059383Y024844D03*
X059383Y025344D03*
X059383Y025844D03*
X059383Y026344D03*
X057393Y026344D03*
X057393Y025844D03*
X057393Y025344D03*
X057393Y024844D03*
D25*
X051505Y026396D02*
X051505Y027065D01*
X051495Y027075D02*
X050284Y027075D01*
X050284Y026396D01*
X051505Y026396D01*
X070178Y019247D02*
X070178Y018617D01*
X070572Y018617D01*
X070572Y019247D01*
X070178Y019247D01*
X070218Y018440D02*
X070336Y018440D01*
X070414Y018440D02*
X070532Y018440D01*
X070572Y018401D02*
X070572Y018282D01*
X070572Y018164D02*
X070572Y018046D01*
X070572Y017928D02*
X070572Y017810D01*
X070493Y017810D02*
X070375Y017810D01*
X070257Y017810D02*
X070178Y017810D01*
X070178Y017928D01*
X070178Y018046D02*
X070178Y018164D01*
X070178Y018282D02*
X070178Y018401D01*
X068447Y015372D02*
X068053Y015372D01*
X068053Y014742D01*
X068447Y014742D01*
X068447Y015372D01*
X068407Y014565D02*
X068289Y014565D01*
X068211Y014565D02*
X068093Y014565D01*
X068053Y014526D02*
X068053Y014407D01*
X068053Y014289D02*
X068053Y014171D01*
X068053Y014053D02*
X068053Y013935D01*
X068132Y013935D01*
X068250Y013935D02*
X068368Y013935D01*
X068447Y013935D02*
X068447Y014053D01*
X068447Y014171D02*
X068447Y014289D01*
X068447Y014407D02*
X068447Y014526D01*
D26*
X072844Y029867D03*
X073344Y029867D03*
X073844Y029867D03*
X074344Y029867D03*
X074344Y031857D03*
X073844Y031857D03*
X073344Y031857D03*
X072844Y031857D03*
D27*
X037964Y029847D02*
X037964Y028127D01*
X037855Y028127D01*
X037174Y028127D01*
X035926Y028127D01*
X035926Y027655D01*
X034824Y027655D01*
X034824Y028127D01*
X033576Y028127D01*
X032895Y028127D01*
X032786Y028127D01*
X032786Y029847D01*
X032895Y029847D01*
X033210Y029847D01*
X033210Y029623D01*
X033576Y029623D01*
X034391Y029623D01*
X034391Y029859D01*
X034784Y029859D01*
X034784Y029623D01*
X035966Y029623D01*
X035966Y029859D01*
X036359Y029859D01*
X036359Y029623D01*
X037174Y029623D01*
X037540Y029623D01*
X037540Y029847D01*
X037855Y029847D01*
X037964Y029847D01*
X037056Y029375D02*
X037056Y028375D01*
X036056Y028375D01*
X036056Y029375D01*
X037056Y029375D01*
X036359Y029623D02*
X035966Y029623D01*
X035875Y029375D02*
X035875Y028375D01*
X034875Y028375D01*
X034875Y029375D01*
X035875Y029375D01*
X034784Y029623D02*
X034391Y029623D01*
X034494Y029375D02*
X034694Y029175D01*
X034694Y028375D01*
X033694Y028375D01*
X033694Y029375D01*
X034494Y029375D01*
X034824Y028127D02*
X035926Y028127D01*
X027964Y028127D02*
X027964Y029847D01*
X027855Y029847D01*
X027540Y029847D01*
X027540Y029623D01*
X027174Y029623D01*
X026359Y029623D01*
X026359Y029859D01*
X025966Y029859D01*
X025966Y029623D01*
X026359Y029623D01*
X026056Y029375D02*
X027056Y029375D01*
X027056Y028375D01*
X026056Y028375D01*
X026056Y029375D01*
X025875Y029375D02*
X025875Y028375D01*
X024875Y028375D01*
X024875Y029375D01*
X025875Y029375D01*
X025966Y029623D02*
X024784Y029623D01*
X024784Y029859D01*
X024391Y029859D01*
X024391Y029623D01*
X024784Y029623D01*
X024494Y029375D02*
X024694Y029175D01*
X024694Y028375D01*
X023694Y028375D01*
X023694Y029375D01*
X024494Y029375D01*
X024391Y029623D02*
X023576Y029623D01*
X023210Y029623D01*
X023210Y029847D01*
X022895Y029847D01*
X022786Y029847D01*
X022786Y028127D01*
X022895Y028127D01*
X023576Y028127D01*
X024824Y028127D01*
X024824Y027655D01*
X025926Y027655D01*
X025926Y028127D01*
X024824Y028127D01*
X025926Y028127D02*
X027174Y028127D01*
X027855Y028127D01*
X027964Y028127D01*
X017964Y028127D02*
X017964Y029847D01*
X017855Y029847D01*
X017540Y029847D01*
X017540Y029623D01*
X017174Y029623D01*
X016359Y029623D01*
X016359Y029859D01*
X015966Y029859D01*
X015966Y029623D01*
X016359Y029623D01*
X016056Y029375D02*
X017056Y029375D01*
X017056Y028375D01*
X016056Y028375D01*
X016056Y029375D01*
X015875Y029375D02*
X015875Y028375D01*
X014875Y028375D01*
X014875Y029375D01*
X015875Y029375D01*
X015966Y029623D02*
X014784Y029623D01*
X014784Y029859D01*
X014391Y029859D01*
X014391Y029623D01*
X014784Y029623D01*
X014494Y029375D02*
X014694Y029175D01*
X014694Y028375D01*
X013694Y028375D01*
X013694Y029375D01*
X014494Y029375D01*
X014391Y029623D02*
X013576Y029623D01*
X013210Y029623D01*
X013210Y029847D01*
X012895Y029847D01*
X012786Y029847D01*
X012786Y028127D01*
X012895Y028127D01*
X013576Y028127D01*
X014824Y028127D01*
X014824Y027655D01*
X015926Y027655D01*
X015926Y028127D01*
X014824Y028127D01*
X015926Y028127D02*
X017174Y028127D01*
X017855Y028127D01*
X017964Y028127D01*
X007964Y028127D02*
X007964Y029847D01*
X007855Y029847D01*
X007540Y029847D01*
X007540Y029623D01*
X007174Y029623D01*
X006359Y029623D01*
X006359Y029859D01*
X005966Y029859D01*
X005966Y029623D01*
X006359Y029623D01*
X006056Y029375D02*
X007056Y029375D01*
X007056Y028375D01*
X006056Y028375D01*
X006056Y029375D01*
X005875Y029375D02*
X005875Y028375D01*
X004875Y028375D01*
X004875Y029375D01*
X005875Y029375D01*
X005966Y029623D02*
X004784Y029623D01*
X004784Y029859D01*
X004391Y029859D01*
X004391Y029623D01*
X004784Y029623D01*
X004494Y029375D02*
X004694Y029175D01*
X004694Y028375D01*
X003694Y028375D01*
X003694Y029375D01*
X004494Y029375D01*
X004391Y029623D02*
X003576Y029623D01*
X003210Y029623D01*
X003210Y029847D01*
X002895Y029847D01*
X002786Y029847D01*
X002786Y028127D01*
X002895Y028127D01*
X003576Y028127D01*
X004824Y028127D01*
X004824Y027655D01*
X005926Y027655D01*
X005926Y028127D01*
X004824Y028127D01*
X005926Y028127D02*
X007174Y028127D01*
X007855Y028127D01*
X007964Y028127D01*
X007373Y033562D02*
X007265Y033562D01*
X006950Y033562D01*
X006950Y033786D01*
X006584Y033786D01*
X005966Y033786D01*
X005966Y033550D01*
X005572Y033550D01*
X005572Y033786D01*
X005178Y033786D01*
X005178Y033550D01*
X004784Y033550D01*
X004784Y033786D01*
X004166Y033786D01*
X003800Y033786D01*
X003800Y033562D01*
X003485Y033562D01*
X003377Y033562D01*
X003377Y036464D01*
X003485Y036464D01*
X004166Y036464D01*
X005099Y036464D01*
X005099Y037015D01*
X005651Y037015D01*
X005651Y036464D01*
X006584Y036464D01*
X007265Y036464D01*
X007373Y036464D01*
X007373Y033562D01*
X006466Y034034D02*
X005666Y034034D01*
X005466Y034234D01*
X005466Y035034D01*
X006466Y035034D01*
X006466Y034034D01*
X005966Y033786D02*
X005572Y033786D01*
X005284Y034034D02*
X004484Y034034D01*
X004284Y034234D01*
X004284Y035034D01*
X005284Y035034D01*
X005284Y034034D01*
X005178Y033786D02*
X004784Y033786D01*
X004484Y035216D02*
X004284Y035416D01*
X004284Y036216D01*
X005284Y036216D01*
X005284Y035216D01*
X004484Y035216D01*
X005099Y036464D02*
X005651Y036464D01*
X033377Y036464D02*
X033377Y033562D01*
X033485Y033562D01*
X033800Y033562D01*
X033800Y033786D01*
X034166Y033786D01*
X034784Y033786D01*
X034784Y033550D01*
X035178Y033550D01*
X035178Y033786D01*
X034784Y033786D01*
X034484Y034034D02*
X034284Y034234D01*
X034284Y035034D01*
X035284Y035034D01*
X035284Y034034D01*
X034484Y034034D01*
X035178Y033786D02*
X035572Y033786D01*
X035572Y033550D01*
X035966Y033550D01*
X035966Y033786D01*
X035572Y033786D01*
X035666Y034034D02*
X035466Y034234D01*
X035466Y035034D01*
X036466Y035034D01*
X036466Y034034D01*
X035666Y034034D01*
X035966Y033786D02*
X036584Y033786D01*
X036950Y033786D01*
X036950Y033562D01*
X037265Y033562D01*
X037373Y033562D01*
X037373Y036464D01*
X037265Y036464D01*
X036584Y036464D01*
X035651Y036464D01*
X035651Y037015D01*
X035099Y037015D01*
X035099Y036464D01*
X035651Y036464D01*
X035284Y036216D02*
X035284Y035216D01*
X034484Y035216D01*
X034284Y035416D01*
X034284Y036216D01*
X035284Y036216D01*
X035099Y036464D02*
X034166Y036464D01*
X033485Y036464D01*
X033377Y036464D01*
X033210Y014847D02*
X032895Y014847D01*
X032786Y014847D01*
X032786Y013127D01*
X032895Y013127D01*
X033576Y013127D01*
X034824Y013127D01*
X034824Y012655D01*
X035926Y012655D01*
X035926Y013127D01*
X034824Y013127D01*
X034875Y013375D02*
X034875Y014375D01*
X035875Y014375D01*
X035875Y013375D01*
X034875Y013375D01*
X034694Y013375D02*
X034694Y014175D01*
X034494Y014375D01*
X033694Y014375D01*
X033694Y013375D01*
X034694Y013375D01*
X035926Y013127D02*
X037174Y013127D01*
X037855Y013127D01*
X037964Y013127D01*
X037964Y014847D01*
X037855Y014847D01*
X037540Y014847D01*
X037540Y014623D01*
X037174Y014623D01*
X036359Y014623D01*
X036359Y014859D01*
X035966Y014859D01*
X035966Y014623D01*
X036359Y014623D01*
X036056Y014375D02*
X037056Y014375D01*
X037056Y013375D01*
X036056Y013375D01*
X036056Y014375D01*
X035966Y014623D02*
X034784Y014623D01*
X034784Y014859D01*
X034391Y014859D01*
X034391Y014623D01*
X034784Y014623D01*
X034391Y014623D02*
X033576Y014623D01*
X033210Y014623D01*
X033210Y014847D01*
X027964Y014847D02*
X027964Y013127D01*
X027855Y013127D01*
X027174Y013127D01*
X025926Y013127D01*
X025926Y012655D01*
X024824Y012655D01*
X024824Y013127D01*
X023576Y013127D01*
X022895Y013127D01*
X022786Y013127D01*
X022786Y014847D01*
X022895Y014847D01*
X023210Y014847D01*
X023210Y014623D01*
X023576Y014623D01*
X024391Y014623D01*
X024391Y014859D01*
X024784Y014859D01*
X024784Y014623D01*
X025966Y014623D01*
X025966Y014859D01*
X026359Y014859D01*
X026359Y014623D01*
X027174Y014623D01*
X027540Y014623D01*
X027540Y014847D01*
X027855Y014847D01*
X027964Y014847D01*
X027056Y014375D02*
X027056Y013375D01*
X026056Y013375D01*
X026056Y014375D01*
X027056Y014375D01*
X026359Y014623D02*
X025966Y014623D01*
X025875Y014375D02*
X025875Y013375D01*
X024875Y013375D01*
X024875Y014375D01*
X025875Y014375D01*
X024784Y014623D02*
X024391Y014623D01*
X024494Y014375D02*
X024694Y014175D01*
X024694Y013375D01*
X023694Y013375D01*
X023694Y014375D01*
X024494Y014375D01*
X024824Y013127D02*
X025926Y013127D01*
X017839Y013127D02*
X017839Y014847D01*
X017730Y014847D01*
X017415Y014847D01*
X017415Y014623D01*
X017049Y014623D01*
X016234Y014623D01*
X016234Y014859D01*
X015841Y014859D01*
X015841Y014623D01*
X016234Y014623D01*
X015931Y014375D02*
X016931Y014375D01*
X016931Y013375D01*
X015931Y013375D01*
X015931Y014375D01*
X015750Y014375D02*
X015750Y013375D01*
X014750Y013375D01*
X014750Y014375D01*
X015750Y014375D01*
X015841Y014623D02*
X014659Y014623D01*
X014659Y014859D01*
X014266Y014859D01*
X014266Y014623D01*
X014659Y014623D01*
X014369Y014375D02*
X014569Y014175D01*
X014569Y013375D01*
X013569Y013375D01*
X013569Y014375D01*
X014369Y014375D01*
X014266Y014623D02*
X013451Y014623D01*
X013085Y014623D01*
X013085Y014847D01*
X012770Y014847D01*
X012661Y014847D01*
X012661Y013127D01*
X012770Y013127D01*
X013451Y013127D01*
X014699Y013127D01*
X014699Y012655D01*
X015801Y012655D01*
X015801Y013127D01*
X014699Y013127D01*
X015801Y013127D02*
X017049Y013127D01*
X017730Y013127D01*
X017839Y013127D01*
X007964Y013127D02*
X007964Y014847D01*
X007855Y014847D01*
X007540Y014847D01*
X007540Y014623D01*
X007174Y014623D01*
X006359Y014623D01*
X006359Y014859D01*
X005966Y014859D01*
X005966Y014623D01*
X006359Y014623D01*
X006056Y014375D02*
X007056Y014375D01*
X007056Y013375D01*
X006056Y013375D01*
X006056Y014375D01*
X005875Y014375D02*
X005875Y013375D01*
X004875Y013375D01*
X004875Y014375D01*
X005875Y014375D01*
X005966Y014623D02*
X004784Y014623D01*
X004784Y014859D01*
X004391Y014859D01*
X004391Y014623D01*
X004784Y014623D01*
X004494Y014375D02*
X004694Y014175D01*
X004694Y013375D01*
X003694Y013375D01*
X003694Y014375D01*
X004494Y014375D01*
X004391Y014623D02*
X003576Y014623D01*
X003210Y014623D01*
X003210Y014847D01*
X002895Y014847D01*
X002786Y014847D01*
X002786Y013127D01*
X002895Y013127D01*
X003576Y013127D01*
X004824Y013127D01*
X004824Y012655D01*
X005926Y012655D01*
X005926Y013127D01*
X004824Y013127D01*
X005926Y013127D02*
X007174Y013127D01*
X007855Y013127D01*
X007964Y013127D01*
D28*
X007855Y013127D02*
X007855Y013481D01*
X007422Y013481D01*
X007422Y013678D01*
X007540Y013678D01*
X007540Y014072D01*
X007422Y014072D01*
X007422Y014269D01*
X007855Y014269D01*
X007855Y013481D01*
X007422Y013481D02*
X007174Y013481D01*
X007174Y013127D01*
X007174Y013481D02*
X007174Y014269D01*
X007422Y014269D01*
X007174Y014269D02*
X007174Y014623D01*
X007855Y014847D02*
X007855Y014269D01*
X003576Y014269D02*
X003576Y013481D01*
X003328Y013481D01*
X003328Y013678D01*
X003210Y013678D01*
X003210Y014072D01*
X003328Y014072D01*
X003328Y014269D01*
X002895Y014269D01*
X002895Y013481D01*
X003328Y013481D01*
X003576Y013481D02*
X003576Y013127D01*
X002895Y013127D02*
X002895Y013481D01*
X002895Y014269D02*
X002895Y014847D01*
X003576Y014623D02*
X003576Y014269D01*
X003328Y014269D01*
X012770Y014269D02*
X012770Y013481D01*
X013203Y013481D01*
X013203Y013678D01*
X013085Y013678D01*
X013085Y014072D01*
X013203Y014072D01*
X013203Y014269D01*
X012770Y014269D01*
X012770Y014847D01*
X013451Y014623D02*
X013451Y014269D01*
X013203Y014269D01*
X013451Y014269D02*
X013451Y013481D01*
X013203Y013481D01*
X013451Y013481D02*
X013451Y013127D01*
X012770Y013127D02*
X012770Y013481D01*
X017049Y013481D02*
X017049Y013127D01*
X017049Y013481D02*
X017297Y013481D01*
X017297Y013678D01*
X017415Y013678D01*
X017415Y014072D01*
X017297Y014072D01*
X017297Y014269D01*
X017730Y014269D01*
X017730Y013481D01*
X017297Y013481D01*
X017049Y013481D02*
X017049Y014269D01*
X017297Y014269D01*
X017049Y014269D02*
X017049Y014623D01*
X017730Y014847D02*
X017730Y014269D01*
X017730Y013481D02*
X017730Y013127D01*
X022895Y013127D02*
X022895Y013481D01*
X023328Y013481D01*
X023328Y013678D01*
X023210Y013678D01*
X023210Y014072D01*
X023328Y014072D01*
X023328Y014269D01*
X022895Y014269D01*
X022895Y013481D01*
X023328Y013481D02*
X023576Y013481D01*
X023576Y014269D01*
X023328Y014269D01*
X023576Y014269D02*
X023576Y014623D01*
X022895Y014847D02*
X022895Y014269D01*
X023576Y013481D02*
X023576Y013127D01*
X027174Y013127D02*
X027174Y013481D01*
X027422Y013481D01*
X027422Y013678D01*
X027540Y013678D01*
X027540Y014072D01*
X027422Y014072D01*
X027422Y014269D01*
X027855Y014269D01*
X027855Y013481D01*
X027422Y013481D01*
X027174Y013481D02*
X027174Y014269D01*
X027422Y014269D01*
X027174Y014269D02*
X027174Y014623D01*
X027855Y014847D02*
X027855Y014269D01*
X027855Y013481D02*
X027855Y013127D01*
X032895Y013127D02*
X032895Y013481D01*
X033328Y013481D01*
X033328Y013678D01*
X033210Y013678D01*
X033210Y014072D01*
X033328Y014072D01*
X033328Y014269D01*
X032895Y014269D01*
X032895Y013481D01*
X033328Y013481D02*
X033576Y013481D01*
X033576Y014269D01*
X033328Y014269D01*
X033576Y014269D02*
X033576Y014623D01*
X032895Y014847D02*
X032895Y014269D01*
X033576Y013481D02*
X033576Y013127D01*
X037174Y013127D02*
X037174Y013481D01*
X037422Y013481D01*
X037422Y013678D01*
X037540Y013678D01*
X037540Y014072D01*
X037422Y014072D01*
X037422Y014269D01*
X037855Y014269D01*
X037855Y013481D01*
X037422Y013481D01*
X037174Y013481D02*
X037174Y014269D01*
X037422Y014269D01*
X037174Y014269D02*
X037174Y014623D01*
X037855Y014847D02*
X037855Y014269D01*
X037855Y013481D02*
X037855Y013127D01*
X037855Y028127D02*
X037855Y028481D01*
X037422Y028481D01*
X037422Y028678D01*
X037540Y028678D01*
X037540Y029072D01*
X037422Y029072D01*
X037422Y029269D01*
X037855Y029269D01*
X037855Y028481D01*
X037422Y028481D02*
X037174Y028481D01*
X037174Y028127D01*
X037174Y028481D02*
X037174Y029269D01*
X037422Y029269D01*
X037174Y029269D02*
X037174Y029623D01*
X037855Y029847D02*
X037855Y029269D01*
X033576Y029269D02*
X033576Y028481D01*
X033328Y028481D01*
X033328Y028678D01*
X033210Y028678D01*
X033210Y029072D01*
X033328Y029072D01*
X033328Y029269D01*
X032895Y029269D01*
X032895Y028481D01*
X033328Y028481D01*
X033576Y028481D02*
X033576Y028127D01*
X032895Y028127D02*
X032895Y028481D01*
X032895Y029269D02*
X032895Y029847D01*
X033576Y029623D02*
X033576Y029269D01*
X033328Y029269D01*
X027855Y029269D02*
X027855Y028481D01*
X027422Y028481D01*
X027422Y028678D01*
X027540Y028678D01*
X027540Y029072D01*
X027422Y029072D01*
X027422Y029269D01*
X027855Y029269D01*
X027855Y029847D01*
X027174Y029623D02*
X027174Y029269D01*
X027422Y029269D01*
X027174Y029269D02*
X027174Y028481D01*
X027422Y028481D01*
X027174Y028481D02*
X027174Y028127D01*
X027855Y028127D02*
X027855Y028481D01*
X023576Y028481D02*
X023576Y028127D01*
X023576Y028481D02*
X023328Y028481D01*
X023328Y028678D01*
X023210Y028678D01*
X023210Y029072D01*
X023328Y029072D01*
X023328Y029269D01*
X022895Y029269D01*
X022895Y028481D01*
X023328Y028481D01*
X023576Y028481D02*
X023576Y029269D01*
X023328Y029269D01*
X023576Y029269D02*
X023576Y029623D01*
X022895Y029847D02*
X022895Y029269D01*
X022895Y028481D02*
X022895Y028127D01*
X017855Y028127D02*
X017855Y028481D01*
X017422Y028481D01*
X017422Y028678D01*
X017540Y028678D01*
X017540Y029072D01*
X017422Y029072D01*
X017422Y029269D01*
X017855Y029269D01*
X017855Y028481D01*
X017422Y028481D02*
X017174Y028481D01*
X017174Y028127D01*
X017174Y028481D02*
X017174Y029269D01*
X017422Y029269D01*
X017174Y029269D02*
X017174Y029623D01*
X017855Y029847D02*
X017855Y029269D01*
X013576Y029269D02*
X013576Y028481D01*
X013328Y028481D01*
X013328Y028678D01*
X013210Y028678D01*
X013210Y029072D01*
X013328Y029072D01*
X013328Y029269D01*
X012895Y029269D01*
X012895Y028481D01*
X013328Y028481D01*
X013576Y028481D02*
X013576Y028127D01*
X012895Y028127D02*
X012895Y028481D01*
X012895Y029269D02*
X012895Y029847D01*
X013576Y029623D02*
X013576Y029269D01*
X013328Y029269D01*
X007855Y029269D02*
X007855Y028481D01*
X007422Y028481D01*
X007422Y028678D01*
X007540Y028678D01*
X007540Y029072D01*
X007422Y029072D01*
X007422Y029269D01*
X007855Y029269D01*
X007855Y029847D01*
X007174Y029623D02*
X007174Y029269D01*
X007422Y029269D01*
X007174Y029269D02*
X007174Y028481D01*
X007422Y028481D01*
X007174Y028481D02*
X007174Y028127D01*
X007855Y028127D02*
X007855Y028481D01*
X003576Y028481D02*
X003576Y028127D01*
X003576Y028481D02*
X003328Y028481D01*
X003328Y028678D01*
X003210Y028678D01*
X003210Y029072D01*
X003328Y029072D01*
X003328Y029269D01*
X002895Y029269D01*
X002895Y028481D01*
X003328Y028481D01*
X003576Y028481D02*
X003576Y029269D01*
X003328Y029269D01*
X003576Y029269D02*
X003576Y029623D01*
X002895Y029847D02*
X002895Y029269D01*
X002895Y028481D02*
X002895Y028127D01*
X003485Y033562D02*
X003485Y034731D01*
X003918Y034731D01*
X003918Y034928D01*
X003800Y034928D01*
X003800Y035322D01*
X003918Y035322D01*
X003918Y035519D01*
X003485Y035519D01*
X003485Y036464D01*
X004166Y036464D02*
X004166Y035519D01*
X003918Y035519D01*
X004166Y035519D02*
X004166Y034731D01*
X003918Y034731D01*
X004166Y034731D02*
X004166Y033786D01*
X003485Y034731D02*
X003485Y035519D01*
X006584Y035519D02*
X006584Y034731D01*
X006832Y034731D01*
X006832Y034928D01*
X006950Y034928D01*
X006950Y035322D01*
X006832Y035322D01*
X006832Y035519D01*
X007265Y035519D01*
X007265Y036464D01*
X006584Y036464D02*
X006584Y035519D01*
X006832Y035519D01*
X007265Y035519D02*
X007265Y034731D01*
X006832Y034731D01*
X006584Y034731D02*
X006584Y033786D01*
X007265Y033562D02*
X007265Y034731D01*
X033485Y034731D02*
X033485Y033562D01*
X034166Y033786D02*
X034166Y034731D01*
X033918Y034731D01*
X033918Y034928D01*
X033800Y034928D01*
X033800Y035322D01*
X033918Y035322D01*
X033918Y035519D01*
X033485Y035519D01*
X033485Y036464D01*
X034166Y036464D02*
X034166Y035519D01*
X033918Y035519D01*
X034166Y035519D02*
X034166Y034731D01*
X033918Y034731D02*
X033485Y034731D01*
X033485Y035519D01*
X036584Y035519D02*
X036584Y034731D01*
X036832Y034731D01*
X036832Y034928D01*
X036950Y034928D01*
X036950Y035322D01*
X036832Y035322D01*
X036832Y035519D01*
X037265Y035519D01*
X037265Y036464D01*
X036584Y036464D02*
X036584Y035519D01*
X036832Y035519D01*
X037265Y035519D02*
X037265Y034731D01*
X036832Y034731D01*
X036584Y034731D02*
X036584Y033786D01*
X037265Y033562D02*
X037265Y034731D01*
D29*
X037125Y032125D03*
X037125Y031125D03*
X021375Y028875D03*
X020375Y028875D03*
X019375Y028875D03*
X011375Y028875D03*
X010375Y028875D03*
X009375Y028875D03*
X006375Y025375D03*
X005375Y025375D03*
X004375Y025375D03*
X009375Y013875D03*
X010375Y013875D03*
X011375Y013875D03*
X014250Y010625D03*
X015250Y010625D03*
X016250Y010625D03*
D30*
X054875Y028675D03*
X054875Y029075D03*
X055875Y029075D03*
X055875Y028675D03*
X056875Y028675D03*
X056875Y029075D03*
X057875Y029075D03*
X057875Y028675D03*
X058875Y028675D03*
X058875Y029075D03*
X059875Y029075D03*
X059875Y028675D03*
D31*
X076925Y033125D03*
X077325Y033125D03*
X077325Y034125D03*
X076925Y034125D03*
X076925Y035125D03*
X077325Y035125D03*
X077325Y036125D03*
X076925Y036125D03*
X076925Y037125D03*
X077325Y037125D03*
X077325Y038125D03*
X076925Y038125D03*
D32*
X018600Y009200D03*
X018600Y004250D03*
D33*
X018600Y004300D03*
X018600Y009150D03*
D34*
X018600Y009100D03*
X018600Y004350D03*
D35*
X018600Y004400D03*
X018600Y009050D03*
D36*
X018600Y009000D03*
X018600Y004450D03*
D37*
X018600Y004500D03*
X018600Y008950D03*
D38*
X018600Y008900D03*
X018600Y004550D03*
D39*
X018600Y004600D03*
X018600Y008850D03*
D40*
X018600Y008800D03*
X018600Y004650D03*
D41*
X018600Y004700D03*
X018600Y008750D03*
D42*
X018600Y008700D03*
X018600Y004800D03*
X018600Y004750D03*
D43*
X018600Y004850D03*
X018600Y008600D03*
D44*
X018575Y008550D03*
X018575Y004900D03*
D45*
X018600Y004950D03*
D46*
X018600Y005000D03*
D47*
X018600Y005050D03*
D48*
X018600Y005100D03*
X018600Y005150D03*
X018600Y005200D03*
X018600Y005250D03*
X018600Y005300D03*
X018600Y005350D03*
X018600Y008100D03*
X018600Y008150D03*
X018600Y008200D03*
X018600Y008250D03*
X018600Y008300D03*
X018600Y008350D03*
D49*
X017400Y008050D03*
X019800Y008050D03*
X019800Y005400D03*
X017400Y005400D03*
D50*
X017375Y005450D03*
X019825Y005450D03*
X019825Y008000D03*
X017375Y008000D03*
D51*
X017350Y007950D03*
X019850Y007950D03*
X019850Y005500D03*
X017350Y005500D03*
D52*
X017325Y005550D03*
X019875Y005550D03*
X019875Y007900D03*
X017325Y007900D03*
D53*
X017300Y007850D03*
X017300Y007800D03*
X017300Y007750D03*
X017300Y007700D03*
X017300Y007650D03*
X017300Y007600D03*
X017300Y007550D03*
X017300Y007500D03*
X017300Y007450D03*
X017300Y007400D03*
X017300Y007350D03*
X017300Y007300D03*
X017300Y007250D03*
X017300Y007200D03*
X017300Y007150D03*
X017300Y007100D03*
X017300Y007050D03*
X017300Y007000D03*
X017300Y006950D03*
X017300Y006900D03*
X017300Y006850D03*
X017300Y006800D03*
X017300Y006750D03*
X017300Y006700D03*
X017300Y006650D03*
X017300Y006600D03*
X017300Y006550D03*
X017300Y006500D03*
X017300Y006450D03*
X017300Y006400D03*
X017300Y006350D03*
X017300Y006300D03*
X017300Y006250D03*
X017300Y006200D03*
X017300Y006150D03*
X017300Y006100D03*
X017300Y006050D03*
X017300Y006000D03*
X017300Y005950D03*
X017300Y005900D03*
X017300Y005850D03*
X017300Y005800D03*
X017300Y005750D03*
X017300Y005700D03*
X017300Y005650D03*
X017300Y005600D03*
X019900Y005600D03*
X019900Y005650D03*
X019900Y005700D03*
X019900Y005750D03*
X019900Y005800D03*
X019900Y005850D03*
X019900Y007500D03*
X019900Y007550D03*
X019900Y007600D03*
X019900Y007650D03*
X019900Y007700D03*
X019900Y007750D03*
X019900Y007800D03*
X019900Y007850D03*
D54*
X019600Y005900D03*
X020200Y005900D03*
D55*
X020250Y005950D03*
X019550Y005950D03*
X019900Y007350D03*
D56*
X019500Y006000D03*
X020300Y006000D03*
D57*
X019450Y006050D03*
X019900Y007300D03*
D58*
X020375Y006050D03*
D59*
X019400Y006100D03*
D60*
X020425Y006100D03*
D61*
X019350Y006150D03*
X019900Y007250D03*
D62*
X019925Y007400D03*
D63*
X019900Y007450D03*
D64*
X018575Y008400D03*
D65*
X018575Y008450D03*
D66*
X018575Y008500D03*
D67*
X018575Y008650D03*
M02*
