%
M48
M72
T01C0.0130
T02C0.0236
T03C0.0320
T04C0.0394
T05C0.0400
T06C0.0787
T07C0.0866
T08C0.0949
T09C0.1260
%
T01
X42375Y13750
X44250Y14125
X44250Y15375
X42375Y15375
X42375Y16750
X42375Y18125
X42375Y19500
X44375Y20125
X42375Y20875
X42375Y22125
X42375Y23250
X42375Y24500
X44375Y24500
X44375Y23250
X44375Y22125
X48000Y22125
X48000Y23250
X48000Y24625
X48000Y26125
X50875Y25750
X51875Y26375
X51875Y24875
X56250Y24875
X58000Y23750
X59000Y23750
X61000Y25250
X62125Y24500
X62875Y24500
X63250Y23375
X65875Y23375
X66750Y22665
X67750Y22625
X68125Y22250
X68125Y21295
X65250Y21125
X67000Y19500
X66750Y18652
X66000Y18625
X65125Y19125
X61750Y20875
X57000Y22250
X61000Y17875
X62500Y15250
X65625Y15750
X65750Y14500
X66500Y14500
X68200Y13750
X68250Y15500
X69375Y16875
X69375Y17750
X69375Y18500
X69375Y19375
X70375Y19375
X76125Y21000
X75750Y22750
X75000Y22750
X74000Y26500
X70625Y27250
X73125Y28500
X66750Y24500
X52625Y32375
X51500Y33875
X51500Y35500
X50250Y37250
X58250Y36625
X48000Y29500
X48000Y28375
X44375Y28375
X42375Y28375
X42375Y26250
X44375Y26125
X44375Y30875
X42375Y30875
X48125Y20125
X48125Y18125
X47875Y16875
X47875Y15500
X47875Y14250
X43625Y12125
X43625Y11250
X43625Y10375
X43625Y9500
X43625Y8625
X43625Y7375
X44250Y6875
X45250Y6875
X46250Y6875
X47250Y6875
X48250Y6875
X49000Y7375
X44250Y16750
X44250Y18000
X72750Y32875
T02
X24500Y23375
X22500Y23375
T03
X54875Y28875
X55875Y28875
X56875Y28875
X57875Y28875
X58875Y28875
X59875Y28875
X77125Y33125
X77125Y34125
X77125Y35125
X77125Y36125
X77125Y37125
X77125Y38125
T04
X65500Y36625
X65500Y35625
X65500Y34625
X60000Y34625
X60000Y35625
X60000Y36625
X75750Y17625
X76750Y17625
X76750Y16625
X75750Y16625
X75750Y15625
X75750Y14625
X76750Y14625
X76750Y13625
X75750Y13625
X75750Y12625
X76750Y12625
X76750Y11625
X75750Y11625
T05
X37125Y31125
X37125Y32125
X21375Y28875
X20375Y28875
X19375Y28875
X11375Y28875
X10375Y28875
X9375Y28875
X6375Y25375
X5375Y25375
X4375Y25375
X9375Y13875
X10375Y13875
X11375Y13875
X14250Y10625
X15250Y10625
X16250Y10625
T06
X14066Y17251
X14656Y24377
X28594Y24377
X29184Y17251
X41231Y14377
X52019Y14377
X59656Y14377
X73594Y14377
X74184Y7251
X59066Y7251
X52609Y7251
X40641Y7251
X40641Y31251
X52609Y31251
X52019Y38377
X41231Y38377
T07
X45050Y35700
X46625Y35700
X48200Y35700
X47412Y34125
X45838Y34125
X46625Y32550
X48200Y32550
X45050Y32550
X24775Y21700
X23200Y21700
X21625Y21700
X20050Y21700
X18475Y21700
X19263Y20125
X20838Y20125
X22412Y20125
X23987Y20125
X23200Y18550
X24775Y18550
X21625Y18550
X20050Y18550
X18475Y18550
X45050Y11700
X46625Y11700
X48200Y11700
X47412Y10125
X45838Y10125
X46625Y8550
X48200Y8550
X45050Y8550
X63475Y8550
X65050Y8550
X66625Y8550
X68200Y8550
X69775Y8550
X68987Y10125
X67412Y10125
X65838Y10125
X64263Y10125
X65050Y11700
X63475Y11700
X66625Y11700
X68200Y11700
X69775Y11700
T08
X37403Y13875
X33347Y13875
X27403Y13875
X23347Y13875
X17278Y13875
X13222Y13875
X7403Y13875
X3347Y13875
X3347Y28875
X7403Y28875
X13347Y28875
X17403Y28875
X23347Y28875
X27403Y28875
X33347Y28875
X37403Y28875
X36812Y35125
X33938Y35125
X6812Y35125
X3938Y35125
T09
X3125Y4125
X41375Y4125
X80125Y4125
X80125Y4125
X80125Y29125
X80125Y32125
X80125Y39125
X80125Y39125
X55000Y39125
X55000Y32125
X41375Y29125
X3125Y39125
M30
